<svg viewBox="0 0 394 100" fill="none" xmlns="http://www.w3.org/2000/svg">
        <g clip-path="url(#clip0_22_3989)">
            <rect width="394" height="100" rx="6" fill="#DDE1E8"/>
            <path d="M142.67 163H0V20.1851L142.67 163Z" fill="#D2DAE2"/>
            <path d="M19.4338 92.8798C19.4338 93.8956 18.6109 94.7184 17.5952 94.7184C16.5795 94.7184 15.7566 93.8956 15.7566 92.8798C15.7566 91.8641 16.5795 91.0413 17.5952 91.0413C18.6109 91.0413 19.4338 91.8641 19.4338 92.8798Z" fill="#8096AC"/>
            <path d="M29.9415 92.8798C29.9415 93.8956 29.1186 94.7184 28.1029 94.7184C27.0871 94.7184 26.2643 93.8956 26.2643 92.8798C26.2643 91.8641 27.0871 91.0413 28.1029 91.0413C29.1186 91.0413 29.9415 91.8641 29.9415 92.8798Z" fill="#8096AC"/>
            <path d="M40.446 92.8798C40.446 93.8956 39.6231 94.7184 38.6074 94.7184C37.5917 94.7184 36.7688 93.8956 36.7688 92.8798C36.7688 91.8641 37.5917 91.0413 38.6074 91.0413C39.6231 91.0413 40.446 91.8641 40.446 92.8798Z" fill="#8096AC"/>
            <path d="M50.9501 92.8798C50.9501 93.8956 50.1273 94.7184 49.1115 94.7184C48.0958 94.7184 47.2729 93.8956 47.2729 92.8798C47.2729 91.8641 48.0958 91.0413 49.1115 91.0413C50.1273 91.0413 50.9501 91.8641 50.9501 92.8798Z" fill="#8096AC"/>
            <path d="M61.4548 92.8798C61.4548 93.8956 60.6319 94.7184 59.6162 94.7184C58.6005 94.7184 57.7776 93.8956 57.7776 92.8798C57.7776 91.8641 58.6005 91.0413 59.6162 91.0413C60.6319 91.0413 61.4548 91.8641 61.4548 92.8798Z" fill="#8096AC"/>
            <path d="M71.9621 92.8798C71.9621 93.8956 71.1392 94.7184 70.1235 94.7184C69.1078 94.7184 68.2849 93.8956 68.2849 92.8798C68.2849 91.8641 69.1078 91.0413 70.1235 91.0413C71.1392 91.0413 71.9621 91.8641 71.9621 92.8798Z" fill="#8096AC"/>
            <path d="M82.4665 92.8798C82.4665 93.8956 81.6436 94.7184 80.6279 94.7184C79.6122 94.7184 78.7893 93.8956 78.7893 92.8798C78.7893 91.8641 79.6122 91.0413 80.6279 91.0413C81.6436 91.0413 82.4665 91.8641 82.4665 92.8798Z" fill="#8096AC"/>
            <path d="M92.9709 92.8798C92.9709 93.8956 92.148 94.7184 91.1323 94.7184C90.1166 94.7184 89.2937 93.8956 89.2937 92.8798C89.2937 91.8641 90.1166 91.0413 91.1323 91.0413C92.148 91.0413 92.9709 91.8641 92.9709 92.8798Z" fill="#8096AC"/>
            <path d="M103.475 92.8798C103.475 93.8956 102.652 94.7184 101.637 94.7184C100.621 94.7184 99.7981 93.8956 99.7981 92.8798C99.7981 91.8641 100.621 91.0413 101.637 91.0413C102.652 91.0413 103.475 91.8641 103.475 92.8798Z" fill="#8096AC"/>
            <path d="M17.5985 84.214C18.6139 84.214 19.4371 83.3909 19.4371 82.3754C19.4371 81.36 18.6139 80.5369 17.5985 80.5369C16.583 80.5369 15.7599 81.36 15.7599 82.3754C15.7599 83.3909 16.583 84.214 17.5985 84.214Z" fill="#8096AC"/>
            <path d="M28.1027 84.214C29.1182 84.214 29.9413 83.3909 29.9413 82.3754C29.9413 81.36 29.1182 80.5369 28.1027 80.5369C27.0873 80.5369 26.2642 81.36 26.2642 82.3754C26.2642 83.3909 27.0873 84.214 28.1027 84.214Z" fill="#8096AC"/>
            <path d="M38.6073 84.214C39.6227 84.214 40.4458 83.3909 40.4458 82.3754C40.4458 81.36 39.6227 80.5369 38.6073 80.5369C37.5918 80.5369 36.7687 81.36 36.7687 82.3754C36.7687 83.3909 37.5918 84.214 38.6073 84.214Z" fill="#8096AC"/>
            <path d="M49.1115 84.214C50.127 84.214 50.9501 83.3909 50.9501 82.3754C50.9501 81.36 50.127 80.5369 49.1115 80.5369C48.0961 80.5369 47.2729 81.36 47.2729 82.3754C47.2729 83.3909 48.0961 84.214 49.1115 84.214Z" fill="#8096AC"/>
            <path d="M59.6159 84.214C60.6313 84.214 61.4545 83.3909 61.4545 82.3754C61.4545 81.36 60.6313 80.5369 59.6159 80.5369C58.6005 80.5369 57.7773 81.36 57.7773 82.3754C57.7773 83.3909 58.6005 84.214 59.6159 84.214Z" fill="#8096AC"/>
            <path d="M70.1235 84.214C71.1389 84.214 71.9621 83.3909 71.9621 82.3754C71.9621 81.36 71.1389 80.5369 70.1235 80.5369C69.1081 80.5369 68.2849 81.36 68.2849 82.3754C68.2849 83.3909 69.1081 84.214 70.1235 84.214Z" fill="#8096AC"/>
            <path d="M80.6276 84.214C81.6431 84.214 82.4662 83.3909 82.4662 82.3754C82.4662 81.36 81.6431 80.5369 80.6276 80.5369C79.6122 80.5369 78.7891 81.36 78.7891 82.3754C78.7891 83.3909 79.6122 84.214 80.6276 84.214Z" fill="#8096AC"/>
            <path d="M91.132 84.214C92.1475 84.214 92.9706 83.3909 92.9706 82.3754C92.9706 81.36 92.1475 80.5369 91.132 80.5369C90.1166 80.5369 89.2935 81.36 89.2935 82.3754C89.2935 83.3909 90.1166 84.214 91.132 84.214Z" fill="#8096AC"/>
            <path d="M17.5985 73.7066C18.6139 73.7066 19.4371 72.8834 19.4371 71.868C19.4371 70.8526 18.6139 70.0294 17.5985 70.0294C16.583 70.0294 15.7599 70.8526 15.7599 71.868C15.7599 72.8834 16.583 73.7066 17.5985 73.7066Z" fill="#8096AC"/>
            <path d="M28.1027 73.7066C29.1182 73.7066 29.9413 72.8834 29.9413 71.868C29.9413 70.8526 29.1182 70.0294 28.1027 70.0294C27.0873 70.0294 26.2642 70.8526 26.2642 71.868C26.2642 72.8834 27.0873 73.7066 28.1027 73.7066Z" fill="#8096AC"/>
            <path d="M38.6073 73.7066C39.6227 73.7066 40.4458 72.8834 40.4458 71.868C40.4458 70.8526 39.6227 70.0294 38.6073 70.0294C37.5918 70.0294 36.7687 70.8526 36.7687 71.868C36.7687 72.8834 37.5918 73.7066 38.6073 73.7066Z" fill="#8096AC"/>
            <path d="M49.1115 73.7066C50.127 73.7066 50.9501 72.8834 50.9501 71.868C50.9501 70.8526 50.127 70.0294 49.1115 70.0294C48.0961 70.0294 47.2729 70.8526 47.2729 71.868C47.2729 72.8834 48.0961 73.7066 49.1115 73.7066Z" fill="#8096AC"/>
            <path d="M59.6159 73.7066C60.6313 73.7066 61.4545 72.8834 61.4545 71.868C61.4545 70.8526 60.6313 70.0294 59.6159 70.0294C58.6005 70.0294 57.7773 70.8526 57.7773 71.868C57.7773 72.8834 58.6005 73.7066 59.6159 73.7066Z" fill="#8096AC"/>
            <path d="M70.1235 73.7066C71.1389 73.7066 71.9621 72.8834 71.9621 71.868C71.9621 70.8526 71.1389 70.0294 70.1235 70.0294C69.1081 70.0294 68.2849 70.8526 68.2849 71.868C68.2849 72.8834 69.1081 73.7066 70.1235 73.7066Z" fill="#8096AC"/>
            <path d="M80.6276 73.7066C81.6431 73.7066 82.4662 72.8834 82.4662 71.868C82.4662 70.8526 81.6431 70.0294 80.6276 70.0294C79.6122 70.0294 78.7891 70.8526 78.7891 71.868C78.7891 72.8834 79.6122 73.7066 80.6276 73.7066Z" fill="#8096AC"/>
            <path d="M17.5985 63.2022C18.6139 63.2022 19.4371 62.379 19.4371 61.3636C19.4371 60.3482 18.6139 59.525 17.5985 59.525C16.583 59.525 15.7599 60.3482 15.7599 61.3636C15.7599 62.379 16.583 63.2022 17.5985 63.2022Z" fill="#8096AC"/>
            <path d="M28.1027 63.2022C29.1182 63.2022 29.9413 62.379 29.9413 61.3636C29.9413 60.3482 29.1182 59.525 28.1027 59.525C27.0873 59.525 26.2642 60.3482 26.2642 61.3636C26.2642 62.379 27.0873 63.2022 28.1027 63.2022Z" fill="#8096AC"/>
            <path d="M38.6073 63.2022C39.6227 63.2022 40.4458 62.379 40.4458 61.3636C40.4458 60.3482 39.6227 59.525 38.6073 59.525C37.5918 59.525 36.7687 60.3482 36.7687 61.3636C36.7687 62.379 37.5918 63.2022 38.6073 63.2022Z" fill="#8096AC"/>
            <path d="M49.1115 63.2022C50.127 63.2022 50.9501 62.379 50.9501 61.3636C50.9501 60.3482 50.127 59.525 49.1115 59.525C48.0961 59.525 47.2729 60.3482 47.2729 61.3636C47.2729 62.379 48.0961 63.2022 49.1115 63.2022Z" fill="#8096AC"/>
            <path d="M59.6159 63.2022C60.6313 63.2022 61.4545 62.379 61.4545 61.3636C61.4545 60.3482 60.6313 59.525 59.6159 59.525C58.6005 59.525 57.7773 60.3482 57.7773 61.3636C57.7773 62.379 58.6005 63.2022 59.6159 63.2022Z" fill="#8096AC"/>
            <path d="M70.1235 63.2022C71.1389 63.2022 71.9621 62.379 71.9621 61.3636C71.9621 60.3482 71.1389 59.525 70.1235 59.525C69.1081 59.525 68.2849 60.3482 68.2849 61.3636C68.2849 62.379 69.1081 63.2022 70.1235 63.2022Z" fill="#8096AC"/>
            <path d="M17.5985 52.6978C18.6139 52.6978 19.4371 51.8746 19.4371 50.8592C19.4371 49.8438 18.6139 49.0206 17.5985 49.0206C16.583 49.0206 15.7599 49.8438 15.7599 50.8592C15.7599 51.8746 16.583 52.6978 17.5985 52.6978Z" fill="#8096AC"/>
            <path d="M28.1027 52.6978C29.1182 52.6978 29.9413 51.8746 29.9413 50.8592C29.9413 49.8438 29.1182 49.0206 28.1027 49.0206C27.0873 49.0206 26.2642 49.8438 26.2642 50.8592C26.2642 51.8746 27.0873 52.6978 28.1027 52.6978Z" fill="#8096AC"/>
            <path d="M38.6073 52.6978C39.6227 52.6978 40.4458 51.8746 40.4458 50.8592C40.4458 49.8438 39.6227 49.0206 38.6073 49.0206C37.5918 49.0206 36.7687 49.8438 36.7687 50.8592C36.7687 51.8746 37.5918 52.6978 38.6073 52.6978Z" fill="#8096AC"/>
            <path d="M49.1115 52.6978C50.127 52.6978 50.9501 51.8746 50.9501 50.8592C50.9501 49.8438 50.127 49.0206 49.1115 49.0206C48.0961 49.0206 47.2729 49.8438 47.2729 50.8592C47.2729 51.8746 48.0961 52.6978 49.1115 52.6978Z" fill="#8096AC"/>
            <path d="M59.6159 52.6978C60.6313 52.6978 61.4545 51.8746 61.4545 50.8592C61.4545 49.8438 60.6313 49.0206 59.6159 49.0206C58.6005 49.0206 57.7773 49.8438 57.7773 50.8592C57.7773 51.8746 58.6005 52.6978 59.6159 52.6978Z" fill="#8096AC"/>
            <path d="M17.5985 42.1935C18.6139 42.1935 19.4371 41.3704 19.4371 40.3549C19.4371 39.3395 18.6139 38.5164 17.5985 38.5164C16.583 38.5164 15.7599 39.3395 15.7599 40.3549C15.7599 41.3704 16.583 42.1935 17.5985 42.1935Z" fill="#8096AC"/>
            <path d="M28.1027 42.1935C29.1182 42.1935 29.9413 41.3704 29.9413 40.3549C29.9413 39.3395 29.1182 38.5164 28.1027 38.5164C27.0873 38.5164 26.2642 39.3395 26.2642 40.3549C26.2642 41.3704 27.0873 42.1935 28.1027 42.1935Z" fill="#8096AC"/>
            <path d="M38.6073 42.1935C39.6227 42.1935 40.4458 41.3704 40.4458 40.3549C40.4458 39.3395 39.6227 38.5164 38.6073 38.5164C37.5918 38.5164 36.7687 39.3395 36.7687 40.3549C36.7687 41.3704 37.5918 42.1935 38.6073 42.1935Z" fill="#8096AC"/>
            <path d="M49.1115 42.1935C50.127 42.1935 50.9501 41.3704 50.9501 40.3549C50.9501 39.3395 50.127 38.5164 49.1115 38.5164C48.0961 38.5164 47.2729 39.3395 47.2729 40.3549C47.2729 41.3704 48.0961 42.1935 49.1115 42.1935Z" fill="#8096AC"/>
            <path d="M17.5985 31.6891C18.6139 31.6891 19.4371 30.866 19.4371 29.8505C19.4371 28.8351 18.6139 28.012 17.5985 28.012C16.583 28.012 15.7599 28.8351 15.7599 29.8505C15.7599 30.866 16.583 31.6891 17.5985 31.6891Z" fill="#8096AC"/>
            <path d="M28.1027 31.6891C29.1182 31.6891 29.9413 30.866 29.9413 29.8505C29.9413 28.8351 29.1182 28.012 28.1027 28.012C27.0873 28.012 26.2642 28.8351 26.2642 29.8505C26.2642 30.866 27.0873 31.6891 28.1027 31.6891Z" fill="#8096AC"/>
            <path d="M38.6073 31.6891C39.6227 31.6891 40.4458 30.866 40.4458 29.8505C40.4458 28.8351 39.6227 28.012 38.6073 28.012C37.5918 28.012 36.7687 28.8351 36.7687 29.8505C36.7687 30.866 37.5918 31.6891 38.6073 31.6891Z" fill="#8096AC"/>
            <path d="M17.5985 21.1816C18.6139 21.1816 19.4371 20.3584 19.4371 19.343C19.4371 18.3276 18.6139 17.5044 17.5985 17.5044C16.583 17.5044 15.7599 18.3276 15.7599 19.343C15.7599 20.3584 16.583 21.1816 17.5985 21.1816Z" fill="#8096AC"/>
            <path d="M28.1027 21.1816C29.1182 21.1816 29.9413 20.3584 29.9413 19.343C29.9413 18.3276 29.1182 17.5044 28.1027 17.5044C27.0873 17.5044 26.2642 18.3276 26.2642 19.343C26.2642 20.3584 27.0873 21.1816 28.1027 21.1816Z" fill="#8096AC"/>
            <path d="M17.5985 10.6772C18.6139 10.6772 19.4371 9.85401 19.4371 8.83858C19.4371 7.82316 18.6139 7 17.5985 7C16.583 7 15.7599 7.82316 15.7599 8.83858C15.7599 9.85401 16.583 10.6772 17.5985 10.6772Z" fill="#8096AC"/>
            <g filter="url(#filter0_d_22_3989)">
                <g filter="url(#filter1_d_22_3989)">
                    <path d="M273.014 117.799C273.014 121.967 270.889 126 267.709 126H93.9808C90.8016 126 88.2253 121.967 88.2253 117.799V5.54678C88.2253 1.37894 90.8016 -2 93.9808 -2H267.708C270.889 -2 273.014 1.37894 273.014 5.54678V117.799Z" fill="white"/>
                </g>
                <path d="M99.9436 48.9718C99.9436 46.2104 102.182 43.9718 104.944 43.9718H250.887C253.649 43.9718 255.887 46.2104 255.887 48.9718V104.775C255.887 107.536 253.649 109.775 250.887 109.775H104.944C102.182 109.775 99.9436 107.536 99.9436 104.775V48.9718Z" fill="#F1F1F1"/>
                <path d="M169.352 13.0106H255.887V15.8252H169.352V13.0106ZM169.352 19.578H255.887V22.3926H169.352V19.578ZM169.352 26.1454H227.944V28.96H169.352V26.1454Z" fill="#DADADA"/>
                <circle cx="95.4366" cy="62" r="23.4366" fill="#D7EBFF"/>
                <path d="M99.6368 62.6068H108.082C108.881 62.6068 109.529 63.2478 109.529 64.0393V73.7609C109.529 74.5524 108.88 75.1934 108.082 75.1934H96.1449C95.3451 75.1934 94.6973 74.5507 94.6973 73.7609V67.1299" stroke="#4C4C4C" stroke-width="1.2" stroke-linecap="round" stroke-linejoin="round"/>
                <path d="M104.523 51.2026V59.0715" stroke="#4C4C4C" stroke-width="1.2" stroke-linecap="round" stroke-linejoin="round"/>
                <path d="M100.243 52.4787V51.1182H108.805V52.4787" stroke="#4C4C4C" stroke-width="1.2" stroke-linecap="round" stroke-linejoin="round"/>
                <path d="M102.759 59.0724H106.29" stroke="#4C4C4C" stroke-width="1.2" stroke-linecap="round" stroke-linejoin="round"/>
                <path d="M82.9895 68.1166H91.3549" stroke="#4C4C4C" stroke-width="1.2" stroke-linecap="round" stroke-linejoin="round"/>
                <path d="M82.9895 70.8208H91.3549" stroke="#4C4C4C" stroke-width="1.2" stroke-linecap="round" stroke-linejoin="round"/>
                <path d="M82.9895 73.5267H91.3549" stroke="#4C4C4C" stroke-width="1.2" stroke-linecap="round" stroke-linejoin="round"/>
                <path d="M97.0025 48.8054H81.5492C80.9386 48.8054 80.4436 49.2952 80.4436 49.8994V64.3992C80.4436 65.0034 80.9386 65.4932 81.5492 65.4932H97.0025C97.6131 65.4932 98.1081 65.0034 98.1081 64.3992V49.8994C98.1081 49.2952 97.6131 48.8054 97.0025 48.8054Z" stroke="#4C4C4C" stroke-width="1.2" stroke-linecap="round" stroke-linejoin="round"/>
                <path d="M85.9031 61.6199L91.041 54.8074L96.1805 61.6199" stroke="#4C4C4C" stroke-width="1.2" stroke-linecap="round" stroke-linejoin="round"/>
                <path d="M88.0363 56.8302L87.0878 55.7722L82.3696 61.6199" stroke="#4C4C4C" stroke-width="1.2" stroke-linecap="round" stroke-linejoin="round"/>
                <path d="M94.4395 54.572C95.2335 54.572 95.8772 53.9336 95.8772 53.146C95.8772 52.3585 95.2335 51.7201 94.4395 51.7201C93.6454 51.7201 93.0017 52.3585 93.0017 53.146C93.0017 53.9336 93.6454 54.572 94.4395 54.572Z" stroke="#4C4C4C" stroke-width="1.2" stroke-linecap="round" stroke-linejoin="round"/>
                <path d="M104.646 19.94H106.278L107.849 22.9076H107.916L109.488 19.94H111.12L108.606 24.3949V26.8309H107.159V24.3949L104.646 19.94ZM117.831 23.3854C117.831 24.1369 117.689 24.7762 117.404 25.3033C117.121 25.8305 116.736 26.2331 116.247 26.5113C115.76 26.7872 115.213 26.9251 114.605 26.9251C113.992 26.9251 113.443 26.7861 112.956 26.5079C112.469 26.2298 112.084 25.8271 111.802 25.3C111.519 24.7728 111.378 24.1347 111.378 23.3854C111.378 22.634 111.519 21.9947 111.802 21.4675C112.084 20.9404 112.469 20.5389 112.956 20.263C113.443 19.9848 113.992 19.8457 114.605 19.8457C115.213 19.8457 115.76 19.9848 116.247 20.263C116.736 20.5389 117.121 20.9404 117.404 21.4675C117.689 21.9947 117.831 22.634 117.831 23.3854ZM116.354 23.3854C116.354 22.8987 116.281 22.4882 116.136 22.1539C115.992 21.8197 115.789 21.5662 115.527 21.3935C115.264 21.2208 114.957 21.1344 114.605 21.1344C114.252 21.1344 113.945 21.2208 113.683 21.3935C113.42 21.5662 113.216 21.8197 113.07 22.1539C112.927 22.4882 112.855 22.8987 112.855 23.3854C112.855 23.8722 112.927 24.2827 113.07 24.6169C113.216 24.9512 113.42 25.2046 113.683 25.3774C113.945 25.5501 114.252 25.6365 114.605 25.6365C114.957 25.6365 115.264 25.5501 115.527 25.3774C115.789 25.2046 115.992 24.9512 116.136 24.6169C116.281 24.2827 116.354 23.8722 116.354 23.3854ZM123.167 19.94H124.624V24.4151C124.624 24.9175 124.504 25.3572 124.264 25.734C124.026 26.1109 123.693 26.4047 123.265 26.6156C122.836 26.8242 122.337 26.9285 121.767 26.9285C121.195 26.9285 120.695 26.8242 120.267 26.6156C119.838 26.4047 119.505 26.1109 119.267 25.734C119.03 25.3572 118.911 24.9175 118.911 24.4151V19.94H120.368V24.2906C120.368 24.553 120.425 24.7863 120.539 24.9904C120.656 25.1945 120.82 25.3549 121.03 25.4716C121.241 25.5882 121.487 25.6465 121.767 25.6465C122.05 25.6465 122.296 25.5882 122.504 25.4716C122.715 25.3549 122.878 25.1945 122.992 24.9904C123.109 24.7863 123.167 24.553 123.167 24.2906V19.94ZM125.823 26.8309V19.94H128.541C129.062 19.94 129.506 20.033 129.874 20.2192C130.244 20.4032 130.525 20.6645 130.718 21.0032C130.913 21.3397 131.011 21.7356 131.011 22.191C131.011 22.6486 130.912 23.0422 130.715 23.372C130.518 23.6995 130.232 23.9507 129.857 24.1257C129.485 24.3007 129.034 24.3881 128.504 24.3881H126.684V23.2172H128.269C128.547 23.2172 128.778 23.1791 128.962 23.1028C129.146 23.0265 129.283 22.9121 129.372 22.7596C129.464 22.6071 129.51 22.4175 129.51 22.191C129.51 21.9622 129.464 21.7692 129.372 21.6122C129.283 21.4552 129.145 21.3363 128.959 21.2556C128.775 21.1726 128.542 21.1311 128.262 21.1311H127.28V26.8309H125.823ZM129.544 23.695L131.257 26.8309H129.648L127.973 23.695H129.544ZM105.05 37.8309V30.94H106.507V36.6297H109.461V37.8309H105.05ZM116.49 34.3854C116.49 35.1369 116.347 35.7762 116.062 36.3033C115.78 36.8305 115.394 37.2331 114.905 37.5113C114.418 37.7872 113.871 37.9251 113.263 37.9251C112.651 37.9251 112.101 37.7861 111.614 37.5079C111.127 37.2298 110.743 36.8271 110.46 36.3C110.177 35.7728 110.036 35.1347 110.036 34.3854C110.036 33.634 110.177 32.9947 110.46 32.4675C110.743 31.9404 111.127 31.5389 111.614 31.263C112.101 30.9848 112.651 30.8457 113.263 30.8457C113.871 30.8457 114.418 30.9848 114.905 31.263C115.394 31.5389 115.78 31.9404 116.062 32.4675C116.347 32.9947 116.49 33.634 116.49 34.3854ZM115.013 34.3854C115.013 33.8987 114.94 33.4882 114.794 33.1539C114.65 32.8197 114.447 32.5662 114.185 32.3935C113.922 32.2208 113.615 32.1344 113.263 32.1344C112.911 32.1344 112.603 32.2208 112.341 32.3935C112.079 32.5662 111.874 32.8197 111.729 33.1539C111.585 33.4882 111.513 33.8987 111.513 34.3854C111.513 34.8722 111.585 35.2827 111.729 35.6169C111.874 35.9512 112.079 36.2046 112.341 36.3774C112.603 36.5501 112.911 36.6365 113.263 36.6365C113.615 36.6365 113.922 36.5501 114.185 36.3774C114.447 36.2046 114.65 35.9512 114.794 35.6169C114.94 35.2827 115.013 34.8722 115.013 34.3854ZM122.138 33.1674C122.091 33.0037 122.025 32.859 121.94 32.7334C121.855 32.6055 121.75 32.4978 121.627 32.4103C121.506 32.3206 121.367 32.2522 121.21 32.2051C121.055 32.158 120.883 32.1344 120.695 32.1344C120.343 32.1344 120.033 32.2219 119.766 32.3969C119.501 32.5718 119.295 32.8264 119.147 33.1607C118.999 33.4927 118.925 33.8987 118.925 34.3787C118.925 34.8587 118.998 35.267 119.144 35.6035C119.289 35.94 119.496 36.1968 119.763 36.374C120.03 36.549 120.345 36.6365 120.708 36.6365C121.038 36.6365 121.32 36.5781 121.553 36.4615C121.788 36.3426 121.968 36.1755 122.091 35.9601C122.217 35.7448 122.28 35.4902 122.28 35.1963L122.576 35.2401H120.799V34.1432H123.683V35.0113C123.683 35.6169 123.555 36.1373 123.299 36.5725C123.043 37.0055 122.691 37.3397 122.243 37.5752C121.794 37.8085 121.28 37.9251 120.702 37.9251C120.055 37.9251 119.488 37.7827 118.999 37.4978C118.51 37.2107 118.129 36.8036 117.855 36.2764C117.584 35.747 117.448 35.119 117.448 34.3922C117.448 33.8336 117.529 33.3356 117.69 32.8982C117.854 32.4586 118.083 32.0862 118.376 31.7811C118.67 31.4761 119.012 31.2439 119.403 31.0846C119.793 30.9254 120.216 30.8457 120.671 30.8457C121.062 30.8457 121.425 30.9029 121.761 31.0173C122.098 31.1295 122.396 31.2888 122.656 31.4951C122.919 31.7015 123.133 31.9471 123.299 32.232C123.465 32.5146 123.572 32.8264 123.619 33.1674H122.138ZM131.109 34.3854C131.109 35.1369 130.967 35.7762 130.682 36.3033C130.4 36.8305 130.014 37.2331 129.525 37.5113C129.038 37.7872 128.491 37.9251 127.883 37.9251C127.27 37.9251 126.721 37.7861 126.234 37.5079C125.747 37.2298 125.363 36.8271 125.08 36.3C124.797 35.7728 124.656 35.1347 124.656 34.3854C124.656 33.634 124.797 32.9947 125.08 32.4675C125.363 31.9404 125.747 31.5389 126.234 31.263C126.721 30.9848 127.27 30.8457 127.883 30.8457C128.491 30.8457 129.038 30.9848 129.525 31.263C130.014 31.5389 130.4 31.9404 130.682 32.4675C130.967 32.9947 131.109 33.634 131.109 34.3854ZM129.632 34.3854C129.632 33.8987 129.559 33.4882 129.414 33.1539C129.27 32.8197 129.067 32.5662 128.805 32.3935C128.542 32.2208 128.235 32.1344 127.883 32.1344C127.531 32.1344 127.223 32.2208 126.961 32.3935C126.698 32.5662 126.494 32.8197 126.348 33.1539C126.205 33.4882 126.133 33.8987 126.133 34.3854C126.133 34.8722 126.205 35.2827 126.348 35.6169C126.494 35.9512 126.698 36.2046 126.961 36.3774C127.223 36.5501 127.531 36.6365 127.883 36.6365C128.235 36.6365 128.542 36.5501 128.805 36.3774C129.067 36.2046 129.27 35.9512 129.414 35.6169C129.559 35.2827 129.632 34.8722 129.632 34.3854Z" fill="#4C4C4C"/>
            </g>
            <g filter="url(#filter2_d_22_3989)">
                <rect x="228.845" y="28.6473" width="88.4709" height="75.7183" rx="5" fill="white"/>
            </g>
            <rect x="236.816" y="50.9642" width="33.4755" height="19.1288" fill="#F1F1F1"/>
            <rect x="236.816" y="50.9642" width="33.4755" height="19.1288" fill="#F1F1F1"/>
            <rect x="236.816" y="50.9642" width="33.4755" height="19.1288" fill="#F1F1F1"/>
            <rect x="236.816" y="50.9642" width="33.4755" height="19.1288" fill="#F1F1F1"/>
            <rect x="236.816" y="50.9642" width="33.4755" height="19.1288" fill="#F6F6F6"/>
            <rect x="276.02" y="51.1142" width="33.1755" height="18.8288" rx="1.85" fill="#EBEBEB"/>
            <rect x="276.02" y="51.1142" width="33.1755" height="18.8288" rx="1.85" fill="#EBEBEB"/>
            <rect x="276.02" y="51.1142" width="33.1755" height="18.8288" rx="1.85" fill="#EBEBEB"/>
            <rect x="276.02" y="51.1142" width="33.1755" height="18.8288" rx="1.85" fill="#EBEBEB"/>
            <rect x="276.02" y="51.1142" width="33.1755" height="18.8288" rx="1.85" fill="#DDEEFF"/>
            <rect x="276.02" y="51.1142" width="33.1755" height="18.8288" rx="1.85" stroke="#7596B7" stroke-width="0.3"/>
            <path d="M286.057 57.0532C286.057 56.6612 286.375 56.3434 286.767 56.3434H290.553C290.945 56.3434 291.263 56.6612 291.263 57.0532V59.4194C291.263 59.8115 290.945 60.1293 290.553 60.1293H286.767C286.375 60.1293 286.057 59.8115 286.057 59.4194V57.0532Z" stroke="#7596B7" stroke-linecap="round" stroke-linejoin="round"/>
            <path d="M293.629 57.9997C293.629 57.6077 293.947 57.2899 294.339 57.2899H297.652C298.044 57.2899 298.362 57.6077 298.362 57.9997V63.2054C298.362 63.5974 298.044 63.9152 297.652 63.9152H294.339C293.947 63.9152 293.629 63.5974 293.629 63.2054V57.9997Z" stroke="#7596B7" stroke-linecap="round" stroke-linejoin="round"/>
            <path d="M287.004 62.7321C287.004 62.3401 287.322 62.0223 287.714 62.0223H291.026C291.418 62.0223 291.736 62.3401 291.736 62.7321V64.1518C291.736 64.5439 291.418 64.8617 291.026 64.8617H287.714C287.322 64.8617 287.004 64.5439 287.004 64.1518V62.7321Z" stroke="#7596B7" stroke-linecap="round" stroke-linejoin="round"/>
            <rect x="236.816" y="75.672" width="33.4755" height="19.1288" fill="#EBEBEB"/>
            <rect x="236.816" y="75.672" width="33.4755" height="19.1288" fill="#EBEBEB"/>
            <rect x="236.816" y="75.672" width="33.4755" height="19.1288" fill="#EBEBEB"/>
            <rect x="236.816" y="75.672" width="33.4755" height="19.1288" fill="#EBEBEB"/>
            <rect x="236.816" y="75.672" width="33.4755" height="19.1288" fill="#F6F6F6"/>
            <rect x="275.87" y="75.672" width="33.4755" height="19.1288" fill="#EBEBEB"/>
            <rect x="275.87" y="75.672" width="33.4755" height="19.1288" fill="#EBEBEB"/>
            <rect x="275.87" y="75.672" width="33.4755" height="19.1288" fill="#EBEBEB"/>
            <rect x="275.87" y="75.672" width="33.4755" height="19.1288" fill="#EBEBEB"/>
            <rect x="275.87" y="75.672" width="33.4755" height="19.1288" fill="#F6F6F6"/>
            <path d="M288.114 41.3988V36.7615H288.954V38.8922H289.011L290.82 36.7615H291.846L290.053 38.8424L291.862 41.3988H290.852L289.468 39.4107L288.954 40.0175V41.3988H288.114Z" fill="#7596B7"/>
            <path d="M287.154 38.3262H286.307C286.283 38.1873 286.238 38.0642 286.173 37.9571C286.108 37.8484 286.028 37.7563 285.931 37.6808C285.834 37.6054 285.724 37.5487 285.6 37.511C285.478 37.4718 285.346 37.4521 285.204 37.4521C284.952 37.4521 284.729 37.5155 284.534 37.6423C284.339 37.7676 284.187 37.9518 284.077 38.1948C283.966 38.4364 283.911 38.7315 283.911 39.0802C283.911 39.4349 283.966 39.7338 284.077 39.9768C284.188 40.2184 284.341 40.401 284.534 40.5248C284.729 40.6471 284.951 40.7082 285.202 40.7082C285.341 40.7082 285.471 40.6901 285.591 40.6539C285.714 40.6161 285.823 40.561 285.92 40.4886C286.018 40.4161 286.1 40.327 286.166 40.2214C286.234 40.1157 286.281 39.9949 286.307 39.8591L287.154 39.8636C287.122 40.084 287.053 40.2908 286.948 40.484C286.844 40.6773 286.707 40.8478 286.538 40.9958C286.369 41.1422 286.171 41.2569 285.945 41.3399C285.718 41.4215 285.467 41.4622 285.191 41.4622C284.783 41.4622 284.419 41.3679 284.099 41.1792C283.779 40.9905 283.527 40.718 283.343 40.3618C283.159 40.0055 283.067 39.5783 283.067 39.0802C283.067 38.5805 283.159 38.1533 283.345 37.7986C283.531 37.4423 283.784 37.1699 284.104 36.9812C284.424 36.7925 284.786 36.6981 285.191 36.6981C285.449 36.6981 285.689 36.7343 285.911 36.8068C286.133 36.8793 286.33 36.9857 286.504 37.1261C286.677 37.265 286.82 37.4355 286.932 37.6378C287.045 37.8386 287.119 38.068 287.154 38.3262Z" fill="#7596B7"/>
            <path d="M282.199 39.0802C282.199 39.5798 282.105 40.0078 281.918 40.364C281.732 40.7188 281.479 40.9905 281.157 41.1792C280.837 41.3679 280.474 41.4622 280.068 41.4622C279.662 41.4622 279.298 41.3679 278.977 41.1792C278.657 40.989 278.403 40.7165 278.216 40.3618C278.03 40.0055 277.938 39.5783 277.938 39.0802C277.938 38.5805 278.03 38.1533 278.216 37.7986C278.403 37.4423 278.657 37.1699 278.977 36.9812C279.298 36.7925 279.662 36.6981 280.068 36.6981C280.474 36.6981 280.837 36.7925 281.157 36.9812C281.479 37.1699 281.732 37.4423 281.918 37.7986C282.105 38.1533 282.199 38.5805 282.199 39.0802ZM281.354 39.0802C281.354 38.7284 281.299 38.4318 281.189 38.1903C281.08 37.9473 280.929 37.7639 280.736 37.6401C280.543 37.5148 280.32 37.4521 280.068 37.4521C279.816 37.4521 279.593 37.5148 279.4 37.6401C279.207 37.7639 279.055 37.9473 278.945 38.1903C278.836 38.4318 278.782 38.7284 278.782 39.0802C278.782 39.4319 278.836 39.7293 278.945 39.9723C279.055 40.2138 279.207 40.3972 279.4 40.5225C279.593 40.6463 279.816 40.7082 280.068 40.7082C280.32 40.7082 280.543 40.6463 280.736 40.5225C280.929 40.3972 281.08 40.2138 281.189 39.9723C281.299 39.7293 281.354 39.4319 281.354 39.0802Z" fill="#7596B7"/>
            <path d="M274.433 41.3988V36.7615H275.273V40.6946H277.316V41.3988H274.433Z" fill="#7596B7"/>
            <path d="M270.051 41.3988V36.7615H271.826C272.161 36.7615 272.44 36.8143 272.662 36.92C272.885 37.0241 273.052 37.1668 273.162 37.3479C273.274 37.5291 273.33 37.7344 273.33 37.9638C273.33 38.1525 273.294 38.314 273.221 38.4484C273.149 38.5812 273.051 38.6892 272.929 38.7722C272.807 38.8552 272.67 38.9148 272.519 38.9511V38.9963C272.684 39.0054 272.841 39.056 272.992 39.1481C273.145 39.2386 273.269 39.3669 273.366 39.533C273.463 39.699 273.511 39.8998 273.511 40.1353C273.511 40.3753 273.453 40.5912 273.337 40.7829C273.22 40.9731 273.045 41.1233 272.811 41.2335C272.577 41.3437 272.283 41.3988 271.928 41.3988H270.051ZM270.891 40.6968H271.795C272.099 40.6968 272.319 40.6387 272.453 40.5225C272.589 40.4047 272.657 40.2538 272.657 40.0696C272.657 39.9323 272.623 39.8085 272.555 39.6983C272.487 39.5866 272.391 39.499 272.266 39.4356C272.14 39.3707 271.991 39.3383 271.817 39.3383H270.891V40.6968ZM270.891 38.7337H271.722C271.867 38.7337 271.998 38.7073 272.114 38.6544C272.23 38.6001 272.321 38.5239 272.388 38.4257C272.456 38.3261 272.49 38.2084 272.49 38.0725C272.49 37.8929 272.426 37.7449 272.299 37.6287C272.174 37.5125 271.988 37.4544 271.74 37.4544H270.891V38.7337Z" fill="#7596B7"/>
            <path d="M265.038 41.3988H263.467V36.7615H265.07C265.53 36.7615 265.926 36.8543 266.256 37.04C266.588 37.2241 266.843 37.4891 267.022 37.8348C267.2 38.1804 267.289 38.5941 267.289 39.0756C267.289 39.5586 267.199 39.9738 267.019 40.321C266.841 40.6682 266.584 40.9346 266.247 41.1203C265.912 41.3059 265.509 41.3988 265.038 41.3988ZM264.307 40.6719H264.997C265.32 40.6719 265.59 40.6131 265.806 40.4953C266.021 40.3761 266.184 40.1987 266.292 39.9632C266.401 39.7262 266.455 39.4303 266.455 39.0756C266.455 38.7209 266.401 38.4265 266.292 38.1925C266.184 37.957 266.023 37.7812 265.81 37.6649C265.599 37.5472 265.336 37.4883 265.022 37.4883H264.307V40.6719Z" fill="#7596B7"/>
            <path d="M260.226 41.3988H258.655V36.7615H260.258C260.719 36.7615 261.114 36.8543 261.445 37.04C261.777 37.2241 262.032 37.4891 262.21 37.8348C262.388 38.1804 262.477 38.5941 262.477 39.0756C262.477 39.5586 262.387 39.9738 262.208 40.321C262.03 40.6682 261.772 40.9346 261.436 41.1203C261.1 41.3059 260.697 41.3988 260.226 41.3988ZM259.495 40.6719H260.186C260.509 40.6719 260.778 40.6131 260.994 40.4953C261.21 40.3761 261.372 40.1987 261.481 39.9632C261.59 39.7262 261.644 39.4303 261.644 39.0756C261.644 38.7209 261.59 38.4265 261.481 38.1925C261.372 37.957 261.211 37.7812 260.999 37.6649C260.787 37.5472 260.525 37.4883 260.211 37.4883H259.495V40.6719Z" fill="#7596B7"/>
            <path d="M254.445 41.3988H253.548L255.181 36.7615H256.218L257.853 41.3988H256.956L255.718 37.7125H255.681L254.445 41.3988ZM254.474 39.5805H256.92V40.2553H254.474V39.5805Z" fill="#7596B7"/>
            <rect x="241.301" y="55.4507" width="9.36145" height="10.9555" rx="1.5" stroke="#D7D7D7"/>
            <rect x="241.301" y="79.361" width="9.36145" height="10.9555" rx="1.5" stroke="#D7D7D7"/>
            <rect x="254.85" y="79.361" width="9.36145" height="10.9555" rx="1.5" stroke="#D7D7D7"/>
            <rect x="253.553" y="62.1233" width="12.7526" height="0.797035" fill="#D9D9D9"/>
            <rect x="253.553" y="65.3116" width="12.7526" height="0.797035" fill="#D9D9D9"/>
            <rect x="253.553" y="55.7465" width="12.7526" height="0.797035" fill="#D9D9D9"/>
            <rect x="253.553" y="58.9348" width="12.7526" height="0.797035" fill="#D9D9D9"/>
            <rect x="280.355" y="79.361" width="24.5051" height="2.98517" rx="0.5" stroke="#D7D7D7"/>
            <rect x="280.355" y="84.9402" width="24.5051" height="5.37628" rx="0.5" stroke="#D7D7D7"/>
            <circle cx="273.5" cy="16.5" r="18.5" fill="#D7EBFF"/>
            <g clip-path="url(#clip1_22_3989)">
                <path d="M277.384 14.9461L278.367 16.5081L279.148 16.0163L279.773 13.2655L281.822 13.1869C282.266 13.1703 282.711 13.0406 283.113 12.7872C284.333 12.0191 284.7 10.4073 283.931 9.18733C283.163 7.96732 281.552 7.60102 280.332 8.36917C279.929 8.62253 279.62 8.96765 279.413 9.36022L278.456 11.1744L275.706 10.5493L274.925 11.041L275.908 12.603M277.384 14.9461L268.564 20.4993C268.21 20.7219 267.783 20.795 267.375 20.7024C266.968 20.6098 266.54 20.6828 266.187 20.9055L265.177 21.5413L264.685 20.7602L265.695 20.1245C266.048 19.9018 266.299 19.5478 266.392 19.1404C266.484 18.7329 266.735 18.3789 267.089 18.1563L275.908 12.603M277.384 14.9461L275.908 12.603" stroke="#616161" stroke-width="1.2" stroke-linecap="round" stroke-linejoin="round"/>
            </g>
        </g>
        <defs>
            <filter id="filter0_d_22_3989" x="68" y="-2" width="209.014" height="136" filterUnits="userSpaceOnUse" color-interpolation-filters="sRGB">
                <feFlood flood-opacity="0" result="BackgroundImageFix"/>
                <feColorMatrix in="SourceAlpha" type="matrix" values="0 0 0 0 0 0 0 0 0 0 0 0 0 0 0 0 0 0 127 0" result="hardAlpha"/>
                <feOffset dy="4"/>
                <feGaussianBlur stdDeviation="2"/>
                <feComposite in2="hardAlpha" operator="out"/>
                <feColorMatrix type="matrix" values="0 0 0 0 0.061902 0 0 0 0 0.460113 0 0 0 0 0.946815 0 0 0 0.1 0"/>
                <feBlend mode="normal" in2="BackgroundImageFix" result="effect1_dropShadow_22_3989"/>
                <feBlend mode="normal" in="SourceGraphic" in2="effect1_dropShadow_22_3989" result="shape"/>
            </filter>
            <filter id="filter1_d_22_3989" x="83.2253" y="-3" width="194.789" height="138" filterUnits="userSpaceOnUse" color-interpolation-filters="sRGB">
                <feFlood flood-opacity="0" result="BackgroundImageFix"/>
                <feColorMatrix in="SourceAlpha" type="matrix" values="0 0 0 0 0 0 0 0 0 0 0 0 0 0 0 0 0 0 127 0" result="hardAlpha"/>
                <feMorphology radius="1" operator="dilate" in="SourceAlpha" result="effect1_dropShadow_22_3989"/>
                <feOffset dy="4"/>
                <feGaussianBlur stdDeviation="2"/>
                <feComposite in2="hardAlpha" operator="out"/>
                <feColorMatrix type="matrix" values="0 0 0 0 0.760077 0 0 0 0 0.858475 0 0 0 0 0.932274 0 0 0 0.37 0"/>
                <feBlend mode="normal" in2="BackgroundImageFix" result="effect1_dropShadow_22_3989"/>
                <feBlend mode="normal" in="SourceGraphic" in2="effect1_dropShadow_22_3989" result="shape"/>
            </filter>
            <filter id="filter2_d_22_3989" x="223.845" y="27.6473" width="98.4709" height="85.7183" filterUnits="userSpaceOnUse" color-interpolation-filters="sRGB">
                <feFlood flood-opacity="0" result="BackgroundImageFix"/>
                <feColorMatrix in="SourceAlpha" type="matrix" values="0 0 0 0 0 0 0 0 0 0 0 0 0 0 0 0 0 0 127 0" result="hardAlpha"/>
                <feMorphology radius="1" operator="dilate" in="SourceAlpha" result="effect1_dropShadow_22_3989"/>
                <feOffset dy="4"/>
                <feGaussianBlur stdDeviation="2"/>
                <feComposite in2="hardAlpha" operator="out"/>
                <feColorMatrix type="matrix" values="0 0 0 0 0.760077 0 0 0 0 0.858475 0 0 0 0 0.932274 0 0 0 0.37 0"/>
                <feBlend mode="normal" in2="BackgroundImageFix" result="effect1_dropShadow_22_3989"/>
                <feBlend mode="normal" in="SourceGraphic" in2="effect1_dropShadow_22_3989" result="shape"/>
            </filter>
            <clipPath id="clip0_22_3989">
                <rect width="394" height="100" rx="6" fill="white"/>
            </clipPath>
            <clipPath id="clip1_22_3989">
                <rect width="20.8834" height="20.8834" fill="white" transform="translate(266.825 2.50781) rotate(12.8043)"/>
            </clipPath>
        </defs>
    </svg>