<svg xmlns="http://www.w3.org/2000/svg" fill="none" viewBox="0 0 394 100">
  <g clip-path="url(#a)">
    <rect width="394" height="100" fill="#DDE1E8" rx="6"/>
    <path fill="#D2DAE2" d="M142.7 163H0V20.2L142.7 163Z"/>
    <path fill="#8096AC" d="M19.4 92.9a1.8 1.8 0 1 1-3.6 0 1.8 1.8 0 0 1 3.6 0Zm10.6 0a1.8 1.8 0 1 1-3.7 0 1.8 1.8 0 0 1 3.6 0Zm10.4 0a1.8 1.8 0 1 1-3.6 0 1.8 1.8 0 0 1 3.6 0Zm10.6 0a1.8 1.8 0 1 1-3.7 0 1.8 1.8 0 0 1 3.7 0Zm10.5 0a1.8 1.8 0 1 1-3.7 0 1.8 1.8 0 0 1 3.7 0Zm10.5 0a1.8 1.8 0 1 1-3.7 0 1.8 1.8 0 0 1 3.7 0Zm10.5 0a1.8 1.8 0 1 1-3.7 0 1.8 1.8 0 0 1 3.7 0Zm10.5 0a1.8 1.8 0 1 1-3.7 0 1.8 1.8 0 0 1 3.7 0Zm10.5 0a1.8 1.8 0 1 1-3.7 0 1.8 1.8 0 0 1 3.7 0Zm-85.9-8.7a1.8 1.8 0 1 0 0-3.7 1.8 1.8 0 0 0 0 3.7Zm10.5 0a1.8 1.8 0 1 0 0-3.7 1.8 1.8 0 0 0 0 3.7Zm10.5 0a1.8 1.8 0 1 0 0-3.7 1.8 1.8 0 0 0 0 3.7Zm10.5 0a1.8 1.8 0 1 0 0-3.7 1.8 1.8 0 0 0 0 3.7Zm10.5 0a1.8 1.8 0 1 0 0-3.7 1.8 1.8 0 0 0 0 3.7Zm10.5 0a1.8 1.8 0 1 0 0-3.7 1.8 1.8 0 0 0 0 3.7Zm10.5 0a1.8 1.8 0 1 0 0-3.7 1.8 1.8 0 0 0 0 3.7Zm10.5 0a1.8 1.8 0 1 0 0-3.7 1.8 1.8 0 0 0 0 3.7ZM17.6 73.7a1.8 1.8 0 1 0 0-3.7 1.8 1.8 0 0 0 0 3.7Zm10.5 0a1.8 1.8 0 1 0 0-3.7 1.8 1.8 0 0 0 0 3.7Zm10.5 0a1.8 1.8 0 1 0 0-3.7 1.8 1.8 0 0 0 0 3.7Zm10.5 0a1.8 1.8 0 1 0 0-3.7 1.8 1.8 0 0 0 0 3.7Zm10.5 0a1.8 1.8 0 1 0 0-3.7 1.8 1.8 0 0 0 0 3.7Zm10.5 0a1.8 1.8 0 1 0 0-3.7 1.8 1.8 0 0 0 0 3.7Zm10.5 0a1.8 1.8 0 1 0 0-3.7 1.8 1.8 0 0 0 0 3.7Zm-63-10.5a1.8 1.8 0 1 0 0-3.7 1.8 1.8 0 0 0 0 3.7Zm10.5 0a1.8 1.8 0 1 0 0-3.7 1.8 1.8 0 0 0 0 3.7Zm10.5 0a1.8 1.8 0 1 0 0-3.7 1.8 1.8 0 0 0 0 3.7Zm10.5 0a1.8 1.8 0 1 0 0-3.7 1.8 1.8 0 0 0 0 3.7Zm10.5 0a1.8 1.8 0 1 0 0-3.7 1.8 1.8 0 0 0 0 3.7Zm10.5 0a1.8 1.8 0 1 0 0-3.7 1.8 1.8 0 0 0 0 3.7ZM17.6 52.7a1.8 1.8 0 1 0 0-3.7 1.8 1.8 0 0 0 0 3.7Zm10.5 0a1.8 1.8 0 1 0 0-3.7 1.8 1.8 0 0 0 0 3.7Zm10.5 0a1.8 1.8 0 1 0 0-3.7 1.8 1.8 0 0 0 0 3.7Zm10.5 0a1.8 1.8 0 1 0 0-3.7 1.8 1.8 0 0 0 0 3.7Zm10.5 0a1.8 1.8 0 1 0 0-3.7 1.8 1.8 0 0 0 0 3.7Zm-42-10.5a1.8 1.8 0 1 0 0-3.7 1.8 1.8 0 0 0 0 3.7Zm10.5 0a1.8 1.8 0 1 0 0-3.7 1.8 1.8 0 0 0 0 3.7Zm10.5 0a1.8 1.8 0 1 0 0-3.7 1.8 1.8 0 0 0 0 3.7Zm10.5 0a1.8 1.8 0 1 0 0-3.7 1.8 1.8 0 0 0 0 3.7ZM17.6 31.7a1.8 1.8 0 1 0 0-3.7 1.8 1.8 0 0 0 0 3.7Zm10.5 0a1.8 1.8 0 1 0 0-3.7 1.8 1.8 0 0 0 0 3.7Zm10.5 0a1.8 1.8 0 1 0 0-3.7 1.8 1.8 0 0 0 0 3.7Zm-21-10.5a1.8 1.8 0 1 0 0-3.7 1.8 1.8 0 0 0 0 3.7Zm10.5 0a1.8 1.8 0 1 0 0-3.7 1.8 1.8 0 0 0 0 3.7ZM17.6 10.7a1.8 1.8 0 1 0 0-3.7 1.8 1.8 0 0 0 0 3.7Z"/>
    <g filter="url(#b)">
      <g filter="url(#c)">
        <path fill="#fff" d="M273 117.8c0 4.2-2.1 8.2-5.3 8.2H94c-3.2 0-5.8-4-5.8-8.2V5.5C88.2 1.4 90.8-2 94-2h173.7c3.2 0 5.3 3.4 5.3 7.5v112.3Z"/>
      </g>
      <path fill="#F1F1F1" d="M100 49a5 5 0 0 1 5-5h145.9a5 5 0 0 1 5 5v55.8a5 5 0 0 1-5 5h-146a5 5 0 0 1-5-5V49Z"/>
      <path fill="#DADADA" d="M169.4 13h86.5v2.8h-86.5V13Zm0 6.6h86.5v2.8h-86.5v-2.8Zm0 6.5h58.5V29h-58.5v-3Z"/>
      <circle cx="95.4" cy="62" r="23.4" fill="#D7EBFF"/>
      <path stroke="#4C4C4C" stroke-linecap="round" stroke-linejoin="round" stroke-width="1.2" d="M99.6 62.6h8.5c.8 0 1.4.6 1.4 1.4v9.8c0 .8-.6 1.4-1.4 1.4H96c-.8 0-1.4-.6-1.4-1.4V67m9.9-15.8v7.9m-4.3-6.6V51h8.6v1.4m-6 6.6h3.5M83 68.1h8.4M83 70.8h8.4M83 73.5h8.4"/>
      <path stroke="#4C4C4C" stroke-linecap="round" stroke-linejoin="round" stroke-width="1.2" d="M97 48.8H81.5c-.6 0-1 .5-1 1.1v14.5c0 .6.4 1 1 1H97c.6 0 1.1-.4 1.1-1V49.9c0-.6-.5-1-1.1-1Z"/>
      <path stroke="#4C4C4C" stroke-linecap="round" stroke-linejoin="round" stroke-width="1.2" d="m85.9 61.6 5.1-6.8 5.2 6.8M88 56.8l-1-1-4.6 5.8m12-7c.8 0 1.5-.7 1.5-1.5 0-.7-.7-1.4-1.5-1.4s-1.4.7-1.4 1.4c0 .8.6 1.5 1.4 1.5Z"/>
      <path fill="#4C4C4C" d="M104.6 20h1.7l1.5 3h.1l1.6-3h1.6l-2.5 4.4v2.4h-1.4v-2.4l-2.6-4.5Zm13.2 3.4a4 4 0 0 1-.4 1.9 3 3 0 0 1-1.2 1.2c-.4.3-1 .4-1.6.4-.6 0-1.2-.1-1.6-.4a3 3 0 0 1-1.2-1.2 4 4 0 0 1-.4-2c0-.7.1-1.3.4-1.8.3-.6.7-1 1.2-1.2.4-.3 1-.5 1.6-.5.6 0 1.2.2 1.6.5.5.2 1 .6 1.2 1.2.3.5.4 1.1.4 1.9Zm-1.4 0c0-.5-.1-1-.3-1.2-.1-.4-.3-.6-.6-.8-.2-.2-.5-.3-.9-.3a1.7 1.7 0 0 0-1.5 1c-.2.4-.2.8-.2 1.3s0 .9.2 1.2c.1.4.3.6.6.8.2.2.6.2 1 .2.3 0 .6 0 .8-.2.3-.2.5-.4.6-.8.2-.3.3-.7.3-1.2Zm6.8-3.5h1.4v4.5c0 .5-.1 1-.3 1.3l-1 1-1.5.2c-.6 0-1.1 0-1.5-.3-.5-.2-.8-.5-1-.9-.3-.3-.4-.8-.4-1.3V20h1.5v4.4l.1.7.5.5.8.1.7-.1.5-.5.2-.7V20Zm2.6 7v-7h2.7c.6 0 1 .1 1.4.3l.8.8c.2.3.3.7.3 1.2 0 .4 0 .8-.3 1.2a2 2 0 0 1-.8.7c-.4.2-.9.3-1.4.3h-1.8v-1.2h1.6l.7-.1.4-.3.1-.6-.1-.6-.4-.3-.7-.2h-1v5.7h-1.5Zm3.7-3.2 1.8 3.1h-1.7l-1.6-3.1h1.5ZM105 37.8V31h1.5v5.7h3v1.2H105Zm11.5-3.4a4 4 0 0 1-.4 1.9 3 3 0 0 1-1.2 1.2 3 3 0 0 1-1.6.4 3 3 0 0 1-2.8-1.6 4 4 0 0 1-.5-2c0-.7.2-1.3.5-1.8.2-.6.6-1 1.1-1.2a3.2 3.2 0 0 1 3.3 0c.5.2.9.6 1.2 1.2.2.5.4 1.1.4 1.9Zm-1.5 0c0-.5 0-1-.2-1.2-.1-.4-.4-.6-.6-.8-.3-.2-.6-.3-1-.3l-.9.3-.6.8-.2 1.2c0 .5 0 .9.2 1.2l.6.8c.3.2.6.2 1 .2.3 0 .6 0 .9-.2.2-.2.5-.4.6-.8l.2-1.2Zm7.1-1.2c0-.2 0-.3-.2-.5l-.3-.3-.4-.2h-.5c-.4 0-.7 0-1 .2l-.6.8a3 3 0 0 0-.2 1.2l.2 1.2.7.8 1 .2.8-.1.5-.5.2-.8h.3-1.8v-1h2.9v.8a3 3 0 0 1-.4 1.6l-1 1a4.1 4.1 0 0 1-3.3-.1 3 3 0 0 1-1.1-1.2 4 4 0 0 1-.5-2c0-.5.1-1 .3-1.4l.7-1.1a3 3 0 0 1 1-.7c.4-.2.8-.3 1.3-.3l1 .2 1 .5a2.6 2.6 0 0 1 1 1.7H122Zm9 1.2a4 4 0 0 1-.4 1.9 3 3 0 0 1-1.2 1.2 3 3 0 0 1-1.6.4 3 3 0 0 1-2.8-1.6 4 4 0 0 1-.4-2c0-.7.1-1.3.4-1.8.3-.6.6-1 1.1-1.2a3.2 3.2 0 0 1 3.3 0c.5.2.9.6 1.2 1.2.3.5.4 1.1.4 1.9Zm-1.5 0c0-.5 0-1-.2-1.2-.1-.4-.3-.6-.6-.8-.3-.2-.6-.3-1-.3-.3 0-.6.1-.8.3-.3.2-.5.4-.7.8l-.2 1.2.2 1.2c.2.4.4.6.7.8.2.2.5.2.9.2.3 0 .6 0 1-.2.2-.2.4-.4.5-.8.2-.3.2-.7.2-1.2Z"/>
    </g>
    <g filter="url(#d)">
      <rect width="88.5" height="75.7" x="228.8" y="28.6" fill="#fff" rx="5"/>
    </g>
    <path fill="#F1F1F1" d="M236.8 51h33.5v19.1h-33.5z"/>
    <path fill="#F1F1F1" d="M236.8 51h33.5v19.1h-33.5z"/>
    <path fill="#F1F1F1" d="M236.8 51h33.5v19.1h-33.5z"/>
    <path fill="#F1F1F1" d="M236.8 51h33.5v19.1h-33.5z"/>
    <path fill="#F6F6F6" d="M236.8 51h33.5v19.1h-33.5z"/>
    <rect width="33.2" height="18.8" x="276" y="51.1" fill="#EBEBEB" rx="1.9"/>
    <rect width="33.2" height="18.8" x="276" y="51.1" fill="#EBEBEB" rx="1.9"/>
    <rect width="33.2" height="18.8" x="276" y="51.1" fill="#EBEBEB" rx="1.9"/>
    <rect width="33.2" height="18.8" x="276" y="51.1" fill="#EBEBEB" rx="1.9"/>
    <rect width="33.2" height="18.8" x="276" y="51.1" fill="#DEF" rx="1.9"/>
    <rect width="33.2" height="18.8" x="276" y="51.1" stroke="#7596B7" stroke-width=".3" rx="1.9"/>
    <path stroke="#7596B7" stroke-linecap="round" stroke-linejoin="round" d="M286 57c0-.3.4-.7.8-.7h3.8c.3 0 .7.4.7.8v2.3c0 .4-.4.7-.7.7h-3.8a.7.7 0 0 1-.7-.7v-2.3Zm7.6 1c0-.4.3-.7.7-.7h3.4c.3 0 .7.3.7.7v5.2c0 .4-.4.7-.7.7h-3.4a.7.7 0 0 1-.7-.7V58Zm-6.6 4.7c0-.4.3-.7.7-.7h3.3c.4 0 .7.3.7.7v1.5c0 .3-.3.7-.7.7h-3.3a.7.7 0 0 1-.7-.7v-1.5Z"/>
    <path fill="#EBEBEB" d="M236.8 75.7h33.5v19.1h-33.5z"/>
    <path fill="#EBEBEB" d="M236.8 75.7h33.5v19.1h-33.5z"/>
    <path fill="#EBEBEB" d="M236.8 75.7h33.5v19.1h-33.5z"/>
    <path fill="#EBEBEB" d="M236.8 75.7h33.5v19.1h-33.5z"/>
    <path fill="#F6F6F6" d="M236.8 75.7h33.5v19.1h-33.5z"/>
    <path fill="#EBEBEB" d="M275.9 75.7h33.5v19.1h-33.5z"/>
    <path fill="#EBEBEB" d="M275.9 75.7h33.5v19.1h-33.5z"/>
    <path fill="#EBEBEB" d="M275.9 75.7h33.5v19.1h-33.5z"/>
    <path fill="#EBEBEB" d="M275.9 75.7h33.5v19.1h-33.5z"/>
    <path fill="#F6F6F6" d="M275.9 75.7h33.5v19.1h-33.5z"/>
    <path fill="#7596B7" d="M288.1 41.4v-4.6h.9v2l1.8-2h1l-1.7 2 1.8 2.6h-1l-1.4-2-.5.6v1.4h-.9Zm-.9-3.1h-.9a1 1 0 0 0-.4-.6 1 1 0 0 0-.3-.2 1.3 1.3 0 0 0-1 .1c-.3.2-.4.4-.5.6l-.2.9c0 .3 0 .6.2.9 0 .2.2.4.4.5l.7.2h.4l.3-.2.3-.3.1-.3h.9a1.8 1.8 0 0 1-1.3 1.4l-.7.2a2 2 0 0 1-1.1-.3 2 2 0 0 1-.8-.8l-.2-1.3c0-.5 0-1 .2-1.3a2 2 0 0 1 1.9-1.1l.7.1.6.3.4.5.3.7Zm-5 .7c0 .6 0 1-.3 1.4a2 2 0 0 1-1.8 1c-.4 0-.8 0-1.1-.2a2 2 0 0 1-.8-.8c-.2-.4-.3-.8-.3-1.3s.1-1 .3-1.3a2 2 0 0 1 1.9-1.1c.4 0 .7 0 1 .3.4.2.6.4.8.8.2.4.3.8.3 1.3Zm-.8 0-.2-.8c-.1-.3-.3-.4-.5-.6l-.6-.1-.7.1-.5.6-.1.9.1.9.5.5.7.2c.2 0 .4 0 .6-.2l.5-.5.2-1Zm-7 2.4v-4.6h.9v3.9h2v.7h-2.9Zm-4.4 0v-4.6h1.8l.9.1a1.1 1.1 0 0 1 .6 1v.5l-.4.4-.4.2.5.1.4.4.1.6c0 .3 0 .5-.2.7 0 .2-.3.3-.5.4a2 2 0 0 1-.9.2h-1.8Zm.9-.7h.9c.3 0 .5 0 .7-.2l.2-.4a.7.7 0 0 0-.4-.7 1 1 0 0 0-.5 0h-1v1.3Zm0-2h1.1l.3-.3v-.3l-.1-.5-.6-.1h-.8v1.2Zm-5.9 2.7h-1.5v-4.6h1.6c.4 0 .8 0 1.2.2l.7.8c.2.4.3.8.3 1.3s-.1.9-.3 1.2c-.2.4-.4.6-.8.8-.3.2-.7.3-1.2.3Zm-.7-.7h.7c.3 0 .6 0 .8-.2l.5-.5.2-1-.2-.8-.5-.5c-.2-.2-.5-.2-.8-.2h-.7v3.2Zm-4.1.7h-1.5v-4.6h1.6c.4 0 .8 0 1.1.2.4.2.6.5.8.8.2.4.3.8.3 1.3s-.1.9-.3 1.2c-.2.4-.4.6-.8.8-.3.2-.7.3-1.2.3Zm-.7-.7h.7c.3 0 .6 0 .8-.2l.5-.5.1-1-.1-.8-.5-.5c-.2-.2-.5-.2-.8-.2h-.7v3.2Zm-5.1.7h-.9l1.7-4.6h1l1.7 4.6h-1l-1.2-3.7-1.3 3.7Zm0-1.8h2.5v.7h-2.4v-.7Z"/>
    <rect width="9.4" height="11" x="241.3" y="55.5" stroke="#D7D7D7" rx="1.5"/>
    <rect width="9.4" height="11" x="241.3" y="79.4" stroke="#D7D7D7" rx="1.5"/>
    <rect width="9.4" height="11" x="254.8" y="79.4" stroke="#D7D7D7" rx="1.5"/>
    <path fill="#D9D9D9" d="M253.6 62.1h12.8v.8h-12.8zm0 3.2h12.8v.8h-12.8zm0-9.6h12.8v.8h-12.8zm0 3.2h12.8v.8h-12.8z"/>
    <rect width="24.5" height="3" x="280.4" y="79.4" stroke="#D7D7D7" rx=".5"/>
    <rect width="24.5" height="5.4" x="280.4" y="84.9" stroke="#D7D7D7" rx=".5"/>
    <circle cx="273.5" cy="16.5" r="18.5" fill="#D7EBFF"/>
    <g clip-path="url(#e)">
      <path stroke="#616161" stroke-linecap="round" stroke-linejoin="round" stroke-width="1.2" d="m277.4 15 1 1.5.7-.5.7-2.7 2-.1a2.6 2.6 0 1 0-2.4-3.8l-1 1.8-2.7-.7-.8.5 1 1.6m1.5 2.3-8.8 5.6c-.4.2-.8.3-1.2.2-.4 0-.9 0-1.2.2l-1 .6-.5-.7 1-.7c.3-.2.6-.6.7-1 0-.4.3-.7.7-1l8.8-5.5m1.5 2.3-1.5-2.3"/>
    </g>
  </g>
  <defs>
    <filter id="b" width="209" height="136" x="68" y="-2" color-interpolation-filters="sRGB" filterUnits="userSpaceOnUse">
      <feFlood flood-opacity="0" result="BackgroundImageFix"/>
      <feColorMatrix in="SourceAlpha" result="hardAlpha" values="0 0 0 0 0 0 0 0 0 0 0 0 0 0 0 0 0 0 127 0"/>
      <feOffset dy="4"/>
      <feGaussianBlur stdDeviation="2"/>
      <feComposite in2="hardAlpha" operator="out"/>
      <feColorMatrix values="0 0 0 0 0.061902 0 0 0 0 0.460113 0 0 0 0 0.946815 0 0 0 0.1 0"/>
      <feBlend in2="BackgroundImageFix" result="effect1_dropShadow_22_3989"/>
      <feBlend in="SourceGraphic" in2="effect1_dropShadow_22_3989" result="shape"/>
    </filter>
    <filter id="c" width="194.8" height="138" x="83.2" y="-3" color-interpolation-filters="sRGB" filterUnits="userSpaceOnUse">
      <feFlood flood-opacity="0" result="BackgroundImageFix"/>
      <feColorMatrix in="SourceAlpha" result="hardAlpha" values="0 0 0 0 0 0 0 0 0 0 0 0 0 0 0 0 0 0 127 0"/>
      <feMorphology in="SourceAlpha" operator="dilate" radius="1" result="effect1_dropShadow_22_3989"/>
      <feOffset dy="4"/>
      <feGaussianBlur stdDeviation="2"/>
      <feComposite in2="hardAlpha" operator="out"/>
      <feColorMatrix values="0 0 0 0 0.760077 0 0 0 0 0.858475 0 0 0 0 0.932274 0 0 0 0.37 0"/>
      <feBlend in2="BackgroundImageFix" result="effect1_dropShadow_22_3989"/>
      <feBlend in="SourceGraphic" in2="effect1_dropShadow_22_3989" result="shape"/>
    </filter>
    <filter id="d" width="98.5" height="85.7" x="223.8" y="27.6" color-interpolation-filters="sRGB" filterUnits="userSpaceOnUse">
      <feFlood flood-opacity="0" result="BackgroundImageFix"/>
      <feColorMatrix in="SourceAlpha" result="hardAlpha" values="0 0 0 0 0 0 0 0 0 0 0 0 0 0 0 0 0 0 127 0"/>
      <feMorphology in="SourceAlpha" operator="dilate" radius="1" result="effect1_dropShadow_22_3989"/>
      <feOffset dy="4"/>
      <feGaussianBlur stdDeviation="2"/>
      <feComposite in2="hardAlpha" operator="out"/>
      <feColorMatrix values="0 0 0 0 0.760077 0 0 0 0 0.858475 0 0 0 0 0.932274 0 0 0 0.37 0"/>
      <feBlend in2="BackgroundImageFix" result="effect1_dropShadow_22_3989"/>
      <feBlend in="SourceGraphic" in2="effect1_dropShadow_22_3989" result="shape"/>
    </filter>
    <clipPath id="a">
      <rect width="394" height="100" fill="#fff" rx="6"/>
    </clipPath>
    <clipPath id="e">
      <path fill="#fff" d="m266.8 2.5 20.4 4.6-4.6 20.4-20.4-4.6z"/>
    </clipPath>
  </defs>
</svg>