<svg xmlns="http://www.w3.org/2000/svg" fill="none" viewBox="0 0 256 160">
  <g clip-path="url(#a)">
    <path fill="#E1E0D6" d="M0 0h256v160H0z"/>
    <path fill="#FAF9E3" d="M124.4 174.5h-1a2.4 2.4 0 0 1 .2-4.7h.9a2.4 2.4 0 0 1 0 4.7Zm9.4-.2a2.4 2.4 0 0 1-.2-4.8h.9c1.3-.2 2.5.8 2.6 2 .1 1.4-.8 2.5-2.1 2.7h-1.2Zm-19.6-.8h-.4l-1-.2a2.4 2.4 0 0 1 .9-4.7l.9.2a2.4 2.4 0 0 1-.4 4.7Zm29.8-.8c-1.1 0-2-.8-2.3-1.9-.3-1.2.5-2.5 1.8-2.8l.8-.2a2.4 2.4 0 0 1 1.1 4.6l-.9.2h-.5Zm-40-1.7h-.7l-.9-.4a2.4 2.4 0 0 1 1.5-4.5l.8.3c1.3.4 2 1.7 1.6 3-.3 1-1.3 1.6-2.3 1.6Zm49.8-1.4a2.4 2.4 0 0 1-.9-4.5l.9-.4a2.4 2.4 0 0 1 1.7 4.5 146.1 146.1 0 0 1-1.7.4Zm-59.4-2.3c-.3 0-.7 0-1-.2l-.9-.4a2.4 2.4 0 1 1 2-4.3l.9.4c1.2.6 1.7 2 1.2 3.2-.4.8-1.3 1.3-2.2 1.3Zm68.8-1.9c-.9 0-1.7-.4-2.1-1.2a2.4 2.4 0 0 1 1-3.2l.7-.5a2.4 2.4 0 1 1 2.3 4.2l-.8.4-1.1.3Zm-77.8-3c-.5 0-1-.2-1.3-.4l-.8-.5a2.4 2.4 0 1 1 2.6-4l.7.5c1.1.7 1.5 2.2.8 3.3-.5.7-1.2 1-2 1ZM172 160c-.7 0-1.5-.4-2-1-.7-1-.4-2.6.6-3.3l.8-.6a2.4 2.4 0 0 1 2.8 3.9l-.8.5c-.4.3-1 .5-1.4.5Zm-94.8-3.8c-.6 0-1.1-.1-1.6-.5l-.7-.6a2.4 2.4 0 0 1 3.1-3.6l.7.6a2.4 2.4 0 0 1-1.5 4.1Zm102.7-2.8a2.4 2.4 0 0 1-1.6-4l.7-.7a2.4 2.4 0 1 1 3.3 3.4l-.7.7c-.5.4-1 .6-1.7.6Zm-110.1-4.3c-.7 0-1.3-.3-1.8-.8l-.7-.7a2.4 2.4 0 1 1 3.6-3.2l.6.7a2.4 2.4 0 0 1-1.8 4Zm117.2-3.3a2.4 2.4 0 0 1-1.9-3.8l.6-.7a2.4 2.4 0 0 1 3.7 3l-.6.7c-.5.5-1.2.8-1.8.8ZM63.4 141c-.8 0-1.5-.4-2-1l-.5-.8a2.4 2.4 0 0 1 3.9-2.7l.5.8a2.4 2.4 0 0 1-2 3.7Zm129.5-3.6c-.4 0-.8 0-1.2-.3a2.4 2.4 0 0 1-.8-3.3l.4-.8a2.4 2.4 0 1 1 4.1 2.5l-.5.8c-.4.7-1.2 1.1-2 1.1Zm-134.8-5.3c-.9 0-1.7-.4-2.1-1.3l-.4-.8a2.4 2.4 0 0 1 4.2-2.1l.4.8a2.4 2.4 0 0 1-2.1 3.4Zm139.6-3.8c-.4 0-.7 0-1-.2-1.2-.6-1.7-2-1.2-3.1l.4-.9a2.4 2.4 0 0 1 4.3 1.9l-.4.9c-.4.8-1.2 1.4-2.1 1.4ZM54 122.8c-1 0-2-.6-2.3-1.6l-.3-1a2.4 2.4 0 0 1 4.5-1.4l.3.8a2.4 2.4 0 0 1-2.2 3.2Zm147-4.1-.6-.1c-1.2-.4-2-1.7-1.6-3l.2-.8a2.4 2.4 0 0 1 4.6 1.2l-.3 1c-.3 1-1.2 1.7-2.2 1.7Zm-149.8-5.9c-1 0-2-.8-2.3-1.9l-.2-1a2.4 2.4 0 1 1 4.7-.8l.2.9a2.4 2.4 0 0 1-2.4 2.8Zm152-4.2a2.4 2.4 0 0 1-2.3-2.7l.1-1a2.4 2.4 0 1 1 4.7.7l-.1 1c-.2 1.1-1.2 2-2.4 2Zm-153.3-6c-1.3 0-2.3-1-2.4-2.2v-1a2.4 2.4 0 1 1 4.7-.2v.9c.1 1.3-.9 2.4-2.2 2.5ZM204 98.3c-1.3 0-2.3-1-2.3-2.4v-1a2.4 2.4 0 1 1 4.7 0V96c0 1.3-1 2.3-2.4 2.3Zm-154-6h-.2a2.4 2.4 0 0 1-2.2-2.5v-1a2.4 2.4 0 0 1 4.8.4v.9a2.5 2.5 0 0 1-2.5 2.2Zm153.6-4.4c-1.2 0-2.2-.9-2.4-2.1l-.1-1a2.4 2.4 0 1 1 4.7-.5l.1 1a2.4 2.4 0 0 1-2.3 2.6ZM51.3 82h-.5a2.4 2.4 0 0 1-1.8-2.8l.2-1c.2-1.3 1.5-2 2.8-1.8 1.3.3 2 1.5 1.8 2.8l-.2.9a2.4 2.4 0 0 1-2.3 1.9Zm150.3-4.4c-1 0-2-.7-2.3-1.7l-.2-.9a2.4 2.4 0 0 1 4.6-1.3l.2 1a2.4 2.4 0 0 1-2.3 3ZM54 72.1h-.8a2.4 2.4 0 0 1-1.4-3.1l.3-1a2.4 2.4 0 0 1 3-1.3c1.2.4 1.9 1.8 1.4 3 0 .3-.2.6-.3.8-.3 1-1.2 1.6-2.2 1.6ZM198.3 68c-.9 0-1.8-.6-2.1-1.5l-.4-.8a2.4 2.4 0 1 1 4.4-1.9l.3.9a2.4 2.4 0 0 1-2.2 3.3ZM58 62.6c-.3 0-.7 0-1-.2-1.2-.6-1.7-2-1-3.2l.4-.9c.6-1.1 2-1.6 3.2-1 1.1.6 1.6 2 1 3.2l-.5.8c-.4.9-1.2 1.3-2 1.3Zm135.8-3.9c-.8 0-1.6-.4-2-1.1l-.5-.8a2.4 2.4 0 0 1 4-2.4l.5.8a2.4 2.4 0 0 1-2 3.5Zm-130.5-5c-.5 0-1 0-1.4-.4-1-.7-1.3-2.2-.6-3.3l.6-.7a2.4 2.4 0 0 1 3.9 2.7l-.6.7c-.4.7-1.2 1-2 1ZM188 50.3a2 2 0 0 1-1.8-1l-.6-.6a2.4 2.4 0 1 1 3.7-3l.6.8a2.4 2.4 0 0 1-1.9 3.8ZM69.7 45.7a2.4 2.4 0 0 1-1.8-4l.7-.7c.9-1 2.4-1 3.3-.1 1 .9 1 2.4.2 3.3l-.7.7c-.4.5-1 .8-1.7.8Zm111.5-3.2c-.6 0-1.2-.2-1.7-.7l-.6-.6a2.4 2.4 0 1 1 3.3-3.4l.7.6a2.4 2.4 0 0 1-1.7 4Zm-104.1-4a2.4 2.4 0 0 1-1.6-4.2l.8-.6a2.4 2.4 0 1 1 3 3.6l-.7.6c-.4.4-1 .6-1.5.6Zm96.3-2.8c-.5 0-1-.1-1.4-.4l-.7-.6A2.4 2.4 0 0 1 174 31l.7.6a2.4 2.4 0 0 1-1.4 4.2Zm-88-3.3c-.8 0-1.6-.4-2-1.1-.7-1.1-.4-2.6.7-3.3l.8-.5a2.4 2.4 0 0 1 2.5 4l-.8.5c-.4.2-.8.4-1.2.4Zm79.4-2.3-1.2-.3-.8-.5a2.4 2.4 0 0 1 2.3-4.1l.8.4a2.4 2.4 0 0 1-1.1 4.5Zm-70.4-2.7a2.3 2.3 0 0 1-1-4.5l.9-.4a2.4 2.4 0 1 1 2 4.3l-1 .4-1 .2Zm61-1.8-.8-.1-.8-.4a2.4 2.4 0 1 1 1.6-4.4l1 .4a2.4 2.4 0 0 1-1 4.5Zm-51.4-2a2.4 2.4 0 0 1-.7-4.5l1-.3a2.4 2.4 0 1 1 1.3 4.5l-1 .3h-.6Zm41.7-1.1h-.6l-.9-.3a2.4 2.4 0 1 1 1-4.6l1 .2c1.3.3 2 1.6 1.7 2.9-.2 1-1.2 1.8-2.3 1.8ZM114 21.3a2.4 2.4 0 0 1-.4-4.7l1-.2a2.4 2.4 0 1 1 .7 4.7 44.4 44.4 0 0 0-1.3.2Zm21.5-.6h-.2l-1-.1a2.4 2.4 0 1 1 .5-4.7h1a2.4 2.4 0 0 1-.3 4.8Zm-11.2-.5a2.4 2.4 0 0 1-.1-4.7h1c1.3 0 2.3 1 2.4 2.3 0 1.3-1 2.4-2.3 2.4h-1Zm7 140.1a2.4 2.4 0 0 1-.2-4.7l1-.1c1.2-.1 2.4.9 2.5 2.2 0 1.3-.9 2.4-2.2 2.5h-1.1v.1Zm-9.5 0h-.2l-1-.2a2.4 2.4 0 1 1 .5-4.7l.9.1a2.4 2.4 0 0 1-.2 4.7Zm19.8-1.6a2.4 2.4 0 0 1-.6-4.6l.9-.3c1.3-.3 2.5.5 2.9 1.8.3 1.2-.5 2.5-1.8 2.8a55.3 55.3 0 0 1-1.5.3Zm-30-.2h-.6l-1-.3a2.4 2.4 0 0 1 1.2-4.5l1 .2a2.4 2.4 0 0 1-.7 4.6Zm39.9-3a2.4 2.4 0 0 1-1-4.5l.9-.4a2.4 2.4 0 1 1 1.9 4.3l-1 .4-.8.2Zm-49.8-.3-1-.2-.9-.4a2.4 2.4 0 0 1 2-4.3c.3 0 .6.2.8.3a2.4 2.4 0 0 1-1 4.6Zm59-4.5a2.4 2.4 0 0 1-1.3-4.4l.8-.5a2.4 2.4 0 0 1 2.6 4l-.8.5c-.4.3-.9.4-1.3.4Zm-68.2-.5c-.4 0-.9-.1-1.3-.4l-.8-.5a2.4 2.4 0 0 1 2.7-4l.7.6a2.4 2.4 0 0 1-1.3 4.3Zm76.5-5.8c-.7 0-1.3-.3-1.8-.8-.9-1-.8-2.5.2-3.3l.7-.6a2.4 2.4 0 0 1 3.2 3.4l-.7.7c-.5.4-1 .6-1.6.6Zm-84.7-.6c-.6 0-1.1-.2-1.6-.6l-.7-.7a2.4 2.4 0 0 1 3.2-3.4l.7.6a2.4 2.4 0 0 1-1.6 4.1Zm91.8-7a2.4 2.4 0 0 1-1.8-3.8l.6-.7a2.4 2.4 0 0 1 3.7 2.9l-.6.8c-.5.5-1.2.8-1.9.8Zm-98.9-.6a2 2 0 0 1-1.8-1l-.6-.7a2.4 2.4 0 1 1 3.7-2.9l.6.7a2.4 2.4 0 0 1-1.9 3.9Zm104.8-8c-.4 0-.8 0-1.2-.3-1.1-.6-1.5-2-.9-3.2l.5-.8a2.4 2.4 0 1 1 4.1 2.3l-.5.8c-.4.8-1.2 1.2-2 1.2Zm-110.5-.7c-.8 0-1.6-.5-2-1.3l-.5-.8a2.4 2.4 0 0 1 4.2-2.2l.4.8a2.4 2.4 0 0 1-2 3.5Zm114.8-8.8h-.8a2.4 2.4 0 0 1-1.4-3.1l.3-.9a2.4 2.4 0 1 1 4.5 1.5l-.4 1c-.3 1-1.2 1.6-2.2 1.6Zm-119-.8c-1 0-1.9-.6-2.2-1.6l-.3-.9a2.4 2.4 0 1 1 4.5-1.5l.3.9a2.4 2.4 0 0 1-2.3 3.1Zm121.7-9.2h-.4a2.4 2.4 0 0 1-2-2.8l.2-.9a2.4 2.4 0 1 1 4.7.8c0 .3 0 .6-.2 1a2.4 2.4 0 0 1-2.3 1.9Zm-124.2-.9c-1.2 0-2.2-.8-2.4-2l-.1-.9a2.4 2.4 0 1 1 4.7-.7l.1.9a2.4 2.4 0 0 1-2.3 2.7ZM190 98.3c-1.3 0-2.4-1-2.4-2.4v-1.1a2.4 2.4 0 1 1 4.8 0V96c0 1.3-1 2.3-2.4 2.3Zm-126-.9c-1.4 0-2.5-1-2.5-2.3v-1c0-1.3 1.1-2.3 2.4-2.3 1.3 0 2.4 1 2.4 2.4v.8c0 1.3-1 2.4-2.4 2.4Zm125.3-9.6c-1.2 0-2.2-.9-2.3-2l-.2-1a2.4 2.4 0 0 1 4.7-.7l.1 1a2.4 2.4 0 0 1-2.3 2.7ZM64.7 87h-.3a2.4 2.4 0 0 1-2-2.8l.2-1a2.4 2.4 0 0 1 4.6.9l-.1.9c-.2 1.2-1.2 2-2.4 2ZM187 77.6c-1 0-2-.6-2.3-1.6 0-.3-.2-.6-.3-.8a2.4 2.4 0 0 1 4.5-1.6l.3 1a2.4 2.4 0 0 1-2.2 3ZM67.3 77l-.8-.1a2.4 2.4 0 0 1-1.5-3l.4-1a2.4 2.4 0 0 1 4.4 1.6l-.3.9c-.3 1-1.2 1.6-2.2 1.6Zm115.5-9c-.8 0-1.7-.4-2-1.2l-.5-.8a2.4 2.4 0 0 1 4.1-2.3l.5.9a2.4 2.4 0 0 1-2 3.5Zm-111.4-.6c-.3 0-.7 0-1-.2-1.2-.7-1.7-2.1-1-3.2l.4-1a2.4 2.4 0 0 1 4.2 2.4l-.5.8c-.4.8-1.2 1.2-2 1.2Zm105.8-8.1c-.7 0-1.4-.3-1.9-1l-.5-.7a2.4 2.4 0 1 1 3.7-2.9l.6.8a2.4 2.4 0 0 1-1.9 3.8Zm-100-.6c-.6 0-1-.1-1.5-.5-1-.8-1.2-2.3-.4-3.3l.6-.8a2.4 2.4 0 1 1 3.7 3l-.6.7c-.5.6-1.2 1-1.9 1Zm93-7.2c-.5 0-1.1-.2-1.6-.6l-.6-.6a2.4 2.4 0 1 1 3.2-3.5l.7.7a2.4 2.4 0 0 1-1.6 4Zm-86-.4a2.4 2.4 0 0 1-1.6-4.2l.7-.6a2.4 2.4 0 1 1 3.2 3.5l-.7.6c-.5.4-1 .7-1.6.7Zm78-6c-.5 0-1-.2-1.4-.5l-.7-.5a2.4 2.4 0 1 1 2.5-4l.9.6A2.4 2.4 0 0 1 162 45Zm-69.8-.5c-.8 0-1.5-.3-2-1-.7-1.1-.4-2.6.7-3.3l.8-.5a2.4 2.4 0 0 1 2.6 4l-.8.5a3 3 0 0 1-1.3.3ZM153 40l-1-.3-.8-.3a2.4 2.4 0 0 1 2-4.4l.8.4a2.4 2.4 0 0 1-1 4.5Zm-51.5-.3a2.4 2.4 0 0 1-1-4.6l1-.4a2.4 2.4 0 0 1 1.8 4.4l-.8.4-1 .2Zm41.7-3.3h-.6l-.9-.3c-1.2-.3-2-1.6-1.7-2.8.3-1.3 1.6-2 2.9-1.8l1 .3a2.4 2.4 0 0 1-.7 4.6Zm-31.8-.1a2.4 2.4 0 0 1-.6-4.7l1-.2c1.2-.3 2.5.4 2.8 1.7.3 1.3-.5 2.6-1.8 2.9l-.9.2h-.5Zm21.6-1.7h-1.2a2.4 2.4 0 0 1-2.1-2.6 2.4 2.4 0 0 1 2.5-2.2h1a2.4 2.4 0 0 1-.2 4.8Zm-11.4 0a2.4 2.4 0 0 1-.2-4.8h1a2.4 2.4 0 1 1 .3 4.7h-1.1ZM127 204h-1a2.4 2.4 0 0 1 0-4.7h1a2.3 2.3 0 1 1 0 4.7Zm9.5-.4a2.4 2.4 0 0 1-.2-4.8h1a2.4 2.4 0 1 1 .4 4.7h-1.2Zm-20-.1h-.2l-1-.1a2.4 2.4 0 0 1 .5-4.7h1a2.4 2.4 0 0 1-.2 4.8Zm30.4-1.4a2.4 2.4 0 0 1-.5-4.7l1-.1a2.4 2.4 0 0 1 .9 4.6l-1 .2h-.4Zm-40.7-.1h-.4l-1-.3a2.4 2.4 0 1 1 1-4.6l.9.2a2.4 2.4 0 0 1-.5 4.7Zm50.8-2.3a2.4 2.4 0 0 1-.6-4.6l.9-.3a2.4 2.4 0 0 1 1.3 4.5l-.9.3-.7.1Zm-61-.2-.6-.1-1-.3a2.4 2.4 0 0 1 1.5-4.6l.9.3a2.4 2.4 0 0 1-.7 4.7Zm71-3.2a2.4 2.4 0 0 1-1-4.6l.9-.4a2.4 2.4 0 1 1 1.8 4.4l-.9.4-.9.2Zm-80.8-.4-.9-.1-.9-.4a2.4 2.4 0 0 1 1.9-4.4l.8.4a2.4 2.4 0 0 1-.9 4.5Zm90.2-4a2.4 2.4 0 0 1-1-4.5l.7-.4a2.4 2.4 0 1 1 2.3 4.1l-.9.5a2 2 0 0 1-1.1.3Zm-99.7-.4a2 2 0 0 1-1-.3l-1-.5a2.4 2.4 0 0 1 2.3-4.1l.9.4a2.4 2.4 0 0 1-1.2 4.5Zm108.7-5c-.7 0-1.5-.3-2-1-.7-1.1-.4-2.6.7-3.3l.8-.5a2.4 2.4 0 1 1 2.6 4l-.8.5c-.4.2-.8.4-1.3.4Zm-117.6-.4c-.5 0-1-.2-1.3-.4a34 34 0 0 1-.8-.6 2.4 2.4 0 1 1 2.6-3.9l.8.5a2.4 2.4 0 0 1-1.3 4.4Zm126-5.7a2.4 2.4 0 0 1-1.4-4.2l.7-.6a2.4 2.4 0 1 1 3 3.7l-.7.6a3 3 0 0 1-1.5.5Zm-134.4-.6c-.6 0-1-.1-1.5-.5l-.8-.6a2.4 2.4 0 0 1 3-3.7l.8.6a2.4 2.4 0 0 1-1.5 4.2Zm142.3-6.4a2.4 2.4 0 0 1-1.7-4l.7-.7a2.4 2.4 0 1 1 3.3 3.4l-.7.7c-.4.4-1 .6-1.6.6Zm-150-.6c-.7 0-1.3-.2-1.8-.7l-.6-.7a2.4 2.4 0 0 1 3.3-3.3l.7.7a2.4 2.4 0 0 1-1.7 4Zm157-7a2.4 2.4 0 0 1-1.7-4l.6-.7a2.4 2.4 0 1 1 3.6 3l-.6.8c-.5.5-1.1.8-1.8.8Zm-164-.8c-.7 0-1.4-.3-1.8-.9l-.6-.7a2.4 2.4 0 1 1 3.6-3l.6.7a2.4 2.4 0 0 1-1.8 3.9Zm170.5-7.7a2.4 2.4 0 0 1-2-3.7l.6-.8a2.4 2.4 0 1 1 3.9 2.7l-.6.8c-.4.6-1.2 1-2 1Zm-176.8-.7c-.7 0-1.5-.4-2-1l-.5-.9a2.4 2.4 0 0 1 4-2.6l.5.8a2.4 2.4 0 0 1-2 3.7Zm182.3-8.2-1.2-.3c-1.1-.6-1.5-2-1-3.2l.5-.8c.6-1.2 2-1.6 3.2-1 1.2.6 1.6 2 1 3.2l-.5.8c-.4.8-1.2 1.3-2 1.3ZM33 147.7c-.9 0-1.7-.4-2.1-1.2l-.5-.9a2.4 2.4 0 1 1 4.2-2.2l.4.8a2.4 2.4 0 0 1-2 3.5Zm192.1-8.6c-.3 0-.6 0-.9-.2a2.4 2.4 0 0 1-1.2-3.1l.3-.9a2.4 2.4 0 1 1 4.4 1.8l-.4 1c-.4.8-1.2 1.4-2.2 1.4Zm-196.6-.8c-1 0-1.8-.6-2.2-1.5l-.4-.9a2.4 2.4 0 0 1 4.4-1.8l.3.9a2.4 2.4 0 0 1-2.1 3.3Zm200.2-9-.7-.2c-1.2-.4-2-1.7-1.5-3l.3-.8a2.4 2.4 0 1 1 4.5 1.3l-.3 1c-.3 1-1.3 1.6-2.3 1.6Zm-203.7-1c-1 0-2-.6-2.2-1.6l-.3-1a2.4 2.4 0 0 1 4.5-1.3l.3.9a2.4 2.4 0 0 1-2.3 3Zm206.5-9.3a2.4 2.4 0 0 1-2.3-2.8l.1-1a2.4 2.4 0 1 1 4.7 1l-.2 1a2.4 2.4 0 0 1-2.3 1.8Zm-209-.8c-1.1 0-2.1-.8-2.3-2l-.2-.9a2.4 2.4 0 0 1 4.6-.9l.2 1a2.4 2.4 0 0 1-2.3 2.8Zm210.6-9.5h-.3a2.4 2.4 0 0 1-2-2.6v-1a2.4 2.4 0 1 1 4.7.5v1a2.4 2.4 0 0 1-2.4 2ZM21 107.8c-1.2 0-2.3-.9-2.4-2v-1a2.4 2.4 0 0 1 4.6-.5l.1 1a2.4 2.4 0 0 1-2.3 2.5Zm212.7-9.6c-1.3 0-2.4-1-2.4-2.4v-1.1a2.4 2.4 0 0 1 4.8 0V96c0 1.3-1.1 2.3-2.4 2.3Zm-213.3-.8c-1.3 0-2.3-1-2.3-2.4v-1c0-1.2 1-2.3 2.3-2.3 1.4 0 2.4 1 2.4 2.4v1c0 1.2-1 2.3-2.4 2.3Zm212.8-9.8c-1.2 0-2.2-1-2.3-2.2l-.1-1a2.4 2.4 0 0 1 4.7-.4l.1 1a2.4 2.4 0 0 1-2.4 2.6ZM20.8 87h-.2a2.4 2.4 0 0 1-2.1-2.6v-1a2.4 2.4 0 0 1 4.8.6l-.1.9a2.4 2.4 0 0 1-2.4 2.1Zm210.9-9.7c-1.1 0-2.1-.8-2.3-2l-.2-.8a2.4 2.4 0 0 1 4.6-1l.2 1a2.4 2.4 0 0 1-2.3 2.8Zm-209.3-.6h-.5a2.4 2.4 0 0 1-1.9-2.8l.2-1a2.4 2.4 0 0 1 4.6 1l-.1.9a2.4 2.4 0 0 1-2.3 1.9Zm206.8-9.6c-1 0-2-.6-2.2-1.7l-.3-.9a2.4 2.4 0 0 1 4.5-1.3l.3.9a2.4 2.4 0 0 1-2.3 3ZM25 66.5h-.7c-1.3-.4-2-1.8-1.6-3l.3-1a2.4 2.4 0 1 1 4.5 1.5l-.3.9c-.3 1-1.2 1.6-2.2 1.6Zm200.9-9.2c-1 0-1.8-.6-2.2-1.5l-.4-.9a2.4 2.4 0 1 1 4.4-1.8l.4.9a2.4 2.4 0 0 1-2.2 3.3Zm-197.4-.6c-.3 0-.6 0-1-.2a2.4 2.4 0 0 1-1.2-3l.4-1a2.4 2.4 0 0 1 4.3 1.9l-.3.8c-.4 1-1.3 1.5-2.2 1.5Zm193-9c-.9 0-1.7-.4-2.1-1.2l-.5-.8a2.4 2.4 0 0 1 4.2-2.2l.5.8a2.4 2.4 0 0 1-2.1 3.5ZM33 47.2c-.4 0-.8 0-1.2-.3-1.1-.6-1.5-2-1-3.2l.5-.8c.7-1.2 2.1-1.6 3.2-1 1.2.7 1.6 2.1 1 3.2l-.4.9c-.5.8-1.3 1.2-2.1 1.2Zm183-8.4c-.8 0-1.6-.4-2-1l-.5-.9a2.4 2.4 0 1 1 3.9-2.6l.5.8a2.4 2.4 0 0 1-2 3.7Zm-177.9-.6c-.4 0-.9 0-1.3-.4-1-.7-1.4-2.2-.6-3.2l.5-.8a2.4 2.4 0 0 1 4 2.6l-.6.8c-.4.7-1.2 1-2 1ZM210 30.3c-.7 0-1.4-.3-1.9-.8l-.6-.8a2.4 2.4 0 1 1 3.7-3l.6.8a2.4 2.4 0 0 1-1.8 3.8Zm-165.4-.5c-.6 0-1-.1-1.5-.5-1-.8-1.2-2.3-.4-3.3l.7-.8a2.4 2.4 0 0 1 3.6 3l-.6.8c-.5.5-1.1.8-1.8.8ZM203 22.5c-.6 0-1.2-.2-1.7-.7l-.6-.6a2.4 2.4 0 1 1 3.3-3.4l.7.7a2.4 2.4 0 0 1-1.7 4Zm-151.4-.4c-.6 0-1.2-.3-1.7-.7-1-1-1-2.4 0-3.4l.7-.6a2.4 2.4 0 0 1 3.3 3.3l-.6.7c-.5.4-1.1.7-1.7.7Zm143.7-6.6c-.5 0-1-.2-1.5-.6l-.7-.6a2.4 2.4 0 1 1 3-3.6l.7.6a2.4 2.4 0 0 1-1.5 4.2Zm-136-.5a2.4 2.4 0 0 1-1.5-4.2l.8-.6a2.4 2.4 0 1 1 3 3.7l-.8.6c-.4.4-1 .5-1.5.5Zm127.6-5.8c-.4 0-.9-.2-1.3-.5l-.8-.5a2.4 2.4 0 1 1 2.7-4c.2.3.5.5.8.6a2.4 2.4 0 0 1-1.4 4.4ZM67.6 8.8a2.4 2.4 0 0 1-1.3-4.3l.8-.6a2.4 2.4 0 1 1 2.6 4l-.8.5a2 2 0 0 1-1.3.4ZM178 3.7c-.4 0-.8 0-1.1-.3L176 3a2.4 2.4 0 0 1 2.2-4.2l.9.5a2.4 2.4 0 0 1-1.2 4.4ZM76.6 3.4a2.4 2.4 0 0 1-1.1-4.5l.8-.4a2.4 2.4 0 1 1 2.2 4.2l-.8.4c-.4.2-.7.3-1.1.3Zm91.9-4.2-1-.2-.8-.4a2.4 2.4 0 0 1 1.8-4.4l1 .4a2.4 2.4 0 0 1-1 4.6ZM86-1.1a2.4 2.4 0 0 1-.9-4.5L86-6a2.4 2.4 0 1 1 1.8 4.4l-.9.3-.9.2Zm72.7-3.3c-.3 0-.5 0-.7-.2l-1-.2a2.4 2.4 0 1 1 1.4-4.6l1 .3a2.4 2.4 0 0 1-.7 4.7Zm-62.8-.2a2.4 2.4 0 0 1-.7-4.7l.9-.2A2.4 2.4 0 1 1 97.4-5c-.3 0-.6.2-.8.3h-.7Zm52.6-2.5a2 2 0 0 1-.4 0l-1-.2a2.4 2.4 0 0 1 1-4.6c.3 0 .6 0 1 .2a2.4 2.4 0 0 1-.6 4.6ZM106-7a2.4 2.4 0 0 1-.5-4.8l1-.1a2.4 2.4 0 0 1 .9 4.6l-1 .2h-.4Zm32.2-1.6H137a2.4 2.4 0 1 1 .5-4.8l1 .1c1.2.2 2.2 1.3 2 2.6a2.4 2.4 0 0 1-2.3 2.1Zm-21.8 0a2.4 2.4 0 0 1-.3-4.7l1-.1a2.4 2.4 0 0 1 .4 4.7h-1.2Zm11.3-.5h-.9a2.4 2.4 0 1 1 0-4.8h1a2.4 2.4 0 0 1 0 4.8Zm1 241.1a2.4 2.4 0 0 1 0-4.7h1c1.2 0 2.3 1 2.3 2.3 0 1.3-1 2.4-2.3 2.4h-1Zm-9.5-.2h-1.1a2.4 2.4 0 0 1 .3-4.8l1 .1a2.4 2.4 0 0 1-.2 4.7Zm20-.3a2.4 2.4 0 0 1-.3-4.7l1-.1a2.4 2.4 0 0 1 .4 4.7h-1l-.2.1Zm-30.4-.7h-.3l-1-.1a2.4 2.4 0 0 1 .7-4.7l1 .1a2.4 2.4 0 0 1-.4 4.7Zm40.7-.6a2.4 2.4 0 0 1-.4-4.7l1-.2a2.4 2.4 0 1 1 .7 4.7l-1 .1h-.3Zm-51-1.2H98l-1-.2a2.4 2.4 0 1 1 1.1-4.6l1 .2c1.2.2 2 1.5 1.7 2.8a2.4 2.4 0 0 1-2.3 1.8Zm61.2-1c-1 0-2-.7-2.3-1.8-.3-1.2.5-2.5 1.7-2.8l1-.3a2.4 2.4 0 1 1 1.1 4.6l-1 .3h-.5Zm-71.3-1.5-.7-.1-.9-.3a2.4 2.4 0 0 1 1.4-4.6l.9.3a2.4 2.4 0 0 1-.7 4.6Zm81.3-1.4a2.4 2.4 0 0 1-.7-4.6l.9-.3a2.4 2.4 0 1 1 1.5 4.5l-1 .3-.7.1Zm-91.2-2c-.3 0-.5 0-.8-.2l-1-.3a2.4 2.4 0 0 1 1.8-4.4l.9.3a2.4 2.4 0 0 1-.9 4.6Zm101-1.7a2.4 2.4 0 0 1-1-4.5l1-.4a2.4 2.4 0 0 1 1.8 4.4l-.9.3c-.3.2-.6.2-.9.2ZM68.9 219c-.3 0-.7 0-1-.2l-.9-.4a2.4 2.4 0 0 1 2.1-4.3l.8.4a2.4 2.4 0 0 1-1 4.6Zm120-2a2.4 2.4 0 0 1-1-4.4l.8-.4c1.1-.6 2.5-.2 3.2 1 .6 1.1.1 2.6-1 3.2l-.9.4a2 2 0 0 1-1 .3Zm-129.2-2.8a2 2 0 0 1-1.2-.4l-.8-.4a2.4 2.4 0 0 1 2.4-4.1l.8.4a2.4 2.4 0 0 1-1.2 4.5Zm138.3-2.3c-.8 0-1.6-.4-2-1.1-.7-1.1-.4-2.6.7-3.3l.8-.4a2.4 2.4 0 1 1 2.6 4l-.9.5-1.2.3Zm-147.2-3.3c-.4 0-.9-.1-1.3-.4l-.8-.6a2.4 2.4 0 1 1 2.7-3.9l.8.6c1 .7 1.3 2.2.6 3.3-.5.6-1.2 1-2 1Zm155.8-2.5a2.4 2.4 0 0 1-1.4-4.3l.8-.6a2.4 2.4 0 1 1 2.8 3.8l-.8.6c-.4.3-.9.5-1.4.5Zm-164.1-3.8c-.6 0-1-.1-1.5-.5l-.8-.6a2.4 2.4 0 1 1 3-3.6l.8.5a2.4 2.4 0 0 1-1.5 4.3Zm172.3-2.7c-.7 0-1.3-.3-1.8-.8-.9-1-.8-2.5.2-3.4l.7-.6a2.4 2.4 0 1 1 3.2 3.6l-.8.6c-.4.4-1 .6-1.5.6Zm-180.2-4.1a2 2 0 0 1-1.6-.7l-.7-.6a2.4 2.4 0 1 1 3.2-3.4l.7.6a2.4 2.4 0 0 1-1.6 4Zm187.8-3a2.4 2.4 0 0 1-1.6-4l.6-.7a2.4 2.4 0 0 1 3.4 3.3l-.7.7c-.4.4-1 .7-1.7.7ZM27.3 188c-.7 0-1.3-.2-1.8-.7l-.6-.8a2.4 2.4 0 0 1 3.5-3.1l.6.7a2.4 2.4 0 0 1-1.7 4Zm202.2-3.2c-.5 0-1-.2-1.5-.6-1-.8-1.1-2.3-.3-3.3l.6-.7a2.4 2.4 0 0 1 3.6 3l-.6.8c-.5.5-1.1.8-1.8.8Zm-209-4.8c-.6 0-1.3-.3-1.8-.9l-.6-.7a2.4 2.4 0 0 1 3.8-3l.5.8a2.4 2.4 0 0 1-1.8 3.8Zm215.5-3.4a2.4 2.4 0 0 1-2-3.8l.6-.7a2.4 2.4 0 1 1 3.8 2.7l-.5.8c-.5.6-1.2 1-2 1Zm-221.5-5c-.8 0-1.5-.4-2-1.1l-.5-.8a2.4 2.4 0 0 1 4-2.6l.5.8a2.4 2.4 0 0 1-2 3.7Zm227.3-3.7c-.4 0-.9-.1-1.3-.4a2.4 2.4 0 0 1-.7-3.2l.5-.8a2.4 2.4 0 1 1 4 2.4l-.5.9c-.5.7-1.2 1-2 1ZM9 162.5c-.9 0-1.7-.4-2-1.2l-.6-.8a2.4 2.4 0 0 1 4.2-2.3l.4.8a2.4 2.4 0 0 1-2 3.5Zm237.8-3.8c-.4 0-.7-.1-1-.3-1.2-.6-1.7-2-1.1-3.2l.4-.8a2.4 2.4 0 1 1 4.2 2.1l-.4.9c-.4.8-1.2 1.3-2.1 1.3ZM4.4 153.2c-1 0-1.8-.5-2.2-1.4l-.4-.8c-.5-1.2 0-2.6 1.2-3.2 1.2-.5 2.6 0 3.2 1.2l.3.9a2.4 2.4 0 0 1-2.1 3.3Zm247-4c-.4 0-.7 0-1-.2a2.4 2.4 0 0 1-1.3-3l.4-1a2.4 2.4 0 0 1 4.4 1.8l-.4 1c-.4.9-1.3 1.4-2.2 1.4Zm-251-5.6c-1 0-1.8-.6-2.2-1.6l-.3-.9a2.4 2.4 0 1 1 4.4-1.6l.4.9a2.4 2.4 0 0 1-2.3 3.2Zm254.5-4.2-.7-.1c-1.2-.4-2-1.8-1.5-3l.3-.9a2.4 2.4 0 0 1 4.5 1.4l-.3 1c-.3 1-1.3 1.6-2.3 1.6Zm-257.7-5.8c-1 0-2-.7-2.3-1.7l-.2-1c-.3-1.2.4-2.5 1.7-2.8 1.2-.4 2.5.4 2.9 1.6l.2 1a2.4 2.4 0 0 1-2.3 3Zm260.6-4.2-.5-.1c-1.3-.3-2-1.6-1.8-2.9l.2-.9c.3-1.3 1.6-2 2.9-1.7 1.3.3 2 1.5 1.7 2.8l-.2 1c-.2 1-1.2 1.8-2.3 1.8Zm-263-6c-1 0-2-.7-2.3-1.8l-.2-1a2.4 2.4 0 0 1 4.7-.9l.1 1a2.4 2.4 0 0 1-2.3 2.8Zm265-4.3h-.3a2.4 2.4 0 0 1-2-2.7l.2-1a2.4 2.4 0 1 1 4.7.8l-.2 1c-.2 1-1.2 2-2.3 2Zm-266.6-6c-1.2 0-2.2-.8-2.3-2l-.2-1a2.4 2.4 0 1 1 4.8-.5v1a2.4 2.4 0 0 1-2.3 2.6Zm268-4.3h-.2a2.4 2.4 0 0 1-2.2-2.6v-1a2.4 2.4 0 0 1 4.7.4v1a2.4 2.4 0 0 1-2.3 2.2Zm-268.8-6c-1.3 0-2.3-1-2.4-2.3v-1a2.4 2.4 0 1 1 4.7-.1v.9c.1 1.3-.9 2.4-2.2 2.5h-.1Zm269.2-4.5c-1.3 0-2.3-1-2.3-2.4v-1.2a2.4 2.4 0 0 1 4.7 0V96c0 1.3-1 2.3-2.4 2.3Zm-269.2-6h-.1A2.4 2.4 0 0 1-10 90v-1a2.5 2.5 0 0 1 2.5-2.3c1.3.1 2.3 1.2 2.3 2.5v1c0 1.2-1.1 2.2-2.4 2.2Zm268.9-4.7c-1.2 0-2.3-1-2.4-2.2v-1a2.4 2.4 0 0 1 4.7-.3v1c.1 1.3-.9 2.4-2.2 2.5h-.1ZM-6.8 81.9h-.3a2.4 2.4 0 0 1-2-2.6v-1a2.4 2.4 0 1 1 4.7.6v.9a2.4 2.4 0 0 1-2.4 2.1Zm267-4.7c-1.2 0-2.2-.8-2.4-2l-.1-1a2.4 2.4 0 1 1 4.6-.7l.2 1a2.4 2.4 0 0 1-2.4 2.7ZM-5.3 71.6h-.5a2.4 2.4 0 0 1-1.9-2.8l.2-1a2.4 2.4 0 1 1 4.7 1l-.2.9a2.4 2.4 0 0 1-2.3 1.9ZM258.2 67c-1 0-2-.8-2.3-1.9l-.2-.9a2.4 2.4 0 0 1 4.6-1l.2.9a2.4 2.4 0 0 1-2.3 2.9Zm-261-5.6h-.7c-1.2-.4-2-1.7-1.6-3l.2-.9a2.4 2.4 0 1 1 4.6 1.3l-.3.9c-.3 1-1.2 1.7-2.2 1.7ZM255.4 57c-1 0-1.9-.7-2.2-1.7l-.3-.9a2.4 2.4 0 1 1 4.5-1.4l.3 1a2.4 2.4 0 0 1-2.3 3ZM.4 51.5c-.3 0-.6 0-.9-.2a2.4 2.4 0 0 1-1.4-3l.3-1a2.4 2.4 0 0 1 3-1.3c1.3.5 2 1.8 1.5 3l-.4 1c-.3.9-1.2 1.5-2.2 1.5ZM251.8 47c-1 0-1.8-.6-2.2-1.5l-.3-.9a2.4 2.4 0 0 1 4.3-1.8l.4.9a2.4 2.4 0 0 1-2.2 3.3ZM4.3 41.8c-.4 0-.7 0-1-.2-1.2-.6-1.7-2-1.2-3.2l.4-.8a2.4 2.4 0 1 1 4.3 2l-.4.8c-.4.9-1.2 1.4-2.1 1.4Zm243.3-4.3c-.8 0-1.7-.4-2-1.3l-.5-.8a2.4 2.4 0 0 1 4.2-2.1l.5.8a2.4 2.4 0 0 1-2.1 3.4ZM9 32.5a2 2 0 0 1-1-.3c-1.2-.7-1.7-2.1-1-3.3l.4-.8a2.4 2.4 0 1 1 4.2 2.3l-.5.8c-.4.8-1.2 1.3-2 1.3Zm233.7-4.1c-.8 0-1.5-.4-2-1.2l-.5-.8a2.4 2.4 0 1 1 4-2.4l.6.8a2.4 2.4 0 0 1-2 3.6ZM14.3 23.5c-.4 0-.9-.1-1.3-.4-1-.7-1.3-2.2-.6-3.3l.5-.8c.7-1 2.2-1.3 3.3-.6 1 .7 1.4 2.2.7 3.3l-.6.7c-.4.7-1.2 1.1-2 1.1ZM237 19.6c-.7 0-1.4-.3-1.9-1l-.5-.7a2.4 2.4 0 0 1 3.8-2.8l.6.8a2.4 2.4 0 0 1-2 3.7ZM20.4 15a2.4 2.4 0 0 1-1.9-3.8l.6-.8a2.4 2.4 0 1 1 3.8 3l-.6.7c-.5.6-1.2.9-1.9.9Zm210.2-3.6c-.7 0-1.4-.3-1.8-.9l-.6-.7a2.4 2.4 0 0 1 3.6-3l.6.7a2.4 2.4 0 0 1-1.8 3.9ZM27 7c-.5 0-1.1-.2-1.6-.6-1-.9-1-2.4-.1-3.4l.6-.7a2.4 2.4 0 1 1 3.5 3.2l-.6.7c-.5.5-1.1.8-1.8.8Zm196.5-3.4c-.6 0-1.2-.2-1.7-.7l-.6-.7a2.4 2.4 0 0 1 3.3-3.3l.7.7a2.4 2.4 0 0 1-1.7 4ZM34.4-.4c-.6 0-1.2-.3-1.7-.8-.9-1-.8-2.5.1-3.4l.7-.6a2.4 2.4 0 0 1 3.2 3.4l-.6.7c-.5.4-1 .6-1.7.6Zm181.7-3.2c-.6 0-1.2-.2-1.6-.6l-.7-.6a2.4 2.4 0 0 1 3.1-3.6l.7.6a2.4 2.4 0 0 1-1.5 4.2ZM42.3-7.3a2.4 2.4 0 0 1-1.5-4.3l.7-.6a2.4 2.4 0 0 1 3 3.7l-.7.6c-.5.4-1 .6-1.5.6Zm165.7-3c-.5 0-1 0-1.5-.4l-.7-.6c-1-.7-1.3-2.2-.5-3.3.8-1 2.3-1.2 3.3-.5l.8.6a2.4 2.4 0 0 1-1.4 4.3ZM50.7-13.5c-.8 0-1.5-.4-2-1-.7-1-.5-2.6.6-3.3l.8-.6a2.4 2.4 0 1 1 2.7 4l-.8.5c-.4.3-.9.4-1.3.4Zm148.7-2.6a2 2 0 0 1-1.3-.4l-.8-.5a2.4 2.4 0 0 1 2.5-4l.9.6a2.4 2.4 0 0 1-1.3 4.3Zm-140-3a2.4 2.4 0 0 1-1.1-4.4l.8-.5a2.4 2.4 0 1 1 2.3 4.1l-.8.5a2 2 0 0 1-1.1.3Zm131-2.3c-.4 0-.8 0-1.1-.2l-.9-.5a2.4 2.4 0 0 1 2.2-4.2l.9.5a2.4 2.4 0 0 1-1.1 4.5ZM68.7-24c-.9 0-1.8-.5-2.2-1.3-.5-1.2 0-2.6 1.2-3.2l.8-.4a2.4 2.4 0 0 1 2 4.3l-.8.4c-.3.2-.7.2-1 .2ZM181-26l-1-.1-.8-.4a2.4 2.4 0 1 1 1.8-4.3l1 .3a2.4 2.4 0 0 1-1 4.6ZM78.2-28.1a2.4 2.4 0 0 1-.8-4.6l.9-.3a2.4 2.4 0 0 1 1.7 4.4l-.9.3-.9.2Zm93-1.6c-.2 0-.5 0-.7-.2l-1-.3a2.4 2.4 0 1 1 1.6-4.5l1 .4c1.2.4 1.8 1.7 1.4 3-.4 1-1.3 1.6-2.3 1.6Zm-83-1.8a2.4 2.4 0 0 1-.8-4.6l1-.3a2.4 2.4 0 1 1 1.3 4.5l-.9.3-.7.1Zm73-1.3h-.6l-.9-.3a2.4 2.4 0 0 1 1.2-4.6l1 .3c1.2.3 2 1.6 1.6 2.8a2.3 2.3 0 0 1-2.3 1.8Zm-63-1.3a2.4 2.4 0 0 1-.5-4.7l1-.2a2.4 2.4 0 1 1 1 4.6l-1 .2h-.5Zm52.9-1h-.5l-.9-.1a2.4 2.4 0 0 1 .8-4.7l1 .2a2.4 2.4 0 0 1-.4 4.7Zm-42.6-.8a2.4 2.4 0 0 1-.3-4.7l1-.2a2.4 2.4 0 1 1 .6 4.7l-1 .1h-.3Zm32.2-.6h-.2l-1-.1a2.4 2.4 0 0 1 .5-4.7h1c1.2.2 2.2 1.4 2 2.7a2.4 2.4 0 0 1-2.3 2.1ZM119-37a2.4 2.4 0 0 1-.1-4.7h1c1.2-.1 2.3.9 2.4 2.2 0 1.3-1 2.4-2.2 2.5H119Zm11.4-.2h-1a2.4 2.4 0 0 1 0-4.7h1a2.4 2.4 0 0 1 0 4.8Zm-1.7 255.6a2.4 2.4 0 0 1 0-4.8h.9c1.3 0 2.4 1 2.4 2.3 0 1.3-1 2.4-2.3 2.5h-1Zm-9.5-.3h-1.1a2.4 2.4 0 1 1 .4-4.7h.9a2.4 2.4 0 0 1-.2 4.8Zm19.9-.3a2.4 2.4 0 0 1-.3-4.7l1-.1a2.4 2.4 0 1 1 .5 4.7H139Zm-30.2-.8h-.4l-1-.1a2.4 2.4 0 0 1 .8-4.7l1 .1a2.4 2.4 0 0 1-.4 4.7Zm40.5-.7a2.4 2.4 0 0 1-.4-4.7l.9-.2a2.4 2.4 0 1 1 .9 4.7l-1 .2h-.4Zm-50.7-1.2-.6-.1-1-.2a2.4 2.4 0 0 1 1.2-4.6l1 .2a2.4 2.4 0 0 1-.6 4.7Zm60.8-1.1a2.4 2.4 0 0 1-.6-4.7l.9-.2a2.4 2.4 0 0 1 1.3 4.5l-1 .3h-.6Zm-70.8-1.8-.8-.1-1-.3a2.4 2.4 0 0 1 1.6-4.5l1 .3a2.4 2.4 0 0 1-.8 4.6Zm80.7-1.5a2.4 2.4 0 0 1-.8-4.6l.9-.3c1.2-.5 2.5.2 3 1.4s-.1 2.6-1.3 3l-1 .4-.8.1ZM79 208.5c-.3 0-.6 0-1-.2l-.8-.4a2.4 2.4 0 1 1 2-4.3l.8.3a2.4 2.4 0 0 1-1 4.6Zm100-1.8a2.4 2.4 0 0 1-1-4.5l.9-.4a2.4 2.4 0 1 1 2 4.2l-.8.4a2 2 0 0 1-1 .3Zm-109.4-2.8c-.3 0-.7 0-1-.3l-1-.4A2.4 2.4 0 1 1 70 199l.8.5a2.4 2.4 0 0 1-1.2 4.4Zm118.7-2.1c-.8 0-1.6-.4-2-1.2-.7-1.1-.4-2.6.8-3.2l.8-.5a2.4 2.4 0 0 1 2.4 4l-.8.6-1.2.3Zm-127.6-3.2c-.4 0-.9-.1-1.3-.4l-.8-.5c-1-.8-1.4-2.2-.7-3.3a2.4 2.4 0 0 1 3.3-.7l.8.5a2.4 2.4 0 0 1-1.3 4.4Zm136.3-2.5a2.4 2.4 0 0 1-1.4-4.3l.8-.5a2.4 2.4 0 1 1 2.8 3.8l-.8.6c-.4.3-1 .4-1.4.4Zm-144.7-3.6c-.6 0-1-.2-1.5-.5l-.8-.6a2.4 2.4 0 1 1 3-3.7l.7.6a2.4 2.4 0 0 1-1.4 4.2Zm153-2.8c-.7 0-1.4-.2-1.9-.8-.8-1-.7-2.5.3-3.3l.7-.6a2.4 2.4 0 0 1 3.1 3.6l-.7.6c-.5.4-1 .5-1.6.5Zm-161-4c-.5 0-1.1-.2-1.6-.6l-.7-.7a2.4 2.4 0 1 1 3.3-3.4l.7.6a2.4 2.4 0 0 1-1.6 4.1Zm168.6-3a2.4 2.4 0 0 1-1.7-4l.7-.7a2.4 2.4 0 0 1 3.3 3.3l-.6.7c-.5.5-1.1.7-1.7.7ZM37 178.3c-.7 0-1.3-.3-1.8-.8l-.6-.7a2.4 2.4 0 0 1 3.5-3.2l.6.7a2.4 2.4 0 0 1-1.7 4Zm182.8-3.3c-.5 0-1-.2-1.5-.6-1-.8-1.2-2.3-.3-3.3l.6-.7a2.4 2.4 0 1 1 3.6 3l-.6.7c-.4.6-1.1.9-1.8.9Zm-189.4-4.8c-.8 0-1.5-.3-2-.9l-.5-.8c-.8-1-.6-2.5.5-3.3 1-.8 2.5-.5 3.3.5l.5.8a2.4 2.4 0 0 1-1.8 3.8Zm195.7-3.5c-.4 0-1-.1-1.3-.4a2.3 2.3 0 0 1-.6-3.3l.5-.8a2.4 2.4 0 1 1 4 2.7l-.6.8c-.5.7-1.2 1-2 1Zm-201.7-5c-.7 0-1.5-.4-2-1.1l-.5-.8a2.4 2.4 0 1 1 4-2.5l.5.8a2.4 2.4 0 0 1-2 3.6Zm207.3-3.7a2.4 2.4 0 0 1-2-3.6l.5-.8a2.4 2.4 0 1 1 4 2.3l-.4.9c-.5.7-1.2 1.2-2 1.2Zm-212.4-5.4c-.9 0-1.7-.4-2.1-1.2l-.4-.9a2.4 2.4 0 0 1 4.2-2.1l.4.8a2.4 2.4 0 0 1-2.1 3.5Zm217.3-3.9c-.4 0-.7 0-1-.2-1.2-.6-1.7-2-1.2-3.2l.4-.8c.6-1.2 2-1.7 3.1-1.2 1.2.6 1.8 2 1.2 3.2l-.4.9c-.4.8-1.2 1.3-2.1 1.3Zm-221.7-5.5c-.9 0-1.8-.6-2.2-1.5l-.3-.9a2.4 2.4 0 0 1 4.4-1.7l.3.8a2.4 2.4 0 0 1-2.2 3.3Zm225.7-4-.8-.2a2.4 2.4 0 0 1-1.4-3l.3-1a2.4 2.4 0 0 1 4.4 1.7l-.3.9c-.3 1-1.3 1.5-2.2 1.5Zm-229.2-5.8c-1 0-2-.6-2.2-1.7l-.3-.9a2.4 2.4 0 1 1 4.5-1.4l.3 1a2.4 2.4 0 0 1-2.3 3Zm232.3-4.2-.6-.1c-1.2-.3-2-1.6-1.6-3l.2-.8a2.4 2.4 0 1 1 4.6 1.2l-.3 1c-.3 1-1.2 1.7-2.3 1.7Zm-235-5.9c-1 0-2-.7-2.3-1.8l-.2-1a2.4 2.4 0 1 1 4.7-1l.2 1a2.4 2.4 0 0 1-2.4 2.8ZM246 119h-.4a2.4 2.4 0 0 1-1.9-2.7l.2-1a2.4 2.4 0 0 1 4.6.8l-.1 1c-.2 1.2-1.2 2-2.4 2ZM7 113c-1.2 0-2.2-.8-2.4-2l-.1-1a2.4 2.4 0 0 1 4.7-.5l.1 1A2.4 2.4 0 0 1 7 113Zm240.4-4.3h-.2a2.4 2.4 0 0 1-2.1-2.6v-.9a2.4 2.4 0 0 1 4.8.4l-.1 1a2.4 2.4 0 0 1-2.4 2.1Zm-241.3-6c-1.3 0-2.3-1-2.4-2.3v-1a2.4 2.4 0 1 1 4.7 0v.8c.1 1.4-.9 2.5-2.2 2.5H6ZM248 98.3c-1.4 0-2.4-1-2.4-2.4v-1.2a2.4 2.4 0 0 1 4.7 0V96c0 1.3-1 2.3-2.3 2.3Zm-242-6A2.4 2.4 0 0 1 3.7 90v-1a2.4 2.4 0 1 1 4.8.2v1a2.5 2.5 0 0 1-2.4 2.2Zm241.6-4.7c-1.2 0-2.3-.9-2.4-2.1v-1a2.4 2.4 0 1 1 4.7-.4v1c.1 1.3-.8 2.4-2.1 2.5h-.2ZM6.9 82h-.3a2.4 2.4 0 0 1-2-2.6l.1-1a2.4 2.4 0 0 1 4.7.7l-.1.9c-.2 1.2-1.2 2-2.4 2Zm239.4-4.6c-1.1 0-2.1-.8-2.3-2l-.2-.9a2.4 2.4 0 0 1 4.7-.8l.2 1a2.4 2.4 0 0 1-2.4 2.7ZM8.7 71.7h-.5c-1.3-.3-2-1.6-1.8-2.9l.2-1a2.4 2.4 0 0 1 4.6 1.1l-.2 1a2.4 2.4 0 0 1-2.3 1.8ZM244.2 67c-1.1 0-2-.7-2.3-1.7l-.3-1a2.4 2.4 0 0 1 4.6-1.2l.2 1a2.4 2.4 0 0 1-2.3 3ZM11.3 61.6h-.7c-1.2-.5-2-1.8-1.5-3l.3-1a2.4 2.4 0 0 1 4.5 1.5l-.3.8c-.3 1-1.3 1.7-2.3 1.7Zm229.8-4.4c-1 0-1.9-.6-2.2-1.6l-.3-.9a2.4 2.4 0 1 1 4.4-1.6l.4 1a2.4 2.4 0 0 1-2.3 3ZM14.8 51.8c-.3 0-.6 0-.9-.2a2.4 2.4 0 0 1-1.3-3l.4-1a2.4 2.4 0 0 1 4.4 1.9l-.4.8c-.3 1-1.2 1.5-2.2 1.5Zm222.5-4.3c-1 0-1.8-.5-2.2-1.4l-.4-.8a2.4 2.4 0 0 1 4.3-2l.4.9a2.4 2.4 0 0 1-2.1 3.3ZM19.2 42.3c-.4 0-.8 0-1.1-.2-1.2-.6-1.6-2-1-3.2l.4-.9a2.4 2.4 0 0 1 4.2 2.2l-.4.8c-.4.8-1.3 1.3-2.1 1.3Zm213.4-4c-.9 0-1.7-.5-2.1-1.3l-.5-.8a2.4 2.4 0 1 1 4.1-2.3l.5.8a2.4 2.4 0 0 1-2 3.6Zm-208.3-5a2 2 0 0 1-1.2-.4 2.4 2.4 0 0 1-.8-3.3l.5-.8a2.4 2.4 0 1 1 4 2.6l-.5.8c-.4.7-1.2 1-2 1Zm202.8-3.9c-.8 0-1.5-.4-2-1l-.5-.8a2.4 2.4 0 0 1 3.9-2.7l.5.8a2.4 2.4 0 0 1-2 3.7ZM30.2 24.7c-.5 0-1-.2-1.4-.5-1-.8-1.3-2.3-.5-3.3l.6-.8a2.4 2.4 0 0 1 3.8 2.9l-.6.7c-.4.6-1.2 1-1.9 1ZM221 21c-.7 0-1.4-.3-1.9-1l-.6-.6a2.4 2.4 0 1 1 3.7-3l.6.7A2.4 2.4 0 0 1 221 21ZM37 16.5a2.4 2.4 0 0 1-1.8-4l.6-.6a2.4 2.4 0 1 1 3.5 3.2l-.6.7c-.5.5-1.1.7-1.8.7Zm177-3.3c-.6 0-1.2-.3-1.6-.7l-.7-.7a2.4 2.4 0 1 1 3.4-3.3l.7.7a2.4 2.4 0 0 1-1.7 4Zm-169.8-4c-.6 0-1.3-.3-1.7-.7-1-1-.9-2.5 0-3.4l.8-.7A2.4 2.4 0 0 1 46.4 8l-.7.7c-.4.4-1 .6-1.6.6Zm162.3-3.1c-.6 0-1.1-.2-1.6-.6l-.7-.6a2.4 2.4 0 1 1 3.1-3.6l.8.7a2.4 2.4 0 0 1-1.6 4.1ZM52 2.4a2.4 2.4 0 0 1-1.5-4.2l.8-.6a2.4 2.4 0 0 1 2.9 3.7l-.7.6a3 3 0 0 1-1.5.5ZM198.3-.4c-.5 0-1-.1-1.4-.4l-.8-.6a2.4 2.4 0 0 1 2.8-3.8l.8.5a2.4 2.4 0 0 1-1.4 4.3ZM60.4-3.7A2.4 2.4 0 0 1 59.1-8l.8-.6c1.1-.7 2.6-.4 3.3.7.7 1.1.4 2.6-.7 3.3l-.8.5a2 2 0 0 1-1.3.4Zm129.2-2.5c-.4 0-.8 0-1.2-.3l-.8-.5a2.4 2.4 0 1 1 2.4-4l.8.4a2.4 2.4 0 0 1-1.2 4.4ZM69.3-9a2.4 2.4 0 0 1-1-4.5l.8-.4a2.4 2.4 0 0 1 2.2 4.1l-.8.5-1.1.3Zm111.2-2.2c-.4 0-.7 0-1-.2l-1-.4a2.4 2.4 0 0 1 2.2-4.3l.8.4a2.4 2.4 0 0 1-1 4.5ZM78.7-13.6a2.4 2.4 0 0 1-1-4.5l1-.4a2.4 2.4 0 1 1 1.8 4.3l-.9.4-.9.2Zm92.2-1.8-.8-.1-.9-.4a2.4 2.4 0 0 1 1.7-4.4l.9.3a2.4 2.4 0 0 1-.9 4.6Zm-82.5-2c-1 0-2-.6-2.3-1.6-.4-1.2.3-2.5 1.5-3l1-.3a2.4 2.4 0 1 1 1.4 4.5l-.9.3-.7.2Zm72.7-1.3-.7-.1-.9-.3a2.4 2.4 0 0 1 1.3-4.6l1 .3a2.4 2.4 0 0 1-.7 4.7Zm-62.7-1.5c-1 0-2-.8-2.3-1.8-.3-1.3.5-2.6 1.7-2.9l1-.2a2.4 2.4 0 1 1 1 4.6l-.9.2h-.5Zm52.6-1h-.5l-1-.3a2.4 2.4 0 1 1 1-4.6l1 .2a2.4 2.4 0 0 1-.5 4.7Zm-42.4-1a2.4 2.4 0 0 1-.3-4.7l1-.2a2.4 2.4 0 1 1 .6 4.7l-1 .1h-.3Zm32-.6h-.2l-.9-.2a2.4 2.4 0 1 1 .5-4.7l1 .1a2.4 2.4 0 0 1-.3 4.8Zm-21.6-.6a2.4 2.4 0 0 1-.2-4.7h1c1.3-.1 2.4.9 2.5 2.2 0 1.3-1 2.4-2.3 2.5h-1Zm11.3-.2h-1A2.4 2.4 0 0 1 127-26c0-1.3 1.2-2.4 2.4-2.3h1a2.4 2.4 0 0 1 0 4.7Zm-3.3 213h-1a2.3 2.3 0 0 1-2.3-2.4c0-1.3 1-2.3 2.4-2.3h.9a2.3 2.3 0 1 1 0 4.7Zm9.4-.5a2.4 2.4 0 0 1-.3-4.7l1-.1a2.4 2.4 0 1 1 .5 4.7l-1 .1h-.2Zm-19.7 0h-.3l-1-.2a2.4 2.4 0 0 1 .7-4.7l.9.1a2.4 2.4 0 0 1-.3 4.7Zm29.9-1.6a2.4 2.4 0 0 1-.5-4.7l.9-.2a2.4 2.4 0 0 1 1 4.6l-1 .2-.4.1Zm-40-.2h-.6l-1-.3a2.4 2.4 0 0 1 1.2-4.6l.9.2a2.4 2.4 0 0 1-.6 4.7Zm50-2.6a2.4 2.4 0 0 1-.9-4.6l1-.3a2.4 2.4 0 1 1 1.5 4.5l-1 .3-.7.1Zm-60-.2c-.2 0-.5 0-.8-.2l-.9-.3a2.4 2.4 0 0 1 1.6-4.4l.9.3c1.2.4 1.9 1.8 1.5 3-.4 1-1.3 1.6-2.3 1.6Zm69.5-3.6a2.4 2.4 0 0 1-1-4.5l.8-.4a2.4 2.4 0 0 1 2 4.3l-.8.4-1 .2Zm-79-.4c-.4 0-.7 0-1-.2l-1-.4a2.4 2.4 0 0 1 2.2-4.3l.8.4a2.4 2.4 0 0 1-1 4.5Zm88-4.5a2.4 2.4 0 0 1-1.2-4.4l.8-.5a2.4 2.4 0 1 1 2.5 4l-.8.5a2 2 0 0 1-1.3.4Zm-97-.5c-.5 0-1 0-1.3-.3l-.8-.6a2.4 2.4 0 1 1 2.5-4l.8.6a2.4 2.4 0 0 1-1.2 4.3Zm105.5-5.4c-.7 0-1.4-.3-1.9-1-.8-1-.6-2.4.5-3.2l.7-.6a2.4 2.4 0 0 1 3 3.7l-.8.6a3 3 0 0 1-1.5.5Zm-114-.5a2 2 0 0 1-1.4-.6l-.8-.6a2.4 2.4 0 1 1 3-3.6l.7.5a2.4 2.4 0 0 1-1.5 4.3Zm121.8-6.3c-.6 0-1.3-.2-1.7-.7-1-1-1-2.5 0-3.4l.7-.6a2.4 2.4 0 0 1 3.3 3.3l-.7.7a2 2 0 0 1-1.6.7Zm-129.5-.6a2 2 0 0 1-1.6-.7l-.7-.7a2.4 2.4 0 1 1 3.4-3.3l.6.6a2.4 2.4 0 0 1-1.7 4Zm136.4-7c-.5 0-1-.2-1.5-.6-1-.8-1.1-2.3-.3-3.3l.6-.7a2.4 2.4 0 0 1 3.7 3l-.6.7c-.5.6-1.2.9-1.9.9Zm-143.2-.7c-.7 0-1.4-.3-1.9-.9l-.6-.8a2.4 2.4 0 1 1 3.7-2.9l.6.7a2.4 2.4 0 0 1-1.8 3.9Zm149.3-7.7a2.4 2.4 0 0 1-2-3.6l.5-.8a2.4 2.4 0 0 1 4 2.5l-.5.8c-.5.7-1.2 1.1-2 1.1ZM49 146.4c-.8 0-1.6-.4-2-1.1l-.5-.8a2.4 2.4 0 0 1 4-2.5l.5.8a2.4 2.4 0 0 1-2 3.6Zm160.4-8.3c-.4 0-.7 0-1-.2-1.3-.6-1.7-2-1.2-3.2l.4-.8a2.4 2.4 0 1 1 4.3 2l-.4 1c-.4.8-1.3 1.2-2.1 1.2ZM44 137.4c-.9 0-1.7-.5-2.2-1.4l-.4-.8a2.4 2.4 0 1 1 4.3-2l.4.8a2.4 2.4 0 0 1-2.1 3.4Zm169.4-8.7a2.4 2.4 0 0 1-2.2-3.2l.3-.9a2.4 2.4 0 1 1 4.5 1.6l-.4.9c-.3 1-1.2 1.6-2.2 1.6ZM40 127.9c-1 0-1.9-.7-2.2-1.6l-.3-1a2.4 2.4 0 0 1 4.5-1.5l.3.9a2.4 2.4 0 0 1-2.3 3.1Zm176.4-9.1a2.4 2.4 0 0 1-2.3-3l.2-.8a2.4 2.4 0 1 1 4.6 1l-.2 1c-.3 1-1.2 1.8-2.3 1.8Zm-179.2-.9c-1.1 0-2.1-.7-2.3-1.8l-.3-1a2.4 2.4 0 1 1 4.7-1l.2 1a2.4 2.4 0 0 1-2.3 2.8Zm181-9.3h-.3a2.4 2.4 0 0 1-2-2.6v-1a2.4 2.4 0 1 1 4.7.6v1c-.2 1.1-1.2 2-2.4 2Zm-182.8-.8c-1.2 0-2.2-1-2.3-2.1l-.1-1a2.4 2.4 0 1 1 4.7-.5v1c.2 1.2-.7 2.4-2 2.6h-.3ZM219 98.3c-1.4 0-2.4-1-2.4-2.4v-1.1a2.4 2.4 0 1 1 4.7 0V96c0 1.3-1 2.3-2.3 2.3Zm-184-.8c-1.4 0-2.4-1-2.4-2.4v-1c0-1.3 1-2.3 2.4-2.3 1.3 0 2.3 1 2.3 2.4v1c0 1.2-1 2.3-2.3 2.3Zm183.5-9.7c-1.2 0-2.3-.9-2.4-2v-1a2.4 2.4 0 1 1 4.6-.5l.1 1a2.4 2.4 0 0 1-2.3 2.5Zm-183-.6h-.2a2.4 2.4 0 0 1-2.1-2.6v-1a2.4 2.4 0 1 1 4.8.6l-.1.9a2.4 2.4 0 0 1-2.4 2Zm181.3-9.6c-1 0-2-.7-2.3-1.8 0-.3 0-.6-.2-1a2.4 2.4 0 0 1 4.7-1c0 .3 0 .7.2 1a2.4 2.4 0 0 1-2.3 2.8ZM37.2 77h-.5c-1.3-.3-2-1.6-1.8-2.9l.2-1c.3-1.2 1.6-2 2.9-1.7 1.2.3 2 1.6 1.7 2.9l-.2.9a2.4 2.4 0 0 1-2.3 1.8Zm176.9-9.3c-1 0-2-.6-2.3-1.6l-.3-.9a2.4 2.4 0 1 1 4.5-1.5l.3.9a2.4 2.4 0 0 1-2.2 3.1Zm-174-.6-.8-.1a2.4 2.4 0 0 1-1.5-3l.3-1a2.4 2.4 0 0 1 4.5 1.6l-.3.9c-.3 1-1.3 1.6-2.2 1.6Zm170.1-9c-.9 0-1.7-.5-2.1-1.3l-.4-.8a2.4 2.4 0 0 1 4.2-2.1l.4.9a2.4 2.4 0 0 1-2 3.3ZM44 57.5a2.4 2.4 0 0 1-2.1-3.3l.4-1a2.4 2.4 0 1 1 4.2 2.2l-.4.8c-.4.9-1.2 1.4-2.1 1.4Zm161.3-8.4c-.8 0-1.6-.4-2-1.1l-.5-.8a2.4 2.4 0 1 1 4-2.5l.5.8a2.4 2.4 0 0 1-2 3.6ZM49 48.5a3 3 0 0 1-1.3-.3 2.4 2.4 0 0 1-.7-3.3l.5-.8a2.4 2.4 0 1 1 4 2.5l-.5.8c-.5.7-1.2 1.1-2 1.1Zm150.4-7.9c-.7 0-1.4-.3-1.9-.9l-.5-.7a2.4 2.4 0 1 1 3.7-3l.5.8a2.4 2.4 0 0 1-1.8 3.8ZM55 40.1c-.6 0-1-.2-1.5-.5-1-.8-1.2-2.3-.4-3.3l.6-.8a2.4 2.4 0 1 1 3.7 3l-.6.7c-.5.6-1.2.9-1.9.9Zm137.6-7.2c-.6 0-1.3-.3-1.7-.7l-.7-.7a2.4 2.4 0 0 1 3.4-3.3l.7.6a2.4 2.4 0 0 1-1.7 4Zm-130.8-.5a2.4 2.4 0 0 1-1.7-4l.7-.7a2.4 2.4 0 0 1 3.4 3.4l-.7.6c-.5.5-1 .7-1.7.7ZM185 25.9c-.5 0-1-.1-1.5-.5l-.7-.6a2.4 2.4 0 1 1 3-3.7l.7.6A2.4 2.4 0 0 1 185 26Zm-115.4-.4a2.4 2.4 0 0 1-1.5-4.2l.8-.6a2.4 2.4 0 0 1 2.9 3.7l-.7.6a3 3 0 0 1-1.5.5Zm107-5.6a2 2 0 0 1-1.2-.4l-.8-.5a2.4 2.4 0 0 1 2.5-4l.9.5a2.4 2.4 0 0 1-1.3 4.4ZM78 19.5a2.4 2.4 0 0 1-1.3-4.3l.9-.5a2.4 2.4 0 1 1 2.4 4l-.7.5a3 3 0 0 1-1.3.3Zm89.7-4.7c-.4 0-.7 0-1-.2l-.9-.4a2.4 2.4 0 1 1 2-4.3l1 .4a2.4 2.4 0 0 1-1.1 4.5ZM87 14.5a2.4 2.4 0 0 1-1-4.5l.9-.4a2.4 2.4 0 0 1 2 4.3l-.8.4-1 .2Zm71.2-3.7c-.3 0-.5 0-.8-.2l-.9-.3a2.4 2.4 0 1 1 1.6-4.5l1 .4a2.4 2.4 0 0 1-.9 4.6Zm-61.7-.2a2.4 2.4 0 0 1-.7-4.6l.9-.4a2.4 2.4 0 1 1 1.5 4.5l-.9.3-.8.2Zm51.8-2.8h-.5l-1-.2a2.4 2.4 0 0 1 1.1-4.6c.3 0 .6 0 1 .2a2.4 2.4 0 0 1-.6 4.6Zm-41.9-.1a2.4 2.4 0 0 1-.5-4.7l1-.2a2.4 2.4 0 1 1 1 4.6 36.4 36.4 0 0 0-1.5.3ZM138.1 6h-1.3a2.4 2.4 0 1 1 .6-4.8l1 .1c1.2.2 2.2 1.4 2 2.7-.1 1.2-1.2 2-2.3 2Zm-21.6 0a2.4 2.4 0 0 1-.2-4.8h1a2.4 2.4 0 1 1 .4 4.6l-1 .1h-.2Zm11.3-.6h-1a2.4 2.4 0 0 1 0-4.8h1a2.4 2.4 0 0 1 0 4.8Z"/>
    <g filter="url(#b)">
      <rect width="120.7" height="69.7" x="10.7" y="55.9" fill="#fff" rx="5.8"/>
    </g>
    <path fill="#A8ABB2" d="m21.5 71.1-.8-.1-.5-.4-.2-.7h.8c0 .2 0 .3.2.5l.5.1h.4l.3-.4v-.8l-.3-.3a.8.8 0 0 0-.4-.1 1 1 0 0 0-.4 0l-.3.2H20l.2-2.3h2.5v.7H21l-.2 1.1.4-.2.5-.1a1.3 1.3 0 0 1 1.1.7l.2.7c0 .3 0 .5-.2.7-.1.3-.3.4-.5.6l-.8.1Z"/>
    <path fill="#D9D9D9" fill-opacity=".5" d="M35 66.4h85.7v4.1H35z"/>
    <path fill="#646464" fill-opacity=".5" d="M35 66.4h72.1v4.1H35z"/>
    <path fill="#646464" fill-opacity=".5" d="M35 66.4h72.1v4.1H35z"/>
    <path fill="#646464" fill-opacity=".5" d="M35 66.4h72.1v4.1H35z"/>
    <path fill="#D58743" d="M35 66.4h72.1v4.1H35z"/>
    <path fill="#D9D9D9" fill-opacity=".5" d="M35 77.5h85.7v4.1H35zm0 11.2h85.7v4.1H35zm0 11.7h85.7v4.1H35zm0 11.1h85.7v4.1H35z"/>
    <path fill="#646464" fill-opacity=".5" d="M35 77.5h63.2v4.1H35z"/>
    <path fill="#646464" fill-opacity=".5" d="M35 77.5h63.2v4.1H35z"/>
    <path fill="#646464" fill-opacity=".5" d="M35 77.5h63.2v4.1H35z"/>
    <path fill="#D58743" d="M35 77.5h63.2v4.1H35z"/>
    <path fill="#646464" fill-opacity=".5" d="M35 88.7h51.4v4.1H35z"/>
    <path fill="#646464" fill-opacity=".5" d="M35 88.7h51.4v4.1H35z"/>
    <path fill="#646464" fill-opacity=".5" d="M35 88.7h51.4v4.1H35z"/>
    <path fill="#D58743" d="M35 88.7h51.4v4.1H35z"/>
    <path fill="#646464" fill-opacity=".5" d="M35 100.4h17.1v4.1H35z"/>
    <path fill="#646464" fill-opacity=".5" d="M35 100.4h17.1v4.1H35z"/>
    <path fill="#646464" fill-opacity=".5" d="M35 100.4h17.1v4.1H35z"/>
    <path fill="#D58743" d="M35 100.4h17.1v4.1H35z"/>
    <g clip-path="url(#c)" opacity=".4">
      <path fill="#0F172A" d="M28.5 66.2c0-.3.4-.3.5 0l.6 1.4 1.6.1c.3 0 .4.4.2.5l-1.2 1 .3 1.5c.1.3-.2.5-.4.4l-1.3-.8-1.4.8c-.2.1-.5-.1-.4-.4l.3-1.5-1.1-1a.3.3 0 0 1 .1-.5l1.6-.1.6-1.4Z"/>
    </g>
    <path fill="#A8ABB2" d="M20 81.4v-.6l1.7-2.8h.5v.8H22l-1.2 2h2.5v.6H20Zm2 .8V78h.7v4.2H22Z"/>
    <g clip-path="url(#d)" opacity=".4">
      <path fill="#0F172A" d="M28.5 77.3c0-.3.4-.3.5 0l.6 1.4 1.6.1c.3 0 .4.4.2.6l-1.2 1 .3 1.5c.1.2-.2.4-.4.3l-1.3-.8-1.4.8c-.2.1-.5 0-.4-.3l.3-1.5-1.1-1a.3.3 0 0 1 .1-.6H28l.6-1.5Z"/>
    </g>
    <path fill="#A8ABB2" d="M21.5 93.4a2 2 0 0 1-.8-.1l-.5-.5c-.2-.1-.2-.4-.2-.6h.7c0 .1 0 .2.2.3l.2.2h.8l.3-.2.1-.4-.1-.3-.3-.2-.5-.1h-.3v-.6h.7l.3-.3v-.7l-.2-.2h-.4a1 1 0 0 0-.3 0l-.3.2-.1.3H20c0-.2 0-.4.2-.6 0-.2.3-.3.5-.4l.7-.2c.3 0 .6 0 .8.2l.5.4.1.6c0 .3 0 .5-.2.6a1 1 0 0 1-.5.3l.7.4.2.7c0 .2 0 .4-.2.6l-.6.5a2 2 0 0 1-.8.1Z"/>
    <g clip-path="url(#e)" opacity=".4">
      <path fill="#0F172A" d="M28.5 88.4c0-.2.4-.2.5 0l.6 1.4 1.6.2c.3 0 .4.3.2.5l-1.2 1 .3 1.5c.1.3-.2.5-.4.3l-1.3-.8-1.4.8c-.2.2-.5 0-.4-.3l.3-1.5-1.1-1a.3.3 0 0 1 .1-.5l1.6-.2.6-1.4Z"/>
    </g>
    <path fill="#A8ABB2" d="M20 104.5v-.6l1.5-1.4.3-.4.2-.3.1-.4v-.3l-.3-.2-.4-.1H21l-.2.3-.1.4H20c0-.3 0-.5.2-.7 0-.2.2-.4.5-.5l.7-.1.8.1.5.5.2.6-.1.5-.4.5a8 8 0 0 1-.6.7l-.7.7h1.8v.7H20Z"/>
    <path fill="#0F172A" d="M28.5 99.6c0-.3.4-.3.5 0l.6 1.4 1.6.1c.3 0 .4.4.2.5l-1.2 1 .3 1.5c.1.3-.2.5-.4.4l-1.3-.8-1.4.8c-.2.1-.5-.1-.4-.4l.3-1.5-1.1-1a.3.3 0 0 1 .1-.5l1.6-.1.6-1.4Z" opacity=".4"/>
    <path fill="#A8ABB2" d="M22.3 110.8v4.2h-.8v-3.5l-1 .7v-.7l1-.7h.8Z"/>
    <g clip-path="url(#f)" opacity=".4">
      <path fill="#0F172A" d="M28.5 110.1c0-.2.4-.2.5 0l.6 1.4 1.6.2c.3 0 .4.3.2.5l-1.2 1 .3 1.5c.1.2-.2.4-.4.3l-1.3-.8-1.4.8c-.2.1-.5 0-.4-.3l.3-1.5-1.1-1a.3.3 0 0 1 .1-.5l1.6-.2.6-1.4Z"/>
    </g>
    <g filter="url(#g)">
      <rect width="104.9" height="82" x="138.5" y="37.4" fill="#fff" rx="5.8"/>
    </g>
    <path fill="#D58743" d="M154.5 98.9c.2-.5.9-.5 1 0l1.1 2.6 2.8.2c.5 0 .7.6.4 1l-2.2 1.8.7 2.7c0 .5-.4.9-.9.6l-2.4-1.5-2.4 1.5c-.4.3-.9-.1-.8-.6l.7-2.7-2.2-1.8a.6.6 0 0 1 .3-1l2.8-.2 1.1-2.6Zm12.5 0c.1-.5.8-.5 1 0l1 2.6 2.8.2c.5 0 .7.6.4 1l-2.2 1.8.7 2.7c.1.5-.4.9-.8.6l-2.5-1.5-2.4 1.5c-.4.3-.9-.1-.8-.6l.7-2.7-2.2-1.8a.6.6 0 0 1 .3-1l2.9-.2 1-2.6Zm12.3 0c.2-.5.9-.5 1 0l1.1 2.6 2.9.2c.4 0 .6.6.3 1l-2.2 1.8.7 2.7c.1.5-.4.9-.8.6l-2.4-1.5-2.4 1.5c-.5.3-1-.1-.9-.6l.7-2.7-2.2-1.8a.6.6 0 0 1 .4-1l2.8-.2 1-2.6Zm12.4 0c.2-.5.9-.5 1 0l1.2 2.6 2.8.2c.5 0 .7.6.3 1l-2.2 1.8.7 2.7c.1.5-.4.9-.8.6l-2.4-1.5-2.4 1.5c-.5.3-1-.1-.9-.6l.7-2.7-2.2-1.8a.6.6 0 0 1 .4-1l2.8-.2 1-2.6Z"/>
    <g clip-path="url(#h)">
      <path stroke="#D58743" stroke-linecap="round" stroke-linejoin="round" stroke-width="1.7" d="M203.8 99c.1-.3.4-.3.5 0l1 2.4.3.2 2.7.2c.3 0 .4.3.2.5l-2 1.7c-.2.1-.2.2-.2.3l.7 2.6c0 .3-.2.5-.5.3l-2.3-1.4h-.3l-2.3 1.4c-.2.2-.5 0-.4-.3l.6-2.6v-.3l-2.1-1.7c-.2-.2-.1-.5.1-.5l2.7-.2c.1 0 .2 0 .3-.2l1-2.5Z"/>
    </g>
    <path fill="#000" d="M153.2 55.4c0 .3-.2.6-.4 1a2 2 0 0 1-1 .3c-.7 0-1.2-.2-1.5-.6-.4-.4-.5-1-.5-1.7s.2-1.4.8-2.1c.6-.7 1.3-1.2 2.1-1.6l.4.6c-.6.3-1.2.7-1.5 1.1a3 3 0 0 0-.7 1.5h.5c.4 0 .7 0 .9.2.2 0 .4.1.5.3.2.1.3.3.3.4l.1.6Zm4.2 0c0 .3-.1.6-.4 1a2 2 0 0 1-1 .3c-.7 0-1.2-.2-1.5-.6-.3-.4-.5-1-.5-1.7s.3-1.4.9-2.1c.5-.7 1.2-1.2 2-1.6l.4.6c-.6.3-1.1.7-1.5 1.1-.4.4-.6 1-.6 1.5h.5c.3 0 .6 0 .8.2.3 0 .4.1.6.3l.2.4.1.6Z"/>
    <path fill="#ADA4A4" fill-opacity=".5" d="M149.1 70.2h85.7v2.3h-85.7zm0-6.4h85.7v2.3h-85.7z"/>
    <path fill="#080808" fill-opacity=".5" d="M165.1 49.2h69.7v2.3h-69.7zm0 5.2h69.7v2.3h-69.7z"/>
    <path fill="#ADA4A4" fill-opacity=".5" d="M149.1 77.3h85.7v2.3h-85.7zm0 7h85.7v2.3h-85.7z"/>
  </g>
  <defs>
    <clipPath id="a">
      <path fill="#fff" d="M0 0h256v160H0z"/>
    </clipPath>
    <clipPath id="c">
      <path fill="#fff" d="M25.5 65.2H32v6.4h-6.5z"/>
    </clipPath>
    <clipPath id="d">
      <path fill="#fff" d="M25.5 76.4H32v6.4h-6.5z"/>
    </clipPath>
    <clipPath id="e">
      <path fill="#fff" d="M25.5 87.5H32v6.4h-6.5z"/>
    </clipPath>
    <clipPath id="f">
      <path fill="#fff" d="M25.5 109.2H32v6.4h-6.5z"/>
    </clipPath>
    <clipPath id="h">
      <path fill="#fff" d="M198.2 97.2H210V109h-11.8z"/>
    </clipPath>
    <filter id="b" width="129" height="78" x="4.3" y="55.2" color-interpolation-filters="sRGB" filterUnits="userSpaceOnUse">
      <feFlood flood-opacity="0" result="BackgroundImageFix"/>
      <feColorMatrix in="SourceAlpha" result="hardAlpha" values="0 0 0 0 0 0 0 0 0 0 0 0 0 0 0 0 0 0 127 0"/>
      <feMorphology in="SourceAlpha" radius="1.2" result="effect1_dropShadow_22_3218"/>
      <feOffset dx="-2.3" dy="3.5"/>
      <feGaussianBlur stdDeviation="2.6"/>
      <feComposite in2="hardAlpha" operator="out"/>
      <feColorMatrix values="0 0 0 0 0.893057 0 0 0 0 0.845663 0 0 0 0 0.826149 0 0 0 1 0"/>
      <feBlend in2="BackgroundImageFix" result="effect1_dropShadow_22_3218"/>
      <feBlend in="SourceGraphic" in2="effect1_dropShadow_22_3218" result="shape"/>
    </filter>
    <filter id="g" width="122.4" height="99.5" x="129.8" y="29.8" color-interpolation-filters="sRGB" filterUnits="userSpaceOnUse">
      <feFlood flood-opacity="0" result="BackgroundImageFix"/>
      <feColorMatrix in="SourceAlpha" result="hardAlpha" values="0 0 0 0 0 0 0 0 0 0 0 0 0 0 0 0 0 0 127 0"/>
      <feOffset dy="1.2"/>
      <feGaussianBlur stdDeviation="4.4"/>
      <feComposite in2="hardAlpha" operator="out"/>
      <feColorMatrix values="0 0 0 0 0.930252 0 0 0 0 0.91737 0 0 0 0 0.912066 0 0 0 1 0"/>
      <feBlend in2="BackgroundImageFix" result="effect1_dropShadow_22_3218"/>
      <feBlend in="SourceGraphic" in2="effect1_dropShadow_22_3218" result="shape"/>
    </filter>
  </defs>
</svg>