<svg viewBox="0 0 256 160" fill="none" xmlns="http://www.w3.org/2000/svg">
        <g clip-path="url(#clip0_22_4650)">
            <rect width="256" height="160" fill="#E6EAEF"/>
            <rect width="256" height="160" fill="#E6EAEF"/>
            <rect x="26" y="21" width="203" height="118" rx="12" fill="white"/>
            <path d="M38.1718 103.162H66.8661C68.0421 103.162 68.994 104.112 68.994 105.28V121.532C68.994 122.701 68.0421 123.651 66.8661 123.651H38.1718C36.9957 123.651 36.0438 122.701 36.0438 121.532V105.28C36.0438 104.185 36.8803 103.281 37.954 103.173L38.1718 103.162Z" fill="white" stroke="#C9C9C9" stroke-width="0.5"/>
            <path d="M55.4721 116.974H49.5654V106.403H55.4721V116.974Z" fill="#6C6BBD"/>
            <path d="M49.9405 111.688C49.9405 109.544 50.9488 107.634 52.5188 106.403C51.3707 105.502 49.9219 104.965 48.347 104.965C44.619 104.965 41.5969 107.975 41.5969 111.688C41.5969 115.401 44.619 118.411 48.347 118.411C49.9219 118.411 51.3707 117.874 52.5188 116.974C50.9488 115.743 49.9405 113.833 49.9405 111.688Z" fill="#D32011"/>
            <path d="M63.4406 111.688C63.4406 115.402 60.4186 118.412 56.6905 118.412C55.1156 118.412 53.6668 117.874 52.5183 116.974C54.0888 115.743 55.0971 113.833 55.0971 111.688C55.0971 109.544 54.0888 107.634 52.5183 106.403C53.6668 105.503 55.116 104.965 56.6905 104.965C60.4186 104.965 63.4406 107.975 63.4406 111.688Z" fill="#0099DF"/>
            <path d="M57.4704 119.961C57.549 119.961 57.6618 119.976 57.748 120.01L57.628 120.376C57.5457 120.342 57.4631 120.331 57.3841 120.331C57.129 120.331 57.0017 120.495 57.0017 120.79V121.791H56.6116V120.006H56.9981V120.223C57.0992 120.066 57.2459 119.961 57.4708 119.961L57.4704 119.961ZM56.0293 120.361H55.3918V121.168C55.3918 121.347 55.4554 121.466 55.6505 121.466C55.7516 121.466 55.8794 121.433 55.995 121.366L56.1075 121.698C55.9837 121.784 55.7891 121.836 55.6202 121.836C55.1588 121.836 54.998 121.59 54.998 121.175V120.361H54.6341V120.006H54.998V119.465H55.3918V120.006H56.0293V120.361ZM51.0382 120.741C51.0797 120.484 51.2369 120.308 51.5146 120.308C51.7656 120.308 51.9268 120.465 51.9683 120.741H51.0382ZM52.3733 120.898C52.3693 120.342 52.0244 119.961 51.5218 119.961C51.0193 119.961 50.6296 120.342 50.6296 120.898C50.6296 121.455 51.012 121.836 51.5484 121.836C51.8184 121.836 52.0655 121.769 52.2831 121.585L52.0917 121.298C51.9417 121.417 51.7503 121.484 51.5706 121.484C51.3195 121.484 51.0906 121.368 51.0346 121.048H52.3657C52.3697 120.999 52.3733 120.951 52.3733 120.898ZM54.0869 120.462C53.9785 120.394 53.7572 120.308 53.5283 120.308C53.3147 120.308 53.187 120.387 53.187 120.518C53.187 120.637 53.3216 120.671 53.4904 120.693L53.6742 120.719C54.0643 120.776 54.3004 120.94 54.3004 121.254C54.3004 121.594 54.0006 121.836 53.4832 121.836C53.1906 121.836 52.9206 121.762 52.7066 121.605L52.8904 121.302C53.0218 121.403 53.2168 121.489 53.4868 121.489C53.7568 121.489 53.8954 121.411 53.8954 121.272C53.8954 121.172 53.7943 121.115 53.5803 121.086L53.3965 121.06C52.9952 121.003 52.7775 120.824 52.7775 120.533C52.7775 120.178 53.0701 119.962 53.5239 119.962C53.8088 119.962 54.0675 120.026 54.2549 120.148L54.0861 120.462L54.0869 120.462ZM58.8958 120.33C58.8156 120.33 58.7414 120.344 58.6721 120.372C58.6036 120.4 58.544 120.439 58.4936 120.49C58.4432 120.54 58.4037 120.601 58.3751 120.672C58.3465 120.742 58.3324 120.82 58.3324 120.904C58.3324 120.989 58.3465 121.067 58.3751 121.137C58.4037 121.208 58.4432 121.268 58.4936 121.319C58.544 121.37 58.6036 121.409 58.6721 121.437C58.741 121.465 58.8156 121.479 58.8958 121.479C58.976 121.479 59.0505 121.465 59.1194 121.437C59.1883 121.409 59.2488 121.37 59.2988 121.319C59.3499 121.268 59.3894 121.208 59.4184 121.137C59.4471 121.067 59.4616 120.99 59.4616 120.904C59.4616 120.819 59.4475 120.742 59.4184 120.672C59.3894 120.601 59.3499 120.54 59.2988 120.49C59.2484 120.439 59.1883 120.4 59.1194 120.372C59.0509 120.344 58.976 120.33 58.8958 120.33ZM58.8958 119.961C59.0348 119.961 59.1638 119.985 59.2822 120.034C59.4007 120.081 59.5031 120.148 59.5897 120.232C59.6764 120.316 59.7437 120.416 59.7928 120.53C59.8416 120.645 59.8662 120.77 59.8662 120.904C59.8662 121.039 59.8416 121.164 59.7928 121.279C59.7441 121.393 59.6764 121.494 59.5897 121.577C59.5035 121.662 59.4007 121.728 59.2822 121.776C59.1638 121.823 59.0352 121.848 58.8958 121.848C58.7563 121.848 58.6278 121.823 58.5093 121.776C58.3908 121.728 58.2893 121.662 58.2034 121.577C58.1176 121.493 58.0503 121.393 58.0011 121.279C57.9524 121.164 57.9278 121.039 57.9278 120.904C57.9278 120.77 57.9524 120.645 58.0011 120.53C58.0499 120.416 58.1176 120.316 58.2034 120.232C58.2893 120.148 58.3908 120.081 58.5093 120.034C58.6278 119.985 58.7563 119.961 58.8958 119.961ZM48.7601 120.898C48.7601 120.585 48.9664 120.327 49.3038 120.327C49.6411 120.327 49.8438 120.574 49.8438 120.898C49.8438 121.223 49.6261 121.47 49.3038 121.47C48.9814 121.47 48.7601 121.212 48.7601 120.898ZM50.2113 120.898V120.006H49.8216V120.223C49.6975 120.062 49.5105 119.961 49.2554 119.961C48.7529 119.961 48.3591 120.353 48.3591 120.898C48.3591 121.444 48.7529 121.836 49.2554 121.836C49.5105 121.836 49.6975 121.735 49.8216 121.574V121.791H50.2113V120.898ZM48.0142 121.791V120.671C48.0142 120.249 47.7442 119.965 47.3093 119.961C47.0804 119.957 46.8443 120.028 46.6795 120.279C46.5557 120.081 46.3607 119.961 46.0867 119.961C45.8956 119.961 45.7083 120.017 45.5616 120.226V120.006H45.1719V121.791H45.5656V120.802C45.5656 120.492 45.7381 120.327 46.0041 120.327C46.27 120.327 46.3941 120.495 46.3941 120.798V121.791H46.7879V120.802C46.7879 120.492 46.968 120.327 47.2263 120.327C47.4846 120.327 47.6205 120.495 47.6205 120.798V121.791H48.0142V121.791Z" fill="#110F0D"/>
            <path d="M76.1661 103.162H104.298C105.444 103.162 106.379 104.107 106.379 105.28V121.532C106.379 122.706 105.444 123.651 104.298 123.651H76.1661C75.0205 123.651 74.0851 122.706 74.0851 121.532V105.28C74.0851 104.107 75.0205 103.162 76.1661 103.162Z" fill="white" stroke="#C9C9C9" stroke-width="0.5"/>
            <path d="M93.1275 117.018H87.3367V106.447H93.1275V117.018Z" fill="#FF5F00"/>
            <path d="M87.7044 111.733C87.7044 109.588 88.6929 107.678 90.2321 106.447C89.1065 105.547 87.6862 105.01 86.1422 105.01C82.4872 105.01 79.5244 108.02 79.5244 111.733C79.5244 115.446 82.4872 118.456 86.1422 118.456C87.6862 118.456 89.1065 117.919 90.2321 117.018C88.6929 115.787 87.7044 113.877 87.7044 111.733Z" fill="#EB001B"/>
            <path d="M100.94 111.733C100.94 115.446 97.9772 118.456 94.3222 118.456C92.7782 118.456 91.3578 117.919 90.2318 117.018C91.7715 115.787 92.76 113.877 92.76 111.733C92.76 109.588 91.7715 107.678 90.2318 106.447C91.3578 105.547 92.7786 105.01 94.3222 105.01C97.9772 105.01 100.94 108.02 100.94 111.733Z" fill="#F79E1B"/>
            <path d="M88.7896 121.446C88.6047 121.446 88.5478 121.333 88.5478 121.16V120.391H89.1425V120.05H88.5478V119.53H88.1757V120.05H87.8331V120.391H88.1757V121.167C88.1757 121.563 88.3282 121.801 88.7604 121.801C88.9192 121.801 89.1029 121.75 89.2183 121.669L89.1101 121.351C89.0133 121.409 88.9042 121.442 88.7896 121.446V121.446Z" fill="#110F0D"/>
            <path d="M90.2827 120.006C89.7912 120.006 89.4451 120.373 89.4451 120.904C89.4451 121.435 89.8062 121.802 90.3075 121.802C90.5596 121.802 90.7943 121.736 90.9966 121.564L90.8204 121.285C90.6789 121.399 90.5063 121.461 90.3289 121.465C90.0954 121.465 89.8781 121.355 89.8247 121.047H91.076C91.0796 121 91.0835 120.956 91.0835 120.904C91.08 120.373 90.7548 120.006 90.2827 120.006ZM89.8275 120.754C89.867 120.509 90.016 120.34 90.2755 120.34C90.5138 120.34 90.6651 120.49 90.7015 120.754H89.8279H89.8275Z" fill="#110F0D"/>
            <path d="M86.9999 120.731L86.8265 120.71C86.6724 120.687 86.542 120.654 86.542 120.541C86.542 120.416 86.6649 120.339 86.8632 120.339C87.0793 120.339 87.2852 120.42 87.3895 120.486L87.5447 120.185C87.3713 120.068 87.1263 120.01 86.8596 120.01C86.4337 120.01 86.1595 120.215 86.1595 120.556C86.1595 120.834 86.3646 121.002 86.7403 121.058L86.913 121.083C87.1113 121.113 87.2093 121.164 87.2093 121.263C87.2093 121.394 87.0754 121.469 86.8233 121.469C86.6246 121.475 86.4262 121.413 86.2635 121.293L86.0944 121.582C86.2919 121.732 86.5452 121.802 86.8194 121.802C87.3061 121.802 87.5878 121.571 87.5878 121.245C87.5878 120.945 87.3669 120.787 86.9995 120.731H86.9999Z" fill="#110F0D"/>
            <path d="M85.3725 120.259C85.2469 120.091 85.0486 119.999 84.8388 120.006C84.3698 120.006 83.9984 120.384 83.9984 120.904C83.9984 121.425 84.3698 121.802 84.8388 121.802C85.0486 121.813 85.2469 121.718 85.3725 121.552V121.758H85.7372V120.051H85.3725V120.259ZM84.8858 121.454C84.5681 121.454 84.3734 121.204 84.3734 120.904C84.3734 120.604 84.5681 120.358 84.8858 120.358C85.2034 120.358 85.3911 120.593 85.3911 120.904C85.3911 121.216 85.1888 121.454 84.8858 121.454Z" fill="#110F0D"/>
            <path d="M83.014 120.006C82.7971 120.003 82.5771 120.072 82.4222 120.31C82.3068 120.112 82.0943 119.999 81.8663 120.006C81.6715 119.995 81.4838 120.095 81.3724 120.259V120.051H81.0085V121.758H81.376V120.812C81.376 120.516 81.5384 120.358 81.7908 120.358C82.0433 120.358 82.1555 120.52 82.1555 120.809V121.758H82.5229V120.812C82.5229 120.516 82.6928 120.358 82.9386 120.358C83.1843 120.358 83.306 120.52 83.306 120.809V121.758H83.6734V120.687C83.6734 120.285 83.4214 120.01 83.014 120.006Z" fill="#110F0D"/>
            <path d="M91.8195 120.259V120.051H91.4584V121.758H91.827V120.802C91.827 120.519 91.9451 120.362 92.1834 120.362C92.2553 120.362 92.3347 120.373 92.4105 120.406L92.5259 120.054C92.4402 120.024 92.3533 120.007 92.2628 120.007C92.0826 120.003 91.9127 120.098 91.823 120.259H91.8195Z" fill="#110F0D"/>
            <path d="M99.0919 120.259C98.9655 120.091 98.7668 119.999 98.5617 120.006C98.0888 120.006 97.7206 120.384 97.7206 120.904C97.7206 121.425 98.0892 121.802 98.5617 121.802C98.7668 121.81 98.9651 121.718 99.0919 121.552V121.758H99.4558V119.365H99.0919V120.259ZM98.6044 121.454C98.2875 121.454 98.0963 121.204 98.0963 120.904C98.0963 120.604 98.2911 120.358 98.6044 120.358C98.9177 120.358 99.1133 120.593 99.1133 120.904C99.1133 121.216 98.9082 121.454 98.6044 121.454Z" fill="#110F0D"/>
            <path d="M96.906 120.259V120.051H96.5449V121.758H96.9088V120.802C96.9088 120.519 97.0281 120.362 97.2664 120.362C97.3422 120.362 97.4177 120.373 97.4971 120.406L97.6089 120.054C97.5259 120.024 97.4398 120.007 97.3493 120.007C97.1692 120.003 96.9957 120.098 96.906 120.259Z" fill="#110F0D"/>
            <path d="M95.6934 120.259C95.567 120.091 95.3722 119.999 95.1632 120.006C94.6943 120.006 94.3229 120.384 94.3229 120.904C94.3229 121.425 94.6943 121.802 95.1632 121.802C95.405 121.802 95.5781 121.707 95.6934 121.552V121.758H96.0609V120.051H95.6934V120.259ZM95.2106 121.454C94.893 121.454 94.7018 121.204 94.7018 120.904C94.7018 120.604 94.893 120.358 95.2106 120.358C95.5283 120.358 95.716 120.593 95.716 120.904C95.716 121.216 95.5137 121.454 95.2106 121.454Z" fill="#110F0D"/>
            <path d="M93.5216 120.358C93.6804 120.358 93.8357 120.414 93.9621 120.512L94.1356 120.212C93.9657 120.068 93.7523 119.995 93.5327 120.006C92.9878 120.006 92.635 120.387 92.635 120.904C92.635 121.421 92.9878 121.802 93.5327 121.802C93.7523 121.813 93.9657 121.74 94.1356 121.596L93.9621 121.3C93.8357 121.394 93.6804 121.45 93.5216 121.453C93.2296 121.446 93.0135 121.234 93.0135 120.904C93.0135 120.573 93.2296 120.361 93.5216 120.358V120.358Z" fill="#110F0D"/>
            <path d="M113.598 103.162H142.293C143.469 103.162 144.421 104.112 144.421 105.28V121.532C144.421 122.701 143.469 123.651 142.293 123.651H113.598C112.422 123.651 111.47 122.701 111.47 121.532V105.28C111.47 104.185 112.307 103.281 113.381 103.173L113.598 103.162Z" fill="white" stroke="#C9C9C9" stroke-width="0.5"/>
            <path d="M126.413 117.005H124.533L125.708 109.813H127.588L126.413 117.005Z" fill="#005CA8"/>
            <path d="M122.951 109.813L121.159 114.759L120.947 113.694L120.314 110.461C120.314 110.461 120.238 109.813 119.422 109.813H116.459L116.425 109.935C116.425 109.935 117.331 110.122 118.391 110.757L120.025 117.005H121.984L124.975 109.813H122.951V109.813Z" fill="#005CA8"/>
            <path d="M137.739 117.005H139.465L137.959 109.813H136.448C135.75 109.813 135.58 110.349 135.58 110.349L132.776 117.005H134.735L135.128 115.937H137.518L137.738 117.005H137.739ZM135.67 114.461L136.658 111.769L137.213 114.461H135.67Z" fill="#005CA8"/>
            <path d="M132.924 111.543L133.192 109.998C133.192 109.998 132.364 109.684 131.501 109.684C130.568 109.684 128.353 110.091 128.353 112.065C128.353 113.923 130.953 113.946 130.953 114.922C130.953 115.898 128.621 115.723 127.851 115.108L127.571 116.722C127.571 116.722 128.411 117.128 129.693 117.128C130.976 117.128 132.912 116.467 132.912 114.666C132.912 112.866 130.288 112.622 130.288 111.81C130.288 110.997 132.119 111.101 132.923 111.542L132.924 111.543Z" fill="#005CA8"/>
            <path d="M120.947 113.695L120.315 110.461C120.315 110.461 120.238 109.813 119.423 109.813H116.46L116.425 109.935C116.425 109.935 117.849 110.229 119.216 111.33C120.521 112.382 120.947 113.694 120.947 113.694V113.695Z" fill="#F6A723"/>
            <g filter="url(#filter0_d_22_4650)">
                <rect x="151.25" y="103.25" width="31.5" height="20.5" rx="2.75" fill="white" stroke="#D9D9D9" stroke-width="0.5"/>
                <path d="M171.574 110.823C172.708 110.823 173.776 111.8 173.782 113.593C173.782 115.553 172.727 116.443 171.568 116.443C170.998 116.443 170.654 116.214 170.421 116.054L170.415 117.803L168.796 118.131V110.922H170.221L170.305 111.305C170.532 111.107 170.94 110.823 171.574 110.823ZM157.761 110.823C158.298 110.823 158.829 110.903 159.366 111.107V112.561C158.874 112.307 158.253 112.164 157.761 112.164C157.418 112.164 157.21 112.257 157.21 112.498C157.21 113.191 159.677 112.864 159.684 114.706C159.683 115.813 158.757 116.449 157.41 116.449C156.853 116.449 156.245 116.344 155.643 116.097V114.625C156.187 114.909 156.873 115.12 157.41 115.12C157.773 115.12 158.032 115.027 158.032 114.743C158.032 114.007 155.571 114.279 155.571 112.572C155.572 111.478 156.446 110.823 157.761 110.823ZM161.581 110.928H162.812V112.245H161.581V114.44C161.582 115.355 162.604 115.071 162.812 114.99V116.245C162.598 116.356 162.21 116.449 161.679 116.449C160.72 116.449 160.001 115.775 160.001 114.86L160.008 109.908L161.588 109.587L161.581 110.928ZM176.548 110.823C178.083 110.823 178.886 112.072 178.886 113.654C178.886 113.803 178.873 114.125 178.873 114.205H175.706C175.778 114.934 176.334 115.144 176.962 115.145C177.603 115.145 178.109 115.015 178.549 114.805V116.041C178.109 116.276 177.526 116.443 176.755 116.443C175.175 116.443 174.074 115.503 174.073 113.643C174.073 112.072 175.007 110.823 176.548 110.823ZM164.826 111.386C165.208 110.718 165.965 110.854 166.173 110.928V112.351C165.972 112.283 165.325 112.196 164.943 112.672V116.338H163.323V110.928H164.723L164.826 111.386ZM168.193 116.338H166.568V110.928H168.193V116.338ZM171.186 112.195C170.817 112.195 170.584 112.319 170.415 112.498L170.421 114.792C170.576 114.953 170.804 115.083 171.186 115.083C171.781 115.083 172.183 114.464 172.183 113.636C172.183 112.826 171.775 112.195 171.186 112.195ZM176.541 112.078C176.133 112.078 175.687 112.369 175.687 113.067H177.358C177.358 112.369 176.936 112.078 176.541 112.078ZM168.193 110.124L166.568 110.458V109.197L168.193 108.869V110.124Z" fill="#6461FC"/>
            </g>
            <g filter="url(#filter1_d_22_4650)">
                <rect x="188.25" y="103.25" width="31.5" height="20.5" rx="2.75" fill="white" stroke="#D9D9D9" stroke-width="0.5"/>
                <path fill-rule="evenodd" clip-rule="evenodd" d="M197.051 116.336H195.629C195.532 116.336 195.449 116.403 195.434 116.495L194.859 119.986C194.847 120.055 194.903 120.117 194.976 120.117H195.655C195.752 120.117 195.835 120.049 195.85 119.957L196.005 119.016C196.02 118.923 196.103 118.856 196.2 118.856H196.651C197.588 118.856 198.128 118.422 198.27 117.562C198.333 117.186 198.272 116.89 198.088 116.683C197.886 116.456 197.527 116.336 197.051 116.336ZM197.216 117.611C197.138 118.099 196.748 118.099 196.371 118.099H196.156L196.307 117.187C196.316 117.132 196.366 117.091 196.424 117.091H196.522C196.779 117.091 197.021 117.091 197.147 117.231C197.221 117.315 197.244 117.439 197.216 117.611ZM201.303 117.595H200.622C200.564 117.595 200.514 117.635 200.505 117.691L200.475 117.873L200.427 117.807C200.28 117.602 199.951 117.534 199.623 117.534C198.87 117.534 198.227 118.079 198.102 118.844C198.037 119.226 198.129 119.591 198.356 119.846C198.563 120.08 198.86 120.177 199.214 120.177C199.82 120.177 200.156 119.804 200.156 119.804L200.126 119.985C200.114 120.055 200.17 120.117 200.243 120.117H200.856C200.954 120.117 201.036 120.049 201.052 119.957L201.42 117.726C201.431 117.657 201.376 117.595 201.303 117.595ZM200.354 118.864C200.288 119.236 199.979 119.486 199.585 119.486C199.387 119.486 199.229 119.425 199.128 119.31C199.027 119.196 198.989 119.033 199.021 118.852C199.082 118.483 199.396 118.225 199.784 118.225C199.978 118.225 200.135 118.286 200.238 118.402C200.342 118.52 200.383 118.683 200.354 118.864ZM204.246 117.595H204.93C205.026 117.595 205.082 117.698 205.028 117.773L202.751 120.918C202.714 120.969 202.654 120.999 202.589 120.999H201.905C201.809 120.999 201.753 120.895 201.809 120.82L202.517 119.862L201.764 117.745C201.737 117.671 201.794 117.595 201.876 117.595H202.549C202.636 117.595 202.713 117.65 202.738 117.73L203.138 119.009L204.082 117.678C204.119 117.626 204.181 117.595 204.246 117.595Z" fill="#253B80"/>
                <path fill-rule="evenodd" clip-rule="evenodd" d="M211.667 119.986L212.251 116.431C212.259 116.376 212.309 116.336 212.367 116.335H213.025C213.097 116.335 213.153 116.398 213.141 116.467L212.566 119.957C212.551 120.049 212.468 120.117 212.371 120.117H211.784C211.711 120.117 211.655 120.055 211.667 119.986ZM207.197 116.336H205.774C205.677 116.336 205.594 116.403 205.579 116.495L205.004 119.986C204.992 120.055 205.048 120.117 205.121 120.117H205.851C205.918 120.117 205.976 120.069 205.987 120.005L206.15 119.015C206.165 118.923 206.248 118.856 206.345 118.856H206.795C207.732 118.856 208.273 118.422 208.414 117.562C208.478 117.186 208.417 116.89 208.233 116.683C208.031 116.456 207.673 116.336 207.197 116.336ZM207.361 117.61C207.283 118.099 206.893 118.099 206.516 118.099H206.301L206.452 117.187C206.461 117.132 206.511 117.091 206.569 117.091H206.667C206.924 117.091 207.167 117.091 207.292 117.231C207.366 117.315 207.389 117.439 207.361 117.61ZM211.448 117.595H210.767C210.709 117.595 210.659 117.635 210.65 117.691L210.62 117.873L210.572 117.807C210.425 117.602 210.096 117.534 209.768 117.534C209.015 117.534 208.373 118.079 208.247 118.844C208.183 119.226 208.275 119.591 208.501 119.846C208.709 120.08 209.006 120.177 209.359 120.177C209.965 120.177 210.302 119.804 210.302 119.804L210.271 119.985C210.26 120.054 210.316 120.117 210.389 120.117H211.002C211.099 120.117 211.182 120.049 211.197 119.957L211.565 117.726C211.576 117.657 211.521 117.595 211.448 117.595ZM210.498 118.863C210.433 119.236 210.124 119.486 209.73 119.486C209.532 119.486 209.374 119.425 209.273 119.31C209.172 119.196 209.134 119.033 209.166 118.852C209.227 118.483 209.541 118.225 209.929 118.225C210.122 118.225 210.28 118.286 210.383 118.402C210.487 118.52 210.528 118.683 210.498 118.863Z" fill="#179BD7"/>
                <path d="M202.315 115.087L202.49 114.024L202.1 114.016H200.24L201.533 106.172C201.537 106.148 201.55 106.126 201.569 106.111C201.588 106.095 201.613 106.086 201.638 106.086H204.774C205.815 106.086 206.534 106.294 206.909 106.703C207.085 106.895 207.197 107.096 207.251 107.316C207.308 107.548 207.309 107.825 207.253 108.162L207.249 108.187V108.403L207.425 108.499C207.573 108.574 207.691 108.66 207.781 108.758C207.931 108.923 208.029 109.131 208.07 109.379C208.112 109.633 208.098 109.936 208.029 110.278C207.949 110.673 207.819 111.016 207.644 111.297C207.482 111.556 207.277 111.77 207.033 111.937C206.801 112.095 206.524 112.215 206.212 112.292C205.909 112.367 205.563 112.405 205.185 112.405H204.94C204.766 112.405 204.596 112.465 204.463 112.573C204.33 112.683 204.242 112.834 204.215 112.998L204.196 113.094L203.887 114.967L203.873 115.036C203.87 115.058 203.863 115.069 203.854 115.076C203.846 115.083 203.834 115.087 203.822 115.087H202.315Z" fill="#253B80"/>
                <path d="M207.592 108.212C207.582 108.269 207.572 108.328 207.56 108.388C207.146 110.42 205.731 111.122 203.924 111.122H203.004C202.783 111.122 202.597 111.276 202.562 111.484L202.091 114.343L201.958 115.154C201.935 115.291 202.046 115.414 202.19 115.414H203.822C204.015 115.414 204.179 115.28 204.21 115.098L204.226 115.018L204.533 113.152L204.553 113.05C204.583 112.867 204.747 112.732 204.941 112.732H205.185C206.766 112.732 208.004 112.118 208.365 110.34C208.516 109.598 208.438 108.978 208.038 108.541C207.917 108.41 207.767 108.301 207.592 108.212Z" fill="#179BD7"/>
                <path d="M207.159 108.047C207.096 108.029 207.03 108.013 206.964 107.999C206.896 107.985 206.828 107.973 206.757 107.962C206.509 107.923 206.237 107.905 205.946 107.905H203.488C203.427 107.905 203.37 107.918 203.318 107.942C203.205 107.994 203.121 108.097 203.1 108.222L202.577 111.392L202.562 111.484C202.597 111.276 202.783 111.122 203.004 111.122H203.924C205.731 111.122 207.146 110.42 207.559 108.388C207.572 108.328 207.582 108.269 207.591 108.212C207.487 108.159 207.374 108.114 207.251 108.075C207.221 108.065 207.19 108.056 207.159 108.047Z" fill="#222D65"/>
                <path d="M203.1 108.222C203.12 108.097 203.205 107.994 203.318 107.942C203.37 107.918 203.427 107.905 203.487 107.905H205.945C206.237 107.905 206.508 107.923 206.756 107.962C206.827 107.973 206.896 107.985 206.963 107.999C207.03 108.014 207.095 108.03 207.159 108.047C207.19 108.056 207.221 108.066 207.252 108.075C207.374 108.114 207.487 108.159 207.592 108.212C207.715 107.461 207.591 106.95 207.166 106.487C206.699 105.977 205.854 105.759 204.774 105.759H201.638C201.417 105.759 201.229 105.912 201.195 106.121L199.889 114.045C199.863 114.202 199.99 114.344 200.155 114.344H202.091L202.577 111.392L203.1 108.222Z" fill="#253B80"/>
            </g>
            <rect x="36" y="67" width="184" height="23" rx="6" fill="#4C515A"/>
            <path d="M112.721 81V75.1818H115.016C115.457 75.1818 115.833 75.2661 116.144 75.4347C116.454 75.6013 116.691 75.8333 116.854 76.1307C117.019 76.4261 117.101 76.767 117.101 77.1534C117.101 77.5398 117.018 77.8807 116.851 78.1761C116.685 78.4716 116.443 78.7017 116.127 78.8665C115.812 79.0312 115.432 79.1136 114.985 79.1136H113.522V78.1278H114.786C115.023 78.1278 115.218 78.0871 115.371 78.0057C115.526 77.9223 115.642 77.8078 115.718 77.6619C115.795 77.5142 115.834 77.3447 115.834 77.1534C115.834 76.9602 115.795 76.7917 115.718 76.6477C115.642 76.5019 115.526 76.3892 115.371 76.3097C115.216 76.2282 115.019 76.1875 114.78 76.1875H113.951V81H112.721ZM119.005 81.0824C118.726 81.0824 118.478 81.0341 118.26 80.9375C118.042 80.839 117.87 80.6941 117.743 80.5028C117.618 80.3097 117.556 80.0691 117.556 79.7812C117.556 79.5388 117.6 79.3352 117.689 79.1705C117.778 79.0057 117.9 78.8731 118.053 78.7727C118.206 78.6723 118.381 78.5966 118.576 78.5455C118.773 78.4943 118.979 78.4583 119.195 78.4375C119.449 78.411 119.653 78.3864 119.809 78.3636C119.964 78.339 120.077 78.303 120.147 78.2557C120.217 78.2083 120.252 78.1383 120.252 78.0455V78.0284C120.252 77.8485 120.195 77.7093 120.081 77.6108C119.97 77.5123 119.81 77.4631 119.604 77.4631C119.386 77.4631 119.213 77.5114 119.084 77.608C118.955 77.7027 118.87 77.822 118.828 77.9659L117.709 77.875C117.766 77.6098 117.878 77.3807 118.044 77.1875C118.211 76.9924 118.426 76.8428 118.689 76.7386C118.954 76.6326 119.261 76.5795 119.61 76.5795C119.852 76.5795 120.084 76.608 120.306 76.6648C120.529 76.7216 120.727 76.8097 120.9 76.929C121.074 77.0483 121.211 77.2017 121.311 77.3892C121.412 77.5748 121.462 77.7973 121.462 78.0568V81H120.314V80.3949H120.28C120.21 80.5312 120.116 80.6515 119.999 80.7557C119.882 80.858 119.74 80.9384 119.576 80.9972C119.411 81.054 119.221 81.0824 119.005 81.0824ZM119.351 80.2472C119.529 80.2472 119.686 80.2121 119.823 80.142C119.959 80.0701 120.066 79.9735 120.144 79.8523C120.221 79.7311 120.26 79.5937 120.26 79.4403V78.9773C120.222 79.0019 120.17 79.0246 120.104 79.0455C120.04 79.0644 119.967 79.0824 119.885 79.0994C119.804 79.1146 119.722 79.1288 119.641 79.142C119.56 79.1534 119.486 79.1638 119.419 79.1733C119.277 79.1941 119.153 79.2273 119.047 79.2727C118.941 79.3182 118.859 79.3797 118.8 79.4574C118.741 79.5331 118.712 79.6278 118.712 79.7415C118.712 79.9062 118.772 80.0322 118.891 80.1193C119.012 80.2045 119.166 80.2472 119.351 80.2472ZM122.992 82.6364C122.838 82.6364 122.694 82.6241 122.56 82.5994C122.427 82.5767 122.318 82.5473 122.23 82.5114L122.503 81.608C122.645 81.6515 122.773 81.6752 122.887 81.679C123.002 81.6828 123.102 81.6563 123.185 81.5994C123.27 81.5426 123.339 81.446 123.392 81.3097L123.463 81.125L121.898 76.6364H123.171L124.074 79.8409H124.12L125.032 76.6364H126.313L124.617 81.4716C124.535 81.7064 124.425 81.911 124.284 82.0852C124.146 82.2614 123.971 82.3968 123.759 82.4915C123.547 82.5881 123.291 82.6364 122.992 82.6364ZM133.673 75.1818V81H132.61L130.079 77.3381H130.037V81H128.806V75.1818H129.886L132.397 78.8409H132.449V75.1818H133.673ZM136.638 81.0852C136.197 81.0852 135.815 80.9915 135.493 80.804C135.173 80.6146 134.926 80.3513 134.752 80.0142C134.578 79.6752 134.49 79.2822 134.49 78.8352C134.49 78.3845 134.578 77.9905 134.752 77.6534C134.926 77.3144 135.173 77.0511 135.493 76.8636C135.815 76.6742 136.197 76.5795 136.638 76.5795C137.079 76.5795 137.46 76.6742 137.78 76.8636C138.102 77.0511 138.35 77.3144 138.525 77.6534C138.699 77.9905 138.786 78.3845 138.786 78.8352C138.786 79.2822 138.699 79.6752 138.525 80.0142C138.35 80.3513 138.102 80.6146 137.78 80.804C137.46 80.9915 137.079 81.0852 136.638 81.0852ZM136.644 80.1477C136.845 80.1477 137.012 80.0909 137.147 79.9773C137.281 79.8617 137.382 79.7045 137.451 79.5057C137.521 79.3068 137.556 79.0805 137.556 78.8267C137.556 78.5729 137.521 78.3466 137.451 78.1477C137.382 77.9489 137.281 77.7917 137.147 77.6761C137.012 77.5606 136.845 77.5028 136.644 77.5028C136.441 77.5028 136.271 77.5606 136.132 77.6761C135.996 77.7917 135.893 77.9489 135.823 78.1477C135.755 78.3466 135.721 78.5729 135.721 78.8267C135.721 79.0805 135.755 79.3068 135.823 79.5057C135.893 79.7045 135.996 79.8617 136.132 79.9773C136.271 80.0909 136.441 80.1477 136.644 80.1477ZM140.324 81L139.137 76.6364H140.361L141.037 79.5682H141.077L141.782 76.6364H142.983L143.699 79.5511H143.736L144.401 76.6364H145.623L144.438 81H143.157L142.407 78.2557H142.353L141.603 81H140.324Z" fill="white"/>
            <path d="M37 38H220V40.8235H37V38ZM37 44.5882H220V47.4118H37V44.5882ZM37 51.1765H160.906V54H37V51.1765Z" fill="#DADADA"/>
        </g>
        <defs>
            <filter id="filter0_d_22_4650" x="131" y="83" width="72" height="61" filterUnits="userSpaceOnUse" color-interpolation-filters="sRGB">
                <feFlood flood-opacity="0" result="BackgroundImageFix"/>
                <feColorMatrix in="SourceAlpha" type="matrix" values="0 0 0 0 0 0 0 0 0 0 0 0 0 0 0 0 0 0 127 0" result="hardAlpha"/>
                <feOffset/>
                <feGaussianBlur stdDeviation="10"/>
                <feComposite in2="hardAlpha" operator="out"/>
                <feColorMatrix type="matrix" values="0 0 0 0 0 0 0 0 0 0 0 0 0 0 0 0 0 0 0.07 0"/>
                <feBlend mode="normal" in2="BackgroundImageFix" result="effect1_dropShadow_22_4650"/>
                <feBlend mode="normal" in="SourceGraphic" in2="effect1_dropShadow_22_4650" result="shape"/>
            </filter>
            <filter id="filter1_d_22_4650" x="168" y="83" width="72" height="61" filterUnits="userSpaceOnUse" color-interpolation-filters="sRGB">
                <feFlood flood-opacity="0" result="BackgroundImageFix"/>
                <feColorMatrix in="SourceAlpha" type="matrix" values="0 0 0 0 0 0 0 0 0 0 0 0 0 0 0 0 0 0 127 0" result="hardAlpha"/>
                <feOffset/>
                <feGaussianBlur stdDeviation="10"/>
                <feComposite in2="hardAlpha" operator="out"/>
                <feColorMatrix type="matrix" values="0 0 0 0 0 0 0 0 0 0 0 0 0 0 0 0 0 0 0.07 0"/>
                <feBlend mode="normal" in2="BackgroundImageFix" result="effect1_dropShadow_22_4650"/>
                <feBlend mode="normal" in="SourceGraphic" in2="effect1_dropShadow_22_4650" result="shape"/>
            </filter>
            <clipPath id="clip0_22_4650">
                <rect width="256" height="160" fill="white"/>
            </clipPath>
        </defs>
    </svg>