<svg viewBox="0 0 394 100" fill="none" xmlns="http://www.w3.org/2000/svg">
        <g clip-path="url(#clip0_22_4483)">
            <rect width="394" height="100" rx="6" fill="#DDE1E8"/>
            <rect x="107" y="-13" width="180" height="104.631" rx="10.6404" fill="white"/>
            <path d="M117.793 60.7794H143.236C144.279 60.7794 145.123 61.6211 145.123 62.6573V77.0685C145.123 78.1047 144.279 78.9464 143.236 78.9464H117.793C116.75 78.9464 115.906 78.1047 115.906 77.0685V62.6573C115.906 61.6211 116.75 60.7794 117.793 60.7794Z" fill="white" stroke="#C9C9C9" stroke-width="0.44335"/>
            <path d="M133.133 73.0263H127.895V63.6528H133.133V73.0263Z" fill="#6C6BBD"/>
            <path d="M128.228 68.3394C128.228 66.438 129.122 64.7441 130.514 63.6526C129.496 62.8544 128.211 62.3779 126.815 62.3779C123.509 62.3779 120.83 65.0469 120.83 68.3394C120.83 71.6318 123.509 74.3008 126.815 74.3008C128.211 74.3008 129.496 73.8243 130.514 73.0261C129.122 71.9346 128.228 70.2407 128.228 68.3394Z" fill="#D32011"/>
            <path d="M140.199 68.3396C140.199 71.632 137.519 74.301 134.213 74.301C132.817 74.301 131.532 73.8245 130.514 73.0263C131.906 71.9349 132.8 70.241 132.8 68.3396C132.8 66.4382 131.906 64.7443 130.514 63.6529C131.532 62.8547 132.817 62.3782 134.213 62.3782C137.519 62.3782 140.199 65.0471 140.199 68.3396Z" fill="#0099DF"/>
            <path d="M134.905 75.6751C134.974 75.6751 135.074 75.6882 135.151 75.7181L135.044 76.0427C134.972 76.0128 134.898 76.0028 134.828 76.0028C134.602 76.0028 134.489 76.1484 134.489 76.4099V77.2974H134.143V75.7146H134.486V75.9067C134.576 75.7676 134.706 75.6747 134.905 75.6747L134.905 75.6751ZM133.627 76.0295H133.062V76.7448C133.062 76.9035 133.118 77.0096 133.291 77.0096C133.381 77.0096 133.494 76.9797 133.597 76.9202L133.696 77.2149C133.587 77.291 133.414 77.3377 133.264 77.3377C132.855 77.3377 132.712 77.1188 132.712 76.7512V76.0295H132.39V75.7149H132.712V75.2349H133.062V75.7149H133.627V76.0295ZM129.201 76.3669C129.238 76.1384 129.377 75.9825 129.624 75.9825C129.846 75.9825 129.989 76.1217 130.026 76.3669H129.201ZM130.385 76.506C130.382 76.0124 130.076 75.6747 129.63 75.6747C129.185 75.6747 128.839 76.0124 128.839 76.506C128.839 76.9996 129.178 77.3369 129.654 77.3369C129.893 77.3369 130.112 77.2775 130.305 77.1152L130.135 76.8601C130.002 76.9661 129.833 77.0256 129.673 77.0256C129.451 77.0256 129.248 76.9227 129.198 76.6384H130.378C130.382 76.5953 130.385 76.5523 130.385 76.506ZM131.905 76.1188C131.808 76.059 131.612 75.9829 131.409 75.9829C131.22 75.9829 131.107 76.0526 131.107 76.1686C131.107 76.2743 131.226 76.3042 131.376 76.3242L131.539 76.3473C131.885 76.3975 132.094 76.543 132.094 76.8209C132.094 77.1224 131.828 77.3377 131.369 77.3377C131.11 77.3377 130.87 77.2715 130.681 77.1323L130.844 76.864C130.96 76.9533 131.133 77.0295 131.372 77.0295C131.612 77.0295 131.735 76.9601 131.735 76.8373C131.735 76.7483 131.645 76.6982 131.455 76.6722L131.292 76.6491C130.937 76.5989 130.744 76.4402 130.744 76.1822C130.744 75.8676 131.003 75.6754 131.405 75.6754C131.658 75.6754 131.887 75.732 132.054 75.8409L131.904 76.1192L131.905 76.1188ZM136.169 76.0021C136.097 76.0021 136.032 76.0146 135.97 76.0391C135.91 76.064 135.857 76.0989 135.812 76.1437C135.767 76.1886 135.732 76.2423 135.707 76.3049C135.682 76.3676 135.669 76.4366 135.669 76.5113C135.669 76.5861 135.682 76.6555 135.707 76.7177C135.732 76.7804 135.767 76.8341 135.812 76.879C135.857 76.9238 135.91 76.9587 135.97 76.9836C136.031 77.0085 136.097 77.0206 136.169 77.0206C136.24 77.0206 136.306 77.0085 136.367 76.9836C136.428 76.9587 136.482 76.9238 136.526 76.879C136.571 76.8341 136.606 76.7804 136.632 76.7177C136.657 76.6551 136.67 76.5868 136.67 76.5113C136.67 76.4359 136.658 76.3672 136.632 76.3049C136.606 76.2423 136.571 76.1886 136.526 76.1437C136.481 76.0989 136.428 76.064 136.367 76.0391C136.306 76.0146 136.24 76.0021 136.169 76.0021ZM136.169 75.6751C136.292 75.6751 136.406 75.6964 136.511 75.7391C136.616 75.7815 136.707 75.8402 136.784 75.9149C136.861 75.9896 136.92 76.0779 136.964 76.1793C137.007 76.2811 137.029 76.3918 137.029 76.5113C137.029 76.6309 137.007 76.7412 136.964 76.8434C136.921 76.9448 136.861 77.0338 136.784 77.1081C136.707 77.1829 136.616 77.2412 136.511 77.2839C136.406 77.3263 136.292 77.3476 136.169 77.3476C136.045 77.3476 135.931 77.3263 135.826 77.2839C135.721 77.2412 135.631 77.1829 135.555 77.1081C135.479 77.0334 135.419 76.9448 135.375 76.8434C135.332 76.7416 135.31 76.6309 135.31 76.5113C135.31 76.3918 135.332 76.2815 135.375 76.1793C135.419 76.0779 135.479 75.9893 135.555 75.9149C135.631 75.8402 135.721 75.7815 135.826 75.7391C135.931 75.6964 136.045 75.6751 136.169 75.6751ZM127.181 76.506C127.181 76.2277 127.364 75.9993 127.663 75.9993C127.962 75.9993 128.142 76.2181 128.142 76.506C128.142 76.7939 127.949 77.0124 127.663 77.0124C127.377 77.0124 127.181 76.7843 127.181 76.506ZM128.468 76.506V75.7146H128.123V75.9067C128.012 75.7644 127.847 75.6747 127.62 75.6747C127.175 75.6747 126.826 76.0224 126.826 76.506C126.826 76.9896 127.175 77.3373 127.62 77.3373C127.847 77.3373 128.012 77.248 128.123 77.1053V77.2974H128.468V76.506ZM126.52 77.2974V76.3042C126.52 75.9302 126.28 75.6786 125.895 75.6751C125.692 75.6715 125.483 75.7345 125.336 75.9566C125.227 75.7811 125.054 75.6751 124.811 75.6751C124.641 75.6751 124.475 75.7249 124.345 75.9099V75.7149H124V77.2978H124.349V76.4202C124.349 76.1455 124.502 75.9996 124.738 75.9996C124.973 75.9996 125.083 76.1487 125.083 76.417V77.2978H125.433V76.4202C125.433 76.1455 125.592 75.9996 125.821 75.9996C126.05 75.9996 126.171 76.1487 126.171 76.417V77.2978H126.52V77.2974Z" fill="#110F0D"/>
            <path d="M151.483 60.7794H176.427C177.443 60.7795 178.272 61.617 178.272 62.6573V77.0685C178.272 78.1088 177.443 78.9463 176.427 78.9464H151.483C150.467 78.9464 149.637 78.1089 149.637 77.0685V62.6573C149.637 61.6169 150.467 60.7794 151.483 60.7794Z" fill="white" stroke="#C9C9C9" stroke-width="0.44335"/>
            <path d="M166.522 73.0657H161.387V63.6919H166.522V73.0657Z" fill="#FF5F00"/>
            <path d="M161.713 68.3789C161.713 66.4775 162.59 64.7836 163.955 63.6922C162.957 62.894 161.697 62.4175 160.328 62.4175C157.087 62.4175 154.46 65.0865 154.46 68.3789C154.46 71.6714 157.087 74.3403 160.328 74.3403C161.697 74.3403 162.957 73.8638 163.955 73.0656C162.59 71.9742 161.713 70.2803 161.713 68.3789Z" fill="#EB001B"/>
            <path d="M173.449 68.3789C173.449 71.6714 170.822 74.3403 167.581 74.3403C166.212 74.3403 164.953 73.8638 163.954 73.0656C165.32 71.9742 166.196 70.2803 166.196 68.3789C166.196 66.4775 165.32 64.7836 163.954 63.6922C164.953 62.894 166.213 62.4175 167.581 62.4175C170.822 62.4175 173.449 65.0865 173.449 68.3789Z" fill="#F79E1B"/>
            <path d="M162.676 76.9917C162.512 76.9917 162.461 76.891 162.461 76.738V76.0558H162.988V75.754H162.461V75.2925H162.131V75.754H161.828V76.0558H162.131V76.7444C162.131 77.0953 162.266 77.3067 162.65 77.3067C162.791 77.3067 162.953 77.2608 163.056 77.1892L162.96 76.9074C162.874 76.959 162.777 76.9882 162.676 76.9914V76.9917Z" fill="#110F0D"/>
            <path d="M164 75.7151C163.564 75.7151 163.257 76.0403 163.257 76.5112C163.257 76.982 163.577 77.3072 164.022 77.3072C164.245 77.3072 164.453 77.2489 164.633 77.0958L164.476 76.8489C164.351 76.9496 164.198 77.0051 164.041 77.0087C163.833 77.0087 163.641 76.9104 163.593 76.6375H164.703C164.706 76.5958 164.71 76.5567 164.71 76.5112C164.706 76.0403 164.418 75.7151 164 75.7151ZM163.596 76.3781C163.631 76.1603 163.763 76.0105 163.993 76.0105C164.204 76.0105 164.339 76.1443 164.371 76.3781H163.596H163.596Z" fill="#110F0D"/>
            <path d="M161.089 76.358L160.935 76.3388C160.798 76.3188 160.683 76.2897 160.683 76.1889C160.683 76.0783 160.792 76.0099 160.968 76.0099C161.159 76.0099 161.342 76.0815 161.434 76.1406L161.572 75.8737C161.418 75.7697 161.201 75.7181 160.964 75.7181C160.587 75.7181 160.344 75.9003 160.344 76.2021C160.344 76.4491 160.525 76.5982 160.859 76.6473L161.012 76.6697C161.188 76.6964 161.274 76.7412 161.274 76.8295C161.274 76.9459 161.156 77.0117 160.932 77.0117C160.756 77.0174 160.58 76.9626 160.436 76.8555L160.286 77.1124C160.461 77.2455 160.685 77.3071 160.929 77.3071C161.36 77.3071 161.61 77.1024 161.61 76.8131C161.61 76.5469 161.414 76.4071 161.088 76.358H161.089Z" fill="#110F0D"/>
            <path d="M159.646 75.9389C159.534 75.7902 159.359 75.7087 159.173 75.7151C158.757 75.7151 158.427 76.0496 158.427 76.5111C158.427 76.9727 158.757 77.3072 159.173 77.3072C159.359 77.3172 159.534 77.2325 159.646 77.0859V77.2681H159.969V75.7542H159.646V75.9389ZM159.214 76.9987C158.933 76.9987 158.76 76.7773 158.76 76.5111C158.76 76.245 158.933 76.0272 159.214 76.0272C159.496 76.0272 159.662 76.235 159.662 76.5111C159.662 76.7873 159.483 76.9987 159.214 76.9987Z" fill="#110F0D"/>
            <path d="M157.554 75.7149C157.362 75.7117 157.167 75.7732 157.03 75.9843C156.927 75.8088 156.739 75.7081 156.537 75.7149C156.364 75.7049 156.198 75.7932 156.099 75.9387V75.754H155.776V77.2679H156.102V76.4294C156.102 76.1665 156.246 76.027 156.47 76.027C156.694 76.027 156.793 76.17 156.793 76.4262V77.2679H157.119V76.4294C157.119 76.1665 157.27 76.027 157.487 76.027C157.705 76.027 157.813 76.17 157.813 76.4262V77.2679H158.139V76.3188C158.139 75.9618 157.916 75.7181 157.554 75.7149Z" fill="#110F0D"/>
            <path d="M165.362 75.939V75.7543H165.042V77.2682H165.369V76.4205C165.369 76.17 165.474 76.0305 165.685 76.0305C165.749 76.0305 165.819 76.0404 165.886 76.0696L165.989 75.7575C165.913 75.7308 165.835 75.7152 165.755 75.7152C165.596 75.712 165.445 75.7967 165.365 75.939H165.362Z" fill="#110F0D"/>
            <path d="M171.811 75.9389C171.699 75.7901 171.522 75.7086 171.341 75.715C170.921 75.715 170.595 76.0495 170.595 76.5111C170.595 76.9726 170.922 77.3072 171.341 77.3072C171.522 77.3139 171.698 77.2324 171.811 77.0858V77.268H172.133V75.146H171.811V75.9389ZM171.378 76.9986C171.097 76.9986 170.928 76.7773 170.928 76.5111C170.928 76.2449 171.101 76.0271 171.378 76.0271C171.656 76.0271 171.83 76.2349 171.83 76.5111C171.83 76.7872 171.648 76.9986 171.378 76.9986Z" fill="#110F0D"/>
            <path d="M169.872 75.939V75.7543H169.552V77.2682H169.875V76.4205C169.875 76.17 169.981 76.0305 170.192 76.0305C170.259 76.0305 170.326 76.0404 170.397 76.0696L170.496 75.7575C170.422 75.7308 170.346 75.7152 170.266 75.7152C170.106 75.712 169.952 75.7967 169.872 75.939Z" fill="#110F0D"/>
            <path d="M168.797 75.9389C168.685 75.7902 168.512 75.7087 168.327 75.7151C167.911 75.7151 167.582 76.0496 167.582 76.5111C167.582 76.9727 167.911 77.3072 168.327 77.3072C168.542 77.3072 168.695 77.2225 168.797 77.0859V77.2681H169.123V75.7542H168.797V75.9389ZM168.369 76.9987C168.088 76.9987 167.918 76.7773 167.918 76.5111C167.918 76.245 168.088 76.0272 168.369 76.0272C168.651 76.0272 168.817 76.235 168.817 76.5111C168.817 76.7873 168.638 76.9987 168.369 76.9987Z" fill="#110F0D"/>
            <path d="M166.871 76.027C167.012 76.027 167.15 76.0761 167.262 76.1633L167.416 75.8971C167.265 75.7697 167.076 75.7049 166.881 75.7149C166.398 75.7149 166.085 76.0526 166.085 76.5109C166.085 76.9693 166.398 77.307 166.881 77.307C167.076 77.317 167.265 77.2522 167.416 77.1248L167.262 76.8618C167.15 76.9458 167.012 76.9949 166.871 76.9981C166.613 76.9913 166.421 76.8035 166.421 76.5106C166.421 76.2177 166.613 76.0298 166.871 76.0266V76.027Z" fill="#110F0D"/>
            <path d="M184.673 60.7794H210.117C211.159 60.7794 212.003 61.6211 212.003 62.6573V77.0685C212.003 78.1047 211.159 78.9464 210.117 78.9464H184.673C183.631 78.9464 182.787 78.1047 182.787 77.0685V62.6573C182.787 61.6211 183.631 60.7794 184.673 60.7794Z" fill="white" stroke="#C9C9C9" stroke-width="0.44335"/>
            <path d="M196.036 73.0535H194.369L195.411 66.6768H197.078L196.036 73.0535Z" fill="#005CA8"/>
            <path d="M192.967 66.6769L191.377 71.0625L191.189 70.1181L190.628 67.2509C190.628 67.2509 190.56 66.6765 189.838 66.6765H187.21L187.18 66.7843C187.18 66.7843 187.983 66.9509 188.923 67.5135L190.372 73.0532H192.109L194.761 66.6765H192.967V66.6769Z" fill="#005CA8"/>
            <path d="M206.079 73.0535H207.609L206.274 66.6768H204.934C204.315 66.6768 204.164 67.1518 204.164 67.1518L201.678 73.0535H203.416L203.763 72.1065H205.883L206.078 73.0535H206.079ZM204.244 70.7977L205.12 68.4112L205.613 70.7977H204.244Z" fill="#005CA8"/>
            <path d="M201.809 68.2101L202.047 66.8404C202.047 66.8404 201.313 66.5625 200.548 66.5625C199.721 66.5625 197.756 66.9226 197.756 68.6735C197.756 70.3211 200.061 70.3414 200.061 71.2065C200.061 72.0716 197.994 71.9168 197.311 71.3713L197.063 72.8029C197.063 72.8029 197.807 73.1631 198.945 73.1631C200.082 73.1631 201.798 72.5762 201.798 70.9798C201.798 69.3834 199.472 69.1674 199.472 68.4468C199.472 67.7262 201.095 67.8183 201.809 68.2098L201.809 68.2101Z" fill="#005CA8"/>
            <path d="M191.19 70.1184L190.629 67.2509C190.629 67.2509 190.561 66.6765 189.838 66.6765H187.211L187.18 66.7843C187.18 66.7843 188.443 67.0452 189.654 68.0213C190.812 68.9548 191.19 70.1181 191.19 70.1181V70.1184Z" fill="#F6A723"/>
            <g filter="url(#filter0_d_22_4483)">
                <rect x="218.059" y="60.8572" width="27.931" height="18.1773" rx="2.43842" fill="white" stroke="#D9D9D9" stroke-width="0.44335"/>
                <path d="M236.08 67.5721C237.085 67.5721 238.033 68.4383 238.038 70.0282C238.038 71.766 237.102 72.5555 236.074 72.5555C235.569 72.5555 235.265 72.3524 235.058 72.2098L235.053 73.7616L233.616 74.0516V67.66H234.88L234.955 67.9999C235.156 67.8245 235.518 67.5722 236.08 67.5721ZM227.22 67.6649H228.311V68.8329H227.22V70.7792C227.22 71.5903 228.127 71.3388 228.311 71.2675V72.3798C228.121 72.4784 227.777 72.5614 227.306 72.5614C226.456 72.5614 225.819 71.9635 225.819 71.1522L225.824 66.7606L227.226 66.4755L227.22 67.6649ZM223.832 67.5721C224.309 67.5722 224.78 67.6432 225.256 67.8241V69.1122C224.82 68.8875 224.269 68.7617 223.832 68.7616C223.528 68.7616 223.344 68.8438 223.344 69.0575C223.344 69.6715 225.531 69.3812 225.537 71.0145C225.537 71.9959 224.716 72.5604 223.522 72.5604C223.028 72.5604 222.488 72.4672 221.954 72.2479V70.9432C222.437 71.1954 223.045 71.3817 223.522 71.3817C223.843 71.3817 224.073 71.2999 224.073 71.0477C224.073 70.3954 221.891 70.6365 221.891 69.1239C221.891 68.1535 222.667 67.5721 223.832 67.5721ZM240.49 67.5721C241.851 67.5721 242.564 68.6794 242.564 70.0829C242.564 70.2145 242.552 70.4999 242.552 70.5712H239.744C239.808 71.2176 240.301 71.4041 240.858 71.4042C241.426 71.4042 241.874 71.2888 242.265 71.1024V72.1991C241.874 72.4074 241.357 72.5555 240.674 72.5555C239.273 72.5554 238.297 71.7221 238.297 70.0721C238.297 68.6797 239.124 67.5722 240.49 67.5721ZM230.097 68.0712C230.436 67.4793 231.107 67.5991 231.291 67.6649V68.9266C231.113 68.8663 230.539 68.7897 230.2 69.2118V72.4628H228.765V67.6649H230.005L230.097 68.0712ZM233.083 72.4628H231.642V67.6649H233.083V72.4628ZM235.736 68.7889C235.408 68.789 235.201 68.8985 235.052 69.0575L235.058 71.0917C235.196 71.2342 235.397 71.3494 235.736 71.3495C236.264 71.3495 236.62 70.8009 236.62 70.0663C236.62 69.3482 236.258 68.7889 235.736 68.7889ZM240.485 68.6844C240.123 68.6846 239.727 68.943 239.727 69.5624H241.208C241.208 68.9429 240.835 68.6844 240.485 68.6844ZM233.083 66.953L231.642 67.2489V66.1298L233.083 65.8397V66.953Z" fill="#6461FC"/>
            </g>
            <g filter="url(#filter1_d_22_4483)">
                <rect x="250.867" y="60.8572" width="27.931" height="18.1773" rx="2.43842" fill="white" stroke="#D9D9D9" stroke-width="0.44335"/>
                <path fill-rule="evenodd" clip-rule="evenodd" d="M258.671 72.4603H257.41C257.324 72.4603 257.25 72.5204 257.237 72.6019L256.727 75.6968C256.717 75.7579 256.766 75.813 256.831 75.813H257.433C257.519 75.813 257.593 75.7529 257.606 75.6713L257.744 74.8365C257.757 74.7548 257.83 74.6948 257.917 74.6948H258.316C259.147 74.6948 259.626 74.3101 259.751 73.5477C259.808 73.2141 259.754 72.9521 259.59 72.7685C259.411 72.567 259.093 72.4603 258.671 72.4603ZM258.817 73.5907C258.748 74.0238 258.402 74.0238 258.068 74.0238H257.877L258.011 73.215C258.019 73.1661 258.063 73.1301 258.115 73.1301H258.202C258.43 73.1301 258.644 73.1301 258.755 73.2543C258.822 73.3285 258.842 73.4386 258.817 73.5907ZM262.441 73.5768H261.837C261.786 73.5768 261.741 73.6129 261.733 73.6618L261.706 73.8234L261.664 73.7648C261.534 73.5832 261.242 73.5225 260.951 73.5225C260.284 73.5225 259.714 74.0063 259.603 74.6849C259.545 75.0233 259.627 75.3469 259.828 75.5727C260.012 75.7802 260.275 75.8667 260.588 75.8667C261.126 75.8667 261.424 75.5358 261.424 75.5358L261.397 75.6964C261.387 75.7578 261.436 75.8129 261.501 75.8129H262.045C262.131 75.8129 262.204 75.7528 262.218 75.6712L262.544 73.693C262.555 73.6321 262.505 73.5768 262.441 73.5768ZM261.599 74.7018C261.541 75.0319 261.267 75.2536 260.918 75.2536C260.742 75.2536 260.602 75.1998 260.512 75.0978C260.423 74.9965 260.389 74.8523 260.417 74.6917C260.472 74.3643 260.75 74.1355 261.094 74.1355C261.266 74.1355 261.405 74.1899 261.497 74.2928C261.589 74.3968 261.625 74.5418 261.599 74.7018ZM265.05 73.5768H265.657C265.742 73.5768 265.792 73.668 265.744 73.7347L263.725 76.5231C263.693 76.5682 263.639 76.5951 263.581 76.5951H262.975C262.89 76.5951 262.84 76.5031 262.889 76.4363L263.518 75.5872L262.849 73.7098C262.826 73.6445 262.877 73.5768 262.949 73.5768H263.545C263.623 73.5768 263.691 73.6254 263.714 73.6964L264.068 74.8303L264.905 73.6503C264.938 73.6043 264.993 73.5768 265.05 73.5768Z" fill="#253B80"/>
                <path fill-rule="evenodd" clip-rule="evenodd" d="M271.631 75.6966L272.148 72.5451C272.156 72.4961 272.2 72.4601 272.252 72.46H272.835C272.899 72.46 272.948 72.5152 272.938 72.5763L272.428 75.6711C272.414 75.7527 272.341 75.8128 272.255 75.8128H271.734C271.67 75.8128 271.62 75.7577 271.631 75.6966ZM267.667 72.4601H266.405C266.319 72.4601 266.246 72.5202 266.232 72.6017L265.722 75.6966C265.712 75.7577 265.762 75.8128 265.826 75.8128H266.473C266.533 75.8128 266.585 75.7708 266.594 75.7136L266.739 74.8363C266.752 74.7546 266.826 74.6946 266.912 74.6946H267.311C268.142 74.6946 268.621 74.3099 268.747 73.5475C268.803 73.2139 268.749 72.9519 268.586 72.7683C268.407 72.5668 268.089 72.4601 267.667 72.4601ZM267.812 73.5905C267.744 74.0236 267.398 74.0236 267.063 74.0236H266.873L267.007 73.2148C267.015 73.1659 267.059 73.1299 267.11 73.1299H267.198C267.425 73.1299 267.64 73.1299 267.751 73.2541C267.817 73.3283 267.838 73.4384 267.812 73.5905ZM271.436 73.5766H270.833C270.781 73.5766 270.737 73.6126 270.729 73.6616L270.702 73.8232L270.66 73.7646C270.529 73.583 270.238 73.5223 269.947 73.5223C269.279 73.5223 268.71 74.0061 268.599 74.6846C268.541 75.0231 268.623 75.3467 268.823 75.5725C269.008 75.78 269.271 75.8665 269.584 75.8665C270.122 75.8665 270.42 75.5356 270.42 75.5356L270.393 75.6962C270.383 75.7576 270.432 75.8127 270.497 75.8127H271.041C271.127 75.8127 271.2 75.7526 271.214 75.671L271.54 73.6928C271.55 73.6319 271.501 73.5766 271.436 73.5766ZM270.595 74.7016C270.537 75.0317 270.262 75.2534 269.913 75.2534C269.738 75.2534 269.598 75.1996 269.508 75.0976C269.418 74.9963 269.385 74.8521 269.413 74.6915C269.468 74.3641 269.746 74.1353 270.09 74.1353C270.261 74.1353 270.4 74.1897 270.492 74.2926C270.585 74.3966 270.621 74.5416 270.595 74.7016Z" fill="#179BD7"/>
                <path d="M263.338 71.3531L263.493 70.4106L263.148 70.4029H261.499L262.645 63.4482C262.648 63.4272 262.66 63.4077 262.677 63.3938C262.694 63.3799 262.716 63.3722 262.738 63.3722H265.519C266.442 63.3722 267.079 63.556 267.412 63.9189C267.568 64.0891 267.667 64.267 267.715 64.4628C267.765 64.6682 267.766 64.9136 267.717 65.2129L267.713 65.2348V65.4266L267.869 65.5111C268.001 65.5778 268.105 65.6541 268.185 65.7415C268.318 65.887 268.405 66.072 268.441 66.2913C268.479 66.5169 268.466 66.7853 268.405 67.0891C268.334 67.4387 268.219 67.7431 268.063 67.9922C267.92 68.2217 267.738 68.4121 267.522 68.5596C267.316 68.6998 267.071 68.8062 266.794 68.8743C266.525 68.9412 266.219 68.975 265.883 68.975H265.666C265.512 68.975 265.361 69.0283 265.243 69.124C265.125 69.2216 265.047 69.3549 265.023 69.5007L265.006 69.5856L264.733 71.2467L264.72 71.3077C264.717 71.327 264.711 71.3367 264.703 71.3432C264.696 71.3491 264.685 71.3531 264.674 71.3531H263.338Z" fill="#253B80"/>
                <path d="M268.017 65.2568C268.009 65.3076 267.999 65.3595 267.989 65.4129C267.622 67.2147 266.367 67.8372 264.765 67.8372H263.949C263.753 67.8372 263.588 67.9734 263.558 68.1584L263.14 70.6937L263.022 71.4123C263.002 71.5337 263.1 71.6433 263.228 71.6433H264.675C264.846 71.6433 264.992 71.5241 265.018 71.3624L265.033 71.292L265.305 69.6374L265.323 69.5466C265.349 69.3843 265.495 69.2652 265.667 69.2652H265.883C267.285 69.2652 268.382 68.7205 268.703 67.1441C268.837 66.4856 268.768 65.9358 268.413 65.5491C268.306 65.4325 268.173 65.3357 268.017 65.2568Z" fill="#179BD7"/>
                <path d="M267.633 65.1108C267.577 65.0952 267.52 65.081 267.46 65.0683C267.401 65.0558 267.34 65.0447 267.277 65.0351C267.057 65.001 266.816 64.9849 266.558 64.9849H264.378C264.324 64.9849 264.273 64.9965 264.228 65.0175C264.127 65.0637 264.053 65.1548 264.035 65.2663L263.571 68.0768L263.557 68.1588C263.588 67.9738 263.753 67.8376 263.949 67.8376H264.765C266.367 67.8376 267.622 67.2149 267.989 65.4133C268 65.3599 268.009 65.308 268.017 65.2572C267.924 65.2101 267.824 65.1698 267.716 65.1355C267.689 65.127 267.661 65.1188 267.633 65.1108Z" fill="#222D65"/>
                <path d="M264.034 65.2661C264.052 65.1546 264.127 65.0635 264.228 65.0176C264.274 64.9966 264.324 64.9849 264.378 64.9849H266.557C266.816 64.9849 267.057 65.0011 267.277 65.0352C267.339 65.0448 267.401 65.0559 267.46 65.0683C267.519 65.0811 267.577 65.0953 267.633 65.1109C267.661 65.1189 267.689 65.1271 267.716 65.1353C267.824 65.1696 267.924 65.2102 268.017 65.257C268.126 64.5911 268.016 64.1378 267.64 63.7272C267.225 63.2753 266.477 63.0818 265.519 63.0818H262.738C262.542 63.0818 262.376 63.218 262.345 63.4032L261.187 70.4294C261.164 70.5684 261.276 70.6939 261.423 70.6939H263.14L263.571 68.0766L264.034 65.2661Z" fill="#253B80"/>
            </g>
            <rect x="115.867" y="28.7144" width="163.153" height="20.3941" rx="5.3202" fill="#4C515A"/>
            <path d="M183.895 40.1084V34.9494H185.93C186.322 34.9494 186.655 35.0242 186.93 35.1736C187.206 35.3214 187.416 35.5271 187.56 35.7908C187.706 36.0528 187.779 36.355 187.779 36.6976C187.779 37.0402 187.705 37.3425 187.558 37.6045C187.41 37.8665 187.196 38.0705 186.915 38.2166C186.637 38.3627 186.299 38.4358 185.903 38.4358H184.605V37.5617H185.726C185.936 37.5617 186.109 37.5256 186.245 37.4533C186.383 37.3794 186.485 37.2778 186.553 37.1485C186.621 37.0175 186.656 36.8672 186.656 36.6976C186.656 36.5263 186.621 36.3769 186.553 36.2492C186.485 36.1199 186.383 36.02 186.245 35.9495C186.108 35.8773 185.933 35.8412 185.721 35.8412H184.986V40.1084H183.895ZM189.467 40.1815C189.22 40.1815 189 40.1386 188.807 40.053C188.614 39.9657 188.461 39.8372 188.349 39.6676C188.238 39.4963 188.182 39.283 188.182 39.0277C188.182 38.8128 188.222 38.6322 188.301 38.4861C188.38 38.34 188.487 38.2225 188.623 38.1335C188.759 38.0445 188.914 37.9773 189.087 37.932C189.261 37.8866 189.444 37.8547 189.636 37.8362C189.861 37.8127 190.042 37.7909 190.18 37.7707C190.318 37.7489 190.418 37.717 190.48 37.675C190.542 37.633 190.573 37.5709 190.573 37.4886V37.4735C190.573 37.314 190.523 37.1905 190.422 37.1032C190.323 37.0159 190.182 36.9722 189.999 36.9722C189.805 36.9722 189.652 37.015 189.538 37.1007C189.423 37.1846 189.348 37.2904 189.311 37.4181L188.318 37.3375C188.369 37.1024 188.468 36.8992 188.616 36.7279C188.763 36.5549 188.954 36.4222 189.187 36.3298C189.423 36.2358 189.695 36.1888 190.004 36.1888C190.219 36.1888 190.424 36.214 190.621 36.2644C190.819 36.3147 190.994 36.3928 191.147 36.4986C191.302 36.6044 191.424 36.7405 191.513 36.9067C191.602 37.0713 191.646 37.2686 191.646 37.4987V40.1084H190.628V39.5718H190.598C190.536 39.6928 190.453 39.7994 190.349 39.8918C190.245 39.9824 190.12 40.0538 189.973 40.1059C189.827 40.1563 189.659 40.1815 189.467 40.1815ZM189.774 39.4409C189.932 39.4409 190.072 39.4098 190.193 39.3477C190.313 39.2838 190.408 39.1982 190.477 39.0907C190.546 38.9832 190.581 38.8615 190.581 38.7254V38.3148C190.547 38.3367 190.501 38.3568 190.442 38.3753C190.385 38.3921 190.32 38.4081 190.248 38.4232C190.176 38.4366 190.104 38.4492 190.031 38.461C189.959 38.471 189.894 38.4803 189.835 38.4887C189.709 38.5071 189.599 38.5365 189.505 38.5768C189.411 38.6171 189.338 38.6717 189.286 38.7406C189.234 38.8077 189.208 38.8917 189.208 38.9925C189.208 39.1386 189.261 39.2502 189.366 39.3275C189.474 39.4031 189.61 39.4409 189.774 39.4409ZM193.003 41.5594C192.867 41.5594 192.739 41.5484 192.62 41.5266C192.502 41.5065 192.405 41.4804 192.327 41.4485L192.569 40.6475C192.695 40.6861 192.809 40.7071 192.909 40.7104C193.012 40.7138 193.1 40.6903 193.174 40.6399C193.249 40.5895 193.311 40.5039 193.358 40.383L193.421 40.2192L192.033 36.2392H193.161L193.962 39.0806H194.003L194.811 36.2392H195.947L194.443 40.5266C194.371 40.7348 194.273 40.9162 194.149 41.0707C194.026 41.2268 193.871 41.3469 193.683 41.4309C193.495 41.5165 193.268 41.5594 193.003 41.5594ZM202.473 34.9494V40.1084H201.531L199.287 36.8614H199.249V40.1084H198.158V34.9494H199.116L201.342 38.1939H201.388V34.9494H202.473ZM205.103 40.184C204.711 40.184 204.373 40.1008 204.088 39.9346C203.804 39.7666 203.585 39.5332 203.43 39.2343C203.276 38.9337 203.198 38.5852 203.198 38.1889C203.198 37.7892 203.276 37.4399 203.43 37.141C203.585 36.8404 203.804 36.6069 204.088 36.4407C204.373 36.2728 204.711 36.1888 205.103 36.1888C205.494 36.1888 205.832 36.2728 206.115 36.4407C206.401 36.6069 206.621 36.8404 206.775 37.141C206.93 37.4399 207.007 37.7892 207.007 38.1889C207.007 38.5852 206.93 38.9337 206.775 39.2343C206.621 39.5332 206.401 39.7666 206.115 39.9346C205.832 40.1008 205.494 40.184 205.103 40.184ZM205.108 39.3527C205.286 39.3527 205.434 39.3023 205.554 39.2015C205.673 39.0991 205.763 38.9597 205.823 38.7834C205.885 38.6071 205.916 38.4064 205.916 38.1813C205.916 37.9563 205.885 37.7556 205.823 37.5793C205.763 37.403 205.673 37.2636 205.554 37.1611C205.434 37.0587 205.286 37.0075 205.108 37.0075C204.928 37.0075 204.777 37.0587 204.654 37.1611C204.533 37.2636 204.442 37.403 204.38 37.5793C204.319 37.7556 204.289 37.9563 204.289 38.1813C204.289 38.4064 204.319 38.6071 204.38 38.7834C204.442 38.9597 204.533 39.0991 204.654 39.2015C204.777 39.3023 204.928 39.3527 205.108 39.3527ZM208.371 40.1084L207.318 36.2392H208.404L209.003 38.8388H209.039L209.663 36.2392H210.729L211.364 38.8237H211.397L211.986 36.2392H213.069L212.019 40.1084H210.883L210.218 37.675H210.17L209.505 40.1084H208.371Z" fill="white"/>
            <path d="M116.754 3H279.02V5.50362H116.754V3ZM116.754 8.84178H279.02V11.3454H116.754V8.84178ZM116.754 14.6836H226.621V17.1872H116.754V14.6836Z" fill="#DADADA"/>
            <path d="M142.67 163H0V20.1851L142.67 163Z" fill="#D2DAE2"/>
            <path d="M19.4338 92.8798C19.4338 93.8956 18.6109 94.7184 17.5952 94.7184C16.5795 94.7184 15.7566 93.8956 15.7566 92.8798C15.7566 91.8641 16.5795 91.0413 17.5952 91.0413C18.6109 91.0413 19.4338 91.8641 19.4338 92.8798Z" fill="#8096AC" fill-opacity="0.5"/>
            <path d="M29.9415 92.8798C29.9415 93.8956 29.1186 94.7184 28.1029 94.7184C27.0871 94.7184 26.2643 93.8956 26.2643 92.8798C26.2643 91.8641 27.0871 91.0413 28.1029 91.0413C29.1186 91.0413 29.9415 91.8641 29.9415 92.8798Z" fill="#8096AC" fill-opacity="0.5"/>
            <path d="M40.446 92.8798C40.446 93.8956 39.6231 94.7184 38.6074 94.7184C37.5917 94.7184 36.7688 93.8956 36.7688 92.8798C36.7688 91.8641 37.5917 91.0413 38.6074 91.0413C39.6231 91.0413 40.446 91.8641 40.446 92.8798Z" fill="#8096AC" fill-opacity="0.5"/>
            <path d="M50.9501 92.8798C50.9501 93.8956 50.1273 94.7184 49.1115 94.7184C48.0958 94.7184 47.2729 93.8956 47.2729 92.8798C47.2729 91.8641 48.0958 91.0413 49.1115 91.0413C50.1273 91.0413 50.9501 91.8641 50.9501 92.8798Z" fill="#8096AC" fill-opacity="0.5"/>
            <path d="M61.4546 92.8798C61.4546 93.8956 60.6318 94.7184 59.6161 94.7184C58.6003 94.7184 57.7775 93.8956 57.7775 92.8798C57.7775 91.8641 58.6003 91.0413 59.6161 91.0413C60.6318 91.0413 61.4546 91.8641 61.4546 92.8798Z" fill="#8096AC" fill-opacity="0.5"/>
            <path d="M71.9621 92.8798C71.9621 93.8956 71.1392 94.7184 70.1235 94.7184C69.1078 94.7184 68.2849 93.8956 68.2849 92.8798C68.2849 91.8641 69.1078 91.0413 70.1235 91.0413C71.1392 91.0413 71.9621 91.8641 71.9621 92.8798Z" fill="#8096AC" fill-opacity="0.5"/>
            <path d="M82.4665 92.8798C82.4665 93.8956 81.6436 94.7184 80.6279 94.7184C79.6122 94.7184 78.7893 93.8956 78.7893 92.8798C78.7893 91.8641 79.6122 91.0413 80.6279 91.0413C81.6436 91.0413 82.4665 91.8641 82.4665 92.8798Z" fill="#8096AC" fill-opacity="0.5"/>
            <path d="M92.9707 92.8798C92.9707 93.8956 92.1479 94.7184 91.1322 94.7184C90.1164 94.7184 89.2936 93.8956 89.2936 92.8798C89.2936 91.8641 90.1164 91.0413 91.1322 91.0413C92.1479 91.0413 92.9707 91.8641 92.9707 92.8798Z" fill="#8096AC" fill-opacity="0.5"/>
            <path d="M103.475 92.8798C103.475 93.8956 102.652 94.7184 101.637 94.7184C100.621 94.7184 99.7981 93.8956 99.7981 92.8798C99.7981 91.8641 100.621 91.0413 101.637 91.0413C102.652 91.0413 103.475 91.8641 103.475 92.8798Z" fill="#8096AC" fill-opacity="0.5"/>
            <path d="M17.5985 84.214C18.6139 84.214 19.4371 83.3909 19.4371 82.3754C19.4371 81.36 18.6139 80.5369 17.5985 80.5369C16.583 80.5369 15.7599 81.36 15.7599 82.3754C15.7599 83.3909 16.583 84.214 17.5985 84.214Z" fill="#8096AC" fill-opacity="0.5"/>
            <path d="M28.1027 84.214C29.1182 84.214 29.9413 83.3909 29.9413 82.3754C29.9413 81.36 29.1182 80.5369 28.1027 80.5369C27.0873 80.5369 26.2642 81.36 26.2642 82.3754C26.2642 83.3909 27.0873 84.214 28.1027 84.214Z" fill="#8096AC" fill-opacity="0.5"/>
            <path d="M38.6073 84.214C39.6227 84.214 40.4458 83.3909 40.4458 82.3754C40.4458 81.36 39.6227 80.5369 38.6073 80.5369C37.5918 80.5369 36.7687 81.36 36.7687 82.3754C36.7687 83.3909 37.5918 84.214 38.6073 84.214Z" fill="#8096AC" fill-opacity="0.5"/>
            <path d="M49.1114 84.214C50.1268 84.214 50.95 83.3909 50.95 82.3754C50.95 81.36 50.1268 80.5369 49.1114 80.5369C48.096 80.5369 47.2728 81.36 47.2728 82.3754C47.2728 83.3909 48.096 84.214 49.1114 84.214Z" fill="#8096AC" fill-opacity="0.5"/>
            <path d="M59.6159 84.214C60.6313 84.214 61.4545 83.3909 61.4545 82.3754C61.4545 81.36 60.6313 80.5369 59.6159 80.5369C58.6005 80.5369 57.7773 81.36 57.7773 82.3754C57.7773 83.3909 58.6005 84.214 59.6159 84.214Z" fill="#8096AC" fill-opacity="0.5"/>
            <path d="M70.1234 84.214C71.1388 84.214 71.962 83.3909 71.962 82.3754C71.962 81.36 71.1388 80.5369 70.1234 80.5369C69.108 80.5369 68.2848 81.36 68.2848 82.3754C68.2848 83.3909 69.108 84.214 70.1234 84.214Z" fill="#8096AC" fill-opacity="0.5"/>
            <path d="M80.6278 84.214C81.6432 84.214 82.4664 83.3909 82.4664 82.3754C82.4664 81.36 81.6432 80.5369 80.6278 80.5369C79.6123 80.5369 78.7892 81.36 78.7892 82.3754C78.7892 83.3909 79.6123 84.214 80.6278 84.214Z" fill="#8096AC" fill-opacity="0.5"/>
            <path d="M91.132 84.214C92.1475 84.214 92.9706 83.3909 92.9706 82.3754C92.9706 81.36 92.1475 80.5369 91.132 80.5369C90.1166 80.5369 89.2935 81.36 89.2935 82.3754C89.2935 83.3909 90.1166 84.214 91.132 84.214Z" fill="#8096AC" fill-opacity="0.5"/>
            <path d="M17.5985 73.7066C18.6139 73.7066 19.4371 72.8834 19.4371 71.868C19.4371 70.8526 18.6139 70.0294 17.5985 70.0294C16.583 70.0294 15.7599 70.8526 15.7599 71.868C15.7599 72.8834 16.583 73.7066 17.5985 73.7066Z" fill="#8096AC" fill-opacity="0.5"/>
            <path d="M28.1027 73.7066C29.1182 73.7066 29.9413 72.8834 29.9413 71.868C29.9413 70.8526 29.1182 70.0294 28.1027 70.0294C27.0873 70.0294 26.2642 70.8526 26.2642 71.868C26.2642 72.8834 27.0873 73.7066 28.1027 73.7066Z" fill="#8096AC" fill-opacity="0.5"/>
            <path d="M38.6073 73.7066C39.6227 73.7066 40.4458 72.8834 40.4458 71.868C40.4458 70.8526 39.6227 70.0294 38.6073 70.0294C37.5918 70.0294 36.7687 70.8526 36.7687 71.868C36.7687 72.8834 37.5918 73.7066 38.6073 73.7066Z" fill="#8096AC" fill-opacity="0.5"/>
            <path d="M49.1114 73.7066C50.1268 73.7066 50.95 72.8834 50.95 71.868C50.95 70.8526 50.1268 70.0294 49.1114 70.0294C48.096 70.0294 47.2728 70.8526 47.2728 71.868C47.2728 72.8834 48.096 73.7066 49.1114 73.7066Z" fill="#8096AC" fill-opacity="0.5"/>
            <path d="M59.6159 73.7066C60.6313 73.7066 61.4545 72.8834 61.4545 71.868C61.4545 70.8526 60.6313 70.0294 59.6159 70.0294C58.6005 70.0294 57.7773 70.8526 57.7773 71.868C57.7773 72.8834 58.6005 73.7066 59.6159 73.7066Z" fill="#8096AC" fill-opacity="0.5"/>
            <path d="M70.1234 73.7066C71.1388 73.7066 71.962 72.8834 71.962 71.868C71.962 70.8526 71.1388 70.0294 70.1234 70.0294C69.108 70.0294 68.2848 70.8526 68.2848 71.868C68.2848 72.8834 69.108 73.7066 70.1234 73.7066Z" fill="#8096AC" fill-opacity="0.5"/>
            <path d="M80.6278 73.7066C81.6432 73.7066 82.4664 72.8834 82.4664 71.868C82.4664 70.8526 81.6432 70.0294 80.6278 70.0294C79.6123 70.0294 78.7892 70.8526 78.7892 71.868C78.7892 72.8834 79.6123 73.7066 80.6278 73.7066Z" fill="#8096AC" fill-opacity="0.5"/>
            <path d="M17.5985 63.2022C18.6139 63.2022 19.4371 62.379 19.4371 61.3636C19.4371 60.3482 18.6139 59.525 17.5985 59.525C16.583 59.525 15.7599 60.3482 15.7599 61.3636C15.7599 62.379 16.583 63.2022 17.5985 63.2022Z" fill="#8096AC" fill-opacity="0.5"/>
            <path d="M28.1027 63.2022C29.1182 63.2022 29.9413 62.379 29.9413 61.3636C29.9413 60.3482 29.1182 59.525 28.1027 59.525C27.0873 59.525 26.2642 60.3482 26.2642 61.3636C26.2642 62.379 27.0873 63.2022 28.1027 63.2022Z" fill="#8096AC" fill-opacity="0.5"/>
            <path d="M38.6073 63.2022C39.6227 63.2022 40.4458 62.379 40.4458 61.3636C40.4458 60.3482 39.6227 59.525 38.6073 59.525C37.5918 59.525 36.7687 60.3482 36.7687 61.3636C36.7687 62.379 37.5918 63.2022 38.6073 63.2022Z" fill="#8096AC" fill-opacity="0.5"/>
            <path d="M49.1114 63.2022C50.1268 63.2022 50.95 62.379 50.95 61.3636C50.95 60.3482 50.1268 59.525 49.1114 59.525C48.096 59.525 47.2728 60.3482 47.2728 61.3636C47.2728 62.379 48.096 63.2022 49.1114 63.2022Z" fill="#8096AC" fill-opacity="0.5"/>
            <path d="M59.6159 63.2022C60.6313 63.2022 61.4545 62.379 61.4545 61.3636C61.4545 60.3482 60.6313 59.525 59.6159 59.525C58.6005 59.525 57.7773 60.3482 57.7773 61.3636C57.7773 62.379 58.6005 63.2022 59.6159 63.2022Z" fill="#8096AC" fill-opacity="0.5"/>
            <path d="M70.1234 63.2022C71.1388 63.2022 71.962 62.379 71.962 61.3636C71.962 60.3482 71.1388 59.525 70.1234 59.525C69.108 59.525 68.2848 60.3482 68.2848 61.3636C68.2848 62.379 69.108 63.2022 70.1234 63.2022Z" fill="#8096AC" fill-opacity="0.5"/>
            <path d="M17.5985 52.6978C18.6139 52.6978 19.4371 51.8746 19.4371 50.8592C19.4371 49.8438 18.6139 49.0206 17.5985 49.0206C16.583 49.0206 15.7599 49.8438 15.7599 50.8592C15.7599 51.8746 16.583 52.6978 17.5985 52.6978Z" fill="#8096AC" fill-opacity="0.5"/>
            <path d="M28.1027 52.6978C29.1182 52.6978 29.9413 51.8746 29.9413 50.8592C29.9413 49.8438 29.1182 49.0206 28.1027 49.0206C27.0873 49.0206 26.2642 49.8438 26.2642 50.8592C26.2642 51.8746 27.0873 52.6978 28.1027 52.6978Z" fill="#8096AC" fill-opacity="0.5"/>
            <path d="M38.6073 52.6978C39.6227 52.6978 40.4458 51.8746 40.4458 50.8592C40.4458 49.8438 39.6227 49.0206 38.6073 49.0206C37.5918 49.0206 36.7687 49.8438 36.7687 50.8592C36.7687 51.8746 37.5918 52.6978 38.6073 52.6978Z" fill="#8096AC" fill-opacity="0.5"/>
            <path d="M49.1114 52.6978C50.1268 52.6978 50.95 51.8746 50.95 50.8592C50.95 49.8438 50.1268 49.0206 49.1114 49.0206C48.096 49.0206 47.2728 49.8438 47.2728 50.8592C47.2728 51.8746 48.096 52.6978 49.1114 52.6978Z" fill="#8096AC" fill-opacity="0.5"/>
            <path d="M59.6159 52.6978C60.6313 52.6978 61.4545 51.8746 61.4545 50.8592C61.4545 49.8438 60.6313 49.0206 59.6159 49.0206C58.6005 49.0206 57.7773 49.8438 57.7773 50.8592C57.7773 51.8746 58.6005 52.6978 59.6159 52.6978Z" fill="#8096AC" fill-opacity="0.5"/>
            <path d="M17.5985 42.1935C18.6139 42.1935 19.4371 41.3704 19.4371 40.3549C19.4371 39.3395 18.6139 38.5164 17.5985 38.5164C16.583 38.5164 15.7599 39.3395 15.7599 40.3549C15.7599 41.3704 16.583 42.1935 17.5985 42.1935Z" fill="#8096AC" fill-opacity="0.5"/>
            <path d="M28.1027 42.1935C29.1182 42.1935 29.9413 41.3704 29.9413 40.3549C29.9413 39.3395 29.1182 38.5164 28.1027 38.5164C27.0873 38.5164 26.2642 39.3395 26.2642 40.3549C26.2642 41.3704 27.0873 42.1935 28.1027 42.1935Z" fill="#8096AC" fill-opacity="0.5"/>
            <path d="M38.6073 42.1935C39.6227 42.1935 40.4458 41.3704 40.4458 40.3549C40.4458 39.3395 39.6227 38.5164 38.6073 38.5164C37.5918 38.5164 36.7687 39.3395 36.7687 40.3549C36.7687 41.3704 37.5918 42.1935 38.6073 42.1935Z" fill="#8096AC" fill-opacity="0.5"/>
            <path d="M49.1114 42.1935C50.1268 42.1935 50.95 41.3704 50.95 40.3549C50.95 39.3395 50.1268 38.5164 49.1114 38.5164C48.096 38.5164 47.2728 39.3395 47.2728 40.3549C47.2728 41.3704 48.096 42.1935 49.1114 42.1935Z" fill="#8096AC" fill-opacity="0.5"/>
            <path d="M17.5985 31.6891C18.6139 31.6891 19.4371 30.866 19.4371 29.8505C19.4371 28.8351 18.6139 28.012 17.5985 28.012C16.583 28.012 15.7599 28.8351 15.7599 29.8505C15.7599 30.866 16.583 31.6891 17.5985 31.6891Z" fill="#8096AC" fill-opacity="0.5"/>
            <path d="M28.1027 31.6891C29.1182 31.6891 29.9413 30.866 29.9413 29.8505C29.9413 28.8351 29.1182 28.012 28.1027 28.012C27.0873 28.012 26.2642 28.8351 26.2642 29.8505C26.2642 30.866 27.0873 31.6891 28.1027 31.6891Z" fill="#8096AC" fill-opacity="0.5"/>
            <path d="M38.6073 31.6891C39.6227 31.6891 40.4458 30.866 40.4458 29.8505C40.4458 28.8351 39.6227 28.012 38.6073 28.012C37.5918 28.012 36.7687 28.8351 36.7687 29.8505C36.7687 30.866 37.5918 31.6891 38.6073 31.6891Z" fill="#8096AC" fill-opacity="0.5"/>
            <path d="M17.5985 21.1816C18.6139 21.1816 19.4371 20.3584 19.4371 19.343C19.4371 18.3276 18.6139 17.5044 17.5985 17.5044C16.583 17.5044 15.7599 18.3276 15.7599 19.343C15.7599 20.3584 16.583 21.1816 17.5985 21.1816Z" fill="#8096AC" fill-opacity="0.5"/>
            <path d="M28.1027 21.1816C29.1182 21.1816 29.9413 20.3584 29.9413 19.343C29.9413 18.3276 29.1182 17.5044 28.1027 17.5044C27.0873 17.5044 26.2642 18.3276 26.2642 19.343C26.2642 20.3584 27.0873 21.1816 28.1027 21.1816Z" fill="#8096AC" fill-opacity="0.5"/>
            <path d="M17.5985 10.6772C18.6139 10.6772 19.4371 9.85401 19.4371 8.83858C19.4371 7.82316 18.6139 7 17.5985 7C16.583 7 15.7599 7.82316 15.7599 8.83858C15.7599 9.85401 16.583 10.6772 17.5985 10.6772Z" fill="#8096AC" fill-opacity="0.5"/>
        </g>
        <defs>
            <filter id="filter0_d_22_4483" x="200.103" y="42.9015" width="63.8424" height="54.0887" filterUnits="userSpaceOnUse" color-interpolation-filters="sRGB">
                <feFlood flood-opacity="0" result="BackgroundImageFix"/>
                <feColorMatrix in="SourceAlpha" type="matrix" values="0 0 0 0 0 0 0 0 0 0 0 0 0 0 0 0 0 0 127 0" result="hardAlpha"/>
                <feOffset/>
                <feGaussianBlur stdDeviation="8.86699"/>
                <feComposite in2="hardAlpha" operator="out"/>
                <feColorMatrix type="matrix" values="0 0 0 0 0 0 0 0 0 0 0 0 0 0 0 0 0 0 0.07 0"/>
                <feBlend mode="normal" in2="BackgroundImageFix" result="effect1_dropShadow_22_4483"/>
                <feBlend mode="normal" in="SourceGraphic" in2="effect1_dropShadow_22_4483" result="shape"/>
            </filter>
            <filter id="filter1_d_22_4483" x="232.911" y="42.9015" width="63.8424" height="54.0887" filterUnits="userSpaceOnUse" color-interpolation-filters="sRGB">
                <feFlood flood-opacity="0" result="BackgroundImageFix"/>
                <feColorMatrix in="SourceAlpha" type="matrix" values="0 0 0 0 0 0 0 0 0 0 0 0 0 0 0 0 0 0 127 0" result="hardAlpha"/>
                <feOffset/>
                <feGaussianBlur stdDeviation="8.86699"/>
                <feComposite in2="hardAlpha" operator="out"/>
                <feColorMatrix type="matrix" values="0 0 0 0 0 0 0 0 0 0 0 0 0 0 0 0 0 0 0.07 0"/>
                <feBlend mode="normal" in2="BackgroundImageFix" result="effect1_dropShadow_22_4483"/>
                <feBlend mode="normal" in="SourceGraphic" in2="effect1_dropShadow_22_4483" result="shape"/>
            </filter>
            <clipPath id="clip0_22_4483">
                <rect width="394" height="100" rx="6" fill="white"/>
            </clipPath>
        </defs>
    </svg>