<svg xmlns="http://www.w3.org/2000/svg" fill="none" viewBox="0 0 394 100">
  <g clip-path="url(#a)">
    <rect width="394" height="100" fill="#D4DFF0" rx="6"/>
    <path fill="#DCE7F7" d="M0 0h394v160H0z"/>
    <path fill="#F9FBB6" d="M100 31.5a1.5 1.5 0 1 1-3 0 1.5 1.5 0 0 1 3 0Zm12.5 0a1.5 1.5 0 1 1-3 0 1.5 1.5 0 0 1 3 0Zm12.5 0a1.5 1.5 0 1 1-3 0 1.5 1.5 0 0 1 3 0Zm12.5 0a1.5 1.5 0 1 1-3 0 1.5 1.5 0 0 1 3 0Zm12.5 0a1.5 1.5 0 1 1-2.9 0 1.5 1.5 0 0 1 3 0Zm12.6 0a1.5 1.5 0 1 1-3 0 1.5 1.5 0 0 1 3 0Zm12.4 0a1.5 1.5 0 1 1-2.8 0 1.5 1.5 0 0 1 2.9 0ZM100 44a1.5 1.5 0 1 1-3 0 1.5 1.5 0 0 1 3 0Zm12.5 0a1.5 1.5 0 1 1-3 0 1.5 1.5 0 0 1 3 0Zm12.5 0a1.5 1.5 0 1 1-3 0 1.5 1.5 0 0 1 3 0Zm12.5 0a1.5 1.5 0 1 1-3 0 1.5 1.5 0 0 1 3 0Zm12.5 0a1.5 1.5 0 1 1-2.9 0 1.5 1.5 0 0 1 3 0Zm12.6 0a1.5 1.5 0 1 1-3 0 1.5 1.5 0 0 1 3 0Zm12.4 0a1.5 1.5 0 1 1-2.8 0 1.5 1.5 0 0 1 2.9 0Zm-75 12.4a1.5 1.5 0 1 1-3 0 1.5 1.5 0 0 1 3 0Zm12.5 0a1.5 1.5 0 1 1-3 0 1.5 1.5 0 0 1 3 0Zm12.5 0a1.5 1.5 0 1 1-3 0 1.5 1.5 0 0 1 3 0Zm12.5 0a1.5 1.5 0 1 1-3 0 1.5 1.5 0 0 1 3 0Zm12.5 0a1.5 1.5 0 1 1-2.9 0 1.5 1.5 0 0 1 3 0Zm12.6 0a1.5 1.5 0 1 1-3 0 1.5 1.5 0 0 1 3 0Zm12.4 0a1.5 1.5 0 1 1-2.8 0 1.5 1.5 0 0 1 2.9 0ZM100 69a1.5 1.5 0 1 1-3 0 1.5 1.5 0 0 1 3 0Zm12.5 0a1.5 1.5 0 1 1-3 0 1.5 1.5 0 0 1 3 0Zm12.5 0a1.5 1.5 0 1 1-3 0 1.5 1.5 0 0 1 3 0Zm12.5 0a1.5 1.5 0 1 1-3 0 1.5 1.5 0 0 1 3 0Zm12.5 0a1.5 1.5 0 1 1-2.9 0 1.5 1.5 0 0 1 3 0Zm12.6 0a1.5 1.5 0 1 1-3 0 1.5 1.5 0 0 1 3 0Zm12.4 0a1.5 1.5 0 1 1-2.8 0 1.5 1.5 0 0 1 2.9 0ZM98.5 83a1.5 1.5 0 1 0 0-3 1.5 1.5 0 0 0 0 3Zm12.5 0a1.5 1.5 0 1 0 0-3 1.5 1.5 0 0 0 0 3Zm14-1.5a1.5 1.5 0 1 1-3 0 1.5 1.5 0 0 1 3 0Zm12.5 0a1.5 1.5 0 1 1-3 0 1.5 1.5 0 0 1 3 0Zm11.1 1.5a1.5 1.5 0 1 0 0-3 1.5 1.5 0 0 0 0 3Zm14-1.5a1.5 1.5 0 1 1-3 0 1.5 1.5 0 0 1 3 0Zm11 1.5a1.5 1.5 0 1 0 0-3 1.5 1.5 0 0 0 0 3ZM98.5 95.4a1.5 1.5 0 1 0 0-3 1.5 1.5 0 0 0 0 3Zm12.5 0a1.5 1.5 0 1 0 0-3 1.5 1.5 0 0 0 0 3Zm14-1.4a1.5 1.5 0 1 1-3 0 1.5 1.5 0 0 1 3 0Zm12.5 0a1.5 1.5 0 1 1-3 0 1.5 1.5 0 0 1 3 0Zm11.1 1.4a1.5 1.5 0 1 0 0-3 1.5 1.5 0 0 0 0 3Zm14-1.4a1.5 1.5 0 1 1-3 0 1.5 1.5 0 0 1 3 0Zm11 1.4a1.5 1.5 0 1 0 0-3 1.5 1.5 0 0 0 0 3Zm39.8-81.2a1.2 1.2 0 1 1-2.4 0 1.2 1.2 0 0 1 2.4 0Zm10.1 0a1.2 1.2 0 1 1-2.4 0 1.2 1.2 0 0 1 2.4 0Zm10.1 0a1.2 1.2 0 1 1-2.4 0 1.2 1.2 0 0 1 2.4 0Zm10.1 0a1.2 1.2 0 1 1-2.3 0 1.2 1.2 0 0 1 2.3 0Zm10.1 0a1.2 1.2 0 1 1-2.3 0 1.2 1.2 0 0 1 2.3 0Zm10.2 0a1.2 1.2 0 1 1-2.4 0 1.2 1.2 0 0 1 2.4 0Zm10 0a1.2 1.2 0 1 1-2.3 0 1.2 1.2 0 0 1 2.4 0Zm-60.6 10.1a1.2 1.2 0 1 1-2.4 0 1.2 1.2 0 0 1 2.4 0Zm10.1 0a1.2 1.2 0 1 1-2.4 0 1.2 1.2 0 0 1 2.4 0Zm10.1 0a1.2 1.2 0 1 1-2.4 0 1.2 1.2 0 0 1 2.4 0Zm10.1 0a1.2 1.2 0 1 1-2.3 0 1.2 1.2 0 0 1 2.3 0Zm10.1 0a1.2 1.2 0 1 1-2.3 0 1.2 1.2 0 0 1 2.3 0Zm10.2 0a1.2 1.2 0 1 1-2.4 0 1.2 1.2 0 0 1 2.4 0Zm10 0a1.2 1.2 0 1 1-2.3 0 1.2 1.2 0 0 1 2.4 0Zm-60.6 10a1.2 1.2 0 1 1-2.4 0 1.2 1.2 0 0 1 2.4 0Zm10.1 0a1.2 1.2 0 1 1-2.4 0 1.2 1.2 0 0 1 2.4 0Zm10.1 0a1.2 1.2 0 1 1-2.4 0 1.2 1.2 0 0 1 2.4 0Zm10.1 0a1.2 1.2 0 1 1-2.3 0 1.2 1.2 0 0 1 2.3 0Zm10.1 0a1.2 1.2 0 1 1-2.3 0 1.2 1.2 0 0 1 2.3 0Zm10.2 0a1.2 1.2 0 1 1-2.4 0 1.2 1.2 0 0 1 2.4 0Zm10 0a1.2 1.2 0 1 1-2.3 0 1.2 1.2 0 0 1 2.4 0Zm-60.6 10.2a1.2 1.2 0 1 1-2.4 0 1.2 1.2 0 0 1 2.4 0Zm10.1 0a1.2 1.2 0 1 1-2.4 0 1.2 1.2 0 0 1 2.4 0Zm10.1 0a1.2 1.2 0 1 1-2.4 0 1.2 1.2 0 0 1 2.4 0Zm10.1 0a1.2 1.2 0 1 1-2.3 0 1.2 1.2 0 0 1 2.3 0Zm10.1 0a1.2 1.2 0 1 1-2.3 0 1.2 1.2 0 0 1 2.3 0Zm10.2 0a1.2 1.2 0 1 1-2.4 0 1.2 1.2 0 0 1 2.4 0Zm10 0a1.2 1.2 0 1 1-2.3 0 1.2 1.2 0 0 1 2.4 0Zm-61.8 11.3a1.2 1.2 0 1 0 0-2.4 1.2 1.2 0 0 0 0 2.4Zm10.1 0a1.2 1.2 0 1 0 0-2.4 1.2 1.2 0 0 0 0 2.4Zm11.3-1.2a1.2 1.2 0 1 1-2.4 0 1.2 1.2 0 0 1 2.4 0Zm10.1 0a1.2 1.2 0 1 1-2.3 0 1.2 1.2 0 0 1 2.3 0Zm9 1.2a1.2 1.2 0 1 0 0-2.4 1.2 1.2 0 0 0 0 2.4Zm11.3-1.2a1.2 1.2 0 1 1-2.4 0 1.2 1.2 0 0 1 2.4 0Zm8.9 1.2a1.2 1.2 0 1 0 0-2.4 1.2 1.2 0 0 0 0 2.4Zm-60.7 10a1.2 1.2 0 1 0 0-2.3 1.2 1.2 0 0 0 0 2.3Zm10.1 0a1.2 1.2 0 1 0 0-2.3 1.2 1.2 0 0 0 0 2.3Zm11.3-1.2a1.2 1.2 0 1 1-2.4 0 1.2 1.2 0 0 1 2.4 0Zm10.1 0a1.2 1.2 0 1 1-2.3 0 1.2 1.2 0 0 1 2.3 0Zm9 1.2a1.2 1.2 0 1 0 0-2.3 1.2 1.2 0 0 0 0 2.3Zm11.3-1.2a1.2 1.2 0 1 1-2.4 0 1.2 1.2 0 0 1 2.4 0Zm8.9 1.2a1.2 1.2 0 1 0 0-2.3 1.2 1.2 0 0 0 0 2.3ZM212.2 76a1.2 1.2 0 1 0 0-2.4 1.2 1.2 0 0 0 0 2.4Zm10.1 0a1.2 1.2 0 1 0 0-2.4 1.2 1.2 0 0 0 0 2.4Zm11.3-1.2a1.2 1.2 0 1 1-2.4 0 1.2 1.2 0 0 1 2.4 0Zm10.1 0a1.2 1.2 0 1 1-2.3 0 1.2 1.2 0 0 1 2.3 0Zm9 1.2a1.2 1.2 0 1 0 0-2.4 1.2 1.2 0 0 0 0 2.4Zm11.3-1.2a1.2 1.2 0 1 1-2.4 0 1.2 1.2 0 0 1 2.4 0Zm8.9 1.2a1.2 1.2 0 1 0 0-2.4 1.2 1.2 0 0 0 0 2.4Z"/>
    <circle cx="209.5" cy="27.5" r="13.5" fill="#C8D9F1"/>
    <circle cx="220.5" cy="51.5" r="10.5" fill="#B8C4D5"/>
    <path stroke="#0F172A" stroke-linecap="round" stroke-linejoin="round" stroke-width=".7" d="m225.4 48-4.9-2.8-4.9 2.9m9.8 0-4.9 2.8m4.9-2.8v4.8l-4.9 2.9m-4.9-7.7 4.9 2.8m-4.9-2.8v4.8l4.9 2.9m0-4.9v4.9"/>
    <path stroke="#0F172A" stroke-linecap="round" stroke-linejoin="round" stroke-width=".8" d="M203.4 24.2h12.2m-12.2.4h12.2M205.3 28h3.7m-3.7 1.4h1.9m-2.4 1.9h9.4c.8 0 1.4-.6 1.4-1.4v-6.6c0-.8-.6-1.4-1.4-1.4h-9.4c-.8 0-1.4.6-1.4 1.4v6.6c0 .8.6 1.4 1.4 1.4Z"/>
    <path stroke="#0F172A" stroke-linecap="round" stroke-linejoin="round" stroke-width="1.5" d="M163 26.8h3.2c1.1 0 2.1.7 2.4 1.8l.9 3.3m5.4 20.2c-3.8 0-6.8 3-6.8 6.7h35.5m-28.7-6.7H200a134 134 0 0 0 6.6-16.1 135.3 135.3 0 0 0-37.2-4.1m5.4 20.2-5.4-20.2m2 33.7a1.7 1.7 0 1 1-3.4 0 1.7 1.7 0 0 1 3.4 0Zm28.7 0a1.7 1.7 0 1 1-3.4 0 1.7 1.7 0 0 1 3.4 0Z"/>
  </g>
  <defs>
    <clipPath id="a">
      <rect width="394" height="100" fill="#fff" rx="6"/>
    </clipPath>
  </defs>
</svg>