<svg xmlns="http://www.w3.org/2000/svg" fill="none" viewBox="0 0 256 160">
  <g clip-path="url(#a)">
    <path fill="#D4DFF0" d="M0 0h256v160H0z"/>
    <path fill="#B6D2FB" d="M128.2 173.8H127a2.6 2.6 0 0 1 .2-5.1h1a2.6 2.6 0 0 1 0 5.2Zm10.1-.2a2.6 2.6 0 0 1-.2-5.1l1-.1c1.4-.2 2.6.9 2.8 2.3.1 1.4-.9 2.6-2.3 2.8h-1.3Zm-21.2-.8a2.6 2.6 0 1 1-.5-5.2h1a2.6 2.6 0 0 1-.5 5.2Zm32.2-1a2.6 2.6 0 0 1-.6-5l1-.2a2.6 2.6 0 1 1 1.2 5 46 46 0 0 1-1.6.3Zm-43-1.6-.8-.1-1-.4a2.6 2.6 0 0 1 1.6-4.8l1 .3c1.3.4 2 1.8 1.6 3.2a2.6 2.6 0 0 1-2.4 1.8Zm53.7-1.5a2.6 2.6 0 0 1-.9-5l1-.3a2.6 2.6 0 0 1 1.8 4.8c-.4 0-.7.2-1 .3l-.9.2Zm-64.1-2.5c-.4 0-.7 0-1-.3l-1-.4a2.6 2.6 0 1 1 2.2-4.6l.9.4c1.3.6 1.8 2.1 1.2 3.4-.4 1-1.3 1.5-2.3 1.5Zm74.3-2c-1 0-1.8-.6-2.3-1.4a2.6 2.6 0 0 1 1-3.5l1-.5a2.6 2.6 0 1 1 2.4 4.5l-1 .5a2 2 0 0 1-1.1.3Zm-84-3.4c-.5 0-1-.1-1.4-.4l-1-.5a2.6 2.6 0 1 1 2.9-4.3l.8.5a2.6 2.6 0 0 1-1.3 4.7Zm93.4-2.6c-.8 0-1.6-.3-2-1-.9-1.2-.6-2.8.5-3.6l.8-.6a2.6 2.6 0 0 1 3 4.1l-.8.7c-.5.3-1 .4-1.5.4Zm-102.4-4c-.6 0-1.2-.2-1.7-.6l-.8-.7a2.6 2.6 0 0 1 3.4-3.8l.7.6a2.6 2.6 0 0 1-1.6 4.5Zm111-3a2.6 2.6 0 0 1-1.8-4.5l.7-.6a2.6 2.6 0 1 1 3.6 3.6l-.8.8c-.5.4-1.1.7-1.7.7Zm-119-4.7c-.7 0-1.4-.3-2-.9l-.6-.7a2.6 2.6 0 1 1 3.8-3.4l.7.7a2.6 2.6 0 0 1-2 4.3Zm126.5-3.5c-.5 0-1-.2-1.6-.6a2.5 2.5 0 0 1-.3-3.6l.6-.7a2.6 2.6 0 0 1 4 3.1l-.7.8c-.5.7-1.2 1-2 1Zm-133.4-5.2c-.8 0-1.7-.4-2.1-1.2l-.6-.8a2.6 2.6 0 0 1 4.2-2.9l.6.8a2.6 2.6 0 0 1-2.1 4Zm139.9-4c-.5 0-1 0-1.4-.3a2.6 2.6 0 0 1-.8-3.5l.5-.8a2.6 2.6 0 1 1 4.4 2.6l-.5.9c-.5.8-1.4 1.2-2.2 1.2Zm-145.6-5.6c-1 0-1.9-.5-2.3-1.4l-.5-1a2.6 2.6 0 0 1 4.6-2.2l.5.9a2.6 2.6 0 0 1-2.3 3.7Zm150.7-4.2c-.3 0-.7 0-1-.2-1.3-.6-1.9-2-1.3-3.4l.4-.9a2.6 2.6 0 0 1 4.7 2l-.4 1c-.5 1-1.4 1.5-2.4 1.5Zm-155-6c-1.1 0-2.1-.7-2.5-1.8l-.3-1a2.6 2.6 0 0 1 4.8-1.6l.3 1a2.6 2.6 0 0 1-2.4 3.3Zm158.8-4.5h-.7a2.6 2.6 0 0 1-1.8-3.2l.3-1a2.6 2.6 0 0 1 5 1.4l-.3 1a2.6 2.6 0 0 1-2.5 1.8Zm-161.8-6.3c-1.2 0-2.3-.8-2.5-2l-.2-1a2.6 2.6 0 1 1 5-1l.2 1a2.6 2.6 0 0 1-2.5 3Zm164.1-4.5h-.3a2.6 2.6 0 0 1-2.2-3l.2-1a2.6 2.6 0 1 1 5 .7l-.1 1a2.6 2.6 0 0 1-2.6 2.2ZM47.8 96.2c-1.3 0-2.5-1-2.6-2.4v-1a2.6 2.6 0 1 1 5-.3l.2 1c0 1.4-1 2.6-2.4 2.7h-.2Zm166.5-4.7a2.6 2.6 0 0 1-2.6-2.5v-1.2a2.6 2.6 0 1 1 5.2 0V89c0 1.4-1.2 2.5-2.6 2.5ZM47.8 85h-.2a2.6 2.6 0 0 1-2.4-2.7l.1-1a2.6 2.6 0 0 1 5.1.4v1C50.1 84 49 85 47.7 85Zm165.9-4.7c-1.3 0-2.4-1-2.5-2.3l-.2-1a2.6 2.6 0 1 1 5-.6l.2 1a2.6 2.6 0 0 1-2.5 2.9ZM49.2 74h-.5a2.6 2.6 0 0 1-2-3l.2-1a2.6 2.6 0 0 1 5 1l-.1 1c-.3 1.2-1.4 2-2.5 2Zm162.4-4.7c-1.1 0-2.2-.7-2.5-1.9l-.2-1a2.6 2.6 0 0 1 4.9-1.3l.3 1a2.5 2.5 0 0 1-2.5 3.2Zm-159.4-6c-.3 0-.6 0-.9-.2-1.3-.4-2-1.9-1.6-3.2l.4-1c.5-1.3 2-2 3.3-1.6 1.3.5 2 2 1.5 3.3l-.3 1c-.4 1-1.4 1.7-2.4 1.7ZM208 58.8c-1 0-2-.6-2.4-1.6l-.4-1a2.6 2.6 0 1 1 4.7-2l.4 1a2.6 2.6 0 0 1-2.3 3.6ZM56.5 53c-.4 0-.8 0-1.1-.3a2.6 2.6 0 0 1-1.2-3.4l.5-1a2.6 2.6 0 0 1 4.5 2.3l-.4 1c-.4.9-1.3 1.4-2.3 1.4Zm146.6-4.2c-.8 0-1.7-.5-2.2-1.3l-.5-.8a2.6 2.6 0 0 1 4.4-2.6l.5.9a2.6 2.6 0 0 1-2.2 3.8Zm-141-5.4c-.4 0-1-.1-1.4-.4a2.6 2.6 0 0 1-.6-3.6l.6-.8a2.6 2.6 0 0 1 4.2 3l-.6.7c-.5.7-1.3 1.1-2.1 1.1ZM197 39.6c-.7 0-1.5-.4-2-1l-.6-.8a2.6 2.6 0 1 1 4-3.2l.7.8a2.6 2.6 0 0 1-2 4.2Zm-127.8-5a2.6 2.6 0 0 1-1.9-4.2l.7-.8c1-1 2.6-1 3.6-.1 1 1 1.1 2.6.2 3.6l-.7.7c-.5.6-1.2.9-1.9.9Zm120.4-3.4c-.6 0-1.3-.2-1.7-.7l-.7-.7a2.6 2.6 0 1 1 3.5-3.7l.8.8a2.6 2.6 0 0 1-1.8 4.3ZM77.1 27a2.6 2.6 0 0 1-1.7-4.5l.8-.6a2.6 2.6 0 1 1 3.3 3.9l-.8.6c-.4.4-1 .6-1.6.6Zm104-3c-.5 0-1-.1-1.5-.5l-.8-.5a2.6 2.6 0 0 1 3-4.2l.9.7A2.6 2.6 0 0 1 181 24Zm-95-3.6c-1 0-1.7-.4-2.2-1.2-.8-1.2-.4-2.7.7-3.5l1-.6a2.6 2.6 0 0 1 2.6 4.4l-.8.5c-.4.3-.9.4-1.4.4Zm85.7-2.4c-.4 0-.9-.1-1.3-.4l-.8-.5a2.6 2.6 0 0 1-1-3.4 2.6 2.6 0 0 1 3.4-1l1 .5a2.6 2.6 0 0 1-1.3 4.7Zm-76-3c-1 0-2-.5-2.3-1.4-.6-1.3 0-2.8 1.2-3.4l1-.5a2.6 2.6 0 1 1 2 4.7l-.8.4-1.1.3Zm66-1.8-1-.2-1-.4a2.6 2.6 0 1 1 2-4.8l.9.4a2.6 2.6 0 0 1-1 5ZM106.2 11a2.6 2.6 0 0 1-.8-5l1-.3a2.6 2.6 0 1 1 1.4 5l-.9.2-.8.1Zm45-1.3h-.7l-1-.3a2.6 2.6 0 1 1 1.2-5l1 .3c1.4.4 2.3 1.7 2 3.1-.4 1.2-1.4 2-2.6 2ZM117 8.3a2.6 2.6 0 0 1-.4-5l1-.2a2.6 2.6 0 1 1 .8 5l-1 .2a3 3 0 0 1-.4 0Zm23.2-.6h-.3l-1-.1a2.6 2.6 0 1 1 .5-5.1h1a2.6 2.6 0 0 1-.2 5.2ZM128 7.2a2.6 2.6 0 0 1-.1-5l1-.1c1.5 0 2.6 1 2.6 2.5 0 1.4-1 2.6-2.5 2.6h-1Zm7.6 151.3a2.6 2.6 0 0 1-.2-5.1l1-.1c1.4-.1 2.7 1 2.8 2.3 0 1.5-1 2.7-2.4 2.8h-1.2Zm-10.2 0h-.2l-1-.2a2.6 2.6 0 1 1 .4-5h1a2.6 2.6 0 0 1-.2 5.1Zm21.3-1.7a2.6 2.6 0 0 1-.6-5l1-.3c1.4-.3 2.7.5 3 1.9.4 1.3-.4 2.7-1.8 3a53.4 53.4 0 0 1-1.6.4Zm-32.4-.2h-.6l-1-.4a2.6 2.6 0 0 1 1.3-4.9l1 .3a2.6 2.6 0 0 1-.7 5Zm43.1-3.3a2.6 2.6 0 0 1-1-5l1-.3a2.6 2.6 0 1 1 2 4.7l-1 .4-1 .2Zm-53.8-.4c-.3 0-.6 0-1-.2l-1-.4a2.6 2.6 0 0 1 2.2-4.7l.9.4a2.6 2.6 0 0 1-1 5Zm63.8-4.8a2.6 2.6 0 0 1-1.4-4.7l.8-.6a2.6 2.6 0 0 1 2.8 4.3l-.9.6c-.4.3-.9.4-1.3.4Zm-73.6-.5c-.5 0-1-.1-1.4-.4l-1-.6a2.6 2.6 0 0 1 3-4.3l.8.6a2.6 2.6 0 0 1-1.5 4.7Zm82.5-6.3c-.7 0-1.4-.3-1.9-.8-1-1-.8-2.7.2-3.6l.8-.7a2.6 2.6 0 0 1 3.4 3.8l-.7.7c-.5.4-1.1.6-1.8.6Zm-91.4-.6c-.6 0-1.3-.2-1.8-.7l-.7-.7a2.6 2.6 0 0 1 3.5-3.7l.7.7a2.6 2.6 0 0 1-1.7 4.4Zm99.2-7.5a2.6 2.6 0 0 1-2-4.2l.6-.8a2.6 2.6 0 0 1 4 3.2l-.6.8c-.5.6-1.3 1-2 1Zm-106.8-.8c-.8 0-1.6-.3-2-1l-.7-.8a2.6 2.6 0 1 1 4-3l.7.7a2.6 2.6 0 0 1-2 4.1Zm113-8.6c-.4 0-.8 0-1.2-.3a2.6 2.6 0 0 1-1-3.5l.5-.8a2.6 2.6 0 1 1 4.5 2.4l-.5 1c-.5.8-1.3 1.3-2.2 1.3ZM71.2 123c-1 0-1.8-.5-2.3-1.3l-.5-1a2.6 2.6 0 0 1 4.6-2.3l.4.8a2.6 2.6 0 0 1-2.2 3.8Zm124-9.4a2.6 2.6 0 0 1-2.5-3.4l.4-1a2.6 2.6 0 1 1 4.8 1.7l-.4 1c-.3 1-1.3 1.7-2.4 1.7Zm-128.5-.9c-1.1 0-2.1-.6-2.5-1.7l-.3-1a2.6 2.6 0 1 1 4.9-1.6l.3 1a2.6 2.6 0 0 1-2.4 3.3Zm131.4-10h-.5a2.6 2.6 0 0 1-2-3l.1-1a2.6 2.6 0 1 1 5 .8l-.1 1.2a2.6 2.6 0 0 1-2.5 2Zm-134.2-.9c-1.2 0-2.3-.8-2.5-2.1l-.2-1a2.6 2.6 0 1 1 5-.8l.2 1a2.6 2.6 0 0 1-2.5 3ZM199 91.6a2.6 2.6 0 0 1-2.6-2.6v-1.2a2.6 2.6 0 1 1 5.1 0V89c0 1.4-1.1 2.6-2.5 2.6Zm-136.2-1a2.5 2.5 0 0 1-2.6-2.5V87c0-1.4 1.2-2.5 2.6-2.5 1.4 0 2.5 1.2 2.5 2.6v.9c0 1.4-1.1 2.6-2.5 2.6Zm135.4-10.4c-1.3 0-2.4-1-2.5-2.2l-.2-1a2.6 2.6 0 0 1 5-.8l.2 1a2.6 2.6 0 0 1-2.5 3Zm-134.5-.8h-.5a2.6 2.6 0 0 1-2-3l.1-1a2.6 2.6 0 0 1 5 .9l-.1 1a2.6 2.6 0 0 1-2.5 2.1Zm131.9-10.2c-1.1 0-2.1-.7-2.5-1.7l-.3-1a2.6 2.6 0 1 1 4.8-1.6l.4 1a2.6 2.6 0 0 1-2.4 3.3Zm-129.2-.7-.8-.1c-1.4-.5-2-2-1.6-3.3l.3-1a2.6 2.6 0 0 1 4.8 1.8l-.3.9c-.3 1-1.3 1.7-2.4 1.7ZM191.3 59c-1 0-1.8-.5-2.3-1.4l-.5-.9a2.6 2.6 0 0 1 4.5-2.4l.5 1a2.6 2.6 0 0 1-2.2 3.7ZM71 58.2c-.4 0-.8 0-1.2-.3a2.6 2.6 0 0 1-1-3.5l.5-.9a2.6 2.6 0 0 1 4.4 2.5l-.4.9c-.5.8-1.4 1.3-2.3 1.3Zm114.2-8.8c-.7 0-1.5-.4-2-1l-.6-.8a2.6 2.6 0 1 1 4-3.2l.7.9a2.6 2.6 0 0 1-2 4Zm-108-.6c-.6 0-1.2-.2-1.6-.5a2.6 2.6 0 0 1-.5-3.6l.7-.9a2.6 2.6 0 1 1 4 3.2l-.6.8c-.5.6-1.3 1-2 1ZM177.6 41c-.6 0-1.2-.2-1.7-.7l-.8-.6a2.6 2.6 0 1 1 3.5-3.8l.8.7a2.6 2.6 0 0 1-1.8 4.4Zm-93-.5a2.6 2.6 0 0 1-1.7-4.4l.8-.7a2.6 2.6 0 1 1 3.4 3.8l-.7.6c-.5.5-1.1.7-1.7.7ZM169 34c-.4 0-1-.1-1.4-.4a56 56 0 0 0-.8-.6 2.6 2.6 0 1 1 2.8-4.3l.9.6A2.6 2.6 0 0 1 169 34Zm-75.3-.4c-.8 0-1.6-.4-2.1-1.2-.8-1.2-.5-2.7.7-3.5l.9-.6a2.6 2.6 0 0 1 2.7 4.3l-.8.6c-.4.2-1 .4-1.4.4Zm65.5-5-1-.3-1-.4a2.6 2.6 0 0 1 2.1-4.7l1 .4a2.6 2.6 0 0 1-1 4.9Zm-55.6-.4a2.6 2.6 0 0 1-1-4.9l1-.4a2.6 2.6 0 0 1 2 4.7l-1 .4-1 .2Zm45-3.5h-.6c-.3-.2-.7-.2-1-.3a2.6 2.6 0 0 1-1.8-3.1 2.6 2.6 0 0 1 3-1.9l1 .3a2.6 2.6 0 0 1-.6 5Zm-34.4-.2a2.6 2.6 0 0 1-.6-5l1-.3c1.4-.3 2.8.6 3 2 .4 1.3-.4 2.7-1.8 3l-1 .2-.6.1Zm23.4-1.8h-1.3a2.5 2.5 0 0 1-2.3-2.8 2.5 2.5 0 0 1 2.7-2.4l1.1.1a2.6 2.6 0 0 1-.2 5.1Zm-12.3 0a2.6 2.6 0 0 1-.2-5.1l1-.1a2.6 2.6 0 1 1 .4 5l-1 .2h-.2Zm5.7 183h-1a2.6 2.6 0 0 1 0-5.1h1c1.4 0 2.6 1.1 2.6 2.5s-1.2 2.6-2.6 2.6Zm10.3-.5a2.6 2.6 0 0 1-.2-5l1-.2a2.6 2.6 0 1 1 .5 5.1l-1.1.1h-.2Zm-21.6 0h-.2l-1-.2a2.6 2.6 0 0 1 .5-5h1a2.6 2.6 0 0 1-.3 5.1Zm32.8-1.5a2.6 2.6 0 0 1-.5-5l1-.3a2.6 2.6 0 1 1 1 5l-1 .2h-.5Zm-44-.2h-.4l-1-.2a2.6 2.6 0 1 1 1-5l1 .1a2.6 2.6 0 0 1-.5 5.1Zm55-2.5a2.6 2.6 0 0 1-.8-5l1-.3a2.6 2.6 0 0 1 1.5 5l-1 .2-.7.1Zm-65.9-.2-.7-.1-1-.3a2.6 2.6 0 0 1 1.5-5l1 .4a2.6 2.6 0 0 1-.8 5Zm76.5-3.5a2.6 2.6 0 0 1-1-5c.4 0 .7-.2 1-.3a2.6 2.6 0 1 1 2 4.7l-1 .4c-.3.2-.7.2-1 .2ZM87 197c-.3 0-.6 0-1-.2l-.9-.4a2.6 2.6 0 0 1 2-4.7l1 .4a2.6 2.6 0 0 1-1 4.9Zm97.5-4.4a2.6 2.6 0 0 1-1.2-4.8l.9-.5a2.6 2.6 0 1 1 2.4 4.5l-1 .5a2 2 0 0 1-1.1.3ZM76.7 192c-.4 0-.8 0-1.2-.3l-.9-.5a2.6 2.6 0 0 1 2.4-4.5l1 .5a2.6 2.6 0 0 1-1.3 4.8Zm117.4-5.3c-.8 0-1.6-.4-2.1-1.1-.8-1.2-.5-2.8.7-3.5l.8-.6a2.6 2.6 0 1 1 2.9 4.3l-.9.5c-.4.3-1 .5-1.4.5Zm-127-.5c-.6 0-1-.1-1.5-.4l-.9-.6a2.6 2.6 0 1 1 3-4.2l.8.5a2.6 2.6 0 0 1-1.5 4.7Zm136.1-6.1a2.6 2.6 0 0 1-1.6-4.6l.8-.6a2.6 2.6 0 1 1 3.2 4l-.8.6c-.4.4-1 .6-1.6.6ZM58 179.6c-.6 0-1.2-.2-1.7-.6l-.8-.7a2.6 2.6 0 0 1 3.3-3.9l.8.7a2.6 2.6 0 0 1-1.6 4.5Zm153.7-7c-.7 0-1.4-.2-1.9-.7-1-1-1-2.6 0-3.6l.8-.7a2.6 2.6 0 1 1 3.6 3.6l-.8.7c-.4.5-1 .8-1.7.8ZM49.6 172c-.7 0-1.3-.2-1.8-.7l-.8-.8a2.6 2.6 0 0 1 3.7-3.6l.7.7a2.6 2.6 0 0 1-1.8 4.4Zm169.7-7.6a2.6 2.6 0 0 1-2-4.2l.7-.8a2.6 2.6 0 1 1 4 3.2l-.7.8c-.5.6-1.2 1-2 1ZM42 163.6c-.7 0-1.5-.3-2-.9l-.6-.8a2.6 2.6 0 1 1 4-3.2l.6.8a2.6 2.6 0 0 1-2 4.2Zm184.1-8.2a2.6 2.6 0 0 1-2-4l.5-.9a2.6 2.6 0 1 1 4.2 2.9l-.6.8c-.4.8-1.3 1.2-2 1.2Zm-190.8-.8c-.9 0-1.7-.4-2.2-1.1l-.6-1a2.6 2.6 0 0 1 4.3-2.7l.6.8a2.6 2.6 0 0 1-2.2 4Zm196.7-8.9c-.4 0-.8 0-1.2-.3a2.6 2.6 0 0 1-1-3.5l.5-.8a2.6 2.6 0 0 1 4.5 2.4l-.5.9c-.5.8-1.4 1.3-2.3 1.3ZM29.4 145c-.9 0-1.8-.5-2.2-1.3l-.5-1a2.6 2.6 0 1 1 4.5-2.4l.5 1a2.6 2.6 0 0 1-2.3 3.7Zm207.6-9.3-1-.2c-1.3-.6-2-2-1.4-3.4l.4-1a2.6 2.6 0 1 1 4.7 2l-.4 1c-.4 1-1.3 1.6-2.3 1.6Zm-212.4-.9c-1 0-2-.6-2.4-1.6l-.4-1a2.6 2.6 0 0 1 4.8-1.9l.3 1a2.6 2.6 0 0 1-2.3 3.5Zm216.3-9.8h-.8a2.6 2.6 0 0 1-1.7-3.3l.3-1a2.6 2.6 0 1 1 5 1.5l-.4 1a2.5 2.5 0 0 1-2.4 1.8Zm-220.1-.8c-1.1 0-2.1-.7-2.5-1.8l-.3-1a2.6 2.6 0 0 1 5-1.5l.2 1a2.6 2.6 0 0 1-2.4 3.3Zm223-10.1h-.6a2.6 2.6 0 0 1-2-3l.2-1a2.6 2.6 0 1 1 5 1l-.2 1c-.2 1.2-1.3 2-2.5 2Zm-225.8-1c-1.2 0-2.2-.8-2.5-2l-.2-1a2.6 2.6 0 0 1 5-1l.2 1a2.6 2.6 0 0 1-2.5 3Zm227.5-10.3h-.3a2.6 2.6 0 0 1-2.3-2.8l.1-1a2.6 2.6 0 1 1 5.1.5l-.1 1a2.6 2.6 0 0 1-2.5 2.3ZM16.4 102c-1.3 0-2.4-1-2.6-2.3v-1a2.6 2.6 0 0 1 5-.5l.1 1a2.6 2.6 0 0 1-2.5 2.8ZM246 91.6a2.6 2.6 0 0 1-2.6-2.6v-1.3a2.6 2.6 0 0 1 5.2 0V89c0 1.4-1.2 2.6-2.6 2.6Zm-230.3-1a2.6 2.6 0 0 1-2.6-2.5v-1c0-1.5 1.2-2.6 2.6-2.6 1.4 0 2.6 1.2 2.6 2.6v1c0 1.4-1.2 2.6-2.6 2.6ZM245.6 80c-1.3 0-2.4-1-2.5-2.3l-.1-1a2.6 2.6 0 0 1 5-.5l.2 1a2.6 2.6 0 0 1-2.6 2.8Zm-229.2-.6H16a2.6 2.6 0 0 1-2.3-2.8l.1-1a2.6 2.6 0 0 1 5.1.5l-.1 1a2.6 2.6 0 0 1-2.5 2.3ZM244 68.8c-1.2 0-2.3-.8-2.5-2l-.2-1a2.6 2.6 0 0 1 5-1l.2 1a2.6 2.6 0 0 1-2.5 3Zm-226-.6h-.5a2.6 2.6 0 0 1-2-3l.2-1a2.6 2.6 0 0 1 5 1l-.2 1c-.3 1.2-1.3 2-2.5 2Zm223.4-10.3c-1.1 0-2.1-.8-2.4-1.9l-.3-1a2.6 2.6 0 0 1 4.9-1.4l.3 1a2.6 2.6 0 0 1-2.5 3.3Zm-220.7-.7H20a2.6 2.6 0 0 1-1.7-3.3l.3-1a2.6 2.6 0 1 1 4.8 1.5l-.2 1a2.6 2.6 0 0 1-2.5 1.8Zm217-10c-1 0-2-.6-2.4-1.6l-.4-1a2.6 2.6 0 1 1 4.7-1.9l.4 1a2.6 2.6 0 0 1-2.3 3.5Zm-213.2-.6c-.3 0-.7 0-1-.2-1.3-.5-1.9-2-1.4-3.3l.4-1a2.6 2.6 0 0 1 4.8 2l-.4.9c-.4 1-1.4 1.6-2.4 1.6ZM232.9 37c-.9 0-1.8-.5-2.2-1.4l-.5-.9a2.6 2.6 0 0 1 4.5-2.4l.5 1a2.5 2.5 0 0 1-2.3 3.7Zm-203.6-.6-1.2-.3a2.6 2.6 0 0 1-1-3.5l.5-1a2.6 2.6 0 0 1 3.4-1c1.3.7 1.7 2.3 1 3.5l-.4.9c-.5.9-1.4 1.4-2.3 1.4Zm197.9-9.2c-.9 0-1.7-.4-2.2-1.1l-.5-.8a2.6 2.6 0 0 1 4.2-2.9l.6.9a2.6 2.6 0 0 1-2.1 4Zm-192-.5c-.6 0-1-.2-1.5-.5a2.6 2.6 0 0 1-.7-3.5l.6-.9a2.6 2.6 0 0 1 4.2 2.9l-.5.8c-.5.8-1.3 1.2-2.2 1.2ZM220.4 18c-.7 0-1.5-.3-2-1l-.6-.7a2.6 2.6 0 1 1 4-3.3l.6.9a2.6 2.6 0 0 1-2 4.1ZM42 17.6c-.6 0-1.2-.2-1.7-.6-1-.9-1.2-2.5-.3-3.6l.7-.8a2.6 2.6 0 0 1 3.9 3.3l-.7.8c-.5.6-1.2.9-2 .9Zm171-7.9c-.6 0-1.2-.2-1.8-.8l-.7-.7a2.6 2.6 0 1 1 3.7-3.6l.7.8a2.6 2.6 0 0 1-1.8 4.3ZM49.5 9.2c-.6 0-1.3-.2-1.8-.7-1-1-1-2.7 0-3.7l.8-.7A2.6 2.6 0 0 1 52 7.7l-.7.7c-.5.5-1.2.8-1.9.8Zm155.3-7.1c-.6 0-1.2-.2-1.7-.6l-.8-.7a2.6 2.6 0 1 1 3.3-4l.8.7a2.6 2.6 0 0 1-1.6 4.6Zm-147-.5a2.6 2.6 0 0 1-1.6-4.5l.8-.7a2.6 2.6 0 1 1 3.2 4l-.8.6c-.4.4-1 .6-1.6.6Zm137.8-6.3c-.5 0-1-.2-1.4-.5l-.8-.6a2.6 2.6 0 1 1 2.8-4.2l.9.6a2.6 2.6 0 0 1-1.5 4.7ZM67-5.1a2.6 2.6 0 0 1-1.5-4.7l1-.6A2.6 2.6 0 1 1 69-6.1l-.8.5a3 3 0 0 1-1.4.5Zm119-5.5-1.1-.3-1-.5a2.6 2.6 0 0 1 2.5-4.5l1 .5a2.6 2.6 0 0 1-1.3 4.8ZM76.6-11a2.6 2.6 0 0 1-1.2-4.8l1-.5a2.5 2.5 0 1 1 2.3 4.5l-.9.5c-.3.2-.8.3-1.2.3Zm99.3-4.6c-.3 0-.7 0-1-.2l-1-.3a2.6 2.6 0 0 1 2-4.8l1 .4a2.6 2.6 0 0 1-1 5Zm-89-.2a2.6 2.6 0 0 1-1-5l1-.3a2.6 2.6 0 1 1 1.8 4.7l-.9.4-1 .2Zm78.4-3.6c-.3 0-.5 0-.8-.2l-1-.3a2.6 2.6 0 0 1 1.5-4.8l1 .3a2.6 2.6 0 0 1-.7 5Zm-67.8-.2a2.6 2.6 0 0 1-.8-5l1-.3a2.6 2.6 0 1 1 1.5 4.9l-1 .2-.7.2Zm56.9-2.7h-.6l-1-.2a2.6 2.6 0 0 1 1-5l1 .2a2.6 2.6 0 0 1-.4 5Zm-46 0a2.6 2.6 0 0 1-.5-5.2l1-.2a2.6 2.6 0 0 1 1 5l-1 .3h-.5Zm34.8-1.7h-.3l-1-.1a2.6 2.6 0 1 1 .5-5h1c1.5.2 2.5 1.4 2.3 2.8a2.6 2.6 0 0 1-2.5 2.3Zm-23.6 0a2.6 2.6 0 0 1-.3-5.2h1.1a2.6 2.6 0 0 1 .5 5l-1 .1h-.3Zm12.3-.6h-1a2.6 2.6 0 1 1 0-5.1h1.1a2.6 2.6 0 0 1 0 5Zm.9 260.6a2.6 2.6 0 0 1 0-5.1h1c1.4-.1 2.6 1 2.6 2.4 0 1.5-1 2.6-2.5 2.7h-1Zm-10.2-.3h-1.2a2.6 2.6 0 0 1 .3-5.1h1a2.6 2.6 0 0 1-.1 5.1Zm21.5-.3a2.6 2.6 0 0 1-.2-5.1l1-.1a2.6 2.6 0 0 1 .5 5l-1 .2h-.3Zm-32.7-.7a3 3 0 0 1-.4 0l-1-.2a2.6 2.6 0 0 1 .7-5h1c1.4.3 2.4 1.6 2.2 3a2.6 2.6 0 0 1-2.5 2.2Zm43.9-.7a2.6 2.6 0 0 1-.4-5.1l1-.2a2.6 2.6 0 1 1 .8 5l-1 .2h-.4Zm-55-1.3a3 3 0 0 1-.6 0l-1-.2a2.6 2.6 0 0 1 1.1-5l1 .2c1.4.3 2.3 1.6 2 3-.3 1.2-1.4 2-2.5 2Zm66-1a2.6 2.6 0 0 1-.6-5l1-.3a2.6 2.6 0 1 1 1.3 5l-1 .2h-.7Zm-77-1.8h-.7l-1-.4a2.6 2.6 0 0 1 1.5-4.9l1 .3a2.6 2.6 0 0 1-.8 5Zm87.9-1.4a2.6 2.6 0 0 1-.9-5l1-.3a2.6 2.6 0 1 1 1.7 4.8l-1 .4h-.8Zm-98.5-2.2c-.4 0-.7 0-1-.2a46 46 0 0 1-1-.4 2.6 2.6 0 0 1 2-4.7l.9.3a2.6 2.6 0 0 1-1 5Zm109-1.8a2.6 2.6 0 0 1-1-4.9l1-.4a2.6 2.6 0 0 1 2 4.7l-1 .4-1 .2Zm-119.4-2.7c-.4 0-.8 0-1.1-.2l-1-.5a2.6 2.6 0 0 1 2.3-4.6l.9.5a2.6 2.6 0 0 1-1.1 4.8Zm129.6-2a2.6 2.6 0 0 1-1.2-5l.9-.4c1.2-.6 2.8-.2 3.4 1 .7 1.3.2 2.9-1 3.5l-1 .5a2 2 0 0 1-1.1.3Zm-139.6-3.2c-.4 0-.9-.2-1.3-.4l-.9-.5a2.6 2.6 0 0 1 2.6-4.4l.9.5a2.6 2.6 0 0 1-1.3 4.8Zm149.4-2.5a2.6 2.6 0 0 1-1.3-4.7l.8-.5a2.6 2.6 0 1 1 2.7 4.3l-.9.6a3 3 0 0 1-1.3.3Zm-159-3.6c-.4 0-1-.1-1.4-.4l-.9-.6a2.6 2.6 0 1 1 3-4.2l.8.6c1.2.8 1.5 2.4.7 3.5-.5.7-1.3 1.1-2.2 1.1Zm168.3-2.7a2.6 2.6 0 0 1-1.5-4.6l.8-.6a2.5 2.5 0 1 1 3 4.1l-.8.6c-.4.4-1 .5-1.5.5Zm-177.3-4c-.6 0-1.1-.2-1.6-.6l-.8-.6a2.6 2.6 0 1 1 3.2-4l.8.7a2.6 2.6 0 0 1-1.6 4.5Zm186.1-3c-.7 0-1.4-.3-2-.9-.8-1-.7-2.7.3-3.6l.8-.7a2.6 2.6 0 1 1 3.4 3.9l-.8.7c-.5.4-1 .6-1.7.6Zm-194.6-4.4c-.6 0-1.3-.2-1.8-.7l-.7-.7a2.6 2.6 0 1 1 3.5-3.7l.8.7a2.6 2.6 0 0 1-1.8 4.4Zm202.9-3.3c-.7 0-1.3-.2-1.8-.7-1-1-1-2.7 0-3.6l.7-.8a2.6 2.6 0 0 1 3.6 3.6l-.7.8c-.5.5-1.2.7-1.8.7Zm-210.8-4.8c-.7 0-1.4-.2-1.9-.8l-.7-.8a2.6 2.6 0 0 1 3.8-3.4l.7.8a2.6 2.6 0 0 1-1.9 4.2Zm218.4-3.5c-.6 0-1.2-.2-1.7-.6-1-1-1.1-2.5-.2-3.6l.6-.8a2.6 2.6 0 0 1 4 3.3l-.7.8c-.6.6-1.3 1-2 1Zm-225.7-5c-.7 0-1.5-.4-2-1l-.6-1a2.6 2.6 0 0 1 4-3l.7.8a2.6 2.6 0 0 1-2 4.1Zm232.7-3.8a2.6 2.6 0 0 1-2-4.1l.5-.8a2.6 2.6 0 1 1 4.2 3l-.6.8c-.5.7-1.3 1-2.1 1ZM9.5 170.5c-.9 0-1.7-.4-2.2-1.1l-.5-.9a2.6 2.6 0 0 1 4.3-2.8l.5.9a2.6 2.6 0 0 1-2.1 4Zm245.5-4c-.5 0-1 0-1.4-.3a2.6 2.6 0 0 1-.8-3.5l.5-.9a2.6 2.6 0 1 1 4.4 2.7l-.6.9c-.4.7-1.3 1.2-2.1 1.2ZM3.6 161c-.9 0-1.7-.5-2.2-1.3l-.5-1a2.6 2.6 0 0 1 4.5-2.4l.5 1a2.6 2.6 0 0 1-2.3 3.7Zm256.9-4.2a2.6 2.6 0 0 1-2.3-3.7l.5-.9a2.6 2.6 0 1 1 4.5 2.3l-.4 1c-.5.8-1.4 1.3-2.3 1.3Zm-262-5.9c-.9 0-1.8-.5-2.3-1.5l-.4-.9a2.6 2.6 0 0 1 4.7-2.1l.4 1a2.6 2.6 0 0 1-2.3 3.5Zm266.8-4.3c-.4 0-.7 0-1-.2-1.3-.5-2-2-1.4-3.3l.4-1a2.6 2.6 0 0 1 4.7 2l-.4 1c-.4 1-1.3 1.5-2.3 1.5Zm-271-6c-1 0-2-.7-2.4-1.7l-.4-1a2.6 2.6 0 1 1 4.9-1.7l.3.9a2.6 2.6 0 0 1-2.4 3.4Zm274.9-4.6-.8-.1c-1.4-.5-2-1.9-1.6-3.2l.3-1a2.6 2.6 0 0 1 4.8 1.6l-.3 1c-.3 1-1.3 1.7-2.4 1.7Zm-278.4-6.2c-1 0-2.1-.8-2.4-1.9l-.3-1c-.4-1.4.4-2.8 1.8-3.1 1.4-.4 2.8.4 3.1 1.8l.3 1a2.6 2.6 0 0 1-2.5 3.2Zm281.5-4.6a2.6 2.6 0 0 1-2.5-3.2l.2-1a2.6 2.6 0 1 1 5 1.2l-.2 1c-.3 1.2-1.4 2-2.5 2Zm-284-6.4c-1.3 0-2.3-.8-2.6-2l-.2-1a2.6 2.6 0 0 1 5-1l.3 1a2.6 2.6 0 0 1-2.6 3Zm286.2-4.7h-.4a2.6 2.6 0 0 1-2.1-3l.2-1a2.6 2.6 0 1 1 5 .8l-.2 1a2.6 2.6 0 0 1-2.5 2.2Zm-288-6.4c-1.3 0-2.4-1-2.5-2.3l-.2-1a2.6 2.6 0 1 1 5.1-.6l.1 1a2.5 2.5 0 0 1-2.5 2.9Zm289.4-4.8h-.2a2.6 2.6 0 0 1-2.4-2.7l.1-1a2.6 2.6 0 0 1 5.1.4v1a2.6 2.6 0 0 1-2.6 2.3Zm-290.3-6.5c-1.3 0-2.5-1-2.5-2.4v-1a2.6 2.6 0 1 1 5-.2v1c.1 1.4-1 2.6-2.4 2.6Zm290.8-4.7a2.6 2.6 0 0 1-2.6-2.6v-1.3a2.6 2.6 0 0 1 5.2 0V89c0 1.4-1.2 2.6-2.6 2.6ZM-14.4 85a2.6 2.6 0 0 1-2.5-2.7v-1c0-1.4 1.3-2.5 2.7-2.5 1.4.1 2.5 1.3 2.4 2.7v1c0 1.4-1.2 2.5-2.6 2.5ZM276 80c-1.3 0-2.4-1-2.5-2.4l-.1-1a2.6 2.6 0 0 1 5.1-.4v1c.2 1.4-.9 2.7-2.3 2.8h-.2Zm-289.5-6.2h-.3a2.6 2.6 0 0 1-2.3-2.8l.1-1a2.6 2.6 0 1 1 5.1.6l-.1 1a2.6 2.6 0 0 1-2.5 2.2Zm288.3-5c-1.2 0-2.3-1-2.5-2.2l-.2-1a2.6 2.6 0 1 1 5-.8l.2 1a2.6 2.6 0 0 1-2.5 3Zm-286.6-6.1h-.5a2.6 2.6 0 0 1-2-3l.2-1a2.6 2.6 0 1 1 5 1l-.2 1c-.3 1.1-1.3 2-2.5 2Zm284.5-5c-1.2 0-2.2-.8-2.5-2l-.2-1a2.6 2.6 0 0 1 5-1.2l.2 1a2.6 2.6 0 0 1-2.5 3.2Zm-282-6h-.6a2.6 2.6 0 0 1-1.8-3.2l.3-1a2.6 2.6 0 1 1 4.9 1.4l-.3 1a2.6 2.6 0 0 1-2.4 1.8Zm279-4.9c-1 0-2-.7-2.4-1.8l-.3-1a2.6 2.6 0 1 1 4.8-1.5l.4 1a2.5 2.5 0 0 1-2.5 3.3ZM-5.8 41c-.3 0-.6 0-.9-.2-1.3-.5-2-2-1.5-3.3l.3-1c.5-1.3 2-2 3.3-1.5 1.4.5 2 2 1.5 3.3l-.3 1c-.4 1-1.4 1.7-2.4 1.7Zm271.7-4.8c-1 0-2-.6-2.4-1.6l-.3-1a2.6 2.6 0 1 1 4.7-1.9l.4 1a2.6 2.6 0 0 1-2.4 3.5ZM-1.6 30.5c-.3 0-.7 0-1-.2A2.6 2.6 0 0 1-4 26.9l.4-1a2.6 2.6 0 1 1 4.7 2.2l-.4.9c-.5 1-1.4 1.5-2.4 1.5Zm262.9-4.6c-1 0-1.8-.5-2.3-1.4l-.4-1a2.6 2.6 0 0 1 4.5-2.2l.5 1a2.6 2.6 0 0 1-2.3 3.6ZM3.5 20.4a2.6 2.6 0 0 1-2.2-3.8l.5-.9a2.6 2.6 0 1 1 4.4 2.5l-.5.9c-.4.8-1.3 1.3-2.2 1.3ZM255.9 16c-.9 0-1.7-.4-2.2-1.2l-.5-.9a2.6 2.6 0 1 1 4.4-2.6l.5.8a2.6 2.6 0 0 1-2.2 4ZM9.3 10.7c-.5 0-1 0-1.4-.4a2.6 2.6 0 0 1-.7-3.5l.6-.9a2.6 2.6 0 0 1 3.5-.7c1.2.8 1.5 2.4.7 3.5l-.5.9c-.5.7-1.3 1.2-2.2 1.2Zm240.4-4.1c-.7 0-1.5-.4-2-1.1l-.6-.8a2.6 2.6 0 0 1 4.1-3l.6.8a2.6 2.6 0 0 1-2 4ZM16 1.6c-.6 0-1.1-.2-1.6-.6a2.6 2.6 0 0 1-.4-3.6l.6-.8a2.6 2.6 0 1 1 4 3.2l-.6.8c-.5.6-1.2 1-2 1Zm227-4c-.7 0-1.5-.3-2-.9l-.6-.8a2.6 2.6 0 0 1 3.9-3.3l.6.8a2.6 2.6 0 0 1-2 4.2ZM23-7c-.6 0-1.2-.2-1.7-.6-1-1-1.1-2.6-.2-3.7l.7-.7a2.6 2.6 0 1 1 3.8 3.4l-.7.8c-.5.5-1.2.8-1.9.8Zm212.2-3.6c-.6 0-1.3-.3-1.8-.8l-.7-.7a2.6 2.6 0 0 1 3.7-3.6l.7.7a2.6 2.6 0 0 1-1.9 4.4ZM31-15.1a2.6 2.6 0 0 1-1.8-4.4l.8-.8a2.6 2.6 0 0 1 3.5 3.8l-.7.7c-.5.4-1.1.7-1.8.7Zm196.2-3.4c-.6 0-1.2-.2-1.7-.7l-.8-.6a2.6 2.6 0 1 1 3.4-3.9l.8.7a2.6 2.6 0 0 1-1.7 4.5Zm-187.7-4a2.6 2.6 0 0 1-1.6-4.6l.8-.7a2.6 2.6 0 0 1 3.2 4l-.8.7a3 3 0 0 1-1.6.5Zm179-3.2c-.6 0-1.1-.1-1.6-.5l-.8-.6a2.6 2.6 0 0 1 3-4.1l.9.6a2.6 2.6 0 0 1-1.6 4.6Zm-170-3.6c-.8 0-1.6-.4-2-1.1-.9-1.2-.6-2.8.6-3.6l.9-.6a2.5 2.5 0 1 1 2.8 4.3l-.8.5c-.4.3-1 .5-1.5.5Zm160.7-2.8c-.5 0-1-.1-1.4-.4l-.9-.6a2.6 2.6 0 0 1 2.8-4.3l.9.6a2.6 2.6 0 0 1-1.4 4.7ZM58-35.4a2.6 2.6 0 0 1-1.3-4.7l.9-.5a2.6 2.6 0 1 1 2.5 4.4l-.9.5-1.2.3Zm141.3-2.4-1.2-.3-.8-.5a2.6 2.6 0 0 1 2.3-4.5l1 .5a2.6 2.6 0 0 1-1.3 4.8ZM68-40.6c-1 0-1.9-.6-2.3-1.5-.6-1.2 0-2.8 1.2-3.4l1-.4a2.6 2.6 0 0 1 2.1 4.6l-.9.4a2 2 0 0 1-1 .3Zm121.3-2.1c-.4 0-.7-.1-1-.3l-1-.4a2.6 2.6 0 1 1 2-4.7l1 .5a2.6 2.6 0 0 1-1 4.9Zm-111-2.4a2.6 2.6 0 0 1-.9-5l1-.3a2.6 2.6 0 0 1 1.8 4.8l-1 .3-.9.2ZM178.8-47l-.9-.1-1-.3a2.6 2.6 0 1 1 1.7-4.9l1 .4c1.4.4 2 1.9 1.6 3.2-.4 1-1.4 1.7-2.4 1.7ZM89-48.8a2.6 2.6 0 0 1-.7-5l1-.3a2.5 2.5 0 1 1 1.4 5l-1 .2-.7.1Zm79-1.4h-.7l-1-.3a2.6 2.6 0 0 1 1.3-5l1 .3c1.4.4 2.2 1.8 1.8 3.1-.3 1.2-1.3 2-2.4 2Zm-68-1.4a2.6 2.6 0 0 1-.6-5l1-.3a2.6 2.6 0 1 1 1 5l-1 .2-.5.1Zm57-1h-.5l-1-.2a2.6 2.6 0 0 1 .9-5l1 .1a2.6 2.6 0 0 1-.4 5.1Zm-46-1a2.6 2.6 0 0 1-.3-5l1-.2a2.6 2.6 0 1 1 .7 5l-1 .2a3 3 0 0 1-.4 0Zm34.8-.6h-1.3a2.6 2.6 0 0 1 .5-5.2l1 .1c1.5.2 2.5 1.4 2.3 2.8a2.6 2.6 0 0 1-2.5 2.3Zm-23.6-.5a2.6 2.6 0 0 1-.1-5l1-.1c1.5-.1 2.7 1 2.7 2.4.1 1.4-1 2.6-2.4 2.7h-1.2Zm12.4-.2h-1.1a2.6 2.6 0 0 1 0-5.1h1.1a2.6 2.6 0 0 1 0 5.1Zm-1.8 276.1a2.6 2.6 0 0 1 0-5.1h1c1.4 0 2.6 1 2.6 2.5 0 1.4-1 2.6-2.5 2.6h-1Zm-10.2-.2h-.2l-1-.1a2.6 2.6 0 1 1 .4-5.1h1a2.6 2.6 0 0 1-.2 5.2Zm21.4-.4a2.6 2.6 0 0 1-.2-5.1l1-.1a2.6 2.6 0 1 1 .5 5l-1 .2h-.2Zm-32.6-.8h-.3l-1-.2a2.6 2.6 0 0 1 .7-5h1a2.6 2.6 0 0 1-.4 5.2Zm43.8-.8a2.6 2.6 0 0 1-.5-5l1-.3a2.6 2.6 0 1 1 1 5l-1 .2h-.5Zm-54.8-1.4h-.6l-1-.3a2.6 2.6 0 0 1 1.2-5l1 .3a2.6 2.6 0 0 1-.6 5Zm65.7-1.2a2.6 2.6 0 0 1-.7-5l1-.3a2.6 2.6 0 0 1 1.4 5l-1 .2-.7.1Zm-76.5-1.9h-.8l-1-.4a2.6 2.6 0 0 1 1.6-4.9l1 .4a2.6 2.6 0 0 1-.8 5Zm87.2-1.5a2.6 2.6 0 0 1-.9-5l1-.4a2.5 2.5 0 1 1 1.8 4.8l-1 .4-.9.2Zm-97.7-2.5c-.4 0-.7 0-1-.2l-1-.4a2.6 2.6 0 1 1 2-4.7l1 .4a2.6 2.6 0 0 1-1 5Zm108-2a2.6 2.6 0 0 1-1-4.8l.8-.4a2.6 2.6 0 1 1 2.3 4.6l-1 .4a2 2 0 0 1-1 .3ZM69 205.7c-.4 0-.8 0-1.2-.3l-.9-.5a2.6 2.6 0 1 1 2.5-4.5l.9.5a2.6 2.6 0 0 1-1.3 4.8Zm128.2-2.3c-.9 0-1.8-.5-2.2-1.3a2.6 2.6 0 0 1 .9-3.5l.8-.5a2.6 2.6 0 0 1 2.7 4.4l-1 .5c-.3.3-.8.4-1.2.4Zm-137.8-3.5c-.5 0-1-.1-1.4-.4l-.9-.6a2.6 2.6 0 1 1 2.8-4.2l.9.5a2.6 2.6 0 0 1-1.4 4.7Zm147.2-2.6c-.8 0-1.6-.4-2-1-.9-1.2-.6-2.8.5-3.7l.8-.5a2.6 2.6 0 1 1 3 4.1l-.8.6a3 3 0 0 1-1.5.5Zm-156.3-4c-.6 0-1.1-.1-1.6-.5l-.8-.6a2.6 2.6 0 1 1 3.2-4l.8.6a2.6 2.6 0 0 1-1.6 4.6Zm165.2-3c-.7 0-1.5-.2-2-.8-.9-1-.7-2.7.3-3.6l.8-.7a2.6 2.6 0 0 1 3.3 4l-.8.6c-.4.4-1 .6-1.6.6ZM41.6 186c-.6 0-1.2-.2-1.7-.7l-.8-.7a2.6 2.6 0 1 1 3.6-3.7l.7.7a2.6 2.6 0 0 1-1.7 4.4Zm182-3.2c-.6 0-1.3-.3-1.8-.8-1-1-1-2.6 0-3.6l.7-.7c1-1 2.6-1 3.7 0 1 1 1 2.6 0 3.6l-.7.7c-.5.5-1.2.8-1.8.8ZM33.8 178c-.7 0-1.4-.3-2-.8l-.6-.8A2.6 2.6 0 1 1 35 173l.7.7a2.6 2.6 0 0 1-2 4.3Zm197.4-3.5c-.6 0-1.1-.2-1.6-.6-1.1-1-1.2-2.6-.3-3.6l.6-.8a2.6 2.6 0 0 1 4 3.2l-.7.8c-.5.6-1.2 1-2 1Zm-204.6-5.2c-.8 0-1.5-.3-2-1l-.6-.8c-.9-1.1-.7-2.7.5-3.6 1.1-.8 2.7-.6 3.6.5l.6.8a2.6 2.6 0 0 1-2 4.1Zm211.5-3.8c-.5 0-1-.1-1.5-.4a2.6 2.6 0 0 1-.6-3.6l.5-.8a2.6 2.6 0 1 1 4.2 2.9l-.5.9c-.5.7-1.3 1-2.1 1ZM20.2 160c-.8 0-1.6-.4-2.1-1.2l-.6-.9a2.6 2.6 0 1 1 4.4-2.7l.5.9a2.6 2.6 0 0 1-2.2 3.9Zm224-4a2.6 2.6 0 0 1-2.3-3.9l.5-.9a2.6 2.6 0 1 1 4.4 2.6l-.5.9c-.4.8-1.3 1.3-2.2 1.3Zm-229.5-5.8c-1 0-1.8-.5-2.3-1.4l-.5-.9a2.6 2.6 0 0 1 4.6-2.3l.4.9a2.6 2.6 0 0 1-2.2 3.7Zm234.6-4.2c-.3 0-.7 0-1-.3a2.6 2.6 0 0 1-1.3-3.4l.4-.9a2.6 2.6 0 0 1 4.6 2.1c0 .4-.2.7-.4 1-.4 1-1.3 1.5-2.3 1.5ZM10 140c-1 0-2-.6-2.4-1.6l-.4-1a2.6 2.6 0 0 1 4.8-1.8l.3.9A2.6 2.6 0 0 1 10 140Zm243.7-4.4c-.3 0-.6 0-1-.2-1.2-.4-2-2-1.4-3.2l.3-1a2.6 2.6 0 0 1 4.8 1.8l-.3 1c-.4 1-1.4 1.6-2.4 1.6ZM6.2 129.4c-1.1 0-2.1-.7-2.5-1.8l-.3-1a2.6 2.6 0 1 1 5-1.4l.2 1a2.6 2.6 0 0 1-2.4 3.3ZM257 125l-.7-.1a2.6 2.6 0 0 1-1.8-3.1l.3-1a2.6 2.6 0 1 1 5 1.3l-.3 1a2.6 2.6 0 0 1-2.5 1.9ZM3.3 118.6c-1.2 0-2.2-.8-2.5-2l-.2-1a2.6 2.6 0 0 1 5-1.1l.2 1a2.6 2.6 0 0 1-2.5 3Zm256.3-4.7h-.5a2.6 2.6 0 0 1-2-3l.1-1a2.6 2.6 0 0 1 5 1l-.1 1a2.6 2.6 0 0 1-2.5 2ZM1.4 107.5c-1.3 0-2.4-1-2.6-2.2l-.1-1a2.6 2.6 0 0 1 5-.7l.2 1a2.6 2.6 0 0 1-2.5 2.9Zm259.7-4.7h-.3a2.5 2.5 0 0 1-2.3-2.8l.1-1a2.6 2.6 0 0 1 5.1.4v1a2.6 2.6 0 0 1-2.6 2.4ZM.4 96.3c-1.4 0-2.5-1-2.6-2.5v-1a2.6 2.6 0 1 1 5.1-.2v1C3 95 2 96.2.6 96.3H.3Zm261.2-4.7a2.6 2.6 0 0 1-2.5-2.6v-1.3a2.6 2.6 0 0 1 5.1 0V89c0 1.4-1.2 2.6-2.6 2.6ZM.4 85H.3a2.6 2.6 0 0 1-2.5-2.7v-1a2.6 2.6 0 1 1 5.2.2v1C2.8 84 1.6 85.1.3 85.1Zm260.8-5c-1.3 0-2.4-1-2.5-2.4l-.1-1a2.6 2.6 0 1 1 5-.5l.2 1c0 1.5-1 2.7-2.4 2.8h-.2ZM1.3 73.8H1a2.6 2.6 0 0 1-2.2-3l.1-1a2.6 2.6 0 0 1 5.1.7l-.1 1A2.6 2.6 0 0 1 1.3 74Zm258.6-5c-1.3 0-2.4-1-2.6-2.2l-.1-1a2.6 2.6 0 0 1 5-.8l.2 1a2.6 2.6 0 0 1-2.5 3Zm-256.7-6a2.6 2.6 0 0 1-2.5-3l.3-1.1a2.6 2.6 0 0 1 5 1l-.3 1c-.2 1.3-1.3 2-2.5 2Zm254.3-5c-1.1 0-2.1-.7-2.4-1.9l-.3-1a2.6 2.6 0 0 1 5-1.2l.2 1a2.6 2.6 0 0 1-2.5 3.2ZM6.1 52l-.8-.1a2.6 2.6 0 0 1-1.7-3.2l.3-1A2.6 2.6 0 0 1 9 49l-.4 1a2.5 2.5 0 0 1-2.4 1.8Zm248.2-4.8c-1 0-2-.6-2.5-1.7l-.3-1a2.6 2.6 0 1 1 4.8-1.7l.4 1a2.6 2.6 0 0 1-2.4 3.4ZM9.9 41.3c-.4 0-.7 0-1-.2-1.3-.5-2-2-1.4-3.3l.4-1a2.6 2.6 0 0 1 4.7 2l-.4 1c-.4 1-1.3 1.5-2.3 1.5ZM250 36.7c-1 0-2-.6-2.4-1.5l-.4-1c-.6-1.2 0-2.7 1.3-3.3 1.3-.6 2.8 0 3.4 1.2l.4 1a2.6 2.6 0 0 1-2.3 3.6ZM14.5 31l-1.1-.3a2.6 2.6 0 0 1-1.1-3.5l.5-.9a2.6 2.6 0 0 1 4.5 2.4l-.5.9c-.4.9-1.3 1.4-2.2 1.4ZM245 26.7c-.9 0-1.8-.5-2.2-1.3l-.5-.9a2.6 2.6 0 1 1 4.4-2.5l.5.9a2.6 2.6 0 0 1-2.2 3.8ZM20.1 21.3c-.5 0-1-.1-1.4-.4a2.6 2.6 0 0 1-.8-3.5l.6-1a2.6 2.6 0 1 1 4.3 2.8l-.5.9c-.5.8-1.3 1.2-2.2 1.2Zm219-4.2c-.8 0-1.6-.4-2.1-1.1l-.6-.8a2.6 2.6 0 0 1 4.2-3l.6 1a2.6 2.6 0 0 1-2.1 4Zm-212.6-5c-.6 0-1-.2-1.6-.6a2.6 2.6 0 0 1-.5-3.6l.7-.8a2.6 2.6 0 0 1 4 3l-.6.9c-.5.7-1.2 1-2 1Zm205.9-4c-.8 0-1.5-.3-2-1l-.6-.7a2.6 2.6 0 1 1 3.9-3.3l.7.8a2.6 2.6 0 0 1-2 4.2ZM33.6 3.3c-.6 0-1.2-.2-1.7-.6-1-1-1.1-2.6-.2-3.6l.7-.8a2.6 2.6 0 1 1 3.8 3.4l-.7.8c-.5.5-1.2.8-1.9.8ZM225-.3c-.7 0-1.3-.3-1.8-.8l-.7-.7a2.6 2.6 0 1 1 3.6-3.6l.8.8A2.6 2.6 0 0 1 225-.3ZM41.5-4.7c-.7 0-1.4-.3-1.9-.8-1-1-1-2.7.1-3.6l.8-.7A2.6 2.6 0 0 1 44-6.1l-.8.7c-.5.5-1 .7-1.7.7ZM216.8-8c-.6 0-1.2-.3-1.7-.7l-.8-.6a2.6 2.6 0 1 1 3.3-4l.8.8a2.6 2.6 0 0 1-1.6 4.5ZM50-12a2.6 2.6 0 0 1-1.6-4.6l.8-.7a2.6 2.6 0 0 1 3.2 4l-.8.7c-.5.4-1 .6-1.6.6Zm158-3c-.6 0-1-.2-1.5-.5l-.9-.6a2.6 2.6 0 0 1 3-4.1l.9.5A2.6 2.6 0 0 1 208-15ZM59-18.7a2.6 2.6 0 0 1-1.4-4.7l.9-.6c1.1-.8 2.7-.4 3.5.8.8 1.1.4 2.7-.8 3.5l-.8.5c-.4.3-1 .5-1.4.5Zm139.5-2.7c-.4 0-.9-.1-1.3-.4l-.9-.5a2.6 2.6 0 1 1 2.6-4.4l1 .6a2.6 2.6 0 0 1-1.4 4.7Zm-129.8-3a2.6 2.6 0 0 1-1.2-4.8l1-.5a2.6 2.6 0 0 1 2.3 4.5l-.8.5c-.4.2-.8.3-1.3.3Zm120-2.3a2 2 0 0 1-1-.3l-1-.4A2.6 2.6 0 0 1 189-32l1 .4a2.6 2.6 0 0 1-1.1 4.9ZM78.8-29.3a2.6 2.6 0 0 1-1-5l1-.3a2.6 2.6 0 1 1 2 4.7l-1 .3c-.3.2-.6.3-1 .3Zm99.6-2-.9-.1-1-.4a2.6 2.6 0 0 1 2-4.8l.9.4a2.6 2.6 0 0 1-1 5Zm-89-2c-1.2 0-2.2-.7-2.5-1.8-.5-1.4.3-2.8 1.6-3.3l1-.3a2.6 2.6 0 1 1 1.6 4.9l-1 .3-.8.1Zm78.4-1.6h-.7l-1-.4a2.6 2.6 0 0 1 1.4-4.9l1 .3a2.6 2.6 0 0 1-.7 5Zm-67.7-1.6c-1.2 0-2.2-.8-2.5-2-.3-1.3.5-2.7 1.9-3l1-.3a2.6 2.6 0 1 1 1.2 5l-1 .2-.6.1Zm56.8-1-.5-.1-1-.2a2.6 2.6 0 1 1 1-5l1 .2a2.6 2.6 0 0 1-.5 5ZM111-38.8a2.6 2.6 0 0 1-.3-5l1-.2a2.6 2.6 0 1 1 .7 5l-1 .2h-.4Zm34.7-.6h-.3l-1-.1a2.5 2.5 0 1 1 .5-5.1h1a2.6 2.6 0 0 1-.2 5.2Zm-23.5-.6a2.6 2.6 0 0 1-.2-5l1-.1c1.5-.1 2.7 1 2.8 2.4 0 1.4-1 2.6-2.4 2.7h-1.2Zm12.3-.2h-1a2.6 2.6 0 0 1-2.6-2.6c0-1.4 1.2-2.6 2.6-2.5h1a2.6 2.6 0 0 1 0 5.1ZM131 190h-1a2.6 2.6 0 0 1 0-5.1h1c1.4-.1 2.6 1 2.6 2.5 0 1.4-1.2 2.5-2.6 2.5Zm10.1-.6a2.6 2.6 0 0 1-.2-5.1l1-.1a2.6 2.6 0 1 1 .5 5l-1 .2h-.3Zm-21.2-.1h-.3l-1-.1a2.6 2.6 0 0 1 .6-5.1l1 .1a2.6 2.6 0 0 1-.3 5.1Zm32.2-1.7a2.6 2.6 0 0 1-.5-5l1-.2a2.6 2.6 0 0 1 1 5l-1 .2h-.5Zm-43.2-.2h-.6l-1-.2a2.6 2.6 0 0 1 1.2-5l1 .2a2.6 2.6 0 0 1-.6 5Zm54-2.7a2.6 2.6 0 0 1-.9-5l1-.3a2.6 2.6 0 1 1 1.7 4.8l-1 .3-.8.2Zm-64.7-.3c-.3 0-.6 0-.8-.2-.4 0-.7-.2-1-.3A2.6 2.6 0 0 1 98 179l1 .3c1.3.5 2 2 1.5 3.3-.4 1-1.4 1.7-2.4 1.7Zm75-3.9a2.6 2.6 0 0 1-1-4.9l.8-.4a2.6 2.6 0 0 1 2.2 4.6l-1 .5-1 .2Zm-85.3-.4c-.4 0-.8 0-1.1-.2l-1-.5a2.6 2.6 0 0 1 2.3-4.6l.9.4a2.6 2.6 0 0 1-1.1 5Zm95.1-4.9a2.6 2.6 0 0 1-1.3-4.7l.8-.5a2.6 2.6 0 1 1 2.7 4.3l-.9.5a2 2 0 0 1-1.3.4Zm-104.9-.5c-.4 0-.9-.1-1.3-.4l-.9-.5a2.6 2.6 0 1 1 2.8-4.3l.8.5a2.6 2.6 0 0 1-1.4 4.7Zm114-5.9c-.7 0-1.5-.3-2-1-.8-1-.7-2.7.5-3.5l.7-.6a2.6 2.6 0 0 1 3.2 4l-.8.6c-.5.4-1 .5-1.6.5Zm-123-.5c-.6 0-1.2-.2-1.6-.6l-.8-.6a2.6 2.6 0 1 1 3.2-4l.8.6a2.6 2.6 0 0 1-1.6 4.6Zm131.4-6.8c-.6 0-1.3-.3-1.8-.8-1-1-1-2.6 0-3.6l.7-.7a2.6 2.6 0 0 1 3.6 3.6l-.7.8c-.5.5-1.1.7-1.8.7Zm-139.8-.7c-.6 0-1.3-.2-1.8-.7l-.7-.7a2.6 2.6 0 1 1 3.7-3.6l.6.7a2.6 2.6 0 0 1-1.8 4.3Zm147.3-7.5c-.5 0-1.1-.2-1.6-.6-1-.9-1.2-2.5-.4-3.6l.7-.8a2.6 2.6 0 0 1 4 3.2l-.7.8c-.5.7-1.2 1-2 1Zm-154.7-.8c-.7 0-1.5-.3-2-1l-.6-.7a2.6 2.6 0 1 1 4-3.2l.6.8a2.6 2.6 0 0 1-2 4.1Zm161.3-8.2c-.5 0-1-.2-1.4-.5a2.6 2.6 0 0 1-.8-3.5l.6-.8a2.6 2.6 0 0 1 4.3 2.7l-.6.9c-.5.7-1.3 1.2-2.1 1.2Zm-167.7-.8c-.9 0-1.7-.4-2.2-1.2l-.6-1a2.6 2.6 0 0 1 4.4-2.6l.5.8a2.6 2.6 0 0 1-2.1 4Zm173.2-9c-.4 0-.8 0-1.2-.2a2.6 2.6 0 0 1-1.1-3.4l.4-1a2.6 2.6 0 1 1 4.6 2.3l-.4 1c-.5.8-1.4 1.3-2.3 1.3Zm-178.7-.8c-.9 0-1.8-.5-2.3-1.4l-.4-1a2.6 2.6 0 1 1 4.6-2.1l.4.9a2.6 2.6 0 0 1-2.3 3.6Zm183-9.4a2.6 2.6 0 0 1-2.4-3.4l.4-1a2.6 2.6 0 1 1 4.8 1.7l-.4 1c-.3 1-1.3 1.7-2.4 1.7Zm-187.2-.9c-1 0-2-.6-2.4-1.7l-.4-1a2.6 2.6 0 0 1 4.9-1.6l.3 1a2.6 2.6 0 0 1-2.4 3.3Zm190.4-9.8h-.6a2.6 2.6 0 0 1-1.9-3.1l.3-1a2.6 2.6 0 1 1 5 1.2l-.3 1c-.3 1.1-1.3 2-2.5 2Zm-193.5-.9c-1.2 0-2.2-.8-2.5-2l-.2-1a2.6 2.6 0 1 1 5-1l.2 1a2.6 2.6 0 0 1-2.5 3Zm195.5-10h-.3a2.6 2.6 0 0 1-2.2-2.9v-1a2.6 2.6 0 1 1 5.2.6l-.2 1a2.6 2.6 0 0 1-2.5 2.3Zm-197.4-1c-1.3 0-2.4-.9-2.5-2.2l-.1-1a2.6 2.6 0 1 1 5-.6l.2 1c.1 1.4-.9 2.7-2.3 2.8h-.3Zm198.1-10.2a2.6 2.6 0 0 1-2.5-2.5v-1.2a2.6 2.6 0 1 1 5 0V89c0 1.4-1 2.5-2.5 2.5Zm-198.7-.9a2.6 2.6 0 0 1-2.6-2.5v-1c0-1.5 1.2-2.6 2.6-2.6 1.4 0 2.6 1.2 2.5 2.6v1c0 1.4-1.1 2.5-2.5 2.5Zm198.2-10.4c-1.3 0-2.4-1-2.5-2.3l-.2-1a2.6 2.6 0 0 1 5.1-.5l.1 1c.2 1.4-.8 2.7-2.2 2.8h-.3Zm-197.6-.7h-.3a2.6 2.6 0 0 1-2.2-2.8v-1a2.5 2.5 0 0 1 3-2.3c1.3.2 2.3 1.5 2.1 2.9v1a2.6 2.6 0 0 1-2.6 2.2ZM228 69.2c-1.1 0-2.2-.8-2.5-2l-.2-1a2.6 2.6 0 0 1 5-1.1l.2 1a2.6 2.6 0 0 1-2.5 3.1Zm-194-.7h-.5a2.6 2.6 0 0 1-2-3l.3-1.1a2.6 2.6 0 0 1 5 1.2l-.3 1c-.2 1.1-1.3 2-2.5 2Zm191-10c-1 0-2-.7-2.4-1.8l-.3-.9a2.6 2.6 0 1 1 4.8-1.7l.4 1a2.6 2.6 0 0 1-2.5 3.4Zm-187.9-.7-.8-.1c-1.4-.5-2-2-1.6-3.3l.3-1a2.6 2.6 0 0 1 4.9 1.8l-.4.9c-.3 1-1.3 1.7-2.4 1.7Zm183.8-9.6c-1 0-2-.6-2.3-1.5l-.5-.9a2.6 2.6 0 0 1 4.6-2.2l.5.9a2.6 2.6 0 0 1-2.3 3.7Zm-179.5-.7a2.6 2.6 0 0 1-2.3-3.7l.4-.9a2.6 2.6 0 1 1 4.6 2.3l-.4.9c-.5.9-1.4 1.4-2.3 1.4Zm174.2-9.1c-.9 0-1.7-.5-2.2-1.2l-.5-.9a2.6 2.6 0 1 1 4.3-2.7l.5.9a2.6 2.6 0 0 1-2.1 3.9Zm-168.9-.6c-.4 0-.9-.2-1.3-.4a2.6 2.6 0 0 1-.8-3.6l.5-.8a2.6 2.6 0 1 1 4.3 2.7l-.5.9c-.5.7-1.3 1.2-2.2 1.2Zm162.5-8.6c-.8 0-1.5-.3-2-1l-.6-.7a2.6 2.6 0 1 1 4-3.2l.6.8a2.6 2.6 0 0 1-2 4.1Zm-156-.5c-.6 0-1.1-.2-1.6-.6a2.6 2.6 0 0 1-.4-3.6l.6-.8a2.6 2.6 0 1 1 4 3.2l-.6.8c-.5.6-1.3 1-2 1Zm148.6-7.8c-.6 0-1.3-.3-1.8-.8l-.7-.7a2.6 2.6 0 0 1 3.6-3.6l.7.7a2.6 2.6 0 0 1-1.8 4.4Zm-141.2-.5c-.6 0-1.3-.3-1.8-.8-1-1-1-2.6 0-3.6l.7-.7a2.6 2.6 0 0 1 3.6 3.6l-.7.7c-.5.5-1.1.7-1.8.7Zm133-7c-.6 0-1.2-.2-1.6-.6l-.8-.6a2.6 2.6 0 1 1 3.2-4l.8.6a2.6 2.6 0 0 1-1.6 4.6Zm-124.7-.5a2.6 2.6 0 0 1-1.6-4.5l.8-.7a2.6 2.6 0 0 1 3.2 4l-.8.7a3 3 0 0 1-1.6.5Zm115.6-6c-.4 0-.9-.2-1.3-.5l-.9-.5a2.6 2.6 0 0 1 2.8-4.3l.8.5a2.6 2.6 0 0 1-1.4 4.7ZM78 6.4a2.6 2.6 0 0 1-1.4-4.8l.9-.5a2.6 2.6 0 1 1 2.7 4.3l-.9.6c-.4.2-.8.4-1.3.4Zm96.8-5.1a2 2 0 0 1-1-.3l-1-.4A2.6 2.6 0 1 1 175-4l1 .4a2.6 2.6 0 0 1-1.2 4.9Zm-87-.4a2.6 2.6 0 0 1-1.2-4.8l1-.5a2.6 2.6 0 0 1 2 4.8l-.9.4c-.3.2-.7.2-1 .2Zm76.8-4c-.3 0-.6 0-.9-.2l-1-.3a2.5 2.5 0 1 1 1.8-4.8l1 .3a2.6 2.6 0 0 1-1 5ZM98-3.2a2.6 2.6 0 0 1-.8-5l1-.3a2.6 2.6 0 0 1 1.6 4.8l-1 .3-.8.2Zm55.9-3h-.6l-1-.3a2.6 2.6 0 0 1 1.2-5l1 .3a2.6 2.6 0 0 1-.6 5Zm-45.2-.1a2.6 2.6 0 0 1-.6-5l1-.3a2.6 2.6 0 1 1 1.1 5 37.9 37.9 0 0 0-1.5.3Zm34.2-1.8h-.3l-1-.2a2.6 2.6 0 1 1 .6-5h1c1.4.3 2.4 1.5 2.3 3a2.6 2.6 0 0 1-2.6 2.2Zm-23.2-.1a2.6 2.6 0 0 1-.3-5.1l1-.1a2.6 2.6 0 1 1 .6 5l-1 .2h-.3Zm12.1-.6h-1a2.6 2.6 0 0 1 0-5.1h1c1.4 0 2.6 1.1 2.6 2.5s-1.2 2.6-2.6 2.6Z"/>
    <path stroke="#0F172A" stroke-linecap="round" stroke-linejoin="round" stroke-width="2.5" d="M98.2 62.3v38l33.3 15.3 33.3-15.2V62.3m-13.3 37.1 6.9-3.1"/>
    <path stroke="#0F172A" stroke-linecap="round" stroke-linejoin="round" stroke-width="2.5" d="M144 71.8v0l-12.5 5.7-33.3-15.2L131.5 47l33.3 15.3-17.3 7.9"/>
    <path stroke="#0F172A" stroke-linecap="round" stroke-linejoin="round" stroke-width="2.5" d="M98.2 62.3 131.5 47l33.3 15.3m-33.3 15.4V115"/>
    <path stroke="#0F172A" stroke-linecap="round" stroke-linejoin="round" stroke-width="2.5" d="M122.8 54.5 152.3 68v10l-8.3 4V72l-29.5-13.6"/>
    <ellipse cx="160.4" cy="101.1" fill="#8BAFE4" rx="14.9" ry="15.5"/>
    <path fill="#466086" d="M167.2 99.6h-13.6v2.9h13.6v-3Z"/>
    <path fill="#466086" d="M161.8 94.2H159v13.6h3V94.2Z"/>
    <path fill="#FFFFAD" d="M181.3 90.9a1 1 0 0 1-.8-1.7l1.4-1.4a1 1 0 1 1 1.4 1.4l-1.3 1.4a1 1 0 0 1-.8.3Zm5.7-5.7a1 1 0 0 1-.8-1.7l1.4-1.4a1 1 0 0 1 1.4 1.4l-1.3 1.4a1 1 0 0 1-.7.3Zm-4.4 0a1 1 0 0 1-.7-.3l-1.4-1.4a1 1 0 1 1 1.5-1.4l1.3 1.4a1 1 0 0 1-.7 1.7Zm5.7 5.7a1 1 0 0 1-.7-.3l-1.4-1.4a1 1 0 1 1 1.5-1.4l1.3 1.4a1 1 0 0 1-.7 1.7Zm-83.5 42.7c-.4 0-.9-.1-1.2-.4-.6-.6-.6-1.7 0-2.3l2.2-2.2a1.6 1.6 0 0 1 2.3 2.3l-2.2 2.2c-.3.3-.7.4-1.1.4Zm9.1-9.1a1.6 1.6 0 0 1-1.1-2.7l2.2-2.2a1.6 1.6 0 1 1 2.2 2.3L115 124c-.3.4-.7.5-1.1.5Zm-6.9 0c-.5 0-.9-.1-1.2-.5l-2.2-2.1a1.6 1.6 0 1 1 2.3-2.3l2.2 2.2a1.6 1.6 0 0 1-1.1 2.7Zm9 9.1c-.3 0-.7-.1-1-.4l-2.2-2.2a1.6 1.6 0 0 1 2.2-2.3l2.2 2.2a1.6 1.6 0 0 1-1.1 2.7Z"/>
  </g>
  <defs>
    <clipPath id="a">
      <path fill="#fff" d="M0 0h256v160H0z"/>
    </clipPath>
  </defs>
</svg>