<svg xmlns="http://www.w3.org/2000/svg" fill="none" viewBox="0 0 394 100">
  <g clip-path="url(#a)">
    <rect width="394" height="100" fill="#D4DFF0" rx="6"/>
    <path fill="#B6D2FB" d="M191.8 126h-.9a2 2 0 0 1 .1-4h.8a2 2 0 0 1 0 4Zm8-.1a2 2 0 0 1 0-4.2h.7a2 2 0 0 1 .4 4l-.8.1h-.2Zm-17-.7h-.3l-.8-.2a2 2 0 0 1 .7-4l.8.1a2 2 0 0 1-.3 4Zm26-.7a2 2 0 0 1-.4-4c.2-.2.4-.2.7-.3a2 2 0 0 1 1 4l-.9.2h-.4ZM174 123a2 2 0 1 1-.2-4.3l.8.3a2 2 0 0 1-.6 4Zm43.2-1.2a2 2 0 0 1-.7-4l.7-.2a2 2 0 0 1 1.5 3.8l-.8.3a2 2 0 0 1-.7.1Zm-51.5-2a2 2 0 0 1-.9-.2l-.8-.3a2 2 0 1 1 1.8-3.7c.3 0 .5.2.7.3a2 2 0 0 1-.8 4Zm59.7-1.7a2 2 0 0 1-1-3.9c.3 0 .5-.2.7-.3a2 2 0 1 1 2 3.6 63.4 63.4 0 0 1-1.7.6Zm-67.6-2.6a2 2 0 0 1-1-.3l-.8-.5a2 2 0 1 1 2.3-3.4l.6.4a2 2 0 0 1-1 3.8Zm75.2-2a2 2 0 0 1-1.2-3.7l.6-.6a2 2 0 0 1 2.5 3.3l-.7.5a2 2 0 0 1-1.2.4Zm-82.4-3.3a2 2 0 0 1-1.3-.5l-.7-.5a2 2 0 0 1 2.7-3.2l.6.6a2 2 0 0 1-1.3 3.6Zm89.3-2.5a2 2 0 0 1-1.4-3.6l.5-.5a2 2 0 1 1 2.9 3l-.6.6a2 2 0 0 1-1.4.5Zm-95.7-3.7a2 2 0 0 1-1.6-.7l-.5-.6a2 2 0 0 1 3-2.8l.6.6a2 2 0 0 1-1.5 3.5Zm101.8-2.9a2 2 0 0 1-1.6-3.4l.5-.5a2 2 0 0 1 3.2 2.5l-.5.7a2 2 0 0 1-1.6.8ZM138.7 97a2 2 0 0 1-1.7-.8l-.4-.7a2 2 0 0 1 3.4-2.3l.4.6a2 2 0 0 1-1.7 3.2Zm112.5-3a2 2 0 0 1-1.8-3.1l.5-.8a2 2 0 1 1 3.5 2.1l-.4.7c-.4.7-1 1-1.8 1Zm-117-4.6a2 2 0 0 1-1.9-1.2 43 43 0 0 1-.4-.7 2 2 0 0 1 3.7-1.8l.4.7a2 2 0 0 1-1.9 3ZM255.3 86a2 2 0 0 1-1.9-2.9l.3-.7a2 2 0 0 1 3.8 1.6l-.3.8a2 2 0 0 1-2 1.2Zm-124.7-5a2 2 0 0 1-1.9-1.4l-.3-.8a2 2 0 0 1 4-1.3l.2.8a2 2 0 0 1-2 2.7Zm127.8-3.5-.5-.1a2 2 0 0 1-1.5-2.6l.3-.7a2 2 0 0 1 4 1l-.3.9a2 2 0 0 1-2 1.5Zm-130.1-5.1a2 2 0 0 1-2-1.7l-.2-.8a2 2 0 1 1 4-.8l.2.8a2 2 0 0 1-2 2.5Zm132-3.7h-.3a2 2 0 0 1-1.7-2.3v-.8a2 2 0 1 1 4.2.5l-.2.8a2 2 0 0 1-2 1.8Zm-133.2-5.2c-1 0-2-.8-2-2l-.1-.8a2 2 0 1 1 4-.2l.1.8a2 2 0 0 1-1.9 2.2h-.1ZM261 60a2 2 0 0 1-2-2.1V57a2 2 0 1 1 4 0v1c0 1-.9 2-2 2Zm-134-5.2a2 2 0 0 1-2-2.2v-.9a2 2 0 0 1 4.2.4v.7c-.2 1.1-1 2-2.1 2Zm133.5-3.9c-1 0-2-.8-2-1.8l-.1-.8a2 2 0 1 1 4-.5l.1.8a2 2 0 0 1-2 2.3Zm-132.3-5a2 2 0 0 1-2-2.5l.2-.8a2 2 0 0 1 4 .9l-.1.7a2 2 0 0 1-2 1.7ZM258.8 42a2 2 0 0 1-2-1.5l-.2-.8a2 2 0 1 1 4-1l.2.7a2 2 0 0 1-2 2.6Zm-128.2-4.9h-.7a2 2 0 0 1-1.3-2.7l.3-.8a2 2 0 0 1 3.9 1.4c0 .3-.2.5-.3.8a2 2 0 0 1-1.9 1.3ZM256 33.5a2 2 0 0 1-2-1.2l-.2-.8a2 2 0 1 1 3.7-1.6l.4.8a2 2 0 0 1-2 2.8ZM134 29a2 2 0 0 1-1.8-3l.4-.7a2 2 0 0 1 3.7 1.9l-.4.7a2 2 0 0 1-1.8 1Zm118-3.4a2 2 0 0 1-1.8-1l-.4-.7a2 2 0 0 1 3.6-2.1l.4.7a2 2 0 0 1-1.8 3.1Zm-113.3-4.3A2 2 0 0 1 137 18l.4-.7a2 2 0 1 1 3.4 2.3l-.4.7a2 2 0 0 1-1.7.9ZM247 18a2 2 0 0 1-1.6-.8l-.5-.6a2 2 0 1 1 3.2-2.6l.6.7A2 2 0 0 1 247 18Zm-102.8-4a2 2 0 0 1-1.5-3.4l.6-.6a2 2 0 0 1 3 2.8l-.6.6a2 2 0 0 1-1.5.6Zm96.9-2.7a2 2 0 0 1-1.5-.6l-.5-.6a2 2 0 1 1 2.8-3l.6.7a2 2 0 0 1-1.4 3.5Zm-90.5-3.5a2 2 0 0 1-1.3-3.6l.7-.6a2 2 0 1 1 2.6 3.2l-.6.5a2 2 0 0 1-1.4.5Zm83.7-2.4a2 2 0 0 1-1.2-.4l-.7-.5a2 2 0 0 1 2.5-3.3l.6.5a2 2 0 0 1-1.2 3.7Zm-76.5-3a2 2 0 0 1-1.1-3.8c.3 0 .5-.2.7-.3a2 2 0 0 1 2.2 3.4l-.7.5a2 2 0 0 1-1 .3Zm69-1.9a2 2 0 0 1-1-.3l-.7-.3a2 2 0 0 1 2-3.6l.7.4a2 2 0 0 1-1 3.8Zm-61.1-2.3a2 2 0 0 1-.9-4c.3 0 .5-.2.8-.3a2 2 0 1 1 1.7 3.8c-.3 0-.5.2-.8.3a2 2 0 0 1-.8.2Zm53-1.5a2 2 0 0 1-.7-.2c-.3 0-.5-.2-.8-.3a2 2 0 1 1 1.5-3.8c.3 0 .5.2.8.3a2 2 0 0 1-.8 4ZM174-5a2 2 0 0 1-.6-4l.8-.3a2 2 0 0 1 2.6 1.4 2 2 0 0 1-1.4 2.5l-.8.3h-.6Zm36.2-1-.5-.1-.8-.2a2 2 0 1 1 1-4l.8.2a2 2 0 0 1-.5 4Zm-27.5-1a2 2 0 0 1-.3-4.1l.8-.1a2 2 0 1 1 .7 4l-.8.1h-.4Zm18.7-.6h-1a2 2 0 1 1 .4-4.2l.8.1a2 2 0 0 1-.2 4.1Zm-9.8-.3a2 2 0 0 1 0-4.1h.8a2 2 0 0 1 2.1 2 2 2 0 0 1-2 2h-.8Zm6.1 121.6a2 2 0 0 1-.1-4l.8-.2a2 2 0 1 1 .3 4.1l-.9.1Zm-8.2 0h-.2l-.8-.1a2 2 0 1 1 .4-4.1h.8a2 2 0 0 1-.2 4.2Zm17.1-1.3a2 2 0 0 1-.4-4c.2-.2.5-.2.7-.3a2 2 0 0 1 1 4l-.8.2a2 2 0 0 1-.5 0Zm-26-.2h-.5l-.9-.3a2 2 0 0 1 1.1-4l.8.2a2 2 0 0 1-.5 4Zm34.6-2.6a2 2 0 0 1-.8-4l.8-.3a2 2 0 1 1 1.6 3.8l-.8.3a2 2 0 0 1-.8.1Zm-43.2-.3a2 2 0 0 1-.8-.2l-.8-.4a2 2 0 0 1 1.7-3.7l.7.3a2 2 0 0 1-.8 4Zm51.3-4a2 2 0 0 1-1.2-3.7l.7-.5a2 2 0 0 1 2.3 3.5l-.7.4a2 2 0 0 1-1.1.4ZM164 105a2 2 0 0 1-1-.4l-.8-.5a2 2 0 0 1 2.3-3.4l.7.5a2 2 0 0 1-1.2 3.7Zm66.5-5a2 2 0 0 1-1.4-3.6l.6-.6a2 2 0 0 1 2.8 3l-.7.6a2 2 0 0 1-1.3.5Zm-73.6-.6a2 2 0 0 1-1.4-.5l-.6-.6a2 2 0 0 1 2.8-3l.6.5a2 2 0 0 1-1.4 3.6Zm79.8-6A2 2 0 0 1 235 90l.5-.6a2 2 0 0 1 3.2 2.5l-.5.7a2 2 0 0 1-1.6.7Zm-86-.6a2 2 0 0 1-1.5-.8l-.6-.7a2 2 0 1 1 3.3-2.5l.5.6a2 2 0 0 1-1.6 3.4Zm91-7c-.3 0-.6 0-1-.2a2 2 0 0 1-.7-2.8l.3-.7a2 2 0 1 1 3.7 2l-.5.7c-.3.7-1 1-1.8 1Zm-95.9-.6a2 2 0 0 1-1.8-1l-.4-.8a2 2 0 0 1 3.6-2l.4.7a2 2 0 0 1-1.8 3v.1Zm99.7-7.6a2 2 0 0 1-2-2.7c.2-.3.3-.5.3-.8a2 2 0 1 1 4 1.4l-.4.8a2 2 0 0 1-1.9 1.3ZM142.2 77a2 2 0 0 1-2-1.4l-.2-.8a2 2 0 1 1 3.9-1.3l.2.8a2 2 0 0 1-2 2.7Zm105.7-8h-.4a2 2 0 0 1-1.7-2.4l.2-.8a2 2 0 1 1 4 .7l-.1.8a2 2 0 0 1-2 1.7Zm-108-.7a2 2 0 0 1-2-1.8l-.1-.8a2 2 0 1 1 4-.6l.2.8a2 2 0 0 1-2 2.4ZM248.7 60a2 2 0 0 1-2-2v-1a2 2 0 1 1 4.1 0v1c0 1.1-1 2-2 2Zm-109.5-1a2 2 0 0 1-2-2v-.9c0-1 .9-2 2-2 1.2 0 2 1 2 2v.8a2 2 0 0 1-2 2.1Zm109-8.4A2 2 0 0 1 246 49l-.1-.8a2 2 0 0 1 4-.7l.1.9a2 2 0 0 1-2 2.3ZM139.9 50h-.3a2 2 0 0 1-1.7-2.4l.1-.8a2 2 0 0 1 4 .7v.8a2 2 0 0 1-2 1.7ZM246 42a2 2 0 0 1-2-1.4l-.2-.7a2 2 0 0 1 3.9-1.4c0 .3.2.6.3.8a2 2 0 0 1-2 2.7Zm-103.9-.5a2 2 0 0 1-2-2.7l.4-.9a2 2 0 0 1 3.8 1.4l-.2.8a2 2 0 0 1-2 1.4Zm100.4-7.8a2 2 0 0 1-1.9-1.1 26 26 0 0 0-.3-.7 2 2 0 0 1 3.6-2l.4.8a2 2 0 0 1-1.8 3Zm-96.8-.5a2 2 0 0 1-1.8-3l.4-.8a2 2 0 0 1 3.6 2l-.3.7c-.4.7-1.1 1-1.9 1Zm92-7.1a2 2 0 0 1-1.7-.8l-.5-.7a2 2 0 1 1 3.2-2.5l.6.7a2 2 0 0 1-1.7 3.3Zm-87-.5a2 2 0 0 1-1.6-3.3l.5-.7a2 2 0 1 1 3.2 2.6l-.5.6a2 2 0 0 1-1.6.8Zm80.9-6.3a2 2 0 0 1-1.4-.5l-.6-.6a2 2 0 1 1 2.8-3l.6.6a2 2 0 0 1-1.4 3.5Zm-74.8-.4a2 2 0 0 1-1.4-3.5l.6-.6a2 2 0 1 1 2.8 3l-.6.6a2 2 0 0 1-1.4.5Zm67.7-5.2a2 2 0 0 1-1.1-.4l-.7-.4a2 2 0 1 1 2.3-3.4l.7.4a2 2 0 0 1-1.2 3.8Zm-60.6-.3a2 2 0 0 1-1.1-3.8l.7-.5a2 2 0 0 1 2.2 3.5l-.6.4a2 2 0 0 1-1.2.4Zm52.7-4.1a2 2 0 0 1-.8-.2l-.8-.3a2 2 0 0 1 1.7-3.8l.8.4a2 2 0 0 1-.9 3.9ZM172 8.9a2 2 0 0 1-1-3.9l.8-.3a2 2 0 0 1 1.6 3.7l-.7.4a2 2 0 0 1-.8.1Zm36-2.8a2 2 0 0 1-.5 0l-.8-.2a2 2 0 0 1-1.5-2.5 2 2 0 0 1 2.5-1.5l.8.2a2 2 0 0 1-.5 4ZM180.4 6a2 2 0 0 1-.5-4l.8-.3a2 2 0 1 1 1 4l-.8.2a2 2 0 0 1-.5 0Zm18.8-1.5h-1a2 2 0 0 1-1.9-2.2c.1-1.2 1.1-2 2.2-2l.9.1a2 2 0 0 1-.2 4.1Zm-9.9 0a2 2 0 0 1-.1-4.1h.8a2 2 0 1 1 .3 4h-1Zm4.7 147.2h-.8a2 2 0 0 1 0-4.1h.8a2 2 0 0 1 2 2 2 2 0 0 1-2 2Zm8.3-.4a2 2 0 0 1-.2-4l.8-.2a2 2 0 1 1 .4 4.1l-.9.1h-.1Zm-17.4 0h-.2l-.8-.2a2 2 0 0 1 .4-4h.8a2 2 0 0 1-.2 4.1Zm26.4-1.2a2 2 0 0 1-.4-4.1l.8-.2a2 2 0 1 1 .8 4l-.9.2h-.3Zm-35.3-.2a2 2 0 0 1-.4 0l-.9-.2a2 2 0 1 1 .9-4l.8.2a2 2 0 0 1-.4 4Zm44.1-2a2 2 0 0 1-.6-4l.8-.2a2 2 0 0 1 1.2 4l-.8.2a2 2 0 0 1-.6 0Zm-53-.2a2 2 0 0 1-.6 0l-.8-.3a2 2 0 0 1 1.3-4c.2.2.5.2.7.3a2 2 0 0 1-.6 4Zm61.6-2.8a2 2 0 0 1-.8-4l.8-.2a2 2 0 1 1 1.5 3.8l-.7.3-.8.1Zm-70.1-.2a2 2 0 0 1-.8-.2l-.8-.3a2 2 0 0 1 1.6-3.8l.8.3a2 2 0 0 1-.8 4Zm78.3-3.6a2 2 0 0 1-1-3.8l.8-.4a2 2 0 1 1 2 3.6l-.8.4a2 2 0 0 1-1 .2Zm-86.6-.3a2 2 0 0 1-1-.3l-.7-.4a2 2 0 1 1 2-3.6l.7.4a2 2 0 0 1-1 3.9Zm94.5-4.3a2 2 0 0 1-1.1-3.8l.6-.4a2 2 0 1 1 2.3 3.4l-.7.5a2 2 0 0 1-1.2.3Zm-102.2-.4a2 2 0 0 1-1.2-.3l-.7-.5a2 2 0 1 1 2.3-3.4l.7.4a2 2 0 0 1-1.1 3.8Zm109.5-5a2 2 0 0 1-1.3-3.6l.6-.5a2 2 0 1 1 2.6 3.2l-.6.5a2 2 0 0 1-1.3.5Zm-116.8-.4a2 2 0 0 1-1.3-.5l-.7-.5a2 2 0 0 1 2.6-3.2l.7.5a2 2 0 0 1-1.3 3.7Zm123.6-5.6a2 2 0 0 1-1.4-3.5l.5-.6a2 2 0 1 1 3 3l-.7.5a2 2 0 0 1-1.4.6Zm-130.4-.5a2 2 0 0 1-1.4-.6l-.6-.6a2 2 0 0 1 2.9-2.9l.6.6a2 2 0 0 1-1.5 3.5Zm136.5-6.1a2 2 0 0 1-1.5-3.4l.5-.7a2 2 0 1 1 3.1 2.7l-.5.6a2 2 0 0 1-1.6.7Zm-142.6-.6a2 2 0 0 1-1.6-.8l-.5-.6a2 2 0 1 1 3.2-2.6l.5.6a2 2 0 0 1-1.6 3.4Zm148.1-6.7a2 2 0 0 1-1.7-3.2l.5-.7a2 2 0 1 1 3.4 2.3l-.5.7a2 2 0 0 1-1.7.9Zm-153.5-.6a2 2 0 0 1-1.7-1l-.5-.6a2 2 0 0 1 3.4-2.3l.5.7a2 2 0 0 1-1.7 3.2Zm158.3-7.1a2 2 0 0 1-1.8-3c0-.3.2-.6.3-.8a2 2 0 0 1 2.8-.8 2 2 0 0 1 .9 2.7l-.4.8a2 2 0 0 1-1.8 1Zm-163-.7a2 2 0 0 1-1.8-1l-.4-.8a2 2 0 1 1 3.6-2l.4.8a2 2 0 0 1-1.8 3Zm167-7.5a2 2 0 0 1-1.9-2.9l.3-.7a2 2 0 1 1 3.8 1.6l-.4.7a2 2 0 0 1-1.9 1.3Zm-170.9-.7a2 2 0 0 1-1.9-1.3l-.3-.8A2 2 0 0 1 110 91l.3.7a2 2 0 0 1-1.9 2.9Zm174-7.9h-.6a2 2 0 0 1-1.4-2.6l.3-.8a2 2 0 1 1 3.9 1.2l-.3.8a2 2 0 0 1-2 1.4Zm-177-.7a2 2 0 0 1-2-1.4l-.3-.8a2 2 0 0 1 4-1.2l.2.8a2 2 0 0 1-2 2.6Zm179.3-8-.5-.1a2 2 0 0 1-1.6-2.4l.2-.8a2 2 0 1 1 4 .8l-.1.8a2 2 0 0 1-2 1.6ZM103 77.1a2 2 0 0 1-2-1.6l-.1-.9a2 2 0 0 1 4-.7l.2.8a2 2 0 0 1-2 2.4Zm183-8.2h-.3a2 2 0 0 1-1.8-2.3v-.8a2 2 0 1 1 4.2.4l-.1.8a2 2 0 0 1-2 1.9Zm-184.3-.8c-1 0-2-.7-2-1.8l-.1-.9a2 2 0 0 1 4-.3l.1.8a2 2 0 0 1-2 2.2ZM286.6 60a2 2 0 0 1-2-2v-1a2 2 0 0 1 4 0v1c0 1-.9 2-2 2Zm-185.2-.7a2 2 0 0 1-2.1-2v-1c0-1 1-2 2-2 1.2 0 2.1 1 2.1 2.1v.8c0 1.1-1 2-2 2Zm184.8-8.6c-1 0-2-.8-2-1.8l-.1-.9a2 2 0 0 1 4-.4l.1.9a2 2 0 0 1-1.8 2.2h-.2Zm-184.4-.5h-.2a2 2 0 0 1-1.9-2.3l.1-.8a2 2 0 0 1 4.1.4v.8a2 2 0 0 1-2.1 1.9Zm183.1-8.5a2 2 0 0 1-2-1.6l-.1-.8a2 2 0 0 1 4-.8l.2.8a2 2 0 0 1-2 2.4Zm-181.8-.5a2 2 0 0 1-2-2.4l.2-.9a2 2 0 0 1 4 .8l-.2.8a2 2 0 0 1-2 1.7Zm179.7-8.3a2 2 0 0 1-2-1.5l-.2-.8a2 2 0 0 1 4-1.2l.2.9a2 2 0 0 1-2 2.6Zm-177.5-.5a2 2 0 0 1-2-2.7l.3-.8a2 2 0 0 1 3.9 1.2l-.2.8a2 2 0 0 1-2 1.5Zm174.5-8a2 2 0 0 1-2-1.4l-.2-.7a2 2 0 1 1 3.8-1.6l.3.8a2 2 0 0 1-1.9 2.8Zm-171.5-.6a2 2 0 0 1-1.9-2.8l.4-.8a2 2 0 0 1 3.8 1.6l-.4.7a2 2 0 0 1-1.9 1.3ZM276 16a2 2 0 0 1-1.9-1.1l-.3-.7a2 2 0 0 1 3.6-2l.4.8a2 2 0 0 1-1.8 3Zm-163.8-.5a2 2 0 0 1-1.8-3l.4-.8a2 2 0 0 1 2.8-.8 2 2 0 0 1 .8 2.8l-.4.7c-.3.7-1 1-1.8 1Zm159.2-7.3a2 2 0 0 1-1.8-1l-.4-.6a2 2 0 1 1 3.4-2.3l.5.7a2 2 0 0 1-1.8 3.2Zm-154.5-.5a2 2 0 0 1-1.7-3.2l.5-.7a2 2 0 0 1 3.4 2.3l-.5.7a2 2 0 0 1-1.7.9Zm149-6.9a2 2 0 0 1-1.5-.7l-.5-.7a2 2 0 1 1 3.1-2.6l.6.7A2 2 0 0 1 266 .8ZM122.4.4a2 2 0 0 1-1.6-3.4l.6-.6a2 2 0 0 1 3.1 2.6l-.5.7a2 2 0 0 1-1.6.7ZM260-5.9a2 2 0 0 1-1.4-.7l-.6-.5a2 2 0 1 1 2.9-3l.6.7a2 2 0 0 1-1.5 3.5Zm-131.5-.4a2 2 0 0 1-1.5-3.5l.6-.6a2 2 0 0 1 3 2.9l-.6.5a2 2 0 0 1-1.5.7Zm124.8-5.8a2 2 0 0 1-1.3-.5l-.6-.5a2 2 0 1 1 2.6-3.2l.7.6a2 2 0 0 1-1.4 3.6Zm-118-.4a2 2 0 0 1-1.4-3.6l.7-.5a2 2 0 1 1 2.6 3.2l-.7.5a2 2 0 0 1-1.3.4Zm110.8-5a2 2 0 0 1-1.2-.4l-.6-.5a2 2 0 0 1 2.2-3.4l.7.5a2 2 0 0 1-1.1 3.7ZM142.4-18a2 2 0 0 1-1.1-3.7l.7-.5a2 2 0 1 1 2.2 3.4l-.6.5a2 2 0 0 1-1.2.3Zm95.8-4.4c-.3 0-.6 0-1-.3l-.7-.3a2 2 0 0 1 2-3.7l.7.4a2 2 0 0 1-1 3.9Zm-88-.3a2 2 0 0 1-1-3.8l.8-.4a2 2 0 1 1 2 3.6l-.8.4a2 2 0 0 1-1 .2Zm79.8-3.7a2 2 0 0 1-.8-.1l-.7-.3a2 2 0 0 1 1.6-3.8l.7.3a2 2 0 0 1-.8 4Zm-71.6-.2a2 2 0 0 1-.8-4l.8-.2a2 2 0 0 1 1.5 3.8l-.7.3-.8.1Zm63.1-2.9a2 2 0 0 1-.6 0l-.8-.3a2 2 0 0 1 1.2-4l.8.3a2 2 0 0 1-.6 4Zm-54.6-.1a2 2 0 0 1-.6-4l.9-.3a2 2 0 1 1 1.1 4 124 124 0 0 0-1.4.3Zm45.8-2.1h-.4l-.8-.3a2 2 0 0 1 .8-4l.8.2a2 2 0 0 1-.4 4Zm-37-.2a2 2 0 0 1-.3-4l.8-.2a2 2 0 0 1 .8 4l-.8.2a2 2 0 0 1-.4 0Zm28-1.2h-.2l-.8-.1a2 2 0 1 1 .4-4.1h.8a2 2 0 0 1-.2 4.1Zm-19 0a2 2 0 0 1-.1-4.2h.8a2 2 0 0 1 .4 4l-.8.1h-.3Zm10-.5h-1a2 2 0 1 1 0-4.2h1a2 2 0 0 1 0 4.2Zm.8 209.6a2 2 0 0 1 0-4h.8a2 2 0 0 1 0 4.1h-.8Zm-8.3-.1h-1a2 2 0 0 1 .3-4.2h.9a2 2 0 0 1-.2 4.2Zm17.3-.3a2 2 0 0 1-.1-4.1l.8-.1a2 2 0 0 1 .4 4l-.9.2h-.2Zm-26.3-.6h-.3l-.8-.1a2 2 0 0 1 .6-4.1l.8.1a2 2 0 0 1-.3 4.1Zm35.3-.6a2 2 0 0 1-.3-4l.8-.2a2 2 0 1 1 .7 4l-.8.2h-.4Zm-44.2-1h-.5l-.8-.2a2 2 0 0 1 1-4l.7.2a2 2 0 0 1-.4 4Zm53.1-.8a2 2 0 0 1-.5-4l.8-.3a2 2 0 1 1 1 4l-.8.2a2 2 0 0 1-.5 0Zm-62-1.4a2 2 0 0 1-.5-.1l-.8-.2a2 2 0 0 1 1.2-4l.8.3a2 2 0 0 1-.6 4Zm70.7-1.2a2 2 0 0 1-.6-4l.7-.2a2 2 0 1 1 1.4 3.8l-.8.3a2 2 0 0 1-.7.1Zm-79.2-1.7a2 2 0 0 1-2.7-3.1 2 2 0 0 1 2.7-1.2l.7.3a2 2 0 0 1-.7 4Zm87.7-1.5a2 2 0 0 1-.8-4l.7-.3a2 2 0 0 1 1.7 3.8l-.8.3a2 2 0 0 1-.8.2Zm-96-2.1-1-.2-.7-.4a2 2 0 0 1 1.8-3.7l.7.4a2 2 0 0 1-.8 3.9Zm104.2-1.7a2 2 0 0 1-1-4l.8-.3a2 2 0 1 1 2 3.6l-.9.4a2 2 0 0 1-1 .3Zm-112.3-2.6a2 2 0 0 1-1-.3l-.7-.4a2 2 0 0 1 2-3.5l.8.4a2 2 0 0 1-1 3.8Zm120.2-2a2 2 0 0 1-1-3.8l.6-.4a2 2 0 1 1 2.2 3.5l-.8.5a2 2 0 0 1-1 .3Zm-127.9-2.8a2 2 0 0 1-1.1-.4l-.7-.5a2 2 0 1 1 2.3-3.3l.7.4a2 2 0 0 1-1.2 3.8Zm135.4-2.2a2 2 0 0 1-1.3-3.7l.7-.5a2 2 0 1 1 2.5 3.3l-.7.5a2 2 0 0 1-1.2.4Zm-142.6-3.2a2 2 0 0 1-1.3-.5l-.7-.5a2 2 0 1 1 2.6-3.2l.7.5a2 2 0 0 1-1.3 3.7Zm149.7-2.5a2 2 0 0 1-1.3-3.6l.5-.5a2 2 0 1 1 2.7 3.1l-.6.6a2 2 0 0 1-1.3.4Zm-156.6-3.5a2 2 0 0 1-1.4-.6l-.6-.5a2 2 0 1 1 2.9-3l.6.5a2 2 0 0 1-1.5 3.6Zm163.2-2.6a2 2 0 0 1-1.5-3.5l.6-.6a2 2 0 0 1 3 2.9l-.6.6a2 2 0 0 1-1.5.6Zm-169.5-3.9a2 2 0 0 1-1.5-.7l-.6-.6a2 2 0 1 1 3-2.7l.6.6a2 2 0 0 1-1.5 3.4ZM283 135a2 2 0 0 1-1.5-3.4l.5-.6a2 2 0 0 1 3.1 2.6l-.5.7a2 2 0 0 1-1.6.7Zm-181.5-4.1a2 2 0 0 1-1.6-.8l-.5-.7a2 2 0 0 1 3.3-2.5l.5.7a2 2 0 0 1-1.7 3.3Zm187.2-3a2 2 0 0 1-1.7-3.3l.5-.7a2 2 0 1 1 3.3 2.4l-.5.7a2 2 0 0 1-1.7.9Zm-192.4-4.4a2 2 0 0 1-1.8-1l-.4-.6a2 2 0 0 1 3.4-2.2l.5.6a2 2 0 0 1-1.7 3.2Zm197.4-3.2a2 2 0 0 1-1.7-3.1l.4-.7a2 2 0 1 1 3.5 2.1l-.5.7c-.3.7-1 1-1.7 1Zm-202.1-4.5a2 2 0 0 1-1.8-1.1l-.4-.7a2 2 0 0 1 3.6-2l.4.7a2 2 0 0 1-1.8 3Zm206.5-3.4a2 2 0 0 1-1.8-3l.4-.7a2 2 0 1 1 3.7 1.8l-.4.8a2 2 0 0 1-1.9 1.1Zm-210.6-4.7a2 2 0 0 1-1.9-1.2l-.3-.8a2 2 0 0 1 1-2.7 2 2 0 0 1 2.7 1l.4.8a2 2 0 0 1-2 2.9ZM302 104a2 2 0 0 1-1.9-2.8l.3-.8a2 2 0 0 1 3.8 1.5l-.3.8a2 2 0 0 1-2 1.3ZM84 99.2a2 2 0 0 1-1.9-1.4l-.3-.7a2 2 0 1 1 4-1.4l.2.7a2 2 0 0 1-2 2.8Zm221.1-3.6a2 2 0 0 1-2-2.7l.3-.8a2 2 0 0 1 4 1.2l-.3.8a2 2 0 0 1-2 1.5Zm-223.8-5a2 2 0 0 1-2-1.5l-.2-.9a2 2 0 0 1 1.4-2.5 2 2 0 0 1 2.5 1.5l.3.7a2 2 0 0 1-2 2.7Zm226.3-3.8a2 2 0 0 1-2-2.5l.2-.8a2 2 0 1 1 4 1l-.2.8a2 2 0 0 1-2 1.5Zm-228.4-5a2 2 0 0 1-2-1.7l-.2-.8a2 2 0 0 1 4-.8l.2.8a2 2 0 0 1-2 2.4ZM309.4 78h-.3a2 2 0 0 1-1.7-2.4l.1-.8a2 2 0 1 1 4 .6v.8a2 2 0 0 1-2 1.8ZM77.8 72.8c-1 0-2-.8-2-1.8l-.2-.9a2 2 0 1 1 4.1-.4l.1.8a2 2 0 0 1-2 2.3Zm232.7-3.9h-.1a2 2 0 0 1-2-2.2l.1-.8c.1-1.1 1.1-2 2.3-1.9 1 .1 2 1.1 1.9 2.2l-.1.9a2 2 0 0 1-2 1.8ZM77.1 63.7a2 2 0 0 1-2-2L75 61a2 2 0 1 1 4.1-.1v.8a2 2 0 0 1-2 2.1ZM310.9 60a2 2 0 0 1-2-2v-1.1a2 2 0 0 1 4.1 0v1a2 2 0 0 1-2 2.1ZM77.1 54.7H77a2 2 0 0 1-2-2.2v-.8c.1-1.1 1-2 2.2-2 1.1 0 2 1 2 2.2v.8c-.1 1.1-1 2-2.1 2Zm233.5-4.1c-1 0-2-.9-2-2v-.8a2 2 0 0 1 4-.3v.9a2 2 0 0 1-1.8 2.2h-.2Zm-232.8-5h-.3a2 2 0 0 1-1.8-2.3l.1-.8a2 2 0 1 1 4 .5v.8a2 2 0 0 1-2 1.8Zm231.8-4a2 2 0 0 1-2-1.8l-.1-.8a2 2 0 1 1 4-.6l.2.8a2 2 0 0 1-2 2.4Zm-230.5-5a2 2 0 0 1-2-2.4l.2-.8a2 2 0 1 1 4 .8l-.1.8a2 2 0 0 1-2 1.7Zm228.8-4a2 2 0 0 1-2-1.5l-.1-.8a2 2 0 0 1 4-1l.1.8a2 2 0 0 1-2 2.6ZM81.2 27.8a2 2 0 0 1-2-2.6l.3-.8a2 2 0 1 1 4 1.2l-.3.7a2 2 0 0 1-2 1.5Zm224.4-4a2 2 0 0 1-2-1.3l-.2-.8a2 2 0 1 1 3.9-1.3l.2.8a2 2 0 0 1-2 2.7ZM84 19.3a2 2 0 0 1-2-2.8l.3-.8a2 2 0 0 1 2.7-1.2 2 2 0 0 1 1.2 2.7l-.3.7a2 2 0 0 1-2 1.4Zm218.5-3.8a2 2 0 0 1-1.9-1.3l-.3-.8a2 2 0 1 1 3.8-1.5l.3.7a2 2 0 0 1-1.9 2.8ZM87.4 10.8c-.3 0-.6 0-.9-.2a2 2 0 0 1-1-2.7L86 7a2 2 0 1 1 3.7 1.7l-.3.8a2 2 0 0 1-2 1.2ZM298.8 7a2 2 0 0 1-1.8-1.2l-.4-.7a2 2 0 0 1 3.7-1.8l.3.7a2 2 0 0 1-1.8 3ZM91.5 2.7a2 2 0 0 1-1.8-3l.4-.8a2 2 0 1 1 3.6 2l-.4.7a2 2 0 0 1-1.8 1Zm203-3.6a2 2 0 0 1-1.8-1l-.4-.7a2 2 0 1 1 3.5-2.1l.4.7a2 2 0 0 1-1.7 3.1ZM96-5a2 2 0 0 1-1.7-3.2L95-9a2 2 0 0 1 2.9-.6 2 2 0 0 1 .5 2.9L98-6a2 2 0 0 1-1.7.9Zm193.4-3.4a2 2 0 0 1-1.7-.8l-.4-.7a2 2 0 0 1 3.3-2.4l.5.7a2 2 0 0 1-1.7 3.2Zm-188-4a2 2 0 0 1-1.6-3.3l.4-.7a2 2 0 1 1 3.2 2.6l-.5.6a2 2 0 0 1-1.6.8ZM284-15.6a2 2 0 0 1-1.6-.8l-.5-.6a2 2 0 0 1 3.1-2.7l.6.7a2 2 0 0 1-1.6 3.4Zm-176.8-3.8a2 2 0 0 1-1.5-3.4l.6-.7a2 2 0 0 1 3 2.8l-.5.6a2 2 0 0 1-1.6.7Zm170.7-3a2 2 0 0 1-1.5-.6l-.5-.6a2 2 0 0 1 3-2.9l.5.6a2 2 0 0 1-1.5 3.5Zm-164.3-3.5a2 2 0 0 1-1.4-3.6l.6-.5a2 2 0 0 1 2.8 3l-.6.5a2 2 0 0 1-1.4.6Zm157.8-2.8a2 2 0 0 1-1.4-.5l-.6-.5a2 2 0 0 1 2.7-3.1l.6.5a2 2 0 0 1-1.3 3.6Zm-151-3.2a2 2 0 0 1-1.3-3.7l.7-.5a2 2 0 0 1 2.5 3.2l-.6.5a2 2 0 0 1-1.3.5Zm144-2.5a2 2 0 0 1-1.3-.4l-.7-.5a2 2 0 0 1 2.5-3.3l.7.5a2 2 0 0 1-1.3 3.7Zm-136.7-3a2 2 0 0 1-1.2-3.7l.7-.5a2 2 0 1 1 2.3 3.5l-.7.4a2 2 0 0 1-1.1.4Zm129.2-2.2a2 2 0 0 1-1.1-.3l-.7-.4a2 2 0 0 1 2.2-3.5l.7.4a2 2 0 0 1-1.1 3.8Zm-121.6-2.6a2 2 0 0 1-1-3.8l.7-.4a2 2 0 1 1 2 3.5l-.6.4a2 2 0 0 1-1 .3Zm113.7-2a2 2 0 0 1-1-.2l-.6-.4a2 2 0 0 1 1.9-3.6l.7.4a2 2 0 0 1-1 3.9Zm-105.7-2.2a2 2 0 0 1-.9-4l.8-.3A2 2 0 0 1 145-47l-.8.4a2 2 0 0 1-.9.2Zm97.6-1.7a2 2 0 0 1-.8-.2l-.8-.3a2 2 0 1 1 1.6-3.8l.8.3a2 2 0 0 1-.8 4Zm-89.2-2a2 2 0 0 1-.8-3.9l.8-.3a2 2 0 0 1 1.5 3.9l-.8.2a2 2 0 0 1-.8.2Zm80.7-1.3a2 2 0 0 1-.7-.2l-.7-.2a2 2 0 1 1 1.3-4l.8.4a2 2 0 0 1-.7 4ZM160.2-53a2 2 0 0 1-.6-4l.8-.2a2 2 0 1 1 1.2 4l-.8.1a2 2 0 0 1-.6.1Zm63.5-1-.5-.2-.8-.2a2 2 0 0 1 1-4l.9.3a2 2 0 0 1-.5 4ZM169-55.3a2 2 0 0 1-.4-4.1l.8-.2a2 2 0 1 1 .8 4l-.8.2a2 2 0 0 1-.4 0Zm46-.7h-.4l-.8-.2a2 2 0 0 1 .7-4h.9a2 2 0 0 1-.4 4.2Zm-37-.8a2 2 0 0 1-.2-4.1l.8-.1a2 2 0 1 1 .5 4l-.8.2h-.3Zm28-.5h-1a2 2 0 0 1 .4-4.2h.8a2 2 0 0 1-.2 4.1Zm-19-.4a2 2 0 0 1 0-4.1h.8a2 2 0 0 1 .2 4.1h-.9Zm10-.2h-.9a2 2 0 0 1 0-4.1h1a2 2 0 0 1-.1 4.1Zm-1.5 222.1a2 2 0 0 1 0-4.2h.7a2 2 0 1 1 0 4.1h-.7Zm-8.2-.2h-1a2 2 0 1 1 .3-4.2h.8a2 2 0 0 1-.1 4.2Zm17.2-.3a2 2 0 0 1-.2-4.2h.8a2 2 0 1 1 .4 4l-.8.1h-.2Zm-26.2-.7a2 2 0 0 1-.3 0l-.9-.1a2 2 0 0 1 .7-4.1l.8.1a2 2 0 0 1-.3 4.1Zm35.1-.6a2 2 0 0 1-.3-4.1l.8-.2a2 2 0 1 1 .7 4l-.8.2h-.4Zm-44-1.1a2 2 0 0 1-.5 0l-.8-.3a2 2 0 0 1 1-4l.8.2a2 2 0 0 1-.5 4Zm52.8-1a2 2 0 0 1-.5-4l.8-.2a2 2 0 0 1 1.1 4l-.8.2h-.6Zm-61.5-1.5a2 2 0 0 1-.7-.1l-.8-.3a2 2 0 0 1 1.4-3.9l.7.3a2 2 0 0 1-.6 4Zm70.1-1.3a2 2 0 0 1-.7-4l.8-.2a2 2 0 1 1 1.4 3.8l-.7.3a2 2 0 0 1-.8.1Zm-78.6-2a2 2 0 0 1-.8-.1l-.7-.3a2 2 0 1 1 1.6-3.8l.8.3a2 2 0 0 1-.9 4Zm87-1.5a2 2 0 0 1-1-4l.8-.3a2 2 0 1 1 1.8 3.7l-.8.4a2 2 0 0 1-.8.2Zm-95.1-2.4a2 2 0 0 1-1-.2l-.7-.4a2 2 0 1 1 2-3.6l.7.3a2 2 0 0 1-1 4Zm103-1.8a2 2 0 0 1-1-3.8l.7-.5a2 2 0 0 1 2.1 3.5l-.7.5a2 2 0 0 1-1 .3ZM136.3 147a2 2 0 0 1-1.1-.4l-.7-.4a2 2 0 1 1 2.3-3.4l.7.4a2 2 0 0 1-1.2 3.8Zm118.4-2.2a2 2 0 0 1-1.2-3.7l.7-.5a2 2 0 1 1 2.4 3.4l-.7.5a2 2 0 0 1-1.2.3ZM129 141.7a2 2 0 0 1-1.3-.5l-.6-.5a2 2 0 1 1 2.5-3.2l.7.5a2 2 0 0 1-1.3 3.7Zm132.9-2.4a2 2 0 0 1-1.3-3.6c.1-.2.3-.4.6-.5a2 2 0 0 1 2.6 3l-.6.6a2 2 0 0 1-1.3.5ZM122 135.8a2 2 0 0 1-1.4-.6l-.6-.5a2 2 0 0 1 2.9-3l.5.5a2 2 0 0 1-1.4 3.6Zm146.4-2.6a2 2 0 0 1-1.5-3.5l.6-.6a2 2 0 1 1 3 2.9l-.6.6a2 2 0 0 1-1.5.6Zm-152.7-3.9a2 2 0 0 1-1.5-.6l-.6-.7a2 2 0 1 1 3-2.7l.6.6a2 2 0 0 1-1.5 3.4Zm158.8-2.8a2 2 0 0 1-1.6-3.4l.5-.6a2 2 0 0 1 3.2 2.6l-.5.6a2 2 0 0 1-1.6.8ZM110 122.4a2 2 0 0 1-1.6-.9l-.5-.6a2 2 0 0 1 3.3-2.5l.5.7a2 2 0 0 1-1.6 3.3Zm170.1-3a2 2 0 0 1-1.7-3.3l.5-.7a2 2 0 1 1 3.4 2.3l-.5.7a2 2 0 0 1-1.7 1Zm-175.2-4.5a2 2 0 0 1-1.7-1l-.5-.6a2 2 0 1 1 3.5-2.2l.5.7a2 2 0 0 1-1.8 3.1Zm180-3.2a2 2 0 0 1-1.7-3.1l.4-.7a2 2 0 1 1 3.6 2l-.4.8c-.4.6-1.1 1-1.8 1ZM100.5 107a2 2 0 0 1-1.8-1.1l-.4-.8a2 2 0 0 1 3.7-1.8l.4.7a2 2 0 0 1-1.9 3Zm188.8-3.4a2 2 0 0 1-1.9-3l.3-.7a2 2 0 0 1 3.7 1.7c0 .3-.2.5-.3.8a2 2 0 0 1-1.8 1.2ZM96.7 98.9a2 2 0 0 1-2-1.3l-.3-.8a2 2 0 0 1 3.9-1.5l.3.7a2 2 0 0 1-2 2.9Zm196-3.6a2 2 0 0 1-2-2.8l.3-.7a2 2 0 1 1 3.9 1.4l-.3.8a2 2 0 0 1-2 1.3Zm-199.1-5a2 2 0 0 1-2-1.4l-.2-.8a2 2 0 1 1 4-1.2l.2.8a2 2 0 0 1-2 2.7Zm201.8-3.6a2 2 0 0 1-2-2.6l.2-.8a2 2 0 0 1 4 1l-.2.9a2 2 0 0 1-2 1.5Zm-204.1-5a2 2 0 0 1-2-1.7l-.2-.8a2 2 0 0 1 4-.9l.2.8a2 2 0 0 1-2 2.5Zm206-3.8h-.3a2 2 0 0 1-1.6-2.4l.1-.8a2 2 0 1 1 4 .7v.8a2 2 0 0 1-2.1 1.7ZM89.8 72.7a2 2 0 0 1-2-1.8l-.1-.8a2 2 0 0 1 4-.5l.2.8a2 2 0 0 1-2 2.3Zm209-3.8h-.3a2 2 0 0 1-1.8-2.2v-.8a2 2 0 0 1 4.1.3v.9a2 2 0 0 1-2 1.8ZM89 63.7a2 2 0 0 1-2-2l-.1-.8a2 2 0 1 1 4-.1l.1.8a2 2 0 0 1-2 2.1Zm210-3.8a2 2 0 0 1-2-2v-1.1a2 2 0 0 1 4.1 0v1c0 1.2-1 2-2 2ZM89 54.7h-.1a2 2 0 0 1-2-2.2v-.8a2 2 0 1 1 4.1.2v.8c0 1.1-1 2-2 2Zm209.7-4c-1 0-2-.9-2-2V48a2 2 0 1 1 4-.3v.8a2 2 0 0 1-1.8 2.2h-.2Zm-209-5h-.2a2 2 0 0 1-1.8-2.4v-.8a2 2 0 0 1 4.2.6l-.1.8a2 2 0 0 1-2 1.8Zm208-4a2 2 0 0 1-2-1.8l-.2-.8a2 2 0 0 1 4-.7l.2.9a2 2 0 0 1-2 2.3Zm-206.5-5h-.4a2 2 0 0 1-1.6-2.4l.2-.9a2 2 0 0 1 4 1l-.1.7a2 2 0 0 1-2 1.7Zm204.6-3.9a2 2 0 0 1-2-1.6l-.2-.7a2 2 0 0 1 4-1l.2.7a2 2 0 0 1-2 2.6ZM93.5 28a2 2 0 0 1-2-2.7l.3-.8a2 2 0 0 1 4 1.3l-.3.7a2 2 0 0 1-2 1.5Zm199.6-3.9a2 2 0 0 1-2-1.3l-.2-.8a2 2 0 0 1 3.9-1.4l.3.8a2 2 0 0 1-2 2.7ZM96.6 19.5c-.3 0-.5 0-.8-.2a2 2 0 0 1-1.1-2.6c0-.3.2-.6.3-.8a2 2 0 0 1 3.8 1.6l-.3.7a2 2 0 0 1-2 1.3Zm193.2-3.7a2 2 0 0 1-2-1.2l-.2-.8a2 2 0 0 1 3.7-1.7l.3.8a2 2 0 0 1-1.8 2.9Zm-189.5-4.6a2 2 0 0 1-1.8-3l.4-.7a2 2 0 0 1 3.7 2l-.4.6a2 2 0 0 1-1.8 1.1Zm185.4-3.5a2 2 0 0 1-1.8-1l-.4-.7a2 2 0 1 1 3.6-2l.4.6a2 2 0 0 1-1.8 3.1ZM104.8 3.4a2 2 0 0 1-1.7-3.1l.4-.8a2 2 0 1 1 3.5 2.2l-.4.7c-.4.6-1.1 1-1.8 1ZM281 0a2 2 0 0 1-1.7-.9l-.4-.6a2 2 0 0 1 3.4-2.4l.4.7A2 2 0 0 1 281 0ZM110-4a2 2 0 0 1-1.6-3.3l.5-.7a2 2 0 0 1 3.3 2.5l-.5.6a2 2 0 0 1-1.7.8Zm165.6-3.2A2 2 0 0 1 274-8l-.5-.6a2 2 0 1 1 3.2-2.6l.5.6a2 2 0 0 1-1.6 3.4Zm-159.8-3.9a2 2 0 0 1-1.5-3.4l.5-.6a2 2 0 1 1 3 2.7l-.5.6a2 2 0 0 1-1.5.7ZM269.5-14a2 2 0 0 1-1.4-.6l-.6-.6a2 2 0 1 1 3-2.9l.5.6a2 2 0 0 1-1.5 3.5ZM122-17.5a2 2 0 0 1-1.4-3.6l.6-.6a2 2 0 0 1 2.8 3l-.6.6a2 2 0 0 1-1.4.6Zm141-2.7a2 2 0 0 1-1.4-.5l-.6-.6a2 2 0 1 1 2.7-3l.6.5a2 2 0 0 1-1.3 3.6Zm-134.2-3.2a2 2 0 0 1-1.2-3.7l.6-.5a2 2 0 0 1 2.6 3.2l-.7.5a2 2 0 0 1-1.3.5ZM256-26a2 2 0 0 1-1.2-.3l-.7-.5a2 2 0 0 1 2.4-3.3l.7.4A2 2 0 0 1 256-26Zm-119.7-2.8a2 2 0 0 1-1.1-3.8l.6-.5a2 2 0 0 1 2.9.6 2 2 0 0 1-.6 2.9l-.7.4a2 2 0 0 1-1.1.4ZM248.4-31a2 2 0 0 1-1-.3l-.8-.4a2 2 0 1 1 2.1-3.5l.7.4a2 2 0 0 1-1 3.8Zm-104.5-2.5a2 2 0 0 1-1-3.8l.8-.4a2 2 0 0 1 2 3.6l-.8.4a2 2 0 0 1-1 .2Zm96.5-1.8a2 2 0 0 1-.9-.2l-.7-.4a2 2 0 0 1 1.8-3.7l.8.4a2 2 0 0 1-1 3.9Zm-88.4-2a2 2 0 0 1-.8-4l.8-.3a2 2 0 1 1 1.6 3.8l-.7.3a2 2 0 0 1-.9.2Zm80.2-1.6a2 2 0 0 1-.8-.1l-.7-.3a2 2 0 1 1 1.4-3.9l.8.3a2 2 0 0 1-.7 4Zm-71.7-1.7a2 2 0 0 1-.7-4l.8-.3a2 2 0 1 1 1.3 4l-.8.2a2 2 0 0 1-.6.1Zm63.1-1.2h-.6l-.8-.3a2 2 0 0 1 1.2-4l.8.3a2 2 0 0 1-.6 4Zm-54.4-1.3a2 2 0 0 1-.5-4l.8-.2a2 2 0 1 1 1 4l-.9.2a2 2 0 0 1-.5 0Zm45.6-.9a2 2 0 0 1-.4 0l-.8-.2a2 2 0 1 1 .8-4l.8.2a2 2 0 0 1-.4 4Zm-36.8-.8a2 2 0 0 1-.3-4.1l.8-.1a2 2 0 1 1 .6 4l-.8.1a2 2 0 0 1-.3 0Zm27.9-.6h-1a2 2 0 1 1 .4-4.2l.8.1a2 2 0 0 1-.2 4.1Zm-18.9-.4a2 2 0 0 1-.1-4.1h.8a2 2 0 0 1 .2 4.1h-.8Zm9.9-.2h-.9a2 2 0 0 1-2-2.1c0-1.1 1-2 2.1-2h.8a2 2 0 0 1 0 4.1ZM194 139h-.8a2 2 0 0 1 0-4.1h.8a2 2 0 0 1 2 2 2 2 0 0 1-2 2Zm8.1-.4a2 2 0 0 1-.2-4.1l.8-.1a2 2 0 1 1 .5 4l-.8.2h-.3Zm-17-.1h-.3l-.8-.1a2 2 0 0 1 .5-4h.8a2 2 0 0 1-.2 4.1Zm25.9-1.3a2 2 0 0 1-.4-4l.7-.3a2 2 0 0 1 1 4 180.3 180.3 0 0 1-1.3.3Zm-34.8-.2h-.4l-.8-.2a2 2 0 0 1 1-4l.7.1a2 2 0 0 1-.5 4.1Zm43.4-2.2a2 2 0 0 1-.6-4l.7-.3a2 2 0 1 1 1.4 3.9l-.8.3a2 2 0 0 1-.7 0Zm-52-.3a2 2 0 0 1-.7 0l-.8-.4a2 2 0 0 1 1.4-3.8l.8.2a2 2 0 0 1-.7 4Zm60.3-3a2 2 0 0 1-.8-4l.7-.3a2 2 0 0 1 1.8 3.7l-.8.3a2 2 0 0 1-.9.2Zm-68.6-.4a2 2 0 0 1-.9-.2l-.7-.4a2 2 0 0 1 1.8-3.6l.7.3a2 2 0 0 1-.9 4Zm76.5-4a2 2 0 0 1-1-3.7l.6-.5a2 2 0 1 1 2.2 3.5l-.7.5a2 2 0 0 1-1 .3Zm-84.3-.3a2 2 0 0 1-1.1-.3l-.7-.5a2 2 0 0 1 2.2-3.5l.7.5a2 2 0 0 1-1.1 3.8Zm91.7-4.7a2 2 0 0 1-1.3-3.7l.6-.5a2 2 0 0 1 2.6 3.2l-.7.5a2 2 0 0 1-1.2.5Zm-99-.5a2 2 0 0 1-1.3-.5l-.7-.5a2 2 0 0 1 2.6-3.2l.7.5a2 2 0 0 1-1.3 3.7Zm105.7-5.5a2 2 0 0 1-1.4-3.5l.5-.5a2 2 0 0 1 3 2.9l-.7.6a2 2 0 0 1-1.4.5Zm-112.4-.5a2 2 0 0 1-1.5-.6l-.5-.6a2 2 0 1 1 2.9-2.9l.5.6a2 2 0 0 1-1.4 3.5Zm118.4-6a2 2 0 0 1-1.6-3.4l.6-.6a2 2 0 0 1 3.2 2.5l-.6.7a2 2 0 0 1-1.5.7Zm-124.4-.7a2 2 0 0 1-1.6-.7l-.5-.7a2 2 0 1 1 3.2-2.5l.5.6a2 2 0 0 1-1.6 3.3Zm129.7-6.6a2 2 0 0 1-1.7-3.2l.4-.7a2 2 0 0 1 3.5 2.2l-.5.7c-.3.6-1 1-1.7 1Zm-134.9-.7a2 2 0 0 1-1.7-1l-.5-.6a2 2 0 0 1 3.5-2.2l.5.7a2 2 0 0 1-1.8 3.1Zm139.3-7.1a2 2 0 0 1-1.8-3l.3-.7a2 2 0 0 1 3.7 1.8l-.3.7a2 2 0 0 1-1.9 1.2ZM122 93.8a2 2 0 0 1-1.9-1.2l-.3-.7a2 2 0 1 1 3.7-1.8l.3.8a2 2 0 0 1-1.8 3Zm147.2-7.6a2 2 0 0 1-2-2.7l.3-.8a2 2 0 1 1 3.9 1.4l-.3.8a2 2 0 0 1-2 1.3Zm-150.7-.7a2 2 0 0 1-1.9-1.3l-.3-.8a2 2 0 0 1 4-1.4l.2.8a2 2 0 0 1-2 2.7Zm153.2-7.9a2 2 0 0 1-2-2.5l.2-.8a2 2 0 1 1 4 1l-.2.8a2 2 0 0 1-2 1.5ZM116 77a2 2 0 0 1-2-1.6l-.1-.8a2 2 0 1 1 4-.9l.1.8a2 2 0 0 1-2 2.5Zm157.3-8h-.3a2 2 0 0 1-1.7-2.4v-.8a2 2 0 1 1 4.1.5v.8a2 2 0 0 1-2.1 1.8Zm-158.8-1a2 2 0 0 1-2-1.8v-.9a2 2 0 1 1 4-.4l.1.8a2 2 0 0 1-2 2.3ZM274 59.9a2 2 0 0 1-2-2v-1.1a2 2 0 1 1 4 0v1a2 2 0 0 1-2 2Zm-160-.7a2 2 0 0 1-2-2.1v-.8c0-1.2 1-2 2-2a2 2 0 0 1 2.1 2v.8c0 1.1-1 2-2 2Zm159.5-8.4c-1 0-2-.8-2-1.9l-.2-.8a2 2 0 0 1 4.1-.4l.1.8a2 2 0 0 1-1.8 2.3h-.2Zm-159-.6h-.2a2 2 0 0 1-1.8-2.3v-.8a2 2 0 1 1 4 .5v.8a2 2 0 0 1-2 1.8ZM272 41.9a2 2 0 0 1-2-1.6l-.1-.8a2 2 0 0 1 4-.9c0 .3 0 .6.2.8a2 2 0 0 1-2 2.5Zm-156-.5h-.4a2 2 0 0 1-1.6-2.5l.2-.9a2 2 0 0 1 4 1l-.2.8a2 2 0 0 1-2 1.6Zm153.6-8.1a2 2 0 0 1-2-1.4l-.2-.8a2 2 0 1 1 4-1.3l.2.8a2 2 0 0 1-2 2.7Zm-151.1-.5a2 2 0 0 1-2-2.7l.3-.9a2 2 0 0 1 3.9 1.4l-.3.8a2 2 0 0 1-2 1.4ZM266.3 25a2 2 0 0 1-1.9-1.2l-.3-.7a2 2 0 0 1 3.7-1.8l.3.7a2 2 0 0 1-1.8 3Zm-144.4-.5a2 2 0 0 1-1.8-3l.3-.7a2 2 0 1 1 3.7 1.8l-.3.7a2 2 0 0 1-1.9 1.2ZM262 17a2 2 0 0 1-1.7-1l-.5-.6a2 2 0 1 1 3.5-2.2l.5.7A2 2 0 0 1 262 17Zm-135.8-.5a2 2 0 0 1-1.7-3.2l.4-.6a2 2 0 1 1 3.5 2.2l-.4.7c-.4.6-1 1-1.8 1ZM257 9.8a2 2 0 0 1-1.6-.8l-.5-.6a2 2 0 1 1 3.2-2.6l.5.6a2 2 0 0 1-1.6 3.4Zm-125.5-.5a2 2 0 0 1-1.6-3.3l.5-.7a2 2 0 1 1 3.2 2.6l-.5.6a2 2 0 0 1-1.6.8ZM251 3a2 2 0 0 1-1.5-.6l-.6-.5a2 2 0 0 1 3-3l.5.6A2 2 0 0 1 251 3Zm-113.6-.4a2 2 0 0 1-1.5-3.5l.6-.6a2 2 0 0 1 3 3l-.7.5a2 2 0 0 1-1.4.6Zm107-5.6a2 2 0 0 1-1.4-.5l-.6-.4a2 2 0 0 1 2.6-3.3l.6.6a2 2 0 0 1-1.3 3.6ZM144-3.4a2 2 0 0 1-1.3-3.6l.6-.5a2 2 0 0 1 2.6 3.2l-.7.5a2 2 0 0 1-1.2.4Zm93-4.8a2 2 0 0 1-1.1-.4l-.7-.4a2 2 0 0 1 2.2-3.5l.7.5a2 2 0 0 1-1.1 3.7Zm-85.7-.4a2 2 0 0 1-1.1-3.7l.7-.5a2 2 0 0 1 2.1 3.5l-.6.4a2 2 0 0 1-1.1.4Zm77.9-4a2 2 0 0 1-1-.3l-.7-.3a2 2 0 1 1 1.8-3.7l.8.3a2 2 0 0 1-1 4Zm-70.1-.3a2 2 0 0 1-.9-4l.7-.3a2 2 0 0 1 1.8 3.7l-.7.4a2 2 0 0 1-1 .2Zm61.8-3.3a2 2 0 1 1 0-4.3l.7.4a2 2 0 0 1-.7 4Zm-53.5-.1a2 2 0 0 1-.7-4l.8-.3a2 2 0 0 1 1.3 3.9l-.8.2a2 2 0 0 1-.6.1Zm45-2.4a58.6 58.6 0 0 1 .5-4 2 2 0 0 1-.6 4Zm-36.4-.1a2 2 0 0 1-.5-4.1l.8-.2a2 2 0 1 1 .9 4 31 31 0 0 0-1.2.3Zm27.5-1.5h-1a2 2 0 1 1 .4-4.2l.8.1a2 2 0 0 1-.2 4.1Zm-18.7 0a2 2 0 0 1-.2-4.1l.8-.1a2 2 0 1 1 .4 4l-.8.1h-.2Zm9.8-.5h-.9a2 2 0 0 1 0-4.2h.9c1.1 0 2 1 2 2.1s-1 2-2 2Z"/>
    <path stroke="#0F172A" stroke-linecap="round" stroke-linejoin="round" stroke-width="2" d="M166 31.3v30.6l26.8 12.3 26.7-12.3V31.3m-10.6 29.9 5.5-2.6"/>
    <path stroke="#0F172A" stroke-linecap="round" stroke-linejoin="round" stroke-width="2" d="M202.8 39v0l-10 4.6L166 31.3 192.8 19l26.7 12.3-13.8 6.3"/>
    <path stroke="#0F172A" stroke-linecap="round" stroke-linejoin="round" stroke-width="2" d="M166 31.3 192.8 19l26.7 12.3m-26.7 12.4v30"/>
    <path stroke="#0F172A" stroke-linecap="round" stroke-linejoin="round" stroke-width="2" d="m185.8 25 23.7 11v8l-6.7 3v-8l-23.7-11"/>
    <ellipse cx="216" cy="62.5" fill="#8BAFE4" rx="12" ry="12.5"/>
    <path fill="#466086" d="M221.5 61.3h-11v2.3h11v-2.3Z"/>
    <path fill="#466086" d="M217.2 57h-2.3v11h2.3V57Z"/>
    <path fill="#FFFFAD" d="M232.8 54.3c-.2 0-.4 0-.6-.2a.8.8 0 0 1 0-1.2l1.1-1a.8.8 0 0 1 1.2 1l-1.1 1.2-.6.2Zm4.6-4.6c-.2 0-.4 0-.6-.2a.8.8 0 0 1 0-1.2l1.1-1a.8.8 0 1 1 1.2 1l-1.1 1.2-.6.2Zm-3.4 0c-.3 0-.5 0-.7-.2l-1-1.1a.8.8 0 1 1 1-1.2l1.2 1.1a.8.8 0 0 1-.6 1.4Zm4.5 4.6c-.2 0-.4 0-.6-.2l-1-1.1a.8.8 0 1 1 1-1.2l1.2 1.1a.8.8 0 0 1-.6 1.4Zm-67.2 34.4a1.3 1.3 0 0 1-1-2.2l1.8-1.8a1.3 1.3 0 0 1 1.9 1.8l-1.8 1.8c-.3.3-.6.4-1 .4Zm7.3-7.4a1.3 1.3 0 0 1-.9-2.2l1.8-1.7a1.3 1.3 0 0 1 1.8 1.8l-1.8 1.8c-.2.2-.5.3-.9.3Zm-5.6 0c-.3 0-.6 0-.9-.3l-1.7-1.8a1.3 1.3 0 0 1 1.8-1.8L174 79a1.3 1.3 0 0 1-1 2.2Zm7.4 7.4c-.3 0-.7-.1-1-.4l-1.7-1.8a1.3 1.3 0 0 1 1.8-1.8l1.8 1.8a1.3 1.3 0 0 1-.9 2.2Z"/>
  </g>
  <defs>
    <clipPath id="a">
      <rect width="394" height="100" fill="#fff" rx="6"/>
    </clipPath>
  </defs>
</svg>