<svg xmlns="http://www.w3.org/2000/svg" fill="none" viewBox="0 0 256 160">
  <g clip-path="url(#a)">
    <path fill="#DDE1E8" d="M0 0h256v160H0z"/>
    <path fill="#D2DAE2" d="M81.7 179H-61V36.2L81.7 179Z"/>
    <path fill="#8096AC" d="M-1.4 163.2a1.8 1.8 0 1 0 0-3.6 1.8 1.8 0 0 0 0 3.6Zm10.5 0a1.8 1.8 0 1 0 0-3.6 1.8 1.8 0 0 0 0 3.6Zm10.5 0a1.8 1.8 0 1 0 0-3.6 1.8 1.8 0 0 0 0 3.6Zm10.5 0a1.8 1.8 0 1 0 0-3.6 1.8 1.8 0 0 0 0 3.6Zm10.5 0a1.8 1.8 0 1 0 0-3.6 1.8 1.8 0 0 0 0 3.6Zm10.5 0a1.8 1.8 0 1 0 0-3.6 1.8 1.8 0 0 0 0 3.6Zm12.4-1.8a1.8 1.8 0 1 1-3.7 0 1.8 1.8 0 0 1 3.7 0Zm8.7 1.8a1.8 1.8 0 1 0 0-3.6 1.8 1.8 0 0 0 0 3.6Zm10.5 0a1.8 1.8 0 1 0 0-3.6 1.8 1.8 0 0 0 0 3.6Zm10.5 0a1.8 1.8 0 1 0 0-3.6 1.8 1.8 0 0 0 0 3.6Zm-94.6-10.5a1.8 1.8 0 1 0 0-3.6 1.8 1.8 0 0 0 0 3.6Zm10.5 0a1.8 1.8 0 1 0 0-3.6 1.8 1.8 0 0 0 0 3.6Zm10.5 0a1.8 1.8 0 1 0 0-3.6 1.8 1.8 0 0 0 0 3.6Zm10.5 0a1.8 1.8 0 1 0 0-3.6 1.8 1.8 0 0 0 0 3.6Zm10.5 0a1.8 1.8 0 1 0 0-3.6 1.8 1.8 0 0 0 0 3.6Zm10.5 0a1.8 1.8 0 1 0 0-3.6 1.8 1.8 0 0 0 0 3.6Zm12.4-1.8a1.8 1.8 0 1 1-3.7 0 1.8 1.8 0 0 1 3.7 0Zm8.7 1.8a1.8 1.8 0 1 0 0-3.6 1.8 1.8 0 0 0 0 3.6Zm10.5 0a1.8 1.8 0 1 0 0-3.6 1.8 1.8 0 0 0 0 3.6Zm-84.1-10.5a1.8 1.8 0 1 0 0-3.6 1.8 1.8 0 0 0 0 3.6Zm10.5 0a1.8 1.8 0 1 0 0-3.6 1.8 1.8 0 0 0 0 3.6Zm10.5 0a1.8 1.8 0 1 0 0-3.6 1.8 1.8 0 0 0 0 3.6Zm10.5 0a1.8 1.8 0 1 0 0-3.6 1.8 1.8 0 0 0 0 3.6Zm10.5 0a1.8 1.8 0 1 0 0-3.6 1.8 1.8 0 0 0 0 3.6Zm10.5 0a1.8 1.8 0 1 0 0-3.6 1.8 1.8 0 0 0 0 3.6Zm12.4-1.8a1.8 1.8 0 1 1-3.7 0 1.8 1.8 0 0 1 3.7 0Zm8.7 1.8a1.8 1.8 0 1 0 0-3.6 1.8 1.8 0 0 0 0 3.6Zm-73.6-10.5a1.8 1.8 0 1 0 0-3.6 1.8 1.8 0 0 0 0 3.6Zm10.5 0a1.8 1.8 0 1 0 0-3.6 1.8 1.8 0 0 0 0 3.6Zm10.5 0a1.8 1.8 0 1 0 0-3.6 1.8 1.8 0 0 0 0 3.6Zm10.5 0a1.8 1.8 0 1 0 0-3.6 1.8 1.8 0 0 0 0 3.6Zm10.5 0a1.8 1.8 0 1 0 0-3.6 1.8 1.8 0 0 0 0 3.6Zm10.5 0a1.8 1.8 0 1 0 0-3.6 1.8 1.8 0 0 0 0 3.6Zm12.4-1.8a1.8 1.8 0 1 1-3.7 0 1.8 1.8 0 0 1 3.7 0Zm-64.9-8.7a1.8 1.8 0 1 0 0-3.7 1.8 1.8 0 0 0 0 3.7Zm10.5 0a1.8 1.8 0 1 0 0-3.7 1.8 1.8 0 0 0 0 3.7Zm10.5 0a1.8 1.8 0 1 0 0-3.7 1.8 1.8 0 0 0 0 3.7Zm10.5 0a1.8 1.8 0 1 0 0-3.7 1.8 1.8 0 0 0 0 3.7Zm10.5 0a1.8 1.8 0 1 0 0-3.7 1.8 1.8 0 0 0 0 3.7Zm10.5 0a1.8 1.8 0 1 0 0-3.7 1.8 1.8 0 0 0 0 3.7ZM.5 108.9a1.8 1.8 0 1 1-3.7 0 1.8 1.8 0 0 1 3.7 0Zm10.5 0a1.8 1.8 0 1 1-3.7 0 1.8 1.8 0 0 1 3.7 0Zm10.5 0a1.8 1.8 0 1 1-3.7 0 1.8 1.8 0 0 1 3.7 0Zm10.5 0a1.8 1.8 0 1 1-3.7 0 1.8 1.8 0 0 1 3.7 0Zm10.5 0a1.8 1.8 0 1 1-3.7 0 1.8 1.8 0 0 1 3.7 0Zm-43.9-8.7a1.8 1.8 0 1 0 0-3.7 1.8 1.8 0 0 0 0 3.7Zm10.5 0a1.8 1.8 0 1 0 0-3.7 1.8 1.8 0 0 0 0 3.7Zm10.5 0a1.8 1.8 0 1 0 0-3.7 1.8 1.8 0 0 0 0 3.7Zm10.5 0a1.8 1.8 0 1 0 0-3.7 1.8 1.8 0 0 0 0 3.7ZM-1.4 89.7a1.8 1.8 0 1 0 0-3.7 1.8 1.8 0 0 0 0 3.7Zm10.5 0a1.8 1.8 0 1 0 0-3.7 1.8 1.8 0 0 0 0 3.7Zm10.5 0a1.8 1.8 0 1 0 0-3.7 1.8 1.8 0 0 0 0 3.7Zm-21-10.5a1.8 1.8 0 1 0 0-3.7 1.8 1.8 0 0 0 0 3.7Zm10.5 0a1.8 1.8 0 1 0 0-3.7 1.8 1.8 0 0 0 0 3.7ZM-1.4 68.7a1.8 1.8 0 1 0 0-3.7 1.8 1.8 0 0 0 0 3.7Z"/>
    <g filter="url(#b)">
      <g filter="url(#c)">
        <path fill="#fff" d="M201 128.8c0 4-2 7.7-5 7.7H32.4c-3 0-5.4-3.8-5.4-7.7V23.1c0-4 2.4-7.1 5.4-7.1H196c3 0 5 3.2 5 7.1v105.7Z"/>
      </g>
      <path fill="#F1F1F1" d="M38 64c0-2.6 2.1-4.7 4.7-4.7h137.5c2.6 0 4.7 2.1 4.7 4.7v52.5c0 2.6-2.1 4.8-4.7 4.8H42.7a4.7 4.7 0 0 1-4.7-4.8V64Z"/>
      <path fill="#DADADA" d="M103.4 30.1h81.5v2.7h-81.5V30Zm0 6.2h81.5V39h-81.5v-2.7Zm0 6.2h55.2v2.7h-55.2v-2.7Z"/>
      <path fill="#4C4C4C" d="M42.5 37.2H44l1.5 2.8 1.5-2.8h1.6l-2.4 4.2v2.3h-1.4v-2.3l-2.3-4.2Zm12.4 3.2c0 .7-.2 1.3-.4 1.8-.3.5-.7 1-1.1 1.2a3 3 0 0 1-1.6.4 3 3 0 0 1-1.5-.4c-.5-.3-.8-.7-1.1-1.2-.3-.5-.4-1-.4-1.8 0-.7.1-1.3.4-1.8.3-.5.6-.9 1-1.1a3 3 0 0 1 1.6-.4 3 3 0 0 1 1.6.4c.4.2.8.6 1 1.1.3.5.5 1.1.5 1.8Zm-1.4 0c0-.4 0-.8-.2-1.1-.2-.3-.3-.6-.6-.7-.2-.2-.5-.3-.9-.3-.3 0-.6 0-.8.3-.3.1-.5.4-.6.7a3 3 0 0 0-.2 1.1c0 .5 0 .9.2 1.2.1.3.3.5.6.7.2.2.5.2.8.2.4 0 .7 0 1-.2l.5-.7.2-1.2Zm6.4-3.2h1.4v4.2c0 .5-.1.9-.4 1.2a2 2 0 0 1-.9.9c-.4.2-.9.3-1.4.3-.6 0-1-.1-1.4-.3-.4-.2-.7-.5-1-.9-.2-.3-.3-.7-.3-1.2v-4.2h1.4v4l.1.7.5.5.7.2.7-.2.4-.5.2-.6v-4.1Zm2.5 6.5v-6.5H65c.5 0 .9 0 1.2.2.4.2.6.5.8.8.2.3.3.7.3 1.1 0 .4-.1.8-.3 1.1-.2.3-.4.6-.8.7a3 3 0 0 1-1.3.3h-1.7v-1.1h1.5l.7-.1c.1-.1.3-.2.3-.4l.2-.5c0-.2 0-.4-.2-.5 0-.2-.2-.3-.3-.4h-1.7v5.3h-1.3Zm3.5-3 1.6 3H66l-1.6-3H66Zm-23 14v-6.5h1.3v5.3H47v1.2h-4.2Zm10.7-3.3c0 .7-.1 1.3-.4 1.8-.3.5-.6 1-1 1.2a3 3 0 0 1-1.6.4 3 3 0 0 1-1.6-.4 3 3 0 0 1-1-1.2c-.3-.5-.5-1-.5-1.8 0-.7.2-1.3.4-1.8.3-.5.7-.9 1.1-1.1a3 3 0 0 1 1.6-.4c.6 0 1 .1 1.5.4.5.2.8.6 1.1 1.1.3.5.4 1.1.4 1.8Zm-1.4 0c0-.4 0-.8-.2-1.1-.1-.3-.3-.6-.6-.7-.2-.2-.5-.3-.8-.3-.4 0-.6 0-.9.3l-.6.7a3 3 0 0 0-.2 1.1l.2 1.2.6.7c.3.2.5.2.9.2.3 0 .6 0 .8-.2.3-.2.5-.4.6-.7.2-.3.2-.7.2-1.2Zm6.7-1.1c0-.2 0-.3-.2-.4l-.2-.3-.4-.2h-.5c-.4 0-.6 0-.9.2l-.6.7-.2 1.1c0 .5 0 .9.2 1.2l.6.7c.2.2.5.2.9.2l.8-.1.5-.5.2-.7h.2-1.6v-1h2.7v.8c0 .6-.1 1-.4 1.5-.2.4-.5.7-1 1-.4.2-.9.3-1.4.3-.6 0-1.2-.2-1.6-.4-.5-.3-.8-.7-1.1-1.2-.3-.5-.4-1-.4-1.8 0-.5 0-1 .2-1.4l.7-1 1-.7 1.2-.2c.3 0 .7 0 1 .2.3 0 .6.2.8.4a2.4 2.4 0 0 1 1 1.6h-1.5Zm8.5 1.1c0 .7-.2 1.3-.4 1.8-.3.5-.6 1-1.1 1.2a3 3 0 0 1-1.6.4 3 3 0 0 1-1.5-.4c-.5-.3-.8-.7-1-1.2-.4-.5-.5-1-.5-1.8 0-.7.1-1.3.4-1.8.3-.5.6-.9 1-1.1a3 3 0 0 1 1.6-.4 3 3 0 0 1 1.6.4c.5.2.8.6 1 1.1.3.5.5 1.1.5 1.8Zm-1.4 0c0-.4 0-.8-.2-1.1-.1-.3-.3-.6-.6-.7-.2-.2-.5-.3-.9-.3-.3 0-.6 0-.8.3-.3.1-.5.4-.6.7a3 3 0 0 0-.2 1.1c0 .5 0 .9.2 1.2.1.3.3.5.6.7.2.2.5.2.8.2.4 0 .7 0 1-.2l.5-.7.2-1.2Z"/>
    </g>
    <g filter="url(#d)">
      <rect width="88.5" height="75.7" x="150" y="71.6" fill="#fff" rx="5"/>
    </g>
    <path fill="#F1F1F1" d="M158 94h33.5v19.1H158z"/>
    <path fill="#F1F1F1" d="M158 94h33.5v19.1H158z"/>
    <path fill="#F1F1F1" d="M158 94h33.5v19.1H158z"/>
    <path fill="#F1F1F1" d="M158 94h33.5v19.1H158z"/>
    <path fill="#F6F6F6" d="M158 94h33.5v19.1H158z"/>
    <rect width="33.2" height="18.8" x="197.2" y="94.1" fill="#EBEBEB" rx="1.9"/>
    <rect width="33.2" height="18.8" x="197.2" y="94.1" fill="#EBEBEB" rx="1.9"/>
    <rect width="33.2" height="18.8" x="197.2" y="94.1" fill="#EBEBEB" rx="1.9"/>
    <rect width="33.2" height="18.8" x="197.2" y="94.1" fill="#EBEBEB" rx="1.9"/>
    <rect width="33.2" height="18.8" x="197.2" y="94.1" fill="#DEF" rx="1.9"/>
    <rect width="33.2" height="18.8" x="197.2" y="94.1" stroke="#7596B7" stroke-width=".3" rx="1.9"/>
    <g stroke="#7596B7" stroke-linecap="round" stroke-linejoin="round" clip-path="url(#e)">
      <path d="M207.2 100c0-.3.3-.7.7-.7h3.8c.4 0 .7.4.7.8v2.3c0 .4-.3.7-.7.7H208a.7.7 0 0 1-.7-.7v-2.3Zm7.6 1c0-.4.3-.7.7-.7h3.3c.4 0 .7.3.7.7v5.2c0 .4-.3.7-.7.7h-3.3a.7.7 0 0 1-.7-.7V101Zm-6.6 4.7c0-.4.3-.7.7-.7h3.3c.4 0 .7.3.7.7v1.5c0 .3-.3.7-.7.7h-3.3a.7.7 0 0 1-.7-.7v-1.5Z"/>
    </g>
    <path fill="#EBEBEB" d="M158 118.7h33.5v19.1H158z"/>
    <path fill="#EBEBEB" d="M158 118.7h33.5v19.1H158z"/>
    <path fill="#EBEBEB" d="M158 118.7h33.5v19.1H158z"/>
    <path fill="#EBEBEB" d="M158 118.7h33.5v19.1H158z"/>
    <path fill="#F6F6F6" d="M158 118.7h33.5v19.1H158z"/>
    <path fill="#EBEBEB" d="M197 118.7h33.5v19.1H197z"/>
    <path fill="#EBEBEB" d="M197 118.7h33.5v19.1H197z"/>
    <path fill="#EBEBEB" d="M197 118.7h33.5v19.1H197z"/>
    <path fill="#EBEBEB" d="M197 118.7h33.5v19.1H197z"/>
    <path fill="#F6F6F6" d="M197 118.7h33.5v19.1H197z"/>
    <path fill="#7596B7" d="M209.3 84.4v-4.6h.8v2l1.9-2h1l-1.8 2 1.8 2.6h-1l-1.4-2-.5.6v1.4h-.8Zm-1-3.1h-.8a1 1 0 0 0-.4-.6 1 1 0 0 0-.3-.2 1.3 1.3 0 0 0-1.1.1l-.5.6-.1.9.1.9.5.5.7.2h.3a1 1 0 0 0 .6-.5l.2-.3h.8a1.8 1.8 0 0 1-.6 1.1l-.6.3-.8.2c-.4 0-.7-.1-1-.3a2 2 0 0 1-.8-.8c-.2-.4-.3-.8-.3-1.3s.1-1 .3-1.3a2 2 0 0 1 1.8-1.1l.8.1.6.3.4.5.2.7Zm-4.9.7c0 .6-.1 1-.3 1.4a2 2 0 0 1-1.9 1c-.4 0-.7 0-1-.2a2 2 0 0 1-.8-.8c-.2-.4-.3-.8-.3-1.3s0-1 .3-1.3a2 2 0 0 1 1.8-1.1c.4 0 .8 0 1.1.3.3.2.6.4.8.8.2.4.3.8.3 1.3Zm-.9 0c0-.3 0-.6-.2-.8 0-.3-.2-.4-.4-.6l-.7-.1-.6.1c-.2.2-.4.3-.5.6l-.2.9c0 .3 0 .6.2.9l.5.5.6.2c.3 0 .5 0 .7-.2l.4-.5c.2-.3.2-.6.2-1Zm-6.9 2.4v-4.6h.8v3.9h2v.7h-2.8Zm-4.4 0v-4.6h1.8l.8.1a1.1 1.1 0 0 1 .7 1l-.1.5-.3.4-.4.2.4.1.4.4.2.6c0 .3 0 .5-.2.7l-.5.4a2 2 0 0 1-1 .2h-1.8Zm.8-.7h1c.3 0 .5 0 .6-.2l.2-.4a.7.7 0 0 0-.4-.7 1 1 0 0 0-.4 0h-1v1.3Zm0-2h1.3l.2-.3.1-.3-.1-.5-.6-.1h-.9v1.2Zm-5.8 2.7h-1.6v-4.6h1.6c.5 0 .9 0 1.2.2l.8.8c.2.4.2.8.2 1.3s0 .9-.2 1.2c-.2.4-.5.6-.8.8-.3.2-.7.3-1.2.3Zm-.7-.7h.7c.3 0 .5 0 .8-.2l.4-.5c.2-.3.2-.6.2-1 0-.3 0-.6-.2-.8 0-.2-.2-.4-.4-.5-.2-.2-.5-.2-.8-.2h-.7v3.2Zm-4.1.7h-1.6v-4.6h1.6c.5 0 .9 0 1.2.2l.8.8.2 1.3c0 .5 0 .9-.2 1.2-.2.4-.5.6-.8.8-.3.2-.7.3-1.2.3Zm-.8-.7h.7c.4 0 .6 0 .8-.2.3-.1.4-.3.5-.5l.2-1c0-.3 0-.6-.2-.8 0-.2-.2-.4-.4-.5-.3-.2-.5-.2-.8-.2h-.8v3.2Zm-5 .7h-.9l1.6-4.6h1l1.7 4.6h-.9l-1.2-3.7-1.3 3.7Zm0-1.8h2.5v.7h-2.5v-.7Z"/>
    <rect width="9.4" height="11" x="162.5" y="98.5" stroke="#D7D7D7" rx="1.5"/>
    <rect width="9.4" height="11" x="162.5" y="122.4" stroke="#D7D7D7" rx="1.5"/>
    <rect width="9.4" height="11" x="176" y="122.4" stroke="#D7D7D7" rx="1.5"/>
    <path fill="#D9D9D9" d="M174.7 105.1h12.8v.8h-12.8zm0 3.2h12.8v.8h-12.8zm0-9.6h12.8v.8h-12.8zm0 3.2h12.8v.8h-12.8z"/>
    <rect width="24.5" height="3" x="201.5" y="122.4" stroke="#D7D7D7" rx=".5"/>
    <rect width="24.5" height="5.4" x="201.5" y="127.9" stroke="#D7D7D7" rx=".5"/>
    <circle cx="194.7" cy="59.5" r="18.5" fill="#D7EBFF"/>
    <g clip-path="url(#f)">
      <path stroke="#616161" stroke-linecap="round" stroke-linejoin="round" stroke-width="1.2" d="m198.5 58 1 1.5.8-.5.6-2.7 2-.1c.5 0 1-.2 1.4-.4a2.6 2.6 0 1 0-3.7-3.4l-1 1.8-2.7-.7-.8.5 1 1.6m1.4 2.3-8.8 5.6c-.3.2-.8.3-1.2.2-.4 0-.8 0-1.2.2l-1 .6-.5-.7 1-.7c.4-.2.7-.6.7-1 .1-.4.4-.7.7-1l8.9-5.5m1.4 2.3-1.4-2.3"/>
    </g>
  </g>
  <defs>
    <clipPath id="a">
      <path fill="#fff" d="M0 0h256v160H0z"/>
    </clipPath>
    <clipPath id="e">
      <path fill="#fff" d="M205.8 95.6h15v15h-15z"/>
    </clipPath>
    <clipPath id="f">
      <path fill="#fff" d="m188 45.5 20.4 4.6-4.7 20.4-20.4-4.6z"/>
    </clipPath>
    <filter id="b" width="181.5" height="128.1" x="23.2" y="16" color-interpolation-filters="sRGB" filterUnits="userSpaceOnUse">
      <feFlood flood-opacity="0" result="BackgroundImageFix"/>
      <feColorMatrix in="SourceAlpha" result="hardAlpha" values="0 0 0 0 0 0 0 0 0 0 0 0 0 0 0 0 0 0 127 0"/>
      <feOffset dy="3.8"/>
      <feGaussianBlur stdDeviation="1.9"/>
      <feComposite in2="hardAlpha" operator="out"/>
      <feColorMatrix values="0 0 0 0 0.061902 0 0 0 0 0.460113 0 0 0 0 0.946815 0 0 0 0.1 0"/>
      <feBlend in2="BackgroundImageFix" result="effect1_dropShadow_22_4164"/>
      <feBlend in="SourceGraphic" in2="effect1_dropShadow_22_4164" result="shape"/>
    </filter>
    <filter id="c" width="183.4" height="130" x="22.3" y="15.1" color-interpolation-filters="sRGB" filterUnits="userSpaceOnUse">
      <feFlood flood-opacity="0" result="BackgroundImageFix"/>
      <feColorMatrix in="SourceAlpha" result="hardAlpha" values="0 0 0 0 0 0 0 0 0 0 0 0 0 0 0 0 0 0 127 0"/>
      <feMorphology in="SourceAlpha" operator="dilate" radius=".9" result="effect1_dropShadow_22_4164"/>
      <feOffset dy="3.8"/>
      <feGaussianBlur stdDeviation="1.9"/>
      <feComposite in2="hardAlpha" operator="out"/>
      <feColorMatrix values="0 0 0 0 0.760077 0 0 0 0 0.858475 0 0 0 0 0.932274 0 0 0 0.37 0"/>
      <feBlend in2="BackgroundImageFix" result="effect1_dropShadow_22_4164"/>
      <feBlend in="SourceGraphic" in2="effect1_dropShadow_22_4164" result="shape"/>
    </filter>
    <filter id="d" width="98.5" height="85.7" x="145" y="70.6" color-interpolation-filters="sRGB" filterUnits="userSpaceOnUse">
      <feFlood flood-opacity="0" result="BackgroundImageFix"/>
      <feColorMatrix in="SourceAlpha" result="hardAlpha" values="0 0 0 0 0 0 0 0 0 0 0 0 0 0 0 0 0 0 127 0"/>
      <feMorphology in="SourceAlpha" operator="dilate" radius="1" result="effect1_dropShadow_22_4164"/>
      <feOffset dy="4"/>
      <feGaussianBlur stdDeviation="2"/>
      <feComposite in2="hardAlpha" operator="out"/>
      <feColorMatrix values="0 0 0 0 0.760077 0 0 0 0 0.858475 0 0 0 0 0.932274 0 0 0 0.37 0"/>
      <feBlend in2="BackgroundImageFix" result="effect1_dropShadow_22_4164"/>
      <feBlend in="SourceGraphic" in2="effect1_dropShadow_22_4164" result="shape"/>
    </filter>
  </defs>
</svg>