<svg xmlns="http://www.w3.org/2000/svg" fill="none" viewBox="0 0 157 77">
  <path fill="#3575D3" fill-opacity=".1" d="M135 74.3c2.9-3.3 4.4-7.7 4-12-.6-4.4-3.3-8.5-7.3-10.3-4.2-1.8-9-.8-13.4.7-6 2.2-11.7 4.3-18.1 5.5-5 1-8.8 0-11.5-4.8C81.5 40.4 124.4 0 74.4 0 54.2 0 11.1 7 11.1 52.4a41 41 0 0 0 7 24.2H133a16 16 0 0 0 2.2-2.3Z"/>
  <path fill="#3575D3" fill-opacity=".1" d="M124.1 30.6a15 15 0 1 0 0-30 15 15 0 0 0 0 30Z"/>
  <path fill="#fff" stroke="#000" d="M38 16h81c1 0 1.7.8 1.7 1.7v52.4c0 .6-.5 1-1.1 1H37.4c-.6 0-1-.4-1-1V17.7c0-.9.7-1.6 1.6-1.6Z"/>
  <mask id="a" fill="#fff">
    <path d="M119.6 72H37.4c-1 0-2-.9-2-2V17.8c0-1.4 1.2-2.5 2.6-2.5h81c1.4 0 2.5 1.1 2.5 2.5v52.4c0 1-.9 2-2 2ZM38 16c-1 0-1.8.7-1.8 1.7v52.4c0 .6.6 1.2 1.2 1.2h82.2c.6 0 1.2-.6 1.2-1.2V17.7c0-1-.8-1.8-1.8-1.8H38Z"/>
  </mask>
  <path fill="#121212" d="M119.6 72H37.4c-1 0-2-.9-2-2V17.8c0-1.4 1.2-2.5 2.6-2.5h81c1.4 0 2.5 1.1 2.5 2.5v52.4c0 1-.9 2-2 2ZM38 16c-1 0-1.8.7-1.8 1.7v52.4c0 .6.6 1.2 1.2 1.2h82.2c.6 0 1.2-.6 1.2-1.2V17.7c0-1-.8-1.8-1.8-1.8H38Z"/>
  <path fill="#000" d="M119.6 72v-1H37.4v2h82.2v-1Zm-82.2 0v-1a1 1 0 0 1-1-1h-2a3 3 0 0 0 3 3v-1Zm-2-2h1V17.8h-2v52.4h1Zm0-52.3h1c0-.8.7-1.5 1.6-1.5v-2c-2 0-3.5 1.6-3.5 3.5h1Zm2.6-2.5v1h81v-2H38v1Zm81 0v1c.9 0 1.5.7 1.5 1.5h2c0-2-1.5-3.5-3.5-3.5v1Zm2.5 2.5h-1v52.4h2V17.7h-1Zm0 52.4h-1c0 .5-.4 1-1 1v2a3 3 0 0 0 3-3h-1ZM38 15.9v-1a2.8 2.8 0 0 0-2.8 2.8h2c0-.4.4-.8.8-.8v-1Zm-1.8 1.8h-1v52.4h2V17.7h-1Zm0 52.4h-1c0 1.2 1 2.2 2.2 2.2v-2a.2.2 0 0 1-.2-.2h-1Zm1.2 1.2v1h82.2v-2H37.4v1Zm82.2 0v1c1.2 0 2.2-1 2.2-2.2h-2l-.2.2v1Zm1.2-1.2h1V17.7h-2v52.4h1Zm0-52.4h1c0-1.5-1.3-2.8-2.8-2.8v2c.4 0 .8.4.8.8h1Zm-1.8-1.8v-1H38v2h81v-1Z" mask="url(#a)"/>
  <path fill="#fff" stroke="#000" d="M39.9 21.1H117c.4 0 .6.3.6.6v46H39.3v-46c0-.3.2-.6.6-.6Z"/>
  <mask id="b" fill="#fff">
    <path d="M118.6 68.5H38.4V21.7c0-.8.7-1.4 1.5-1.4H117c.8 0 1.5.6 1.5 1.4v46.8Zm-79.4-.8h78.6v-46c0-.4-.3-.7-.7-.7H40c-.4 0-.7.3-.7.7v46Z"/>
  </mask>
  <path fill="#121212" d="M118.6 68.5H38.4V21.7c0-.8.7-1.4 1.5-1.4H117c.8 0 1.5.6 1.5 1.4v46.8Zm-79.4-.8h78.6v-46c0-.4-.3-.7-.7-.7H40c-.4 0-.7.3-.7.7v46Z"/>
  <path fill="#000" d="M38.4 68.5h-1v1h1v-1Zm80.2 0v1h1v-1h-1Zm-79.4-.8h-1v1h1v-1Zm78.6 0v1h1v-1h-1Zm.8.8v-1H38.4v2h80.2v-1Zm-80.2 0h1V21.7h-2v46.8h1Zm0-46.8h1c0-.2.2-.4.5-.4v-2c-1.4 0-2.5 1-2.5 2.4h1Zm1.5-1.4v1H117v-2H40v1Zm77.2 0v1c.3 0 .5.2.5.4h2c0-1.4-1.1-2.4-2.5-2.4v1Zm1.5 1.4h-1v46.8h2V21.7h-1Zm0 46.8v-1 2-1Zm-79.4-.8v1h78.6v-2H39.2v1Zm78.6 0h1v-46h-2v46h1Zm0-46h1c0-1-.7-1.7-1.7-1.7v2a.3.3 0 0 1-.3-.3h1Zm-.7-.7v-1H40v2h77v-1ZM40 21v-1c-1 0-1.7.8-1.7 1.7h2c0 .2-.2.3-.3.3v-1Zm-.7.7h-1v46h2v-46h-1Z" mask="url(#b)"/>
  <path fill="#121212" d="M78.5 18.9a.8.8 0 1 0 0-1.6.8.8 0 0 0 0 1.6Z"/>
  <path fill="#fff" stroke="#000" d="M26.3 72.2h104.4a4 4 0 0 1-3.9 4H30.2a4 4 0 0 1-4-4Z"/>
  <mask id="c" fill="#fff">
    <path d="M126.8 77H30.2a4.8 4.8 0 0 1-4.8-4.8c0-.5.4-1 .9-1h104.4c.5 0 1 .5 1 1 0 2.6-2.2 4.8-4.9 4.8ZM26.3 72l-.2.2a4 4 0 0 0 4 4h96.7a4 4 0 0 0 4-4V72H26.2Z"/>
  </mask>
  <path fill="#121212" d="M126.8 77H30.2a4.8 4.8 0 0 1-4.8-4.8c0-.5.4-1 .9-1h104.4c.5 0 1 .5 1 1 0 2.6-2.2 4.8-4.9 4.8ZM26.3 72l-.2.2a4 4 0 0 0 4 4h96.7a4 4 0 0 0 4-4V72H26.2Z"/>
  <path fill="#000" d="M126.8 77v-1H30.2v2h96.6v-1Zm-96.6 0v-1a3.8 3.8 0 0 1-3.8-3.8h-2c0 3.2 2.6 5.8 5.8 5.8v-1Zm-4.8-4.8h1-.1v-2c-1 0-2 1-2 2h1Zm.9-1v1h104.4v-2H26.3v1Zm104.4 0v1h2a2 2 0 0 0-2-2v1Zm1 1h-1a4 4 0 0 1-3.9 3.8v2c3.2 0 5.8-2.6 5.8-5.8h-1Zm-4.9 4.8v-1 2-1ZM26.3 72v-1c-.7 0-1.2.6-1.2 1.2h2c0 .5-.4.8-.8.8v-1Zm-.2.2h-1a5 5 0 0 0 5 5v-2a3 3 0 0 1-3-3h-1Zm4 4v1h96.7v-2H30.2v1Zm96.7 0v1a5 5 0 0 0 5-5h-2a3 3 0 0 1-3 3v1Zm4-4h1c0-.6-.4-1.2-1-1.2v2a.8.8 0 0 1-1-.8h1Zm0-.2v-1H26.2v2h104.4v-1Z" mask="url(#c)"/>
  <path fill="#121212" d="M85.7 74.5H71.3a2.9 2.9 0 0 1-2.9-2.8v-.4h20.2v.4c0 1.5-1.3 2.8-2.9 2.8ZM69.2 72c.2 1 1 1.8 2 1.8h14.5c1 0 2-.8 2.1-1.8H69.2Zm87.4 5H.4a.4.4 0 1 1 0-.7h156.2c.2 0 .4.1.4.3 0 .2-.2.4-.4.4ZM34 14.2l-.2-.1-1.7-1.7a.4.4 0 0 1 0-.5c.2-.2.4-.2.6 0l1.6 1.6a.4.4 0 0 1-.2.7Zm3.7-1.8-.1-.2V9.8a.4.4 0 1 1 .7 0v2.4a.4.4 0 0 1-.6.2Zm-5 5.6h-2.6a.4.4 0 1 1 0-.7h2.3a.4.4 0 0 1 .3.7Z"/>
  <path fill="#fff" stroke="#000" d="M58.3 10H99c.8 0 1.5.8 1.5 1.6v48.8H56.8V11.6c0-.8.7-1.5 1.5-1.5Z"/>
  <path fill="#121212" stroke="#000" d="M58.8 11.5a.2.2 0 1 1 0 .4.2.2 0 0 1 0-.4Zm2.9 0a.2.2 0 1 1 0 .4.2.2 0 0 1 0-.4Zm2.8 0a.2.2 0 1 1 0 .4.2.2 0 0 1 0-.4Z"/>
  <mask id="d" fill="#fff">
    <path d="M99 9.2H58.3c-1.3 0-2.3 1-2.3 2.4v49.7h45.3V11.6c0-1.3-1-2.4-2.3-2.4Zm-40.7.8H99c.9 0 1.6.7 1.6 1.6v1.8h-44v-1.8c0-1 .8-1.6 1.7-1.6Zm-1.6 50.5V14.1h43.9v46.4H56.7Z"/>
  </mask>
  <path fill="#121212" d="M99 9.2H58.3c-1.3 0-2.3 1-2.3 2.4v49.7h45.3V11.6c0-1.3-1-2.4-2.3-2.4Zm-40.7.8H99c.9 0 1.6.7 1.6 1.6v1.8h-44v-1.8c0-1 .8-1.6 1.7-1.6Zm-1.6 50.5V14.1h43.9v46.4H56.7Z"/>
  <path fill="#000" d="M56 61.3h-1v1h1v-1Zm45.3 0v1h1v-1h-1Zm-.7-48v1h1v-1h-1Zm-44 0h-1v1h1v-1Zm.1 47.2h-1v1h1v-1Zm0-46.4v-1h-1v1h1Zm43.9 0h1v-1h-1v1Zm0 46.4v1h1v-1h-1ZM99 9.2v-1H58.3v2H99v-1Zm-40.7 0v-1a3.4 3.4 0 0 0-3.3 3.4h2c0-.8.6-1.4 1.3-1.4v-1ZM56 11.6h-1v49.7h2V11.6h-1Zm0 49.7v1h45.3v-2H56v1Zm45.3 0h1V11.6h-2v49.7h1Zm0-49.7h1c0-1.9-1.5-3.4-3.3-3.4v2c.7 0 1.3.6 1.3 1.4h1Zm-43-1.6v1H99V9H58.3v1ZM99 10v1c.3 0 .6.2.6.6h2c0-1.5-1.2-2.6-2.6-2.6v1Zm1.6 1.6h-1v1.8h2v-1.8h-1Zm0 1.8v-1h-44v2h44v-1Zm-44 0h1v-1.8h-2v1.8h1Zm0-1.8h1c0-.4.4-.6.7-.6V9a2.6 2.6 0 0 0-2.6 2.6h1Zm1.7-1.6v1-2 1Zm-1.6 50.5h1V14.1h-2v46.4h1Zm0-46.4v1h43.9v-2H56.7v1Zm43.9 0h-1v46.4h2V14.1h-1Zm0 46.4v-1H56.7v2h43.9v-1Z" mask="url(#d)"/>
  <path fill="#3575D3" d="M68.7 17.9h-7c-.3 0-.5.2-.5.5v7c0 .3.2.5.5.5h7c.3 0 .5-.2.5-.5v-7c0-.3-.2-.5-.5-.5Z"/>
  <path fill="#fff" d="m66.7 20.4-1.9 2-1-1.2-.6.6 1.6 1.6 2.4-2.5-.5-.5Z"/>
  <path fill="#C0CEE6" d="M96 18.6H72.4v.8h23.8v-.8Zm0 1.5H72.4v.8h23.8V20Zm-9.4 1.5H72.3v.8h14.3v-.8Z"/>
  <path fill="#3575D3" d="M68.7 28.2h-7c-.3 0-.5.2-.5.5v7c0 .3.2.5.5.5h7c.3 0 .5-.2.5-.5v-7c0-.3-.2-.5-.5-.5Z"/>
  <path fill="#fff" d="m66.7 30.7-1.9 1.9-1-1-.6.4 1.6 1.7 2.4-2.5-.5-.5Z"/>
  <path fill="#C0CEE6" d="M96 29H72.4v.7h23.8v-.8Zm0 1.4H72.4v.8h23.8v-.8Zm-9.4 1.5H72.3v.7h14.3V32Z"/>
  <path fill="#3575D3" d="M68.7 38.5h-7c-.3 0-.5.2-.5.4V46c0 .3.2.5.5.5h7c.3 0 .5-.2.5-.5v-7c0-.3-.2-.5-.5-.5Z"/>
  <path fill="#fff" d="m66.7 41-1.9 1.9-1-1-.6.4 1.6 1.6 2.4-2.4-.5-.5Z"/>
  <path fill="#C0CEE6" d="M96 39.2H72.4v.8h23.8v-.8Zm0 1.5H72.4v.7h23.8v-.7Zm-9.4 1.5H72.3v.7h14.3v-.7Z"/>
  <path fill="#3575D3" d="M68.7 48.8h-7c-.3 0-.5.2-.5.4v7.1c0 .3.2.5.5.5h7c.3 0 .5-.2.5-.5v-7c0-.3-.2-.5-.5-.5Z"/>
  <path fill="#fff" d="m66.7 51.3-1.9 1.9-1-1-.6.4 1.6 1.6 2.4-2.4-.5-.5Z"/>
  <path fill="#C0CEE6" d="M96 49.5H72.4v.8h23.8v-.8Zm0 1.5H72.4v.7h23.8V51Zm-9.4 1.5H72.3v.7h14.3v-.7Z"/>
</svg>