<svg xmlns="http://www.w3.org/2000/svg" fill="none" viewBox="0 0 394 100">
  <g clip-path="url(#a)">
    <rect width="394" height="100" fill="#DDE1E8" rx="6"/>
    <rect width="180" height="104.6" x="107" y="-13" fill="#fff" rx="10.6"/>
    <path fill="#fff" stroke="#C9C9C9" stroke-width=".4" d="M117.8 60.8h25.4c1 0 2 .8 2 1.9V77c0 1-1 1.8-2 1.8h-25.4c-1 0-1.9-.8-1.9-1.8V62.7c0-1 .8-2 1.9-2Z"/>
    <path fill="#6C6BBD" d="M133.1 73H128v-9.3h5.2V73Z"/>
    <path fill="#D32011" d="M128.2 68.3a6 6 0 0 1 2.3-4.6 6 6 0 1 0 0 9.3 6 6 0 0 1-2.3-4.7Z"/>
    <path fill="#0099DF" d="M140.2 68.3a6 6 0 0 1-9.7 4.7 6 6 0 0 0 0-9.3 6 6 0 0 1 9.7 4.6Z"/>
    <path fill="#110F0D" d="M135 75.7h.2l-.2.3h-.2c-.2 0-.3.1-.3.4v.9h-.4v-1.6h.4v.2l.4-.2Zm-1.4.3h-.5v.7c0 .2 0 .3.2.3h.3l.1.2-.4.1c-.4 0-.6-.2-.6-.5V76h-.3v-.3h.3v-.5h.4v.5h.5v.3Zm-4.4.4c0-.3.2-.4.4-.4s.4.1.4.4h-.8Zm1.2.1c0-.5-.3-.8-.8-.8-.4 0-.8.3-.8.8s.4.8.9.8c.2 0 .4 0 .6-.2l-.2-.2-.4.1c-.2 0-.5 0-.5-.4h1.2Zm1.5-.4a1 1 0 0 0-.5-.1c-.2 0-.3 0-.3.2l.3.1h.1c.4.1.6.2.6.5s-.3.5-.7.5c-.3 0-.5 0-.7-.2l.1-.2.6.1c.2 0 .3 0 .3-.2l-.2-.1h-.2c-.4-.1-.6-.3-.6-.5 0-.3.3-.5.7-.5l.7.1-.2.3Zm4.3-.1h-.2l-.2.1v.2l-.1.2v.2a.5.5 0 0 0 .3.3h.4a.5.5 0 0 0 .2-.3v-.4a.5.5 0 0 0-.2-.3h-.2Zm0-.3a.9.9 0 0 1 .6.2.8.8 0 0 1 .2.6.8.8 0 0 1-.2.6l-.3.2h-.3a1 1 0 0 1-.4 0 .8.8 0 0 1-.5-.8.8.8 0 0 1 .3-.6l.2-.2h.4Zm-9 .8c0-.3.2-.5.5-.5s.4.2.4.5-.2.5-.4.5c-.3 0-.5-.2-.5-.5Zm1.3 0v-.8h-.4v.2a.6.6 0 0 0-.5-.2c-.4 0-.8.3-.8.8s.4.8.8.8c.2 0 .4 0 .5-.2v.2h.4v-.8Zm-2 .8v-1c0-.4-.2-.6-.6-.6-.2 0-.4 0-.6.3a.6.6 0 0 0-.5-.3c-.2 0-.3 0-.5.2v-.2h-.3v1.6h.3v-.9c0-.3.2-.4.4-.4.3 0 .4.1.4.4v.9h.3v-.9c0-.3.2-.4.4-.4.3 0 .4.1.4.4v.9h.3Z"/>
    <path fill="#fff" stroke="#C9C9C9" stroke-width=".4" d="M151.5 60.8h25c1 0 1.8.8 1.8 1.9V77c0 1-.9 1.8-1.9 1.8h-25c-1 0-1.8-.8-1.8-1.8V62.7c0-1 .9-2 1.9-2Z"/>
    <path fill="#FF5F00" d="M166.5 73h-5.1v-9.3h5.1V73Z"/>
    <path fill="#EB001B" d="M161.7 68.4a6 6 0 0 1 2.3-4.7 6 6 0 0 0-9.5 4.7 6 6 0 0 0 5.8 6 6 6 0 0 0 3.7-1.3 6 6 0 0 1-2.3-4.7Z"/>
    <path fill="#F79E1B" d="M173.4 68.4a6 6 0 0 1-5.8 6c-1.4 0-2.6-.5-3.6-1.3a6 6 0 0 0 0-9.4c1-.8 2.2-1.3 3.6-1.3a6 6 0 0 1 5.8 6Z"/>
    <path fill="#110F0D" d="M162.7 77c-.2 0-.2-.1-.2-.3v-.6h.5v-.3h-.5v-.5h-.4v.5h-.3v.3h.3v.6c0 .4.2.6.6.6l.4-.1-.1-.3h-.3Zm1.3-1.3c-.4 0-.7.3-.7.8s.3.8.7.8c.2 0 .5 0 .6-.2l-.1-.3-.5.2c-.2 0-.4 0-.4-.4h1.1c0-.6-.3-.9-.7-.9Zm-.4.7c0-.2.2-.4.4-.4s.3.1.4.4h-.8Zm-2.6 0c-.2 0-.3-.1-.3-.2s0-.2.3-.2l.4.1.2-.2-.6-.2c-.4 0-.7.2-.7.5 0 .2.2.4.6.4h.1l.3.2c0 .1-.1.2-.4.2l-.5-.1-.1.2.6.2c.5 0 .7-.2.7-.5s-.2-.4-.5-.4Zm-1.4-.4a.6.6 0 0 0-.4-.3c-.4 0-.8.3-.8.8s.4.8.8.8c.2 0 .3 0 .4-.2v.2h.4v-1.5h-.4v.1Zm-.4 1c-.3 0-.4-.2-.4-.5s.1-.5.4-.5c.3 0 .5.2.5.5s-.2.5-.5.5Zm-1.6-1.3c-.2 0-.4 0-.6.3a.5.5 0 0 0-.5-.3c-.1 0-.3 0-.4.2v-.1h-.3v1.5h.3v-.9c0-.2.1-.4.4-.4.2 0 .3.2.3.4v.9h.3v-.9c0-.2.2-.4.4-.4s.3.2.3.4v.9h.3v-1c0-.3-.2-.6-.5-.6Zm7.8.3v-.2h-.4v1.5h.4v-.9c0-.2 0-.4.3-.4h.2v-.2h-.1l-.4.1Zm6.4 0a.6.6 0 0 0-.5-.3c-.4 0-.7.3-.7.8s.3.8.7.8c.2 0 .4 0 .5-.2v.2h.3V75h-.3v.8Zm-.4 1c-.3 0-.5-.2-.5-.5s.2-.5.5-.5.4.2.4.5-.2.5-.4.5Zm-1.5-1v-.2h-.3v1.5h.3v-.9c0-.2 0-.4.3-.4h.2l.1-.2h-.2l-.4.1Zm-1.1 0a.6.6 0 0 0-.5-.3c-.4 0-.7.3-.7.8s.3.8.7.8c.2 0 .4 0 .5-.2v.2h.3v-1.5h-.3v.1Zm-.4 1c-.3 0-.5-.2-.5-.5s.2-.5.5-.5.4.2.4.5-.2.5-.4.5Zm-1.5-1c.1 0 .3 0 .4.2l.1-.3a.8.8 0 0 0-.5-.2c-.5 0-.8.4-.8.8 0 .5.3.8.8.8.2 0 .4 0 .5-.2l-.1-.2-.4.1c-.3 0-.5-.2-.5-.5s.2-.5.5-.5Z"/>
    <path fill="#fff" stroke="#C9C9C9" stroke-width=".4" d="M184.7 60.8H210c1 0 1.9.8 1.9 1.9V77c0 1-.8 1.8-1.9 1.8h-25.4c-1 0-2-.8-2-1.8V62.7c0-1 1-2 2-2Z"/>
    <path fill="#005CA8" d="M196 73h-1.6l1-6.3h1.7l-1 6.4Zm-3-6.3-1.6 4.4-.2-1-.6-2.8s0-.6-.8-.6h-2.6l1.7.8 1.5 5.6h1.7l2.7-6.4H193Zm13 6.3h1.6l-1.3-6.3h-1.4c-.6 0-.7.5-.7.5l-2.5 5.9h1.7l.4-1h2l.3 1Zm-1.8-2.2 1-2.4.4 2.4h-1.4Zm-2.4-2.6.2-1.4s-.7-.2-1.5-.2-2.7.3-2.7 2 2.3 1.7 2.3 2.6c0 .9-2.1.7-2.8.2l-.2 1.4s.7.4 1.8.4c1.2 0 2.9-.6 2.9-2.2s-2.3-1.8-2.3-2.6c0-.7 1.6-.6 2.3-.2Z"/>
    <path fill="#F6A723" d="m191.2 70.1-.6-2.8s0-.6-.8-.6h-2.6s1.2.3 2.5 1.3c1.1 1 1.5 2.1 1.5 2.1Z"/>
    <g filter="url(#b)">
      <rect width="27.9" height="18.2" x="218.1" y="60.9" fill="#fff" stroke="#D9D9D9" stroke-width=".4" rx="2.4"/>
      <path fill="#6461FC" d="M236 67.6c1 0 2 .8 2 2.4 0 1.8-.9 2.6-2 2.6-.4 0-.7-.2-1-.4v1.6l-1.4.3v-6.4h1.3v.3c.3-.2.6-.4 1.2-.4Zm-8.8 0h1.1v1.2h-1v2c0 .8.8.5 1 .5v1c-.2.2-.5.3-1 .3-.8 0-1.5-.6-1.5-1.4v-4.4l1.4-.3v1.2Zm-3.4 0c.5 0 1 0 1.5.2v1.3l-1.5-.3c-.3 0-.5 0-.5.3 0 .6 2.2.3 2.2 2 0 .9-.8 1.5-2 1.5-.5 0-1-.1-1.5-.4V71c.4.3 1 .5 1.5.5.3 0 .6-.1.6-.4 0-.6-2.2-.4-2.2-1.9 0-1 .8-1.5 2-1.5Zm16.7 0c1.4 0 2 1 2 2.5v.5h-2.8c.1.6.6.8 1.2.8.5 0 1-.1 1.4-.3v1.1c-.4.2-1 .4-1.6.4-1.4 0-2.4-.9-2.4-2.5 0-1.4.8-2.5 2.2-2.5ZM230 68c.3-.6 1-.5 1.2-.4v1.2c-.2 0-.8-.1-1.1.3v3.3h-1.4v-4.8h1.2l.1.4Zm3 4.4h-1.5v-4.8h1.5v4.8Zm2.6-3.7c-.3 0-.5.1-.6.3v2l.6.2c.6 0 1-.5 1-1.2 0-.8-.4-1.3-1-1.3Zm4.8-.1c-.4 0-.8.2-.8.9h1.5c0-.7-.4-1-.7-1ZM233 67l-1.5.2v-1l1.5-.4V67Z"/>
    </g>
    <g filter="url(#c)">
      <rect width="27.9" height="18.2" x="250.9" y="60.9" fill="#fff" stroke="#D9D9D9" stroke-width=".4" rx="2.4"/>
      <path fill="#253B80" fill-rule="evenodd" d="M258.7 72.5h-1.3l-.2.1-.5 3.1.1.1h.6l.2-.1.1-.9.2-.1h.4c.8 0 1.3-.4 1.5-1.2 0-.3 0-.5-.2-.7-.2-.2-.5-.3-1-.3Zm.1 1c0 .5-.4.5-.7.5h-.2l.1-.8h.8v.4Zm3.6 0h-.6v.4h-.1a1 1 0 0 0-.7-.3c-.7 0-1.3.5-1.4 1.2 0 .3 0 .6.2.9.2.2.5.3.8.3.5 0 .8-.4.8-.4v.2l.1.1h.5l.2-.1.3-2v-.1Zm-.8 1.2c0 .3-.3.6-.7.6l-.4-.2c0-.1-.1-.2 0-.4 0-.3.3-.6.6-.6.2 0 .3 0 .4.2l.1.4Zm3.4-1.1h.7v.1l-2 2.8-.1.1h-.6c-.1 0-.2-.1-.1-.2l.6-.8-.7-1.9.1-.1h.6l.2.1.4 1.1.8-1.1.2-.1Z" clip-rule="evenodd"/>
      <path fill="#179BD7" fill-rule="evenodd" d="m271.6 75.7.5-3.2h.9l-.5 3.2-.1.1h-.6v-.1Zm-4-3.2h-1.2l-.2.1-.5 3.1.1.1h.7l.2-1 .2-.1h.4c.8 0 1.3-.4 1.4-1.2.1-.3 0-.5-.1-.7-.2-.2-.5-.3-1-.3Zm.2 1c0 .5-.4.5-.7.5h-.2l.1-.8h.8v.4Zm3.6 0h-.6v.2l-.1.1c-.2-.2-.5-.3-.8-.3-.6 0-1.2.5-1.3 1.2 0 .3 0 .6.2.9.2.2.5.3.8.3.5 0 .8-.4.8-.4v.2l.1.1h.5l.2-.1.3-2v-.1Zm-.8 1.2c0 .3-.3.6-.7.6l-.4-.2c0-.1-.1-.2 0-.4 0-.3.2-.6.6-.6.2 0 .3 0 .4.2l.1.4Z" clip-rule="evenodd"/>
      <path fill="#253B80" d="m263.3 71.4.2-1h-2l1.1-7h2.9c1 0 1.6.2 2 .5l.2.6v.9l.2.1.3.2.2.6v.8l-.3.9-.6.6-.7.3h-1.1l-.5.2-.2.4-.3 1.7v.1h-1.4Z"/>
      <path fill="#179BD7" d="M268 65.3v.1c-.4 1.8-1.6 2.4-3.2 2.4h-.9c-.1 0-.3.2-.3.4l-.5 2.5v.7c-.1.1 0 .2.1.2h1.5c.1 0 .3 0 .3-.2v-.1l.3-1.7c0-.2.2-.3.4-.3h.2c1.4 0 2.5-.6 2.8-2.2.1-.6 0-1.2-.3-1.6l-.4-.2Z"/>
      <path fill="#222D65" d="M267.6 65.1a2.8 2.8 0 0 0-.3 0l-.7-.1h-2.4l-.2.3-.4 2.8.3-.3h.9c1.6 0 2.8-.6 3.2-2.4v-.1a2 2 0 0 0-.4-.2Z"/>
      <path fill="#253B80" d="m264 65.3.2-.3h2.4a4.7 4.7 0 0 1 1.1.1l.3.2c.1-.7 0-1.2-.4-1.6-.4-.4-1.1-.6-2-.6h-2.9c-.2 0-.3.1-.4.3l-1.1 7c0 .2 0 .3.2.3h1.7l.5-2.6.4-2.8Z"/>
    </g>
    <rect width="163.2" height="20.4" x="115.9" y="28.7" fill="#4C515A" rx="5.3"/>
    <path fill="#fff" d="M183.9 40.1V35h2c.4 0 .8.1 1 .3.3.1.5.3.7.6l.2.9c0 .3 0 .6-.2.9-.2.3-.4.5-.7.6-.3.2-.6.2-1 .2h-1.3v-.8h1.1l.5-.1.4-.4v-.9l-.4-.3H185v4h-1.1Zm5.6 0h-.7a1 1 0 0 1-.5-.4l-.1-.7.1-.5c0-.2.2-.3.3-.4l.5-.2h.5a13.9 13.9 0 0 0 .9-.2V37a.6.6 0 0 0-.5-.1l-.5.1-.2.3h-1a1.4 1.4 0 0 1 .9-1c.2-.2.5-.2.8-.2h.6l.5.3a1.1 1.1 0 0 1 .5 1V40h-1v-.5a1 1 0 0 1-.6.5h-.5Zm.3-.7h.4l.3-.3v-.8a2.5 2.5 0 0 1-.5.2h-.5l-.2.2v.6l.5.1Zm3.2 2.2a2.1 2.1 0 0 1-.7-.2l.3-.8.3.1h.3l.2-.3v-.2l-1.4-4h1.2l.8 2.9.8-2.9h1.1l-1.5 4.3-.3.6-.4.3-.7.2Zm9.5-6.7v5.2h-1l-2.2-3.2V40h-1.1v-5h1l2.1 3.3V35h1.2Zm2.6 5.3a2 2 0 0 1-1-.3c-.3-.1-.5-.4-.7-.7l-.2-1c0-.4 0-.8.2-1 .2-.4.4-.6.7-.8a2 2 0 0 1 1-.2c.4 0 .7 0 1 .2l.7.7.2 1c0 .5 0 .8-.2 1.1-.2.3-.4.6-.7.7a2 2 0 0 1-1 .3Zm0-.8.5-.2.2-.4.1-.6v-.6a1 1 0 0 0-.3-.4.7.7 0 0 0-.5-.2c-.2 0-.3 0-.4.2a1 1 0 0 0-.3.4l-.1.6v.6l.4.4.4.2Zm3.3.7-1-3.9h1l.6 2.6.7-2.6h1l.7 2.6.6-2.6h1l-1 4h-1l-.7-2.5-.7 2.4h-1.1Z"/>
    <path fill="#DADADA" d="M116.8 3H279v2.5H116.8V3Zm0 5.8H279v2.5H116.8V8.8Zm0 5.9h109.8v2.5H116.8v-2.5Z"/>
    <path fill="#D2DAE2" d="M142.7 163H0V20.2L142.7 163Z"/>
    <path fill="#8096AC" fill-opacity=".5" d="M19.4 92.9a1.8 1.8 0 1 1-3.6 0 1.8 1.8 0 0 1 3.6 0Zm10.6 0a1.8 1.8 0 1 1-3.7 0 1.8 1.8 0 0 1 3.6 0Zm10.4 0a1.8 1.8 0 1 1-3.6 0 1.8 1.8 0 0 1 3.6 0Zm10.6 0a1.8 1.8 0 1 1-3.7 0 1.8 1.8 0 0 1 3.7 0Zm10.5 0a1.8 1.8 0 1 1-3.7 0 1.8 1.8 0 0 1 3.7 0Zm10.5 0a1.8 1.8 0 1 1-3.7 0 1.8 1.8 0 0 1 3.7 0Zm10.5 0a1.8 1.8 0 1 1-3.7 0 1.8 1.8 0 0 1 3.7 0Zm10.5 0a1.8 1.8 0 1 1-3.7 0 1.8 1.8 0 0 1 3.7 0Zm10.5 0a1.8 1.8 0 1 1-3.7 0 1.8 1.8 0 0 1 3.7 0Zm-85.9-8.7a1.8 1.8 0 1 0 0-3.7 1.8 1.8 0 0 0 0 3.7Zm10.5 0a1.8 1.8 0 1 0 0-3.7 1.8 1.8 0 0 0 0 3.7Zm10.5 0a1.8 1.8 0 1 0 0-3.7 1.8 1.8 0 0 0 0 3.7Zm10.5 0a1.8 1.8 0 1 0 0-3.7 1.8 1.8 0 0 0 0 3.7Zm10.5 0a1.8 1.8 0 1 0 0-3.7 1.8 1.8 0 0 0 0 3.7Zm10.5 0a1.8 1.8 0 1 0 0-3.7 1.8 1.8 0 0 0 0 3.7Zm10.5 0a1.8 1.8 0 1 0 0-3.7 1.8 1.8 0 0 0 0 3.7Zm10.5 0a1.8 1.8 0 1 0 0-3.7 1.8 1.8 0 0 0 0 3.7ZM17.6 73.7a1.8 1.8 0 1 0 0-3.7 1.8 1.8 0 0 0 0 3.7Zm10.5 0a1.8 1.8 0 1 0 0-3.7 1.8 1.8 0 0 0 0 3.7Zm10.5 0a1.8 1.8 0 1 0 0-3.7 1.8 1.8 0 0 0 0 3.7Zm10.5 0a1.8 1.8 0 1 0 0-3.7 1.8 1.8 0 0 0 0 3.7Zm10.5 0a1.8 1.8 0 1 0 0-3.7 1.8 1.8 0 0 0 0 3.7Zm10.5 0a1.8 1.8 0 1 0 0-3.7 1.8 1.8 0 0 0 0 3.7Zm10.5 0a1.8 1.8 0 1 0 0-3.7 1.8 1.8 0 0 0 0 3.7Zm-63-10.5a1.8 1.8 0 1 0 0-3.7 1.8 1.8 0 0 0 0 3.7Zm10.5 0a1.8 1.8 0 1 0 0-3.7 1.8 1.8 0 0 0 0 3.7Zm10.5 0a1.8 1.8 0 1 0 0-3.7 1.8 1.8 0 0 0 0 3.7Zm10.5 0a1.8 1.8 0 1 0 0-3.7 1.8 1.8 0 0 0 0 3.7Zm10.5 0a1.8 1.8 0 1 0 0-3.7 1.8 1.8 0 0 0 0 3.7Zm10.5 0a1.8 1.8 0 1 0 0-3.7 1.8 1.8 0 0 0 0 3.7ZM17.6 52.7a1.8 1.8 0 1 0 0-3.7 1.8 1.8 0 0 0 0 3.7Zm10.5 0a1.8 1.8 0 1 0 0-3.7 1.8 1.8 0 0 0 0 3.7Zm10.5 0a1.8 1.8 0 1 0 0-3.7 1.8 1.8 0 0 0 0 3.7Zm10.5 0a1.8 1.8 0 1 0 0-3.7 1.8 1.8 0 0 0 0 3.7Zm10.5 0a1.8 1.8 0 1 0 0-3.7 1.8 1.8 0 0 0 0 3.7Zm-42-10.5a1.8 1.8 0 1 0 0-3.7 1.8 1.8 0 0 0 0 3.7Zm10.5 0a1.8 1.8 0 1 0 0-3.7 1.8 1.8 0 0 0 0 3.7Zm10.5 0a1.8 1.8 0 1 0 0-3.7 1.8 1.8 0 0 0 0 3.7Zm10.5 0a1.8 1.8 0 1 0 0-3.7 1.8 1.8 0 0 0 0 3.7ZM17.6 31.7a1.8 1.8 0 1 0 0-3.7 1.8 1.8 0 0 0 0 3.7Zm10.5 0a1.8 1.8 0 1 0 0-3.7 1.8 1.8 0 0 0 0 3.7Zm10.5 0a1.8 1.8 0 1 0 0-3.7 1.8 1.8 0 0 0 0 3.7Zm-21-10.5a1.8 1.8 0 1 0 0-3.7 1.8 1.8 0 0 0 0 3.7Zm10.5 0a1.8 1.8 0 1 0 0-3.7 1.8 1.8 0 0 0 0 3.7ZM17.6 10.7a1.8 1.8 0 1 0 0-3.7 1.8 1.8 0 0 0 0 3.7Z"/>
  </g>
  <defs>
    <filter id="b" width="63.8" height="54.1" x="200.1" y="42.9" color-interpolation-filters="sRGB" filterUnits="userSpaceOnUse">
      <feFlood flood-opacity="0" result="BackgroundImageFix"/>
      <feColorMatrix in="SourceAlpha" result="hardAlpha" values="0 0 0 0 0 0 0 0 0 0 0 0 0 0 0 0 0 0 127 0"/>
      <feOffset/>
      <feGaussianBlur stdDeviation="8.9"/>
      <feComposite in2="hardAlpha" operator="out"/>
      <feColorMatrix values="0 0 0 0 0 0 0 0 0 0 0 0 0 0 0 0 0 0 0.07 0"/>
      <feBlend in2="BackgroundImageFix" result="effect1_dropShadow_22_4483"/>
      <feBlend in="SourceGraphic" in2="effect1_dropShadow_22_4483" result="shape"/>
    </filter>
    <filter id="c" width="63.8" height="54.1" x="232.9" y="42.9" color-interpolation-filters="sRGB" filterUnits="userSpaceOnUse">
      <feFlood flood-opacity="0" result="BackgroundImageFix"/>
      <feColorMatrix in="SourceAlpha" result="hardAlpha" values="0 0 0 0 0 0 0 0 0 0 0 0 0 0 0 0 0 0 127 0"/>
      <feOffset/>
      <feGaussianBlur stdDeviation="8.9"/>
      <feComposite in2="hardAlpha" operator="out"/>
      <feColorMatrix values="0 0 0 0 0 0 0 0 0 0 0 0 0 0 0 0 0 0 0.07 0"/>
      <feBlend in2="BackgroundImageFix" result="effect1_dropShadow_22_4483"/>
      <feBlend in="SourceGraphic" in2="effect1_dropShadow_22_4483" result="shape"/>
    </filter>
    <clipPath id="a">
      <rect width="394" height="100" fill="#fff" rx="6"/>
    </clipPath>
  </defs>
</svg>