<svg xmlns="http://www.w3.org/2000/svg" fill="none" viewBox="0 0 256 156">
  <g clip-path="url(#a)">
    <rect width="654" height="166" x="-190" fill="#D4DFF0" rx="10"/>
    <path fill="#DCE7F7" d="M-190 0h654v265.6h-654z"/>
    <path fill="#F9FBB6" d="M17.5 52.2a2.4 2.4 0 1 1-4.9 0 2.4 2.4 0 0 1 4.9 0Zm20.8 0a2.4 2.4 0 1 1-4.9 0 2.4 2.4 0 0 1 4.9 0Zm20.7 0a2.4 2.4 0 1 1-4.8 0 2.4 2.4 0 0 1 4.9 0Zm20.9 0a2.4 2.4 0 1 1-4.9 0 2.4 2.4 0 0 1 4.9 0Zm20.7 0a2.4 2.4 0 1 1-4.8 0 2.4 2.4 0 0 1 4.8 0ZM17.5 73a2.4 2.4 0 1 1-4.9 0 2.4 2.4 0 0 1 4.9 0Zm20.8 0a2.4 2.4 0 1 1-4.9 0 2.4 2.4 0 0 1 4.9 0ZM59 73a2.4 2.4 0 1 1-4.8 0 2.4 2.4 0 0 1 4.9 0Zm20.9 0a2.4 2.4 0 1 1-4.9 0 2.4 2.4 0 0 1 4.9 0Zm20.7 0a2.4 2.4 0 1 1-4.8 0 2.4 2.4 0 0 1 4.8 0ZM17.5 93.7a2.4 2.4 0 1 1-4.9 0 2.4 2.4 0 0 1 4.9 0Zm20.8 0a2.4 2.4 0 1 1-4.9 0 2.4 2.4 0 0 1 4.9 0Zm20.7 0a2.4 2.4 0 1 1-4.8 0 2.4 2.4 0 0 1 4.9 0Zm20.9 0a2.4 2.4 0 1 1-4.9 0 2.4 2.4 0 0 1 4.9 0Zm20.7 0a2.4 2.4 0 1 1-4.8 0 2.4 2.4 0 0 1 4.8 0Zm-83.1 20.8a2.4 2.4 0 1 1-4.9 0 2.4 2.4 0 0 1 4.9 0Zm20.8 0a2.4 2.4 0 1 1-4.9 0 2.4 2.4 0 0 1 4.9 0Zm20.7 0a2.4 2.4 0 1 1-4.8 0 2.4 2.4 0 0 1 4.9 0Zm20.9 0a2.4 2.4 0 1 1-4.9 0 2.4 2.4 0 0 1 4.9 0Zm20.7 0a2.4 2.4 0 1 1-4.8 0 2.4 2.4 0 0 1 4.8 0Zm-83.1 20.8a2.4 2.4 0 1 1-4.9 0 2.4 2.4 0 0 1 4.9 0Zm20.8 0a2.4 2.4 0 1 1-4.9 0 2.4 2.4 0 0 1 4.9 0Zm18.3 2.4a2.4 2.4 0 1 0 0-4.9 2.4 2.4 0 0 0 0 4.9Zm23.3-2.4a2.4 2.4 0 1 1-4.9 0 2.4 2.4 0 0 1 4.9 0Zm18.3 2.4a2.4 2.4 0 1 0 0-4.9 2.4 2.4 0 0 0 0 4.9ZM17.5 156a2.4 2.4 0 1 1-4.9 0 2.4 2.4 0 0 1 4.9 0Zm20.8 0a2.4 2.4 0 1 1-4.9 0 2.4 2.4 0 0 1 4.9 0Zm18.3 2.4a2.4 2.4 0 1 0 0-4.9 2.4 2.4 0 0 0 0 4.9Zm23.3-2.4a2.4 2.4 0 1 1-4.9 0 2.4 2.4 0 0 1 4.9 0Zm18.3 2.4a2.4 2.4 0 1 0 0-4.9 2.4 2.4 0 0 0 0 4.9Zm66-134.9a2 2 0 1 1-4 0 2 2 0 0 1 4 0Zm16.8 0a2 2 0 1 1-4 0 2 2 0 0 1 4 0Zm16.8 0a2 2 0 1 1-4 0 2 2 0 0 1 4 0Zm16.8 0a2 2 0 1 1-4 0 2 2 0 0 1 4 0Zm16.8 0a2 2 0 1 1-4 0 2 2 0 0 1 4 0Zm16.8 0a2 2 0 1 1-4 0 2 2 0 0 1 4 0Zm-84 16.8a2 2 0 1 1-4 0 2 2 0 0 1 4 0Zm16.8 0a2 2 0 1 1-4 0 2 2 0 0 1 4 0Zm16.8 0a2 2 0 1 1-4 0 2 2 0 0 1 4 0Zm16.8 0a2 2 0 1 1-4 0 2 2 0 0 1 4 0Zm16.8 0a2 2 0 1 1-4 0 2 2 0 0 1 4 0Zm16.8 0a2 2 0 1 1-4 0 2 2 0 0 1 4 0Zm-84 16.7a2 2 0 1 1-4 0 2 2 0 0 1 4 0Zm16.8 0a2 2 0 1 1-4 0 2 2 0 0 1 4 0Zm16.8 0a2 2 0 1 1-4 0 2 2 0 0 1 4 0Zm16.8 0a2 2 0 1 1-4 0 2 2 0 0 1 4 0Zm16.8 0a2 2 0 1 1-4 0 2 2 0 0 1 4 0Zm16.8 0a2 2 0 1 1-4 0 2 2 0 0 1 4 0Zm-84 16.8a2 2 0 1 1-4 0 2 2 0 0 1 4 0Zm16.8 0a2 2 0 1 1-4 0 2 2 0 0 1 4 0Zm16.8 0a2 2 0 1 1-4 0 2 2 0 0 1 4 0Zm16.8 0a2 2 0 1 1-4 0 2 2 0 0 1 4 0Zm16.8 0a2 2 0 1 1-4 0 2 2 0 0 1 4 0Zm16.8 0a2 2 0 1 1-4 0 2 2 0 0 1 4 0Zm-86 18.8a2 2 0 1 0 0-4 2 2 0 0 0 0 4Zm16.8 0a2 2 0 1 0 0-4 2 2 0 0 0 0 4Zm18.8-2a2 2 0 1 1-4 0 2 2 0 0 1 4 0Zm16.8 0a2 2 0 1 1-4 0 2 2 0 0 1 4 0Zm14.8 2a2 2 0 1 0 0-4 2 2 0 0 0 0 4Zm18.8-2a2 2 0 1 1-4 0 2 2 0 0 1 4 0Zm-86 18.7a2 2 0 1 0 0-4 2 2 0 0 0 0 4Zm16.8 0a2 2 0 1 0 0-4 2 2 0 0 0 0 4Zm18.8-2a2 2 0 1 1-4 0 2 2 0 0 1 4 0Zm16.8 0a2 2 0 1 1-4 0 2 2 0 0 1 4 0Zm14.8 2a2 2 0 1 0 0-4 2 2 0 0 0 0 4Zm18.8-2a2 2 0 1 1-4 0 2 2 0 0 1 4 0Zm-86 18.9a2 2 0 1 0 0-4 2 2 0 0 0 0 4Zm16.8 0a2 2 0 1 0 0-4 2 2 0 0 0 0 4Zm18.8-2a2 2 0 1 1-4 0 2 2 0 0 1 4 0Zm16.8 0a2 2 0 1 1-4 0 2 2 0 0 1 4 0Zm14.8 2a2 2 0 1 0 0-4 2 2 0 0 0 0 4Zm18.8-2a2 2 0 1 1-4 0 2 2 0 0 1 4 0Z"/>
    <circle cx="157.8" cy="45.6" r="22.4" fill="#C8D9F1"/>
    <circle cx="176" cy="85.5" r="17.4" fill="#B8C4D5"/>
    <path stroke="#0F172A" stroke-linecap="round" stroke-linejoin="round" stroke-width="1.2" d="m184.1 79.8-8-4.7-8.2 4.7m16.2 0-8 4.7m8-4.7v8l-8 4.8m-8.2-12.8 8.1 4.7m-8-4.7v8l8 4.8m0-8.1v8.1"/>
    <path stroke="#0F172A" stroke-linecap="round" stroke-linejoin="round" stroke-width="1.3" d="M147.7 40.1h20.2m-20.2.8h20.2m-17.1 5.4h6.2m-6.2 2.4h3m-3.8 3h15.6c1.2 0 2.3-1 2.3-2.3V38.5c0-1.2-1-2.3-2.3-2.3H150c-1.3 0-2.3 1-2.3 2.3v11c0 1.2 1 2.3 2.3 2.3Z"/>
    <path stroke="#0F172A" stroke-linecap="round" stroke-linejoin="round" stroke-width="2.5" d="M80.7 44.4h5.2c1.9 0 3.5 1.3 4 3.1l1.5 5.4m8.9 33.5c-6.2 0-11.2 5-11.2 11.2h58.8m-47.6-11.2h41.9c4.2-8.6 7.8-17.5 11-26.6a224.5 224.5 0 0 0-61.8-7m8.9 33.6-9-33.5m3.4 56a2.8 2.8 0 1 1-5.6 0 2.8 2.8 0 0 1 5.6 0Zm47.6 0a2.8 2.8 0 1 1-5.6 0 2.8 2.8 0 0 1 5.6 0Z"/>
  </g>
  <defs>
    <clipPath id="a">
      <rect width="654" height="166" x="-190" fill="#fff" rx="10"/>
    </clipPath>
  </defs>
</svg>