<svg xmlns="http://www.w3.org/2000/svg" fill="none" viewBox="0 0 394 100">
  <g clip-path="url(#a)">
    <rect width="394" height="100" fill="#E6EAEF" rx="6"/>
    <path fill="#D2DAE2" fill-opacity=".3" d="M142.7 163H0V20.2L142.7 163Z"/>
    <path fill="#8096AC" fill-opacity=".3" d="M19.4 92.9a1.8 1.8 0 1 1-3.6 0 1.8 1.8 0 0 1 3.6 0Zm10.6 0a1.8 1.8 0 1 1-3.7 0 1.8 1.8 0 0 1 3.6 0Zm10.4 0a1.8 1.8 0 1 1-3.6 0 1.8 1.8 0 0 1 3.6 0Zm10.6 0a1.8 1.8 0 1 1-3.7 0 1.8 1.8 0 0 1 3.7 0Zm10.5 0a1.8 1.8 0 1 1-3.7 0 1.8 1.8 0 0 1 3.7 0Zm10.5 0a1.8 1.8 0 1 1-3.7 0 1.8 1.8 0 0 1 3.7 0Zm10.5 0a1.8 1.8 0 1 1-3.7 0 1.8 1.8 0 0 1 3.7 0Zm10.5 0a1.8 1.8 0 1 1-3.7 0 1.8 1.8 0 0 1 3.7 0Zm10.5 0a1.8 1.8 0 1 1-3.7 0 1.8 1.8 0 0 1 3.7 0Zm-85.9-8.7a1.8 1.8 0 1 0 0-3.7 1.8 1.8 0 0 0 0 3.7Zm10.5 0a1.8 1.8 0 1 0 0-3.7 1.8 1.8 0 0 0 0 3.7Zm10.5 0a1.8 1.8 0 1 0 0-3.7 1.8 1.8 0 0 0 0 3.7Zm10.5 0a1.8 1.8 0 1 0 0-3.7 1.8 1.8 0 0 0 0 3.7Zm10.5 0a1.8 1.8 0 1 0 0-3.7 1.8 1.8 0 0 0 0 3.7Zm10.5 0a1.8 1.8 0 1 0 0-3.7 1.8 1.8 0 0 0 0 3.7Zm10.5 0a1.8 1.8 0 1 0 0-3.7 1.8 1.8 0 0 0 0 3.7Zm10.5 0a1.8 1.8 0 1 0 0-3.7 1.8 1.8 0 0 0 0 3.7ZM17.6 73.7a1.8 1.8 0 1 0 0-3.7 1.8 1.8 0 0 0 0 3.7Zm10.5 0a1.8 1.8 0 1 0 0-3.7 1.8 1.8 0 0 0 0 3.7Zm10.5 0a1.8 1.8 0 1 0 0-3.7 1.8 1.8 0 0 0 0 3.7Zm10.5 0a1.8 1.8 0 1 0 0-3.7 1.8 1.8 0 0 0 0 3.7Zm10.5 0a1.8 1.8 0 1 0 0-3.7 1.8 1.8 0 0 0 0 3.7Zm10.5 0a1.8 1.8 0 1 0 0-3.7 1.8 1.8 0 0 0 0 3.7Zm10.5 0a1.8 1.8 0 1 0 0-3.7 1.8 1.8 0 0 0 0 3.7Zm-63-10.5a1.8 1.8 0 1 0 0-3.7 1.8 1.8 0 0 0 0 3.7Zm10.5 0a1.8 1.8 0 1 0 0-3.7 1.8 1.8 0 0 0 0 3.7Zm10.5 0a1.8 1.8 0 1 0 0-3.7 1.8 1.8 0 0 0 0 3.7Zm10.5 0a1.8 1.8 0 1 0 0-3.7 1.8 1.8 0 0 0 0 3.7Zm10.5 0a1.8 1.8 0 1 0 0-3.7 1.8 1.8 0 0 0 0 3.7Zm10.5 0a1.8 1.8 0 1 0 0-3.7 1.8 1.8 0 0 0 0 3.7ZM17.6 52.7a1.8 1.8 0 1 0 0-3.7 1.8 1.8 0 0 0 0 3.7Zm10.5 0a1.8 1.8 0 1 0 0-3.7 1.8 1.8 0 0 0 0 3.7Zm10.5 0a1.8 1.8 0 1 0 0-3.7 1.8 1.8 0 0 0 0 3.7Zm10.5 0a1.8 1.8 0 1 0 0-3.7 1.8 1.8 0 0 0 0 3.7Zm10.5 0a1.8 1.8 0 1 0 0-3.7 1.8 1.8 0 0 0 0 3.7Zm-42-10.5a1.8 1.8 0 1 0 0-3.7 1.8 1.8 0 0 0 0 3.7Zm10.5 0a1.8 1.8 0 1 0 0-3.7 1.8 1.8 0 0 0 0 3.7Zm10.5 0a1.8 1.8 0 1 0 0-3.7 1.8 1.8 0 0 0 0 3.7Zm10.5 0a1.8 1.8 0 1 0 0-3.7 1.8 1.8 0 0 0 0 3.7ZM17.6 31.7a1.8 1.8 0 1 0 0-3.7 1.8 1.8 0 0 0 0 3.7Zm10.5 0a1.8 1.8 0 1 0 0-3.7 1.8 1.8 0 0 0 0 3.7Zm10.5 0a1.8 1.8 0 1 0 0-3.7 1.8 1.8 0 0 0 0 3.7Zm-21-10.5a1.8 1.8 0 1 0 0-3.7 1.8 1.8 0 0 0 0 3.7Zm10.5 0a1.8 1.8 0 1 0 0-3.7 1.8 1.8 0 0 0 0 3.7ZM17.6 10.7a1.8 1.8 0 1 0 0-3.7 1.8 1.8 0 0 0 0 3.7Z"/>
    <path fill="url(#b)" d="M88-21.2h218v157.9H88z"/>
    <rect width="39.3" height="39.3" x="272" y="8" fill="#00BE28" rx="10.7"/>
    <path fill="#fff" d="M292.1 25.2v14l7.1-14h-7Zm-1.4 4.8V16l-7.1 14h7Z"/>
  </g>
  <defs>
    <clipPath id="a">
      <rect width="394" height="100" fill="#fff" rx="6"/>
    </clipPath>
    <pattern id="b" width="1" height="1" patternContentUnits="objectBoundingBox">
      <use transform="scale(0)"/>
    </pattern>
  </defs>
</svg>