<svg xmlns="http://www.w3.org/2000/svg" fill="none" viewBox="0 0 394 100">
  <rect width="394" height="100" fill="#DDE1E8" rx="6"/>
  <path fill="#F9FBB6" d="M96 13.7c0 .5-.7.9-1.5.9s-1.5-.4-1.5-1c0-.4.7-.8 1.5-.8s1.4.4 1.4.9Zm12.5 0c0 .5-.7.9-1.5.9s-1.5-.4-1.5-1c0-.4.7-.8 1.5-.8s1.5.4 1.5.9Zm12.5 0c0 .5-.7.9-1.5.9s-1.4-.4-1.4-1c0-.4.6-.8 1.4-.8.8 0 1.5.4 1.5.9Zm12.5 0c0 .5-.6.9-1.5.9-.8 0-1.4-.4-1.4-1 0-.4.6-.8 1.4-.8.9 0 1.5.4 1.5.9Zm12.5 0c0 .5-.6.9-1.4.9-.8 0-1.5-.4-1.5-1 0-.4.7-.8 1.5-.8s1.4.4 1.4.9Zm12.6 0c0 .5-.7.9-1.5.9s-1.5-.4-1.5-1c0-.4.7-.8 1.5-.8s1.5.4 1.5.9Zm12.4 0c0 .5-.6.9-1.4.9-.8 0-1.4-.4-1.4-1 0-.4.6-.8 1.4-.8.8 0 1.5.4 1.5.9Zm-75 7.8c0 .5-.7 1-1.5 1s-1.5-.5-1.5-1 .7-1 1.5-1 1.4.5 1.4 1Zm12.5 0c0 .5-.7 1-1.5 1s-1.5-.5-1.5-1 .7-1 1.5-1 1.5.5 1.5 1Zm12.5 0c0 .5-.7 1-1.5 1s-1.4-.5-1.4-1 .6-1 1.4-1c.8 0 1.5.5 1.5 1Zm12.5 0c0 .5-.6 1-1.5 1-.8 0-1.4-.5-1.4-1s.6-1 1.4-1c.9 0 1.5.5 1.5 1Zm12.5 0c0 .5-.6 1-1.4 1-.8 0-1.5-.5-1.5-1s.7-1 1.5-1 1.4.5 1.4 1Zm12.6 0c0 .5-.7 1-1.5 1s-1.5-.5-1.5-1 .7-1 1.5-1 1.5.5 1.5 1Zm12.4 0c0 .5-.6 1-1.4 1-.8 0-1.4-.5-1.4-1s.6-1 1.4-1c.8 0 1.5.5 1.5 1Zm-75 7.8c0 .5-.7.9-1.5.9s-1.5-.4-1.5-1c0-.4.7-.8 1.5-.8s1.4.4 1.4.9Zm12.5 0c0 .5-.7.9-1.5.9s-1.5-.4-1.5-1c0-.4.7-.8 1.5-.8s1.5.4 1.5.9Zm12.5 0c0 .5-.7.9-1.5.9s-1.4-.4-1.4-1c0-.4.6-.8 1.4-.8.8 0 1.5.4 1.5.9Zm12.5 0c0 .5-.6.9-1.5.9-.8 0-1.4-.4-1.4-1 0-.4.6-.8 1.4-.8.9 0 1.5.4 1.5.9Zm12.5 0c0 .5-.6.9-1.4.9-.8 0-1.5-.4-1.5-1 0-.4.7-.8 1.5-.8s1.4.4 1.4.9Zm12.6 0c0 .5-.7.9-1.5.9s-1.5-.4-1.5-1c0-.4.7-.8 1.5-.8s1.5.4 1.5.9Zm12.4 0c0 .5-.6.9-1.4.9-.8 0-1.4-.4-1.4-1 0-.4.6-.8 1.4-.8.8 0 1.5.4 1.5.9Zm-75 7.8c0 .5-.7 1-1.5 1s-1.5-.5-1.5-1 .7-1 1.5-1 1.4.5 1.4 1Zm12.5 0c0 .5-.7 1-1.5 1s-1.5-.5-1.5-1 .7-1 1.5-1 1.5.5 1.5 1Zm12.5 0c0 .5-.7 1-1.5 1s-1.4-.5-1.4-1 .6-1 1.4-1c.8 0 1.5.5 1.5 1Zm12.5 0c0 .5-.6 1-1.5 1-.8 0-1.4-.5-1.4-1s.6-1 1.4-1c.9 0 1.5.5 1.5 1Zm12.5 0c0 .5-.6 1-1.4 1-.8 0-1.5-.5-1.5-1s.7-1 1.5-1 1.4.5 1.4 1Zm12.6 0c0 .5-.7 1-1.5 1s-1.5-.5-1.5-1 .7-1 1.5-1 1.5.5 1.5 1Zm12.4 0c0 .5-.6 1-1.4 1-.8 0-1.4-.5-1.4-1s.6-1 1.4-1c.8 0 1.5.5 1.5 1Zm-76.5 8.7c.8 0 1.4-.4 1.4-.9s-.6-.9-1.4-.9c-.8 0-1.5.4-1.5 1 0 .4.7.8 1.5.8Zm12.5 0c.8 0 1.5-.4 1.5-.9s-.7-.9-1.5-.9-1.5.4-1.5 1c0 .4.7.8 1.5.8Zm14-.8c0 .4-.7.8-1.5.8s-1.4-.4-1.4-.9.6-.9 1.4-.9c.8 0 1.5.4 1.5 1Zm12.5 0c0 .4-.6.8-1.5.8-.8 0-1.4-.4-1.4-.9s.6-.9 1.4-.9c.9 0 1.5.4 1.5 1Zm11.1.8c.8 0 1.4-.4 1.4-.9s-.6-.9-1.4-.9c-.8 0-1.5.4-1.5 1 0 .4.7.8 1.5.8Zm14-.8c0 .4-.7.8-1.5.8s-1.5-.4-1.5-.9.7-.9 1.5-.9 1.5.4 1.5 1Zm11 .8c.8 0 1.5-.4 1.5-.9s-.7-.9-1.5-.9-1.4.4-1.4 1c0 .4.6.8 1.4.8Zm-75.1 7.8c.8 0 1.4-.4 1.4-.9s-.6-1-1.4-1c-.8 0-1.5.5-1.5 1s.7 1 1.5 1Zm12.5 0c.8 0 1.5-.4 1.5-.9s-.7-1-1.5-1-1.5.5-1.5 1 .7 1 1.5 1Zm14-.9c0 .5-.7 1-1.5 1s-1.4-.5-1.4-1 .6-1 1.4-1c.8 0 1.5.5 1.5 1Zm12.5 0c0 .5-.6 1-1.5 1-.8 0-1.4-.5-1.4-1s.6-1 1.4-1c.9 0 1.5.5 1.5 1Zm11.1.9c.8 0 1.4-.4 1.4-.9s-.6-1-1.4-1c-.8 0-1.5.5-1.5 1s.7 1 1.5 1Zm14-.9c0 .5-.7 1-1.5 1s-1.5-.5-1.5-1 .7-1 1.5-1 1.5.5 1.5 1Zm11 .9c.8 0 1.5-.4 1.5-.9s-.7-1-1.5-1-1.4.5-1.4 1 .6 1 1.4 1Zm-75.1 7.9c.8 0 1.4-.4 1.4-1 0-.4-.6-.8-1.4-.8-.8 0-1.5.4-1.5.9s.7.9 1.5.9Zm12.5 0c.8 0 1.5-.4 1.5-1 0-.4-.7-.8-1.5-.8s-1.5.4-1.5.9.7.9 1.5.9Zm14-.9c0 .5-.7.9-1.5.9s-1.4-.4-1.4-1c0-.4.6-.8 1.4-.8.8 0 1.5.4 1.5.9Zm12.5 0c0 .5-.6.9-1.5.9-.8 0-1.4-.4-1.4-1 0-.4.6-.8 1.4-.8.9 0 1.5.4 1.5.9Zm11.1.9c.8 0 1.4-.4 1.4-1 0-.4-.6-.8-1.4-.8-.8 0-1.5.4-1.5.9s.7.9 1.5.9Zm14-.9c0 .5-.7.9-1.5.9s-1.5-.4-1.5-1c0-.4.7-.8 1.5-.8s1.5.4 1.5.9Zm11 .9c.8 0 1.5-.4 1.5-1 0-.4-.7-.8-1.5-.8s-1.4.4-1.4.9.6.9 1.4.9Zm39.8-58.6c0 .4-.6.7-1.2.7-.7 0-1.2-.3-1.2-.7 0-.4.5-.8 1.2-.8.6 0 1.2.4 1.2.8Zm10.1 0c0 .4-.5.7-1.2.7s-1.2-.3-1.2-.7c0-.4.5-.8 1.2-.8s1.2.4 1.2.8Zm10.1 0c0 .4-.5.7-1.2.7-.6 0-1.2-.3-1.2-.7 0-.4.6-.8 1.2-.8.7 0 1.2.4 1.2.8Zm10.1 0c0 .4-.5.7-1.2.7-.6 0-1.1-.3-1.1-.7 0-.4.5-.8 1.1-.8.7 0 1.2.4 1.2.8Zm10.1 0c0 .4-.5.7-1.1.7-.7 0-1.2-.3-1.2-.7 0-.4.5-.8 1.2-.8.6 0 1.1.4 1.1.8Zm10.2 0c0 .4-.6.7-1.2.7-.7 0-1.2-.3-1.2-.7 0-.4.5-.8 1.2-.8.6 0 1.2.4 1.2.8Zm10 0c0 .4-.5.7-1.1.7-.7 0-1.2-.3-1.2-.7 0-.4.5-.8 1.2-.8.6 0 1.2.4 1.2.8Zm-60.6 6.3c0 .4-.6.7-1.2.7-.7 0-1.2-.3-1.2-.7 0-.4.5-.8 1.2-.8.6 0 1.2.4 1.2.8Zm10.1 0c0 .4-.5.7-1.2.7s-1.2-.3-1.2-.7c0-.4.5-.8 1.2-.8s1.2.4 1.2.8Zm10.1 0c0 .4-.5.7-1.2.7-.6 0-1.2-.3-1.2-.7 0-.4.6-.8 1.2-.8.7 0 1.2.4 1.2.8Zm10.1 0c0 .4-.5.7-1.2.7-.6 0-1.1-.3-1.1-.7 0-.4.5-.8 1.1-.8.7 0 1.2.4 1.2.8Zm10.1 0c0 .4-.5.7-1.1.7-.7 0-1.2-.3-1.2-.7 0-.4.5-.8 1.2-.8.6 0 1.1.4 1.1.8Zm10.2 0c0 .4-.6.7-1.2.7-.7 0-1.2-.3-1.2-.7 0-.4.5-.8 1.2-.8.6 0 1.2.4 1.2.8Zm10 0c0 .4-.5.7-1.1.7-.7 0-1.2-.3-1.2-.7 0-.4.5-.8 1.2-.8.6 0 1.2.4 1.2.8Zm-60.6 6.3c0 .4-.6.7-1.2.7-.7 0-1.2-.3-1.2-.7 0-.4.5-.8 1.2-.8.6 0 1.2.4 1.2.8Zm10.1 0c0 .4-.5.7-1.2.7s-1.2-.3-1.2-.7c0-.4.5-.8 1.2-.8s1.2.4 1.2.8Zm10.1 0c0 .4-.5.7-1.2.7-.6 0-1.2-.3-1.2-.7 0-.4.6-.8 1.2-.8.7 0 1.2.4 1.2.8Zm10.1 0c0 .4-.5.7-1.2.7-.6 0-1.1-.3-1.1-.7 0-.4.5-.8 1.1-.8.7 0 1.2.4 1.2.8Zm10.1 0c0 .4-.5.7-1.1.7-.7 0-1.2-.3-1.2-.7 0-.4.5-.8 1.2-.8.6 0 1.1.4 1.1.8Zm10.2 0c0 .4-.6.7-1.2.7-.7 0-1.2-.3-1.2-.7 0-.4.5-.8 1.2-.8.6 0 1.2.4 1.2.8Zm10 0c0 .4-.5.7-1.1.7-.7 0-1.2-.3-1.2-.7 0-.4.5-.8 1.2-.8.6 0 1.2.4 1.2.8Zm-60.6 6.3c0 .4-.6.7-1.2.7-.7 0-1.2-.3-1.2-.7 0-.4.5-.7 1.2-.7.6 0 1.2.3 1.2.7Zm10.1 0c0 .4-.5.7-1.2.7s-1.2-.3-1.2-.7c0-.4.5-.7 1.2-.7s1.2.3 1.2.7Zm10.1 0c0 .4-.5.7-1.2.7-.6 0-1.2-.3-1.2-.7 0-.4.6-.7 1.2-.7.7 0 1.2.3 1.2.7Zm10.1 0c0 .4-.5.7-1.2.7-.6 0-1.1-.3-1.1-.7 0-.4.5-.7 1.1-.7.7 0 1.2.3 1.2.7Zm10.1 0c0 .4-.5.7-1.1.7-.7 0-1.2-.3-1.2-.7 0-.4.5-.7 1.2-.7.6 0 1.1.3 1.1.7Zm10.2 0c0 .4-.6.7-1.2.7-.7 0-1.2-.3-1.2-.7 0-.4.5-.7 1.2-.7.6 0 1.2.3 1.2.7Zm10 0c0 .4-.5.7-1.1.7-.7 0-1.2-.3-1.2-.7 0-.4.5-.7 1.2-.7.6 0 1.2.3 1.2.7Zm-61.8 7.1c.6 0 1.2-.4 1.2-.8s-.6-.7-1.2-.7c-.7 0-1.2.3-1.2.7 0 .4.5.8 1.2.8Zm10.1 0c.7 0 1.2-.4 1.2-.8s-.5-.7-1.2-.7-1.2.3-1.2.7c0 .4.5.8 1.2.8Zm11.3-.8c0 .4-.5.8-1.2.8-.6 0-1.2-.4-1.2-.8s.6-.7 1.2-.7c.7 0 1.2.3 1.2.7Zm10.1 0c0 .4-.5.8-1.2.8-.6 0-1.1-.4-1.1-.8s.5-.7 1.1-.7c.7 0 1.2.3 1.2.7Zm9 .8c.6 0 1.1-.4 1.1-.8s-.5-.7-1.1-.7c-.7 0-1.2.3-1.2.7 0 .4.5.8 1.2.8Zm11.3-.8c0 .4-.6.8-1.2.8-.7 0-1.2-.4-1.2-.8s.5-.7 1.2-.7c.6 0 1.2.3 1.2.7Zm8.9.8c.6 0 1.2-.4 1.2-.8s-.6-.7-1.2-.7c-.7 0-1.2.3-1.2.7 0 .4.5.8 1.2.8Zm-60.7 6.2c.6 0 1.2-.3 1.2-.7 0-.4-.6-.7-1.2-.7-.7 0-1.2.3-1.2.7 0 .4.5.7 1.2.7Zm10.1 0c.7 0 1.2-.3 1.2-.7 0-.4-.5-.7-1.2-.7s-1.2.3-1.2.7c0 .4.5.7 1.2.7Zm11.3-.7c0 .4-.5.7-1.2.7-.6 0-1.2-.3-1.2-.7 0-.4.6-.7 1.2-.7.7 0 1.2.3 1.2.7Zm10.1 0c0 .4-.5.7-1.2.7-.6 0-1.1-.3-1.1-.7 0-.4.5-.7 1.1-.7.7 0 1.2.3 1.2.7Zm9 .7c.6 0 1.1-.3 1.1-.7 0-.4-.5-.7-1.1-.7-.7 0-1.2.3-1.2.7 0 .4.5.7 1.2.7Zm11.3-.7c0 .4-.6.7-1.2.7-.7 0-1.2-.3-1.2-.7 0-.4.5-.7 1.2-.7.6 0 1.2.3 1.2.7Zm8.9.7c.6 0 1.2-.3 1.2-.7 0-.4-.6-.7-1.2-.7-.7 0-1.2.3-1.2.7 0 .4.5.7 1.2.7Zm-60.7 6.4c.6 0 1.2-.3 1.2-.7 0-.4-.6-.8-1.2-.8-.7 0-1.2.4-1.2.8s.5.7 1.2.7Zm10.1 0c.7 0 1.2-.3 1.2-.7 0-.4-.5-.8-1.2-.8s-1.2.4-1.2.8.5.7 1.2.7Zm11.3-.7c0 .4-.5.7-1.2.7-.6 0-1.2-.3-1.2-.7 0-.4.6-.8 1.2-.8.7 0 1.2.4 1.2.8Zm10.1 0c0 .4-.5.7-1.2.7-.6 0-1.1-.3-1.1-.7 0-.4.5-.8 1.1-.8.7 0 1.2.4 1.2.8Zm9 .7c.6 0 1.1-.3 1.1-.7 0-.4-.5-.8-1.1-.8-.7 0-1.2.4-1.2.8s.5.7 1.2.7Zm11.3-.7c0 .4-.6.7-1.2.7-.7 0-1.2-.3-1.2-.7 0-.4.5-.8 1.2-.8.6 0 1.2.4 1.2.8Zm8.9.7c.6 0 1.2-.3 1.2-.7 0-.4-.6-.8-1.2-.8-.7 0-1.2.4-1.2.8s.5.7 1.2.7Z"/>
  <g filter="url(#a)">
    <rect width="138.4" height="79.1" x="116" y="13" fill="#fff" rx="5"/>
  </g>
  <rect width="57.7" height="67.2" x="121.5" y="17.7" fill="#F1F1F1" rx="5"/>
  <g stroke="#ACACAC" stroke-linecap="round" stroke-linejoin="round" stroke-width="1.5" clip-path="url(#b)">
    <path d="M165.3 38H134a3.2 3.2 0 0 0-3.2 3.1v22c0 1.8 1.4 3.3 3.2 3.3h31.4c1.8 0 3.3-1.5 3.3-3.2v-22c0-1.8-1.5-3.3-3.3-3.3Zm3.3 11.3h-15.1m-19.7 0h-3.1m22.6 8.3h10m-10 3.1h10m-19.7 5.7V54.3m0-8.3v-8"/>
    <path d="M137.8 57a10 10 0 0 0 4.8-5.3l1-2.4 1 2.4c1 2.3 2.7 4.2 5 5.3"/>
    <path d="M148.5 52.6c1.8 0 3.3-1.5 3.3-3.3 0-1.8-1.5-3.3-3.3-3.3-1.9 0-4.9 3.3-4.9 3.3s3 3.3 4.9 3.3Z"/>
    <path d="M138.8 52.6a3.3 3.3 0 0 1-3.3-3.3c0-1.8 1.5-3.3 3.3-3.3 1.9 0 4.8 3.3 4.8 3.3s-3 3.3-4.8 3.3Z"/>
  </g>
  <path fill="#000" d="M192 52.6V38.1h.9v14.5h-1Zm2.7-9.9c-.1-.5-.3-.9-.7-1.2-.4-.2-1-.4-1.5-.4l-1.2.2-.7.6a1.3 1.3 0 0 0 0 1.4c0 .2.2.3.4.4l.6.3.7.3 1.1.2 1.3.4c.4.2.8.4 1 .7.4.3.7.6.9 1l.2 1.3a3.2 3.2 0 0 1-2 3c-.7.3-1.4.4-2.4.4a6 6 0 0 1-2.3-.4 4 4 0 0 1-1.6-1.2c-.4-.6-.6-1.2-.6-2h2c.1.4.2.7.5 1 .2.3.5.5.8.6.4.2.8.2 1.2.2.5 0 .9 0 1.2-.2.4-.1.6-.3.8-.6.2-.2.3-.5.3-.8 0-.3 0-.6-.2-.8a2 2 0 0 0-.8-.5l-1-.4-1.4-.3a5 5 0 0 1-2.3-1.1c-.5-.5-.8-1.2-.8-2 0-.7.2-1.3.6-1.8.3-.5.9-1 1.5-1.2a5 5 0 0 1 4.4 0c.6.3 1 .7 1.4 1.2.4.5.6 1 .6 1.7h-2Zm8.6-3.2v11.6h-2v-9.5h-.1l-2.8 1.7v-2l3-1.8h2Zm7.3 11.9a4 4 0 0 1-2.4-.7 4.5 4.5 0 0 1-1.6-2.1c-.3-1-.5-2-.5-3.3a8 8 0 0 1 .6-3.2c.3-.9.8-1.6 1.5-2a4 4 0 0 1 2.4-.8c1 0 1.7.3 2.4.8.7.4 1.2 1.1 1.5 2 .4.9.6 2 .6 3.2 0 1.3-.2 2.4-.6 3.3-.3.9-.8 1.6-1.5 2a4 4 0 0 1-2.4.8Zm0-1.8a2 2 0 0 0 1.7-1c.4-.8.7-1.9.7-3.3a8 8 0 0 0-.3-2.3 3 3 0 0 0-.9-1.4c-.3-.3-.7-.5-1.2-.5a2 2 0 0 0-1.7 1 8.3 8.3 0 0 0-.4 5.6c.2.6.5 1 .8 1.4.4.3.8.5 1.3.5Zm10.7 1.8a4 4 0 0 1-2.4-.7 4.5 4.5 0 0 1-1.6-2.1 10.9 10.9 0 0 1 0-6.5 4 4 0 0 1 1.6-2 4 4 0 0 1 2.4-.8 4 4 0 0 1 2.4.8 4 4 0 0 1 1.5 2c.4.9.5 2 .5 3.2 0 1.3-.1 2.4-.5 3.3a4 4 0 0 1-1.5 2 4 4 0 0 1-2.4.8Zm0-1.8a2 2 0 0 0 1.7-1c.4-.8.6-1.9.6-3.3a8 8 0 0 0-.3-2.3 3 3 0 0 0-.8-1.4c-.3-.3-.8-.5-1.2-.5-.8 0-1.3.4-1.8 1-.4.8-.6 1.9-.6 3.2 0 1 .1 1.7.3 2.4.2.6.5 1 .8 1.4.4.3.8.5 1.3.5Zm-.3-19.1a1.8 1.8 0 0 1-1.7-1.1c-.2-.4-.2-.9-.2-1.4 0-.5 0-1 .2-1.3l.7-.8a2 2 0 0 1 1-.3l.8.1.4.4.2.3v-2.3h1v6.3h-1v-.7l-.2.3a1.3 1.3 0 0 1-1.2.5Zm.2-.8c.3 0 .5 0 .7-.2.2-.1.3-.3.4-.6l.2-.9c0-.3 0-.6-.2-.8 0-.3-.2-.5-.4-.6-.2-.2-.4-.2-.7-.2-.2 0-.5 0-.7.2l-.4.6-.1.8.1.9.4.6.7.2Zm-5.2.7v-4.7h1v.7l.5-.6.7-.2a4 4 0 0 1 .4 0v.9h-1a1 1 0 0 0-.6 1v2.9h-1Zm-3.5.1a2 2 0 0 1-.8-.2c-.2 0-.4-.2-.6-.5l-.2-.7c0-.3 0-.5.2-.7 0-.2.2-.3.4-.4l.6-.2.6-.2a1381.1 1381.1 0 0 0 1.1-.1l.1-.3c0-.3 0-.5-.2-.6-.1-.2-.4-.3-.7-.3l-.7.2-.4.5-.8-.2a1.7 1.7 0 0 1 1.1-1 2.7 2.7 0 0 1 1.4-.1c.2 0 .4 0 .6.2l.5.5.2.8v3.2h-1v-.6l-.2.3-.5.3-.7.1Zm.2-.7c.3 0 .5 0 .7-.2a1 1 0 0 0 .5-1v-.5h-.2a3 3 0 0 1-.6.2 37.2 37.2 0 0 0-.8.1l-.4.3v.4c0 .2 0 .4.2.5l.6.2Zm-2.7-3.7h-.9a1.5 1.5 0 0 0-.6-1l-.5-.2a2 2 0 0 0-1.5.2l-.7.8a3 3 0 0 0-.2 1.3c0 .6 0 1 .2 1.3.2.4.4.7.7.8.3.2.6.3 1 .3h.5l.5-.3a1.5 1.5 0 0 0 .6-1h1c0 .4-.2.7-.3 1a2.4 2.4 0 0 1-1.4 1l-1 .2c-.5 0-1-.1-1.4-.4-.4-.3-.8-.6-1-1.1-.3-.5-.4-1-.4-1.8 0-.6.1-1.2.4-1.7a2.7 2.7 0 0 1 2.5-1.5l.9.1a2.5 2.5 0 0 1 1.4 1.1l.3 1Zm-8.6-.4v.7h-2.6v-.7h2.6Zm-1.9-1.2h1v4.9l.2.2h.6l.2.8h-.2a1.8 1.8 0 0 1-1 0l-.6-.5-.2-.7v-4.7Zm-1.3 1.2v.7h-2.6v-.7h2.6Zm-1.9 4.7v-5.3c0-.3 0-.5.2-.7l.5-.5.7-.1a2.1 2.1 0 0 1 .8.1l-.2.8h-.2l-.3-.1-.4.1-.2.5v5.2h-.9Zm-2.5 0v-4.7h1v4.7h-1Zm.5-5.5-.4-.1a.5.5 0 0 1-.2-.4c0-.2 0-.3.2-.4l.4-.2c.1 0 .3 0 .4.2l.2.4c0 .1 0 .3-.2.4l-.4.1Zm-2.9 1.1a2 2 0 0 0-.3-.4 1.5 1.5 0 0 0-.8-.7 1.9 1.9 0 0 0-1.5.2c-.3.2-.6.5-.7.8a3 3 0 0 0-.3 1.3c0 .5.1 1 .3 1.3.1.4.4.7.7.8.3.2.6.3 1 .3.3 0 .6 0 .9-.2l.6-.6.2-.9h.2-1.8v-.7h2.5v.7c0 .5-.1 1-.4 1.4a2 2 0 0 1-.9.9c-.4.2-.8.3-1.3.3a2.7 2.7 0 0 1-2.5-1.5c-.3-.5-.4-1-.4-1.8 0-.5 0-1 .2-1.3.1-.4.3-.8.6-1 .2-.3.5-.5.9-.7l1.1-.2 1 .1a2.6 2.6 0 0 1 1.3 1.1l.3.9h-1Z"/>
  <rect width="59.9" height="16.4" x="187.7" y="66.5" fill="#353535" stroke="#272727" rx="2.5"/>
  <path fill="#fff" d="M209.9 79v-6.6h2.6c.5 0 .9 0 1.2.2l.7.6c.2.3.3.5.3.9 0 .2 0 .5-.2.7l-.4.4-.6.3a1.5 1.5 0 0 1 1.2.8l.2.8c0 .4 0 .7-.2 1l-.8.6c-.3.2-.7.2-1.2.2h-2.8Zm1.3-1.2h1.2c.4 0 .6 0 .8-.2l.3-.6-.1-.5-.4-.3-.6-.1h-1.2v1.7Zm0-2.7h1.6l.3-.3.2-.5-.3-.6a1 1 0 0 0-.7-.2h-1v1.6Zm8.7-2.7h1.3v4.2c0 .5 0 1-.3 1.3-.2.4-.5.6-1 .8-.4.2-.8.3-1.4.3-.5 0-1 0-1.4-.3-.4-.2-.7-.4-1-.8-.2-.4-.3-.8-.3-1.3v-4.2h1.4v4.1c0 .3 0 .5.2.7 0 .2.2.3.4.5l.7.1.7-.1.5-.5.2-.7v-4.1Zm2.1 0h1.5l1.5 2.8h.1l1.5-2.8h1.5l-2.3 4.2V79h-1.4v-2.3l-2.4-4.2Z"/>
  <path fill="#EBEBEB" d="M187.2 52.5h60.9v2.4h-60.9zm0 4.8h60.9v2.4h-60.9z"/>
  <defs>
    <clipPath id="b">
      <path fill="#fff" d="M130.2 37.5H169v29.3h-38.8z"/>
    </clipPath>
    <filter id="a" width="148.4" height="89.1" x="111" y="7" color-interpolation-filters="sRGB" filterUnits="userSpaceOnUse">
      <feFlood flood-opacity="0" result="BackgroundImageFix"/>
      <feColorMatrix in="SourceAlpha" result="hardAlpha" values="0 0 0 0 0 0 0 0 0 0 0 0 0 0 0 0 0 0 127 0"/>
      <feMorphology in="SourceAlpha" operator="dilate" radius="5" result="effect1_dropShadow_22_3640"/>
      <feOffset dy="-1"/>
      <feComposite in2="hardAlpha" operator="out"/>
      <feColorMatrix values="0 0 0 0 0.760077 0 0 0 0 0.858475 0 0 0 0 0.932274 0 0 0 0.13 0"/>
      <feBlend in2="BackgroundImageFix" result="effect1_dropShadow_22_3640"/>
      <feBlend in="SourceGraphic" in2="effect1_dropShadow_22_3640" result="shape"/>
    </filter>
  </defs>
</svg>