<svg xmlns="http://www.w3.org/2000/svg" fill="none" viewBox="0 0 256 160">
  <g clip-path="url(#a)">
    <rect width="256" height="160" fill="#DDE1E8" rx="6"/>
    <path fill="#F9FBB6" d="M15 18.3c0 .7-1 1.3-2.1 1.3-1.2 0-2.1-.6-2.1-1.3 0-.7 1-1.3 2-1.3 1.2 0 2.1.6 2.1 1.3Zm17.7 0c0 .7-.9 1.3-2 1.3-1.2 0-2.1-.6-2.1-1.3 0-.7 1-1.3 2-1.3 1.2 0 2.1.6 2.1 1.3Zm17.8 0c0 .7-1 1.3-2 1.3-1.2 0-2.1-.6-2.1-1.3 0-.7.9-1.3 2-1.3 1.2 0 2.1.6 2.1 1.3Zm17.8 0c0 .7-1 1.3-2 1.3-1.2 0-2.1-.6-2.1-1.3 0-.7.9-1.3 2-1.3 1.2 0 2.1.6 2.1 1.3Zm17.8 0c0 .7-1 1.3-2 1.3-1.2 0-2.2-.6-2.2-1.3 0-.7 1-1.3 2.1-1.3 1.2 0 2.1.6 2.1 1.3Zm17.8 0c0 .7-1 1.3-2 1.3-1.2 0-2.2-.6-2.2-1.3 0-.7 1-1.3 2.1-1.3 1.2 0 2 .6 2 1.3ZM15 29.4c0 .7-1 1.3-2.1 1.3-1.2 0-2.1-.6-2.1-1.3 0-.7 1-1.3 2-1.3 1.2 0 2.1.6 2.1 1.3Zm17.7 0c0 .7-.9 1.3-2 1.3-1.2 0-2.1-.6-2.1-1.3 0-.7 1-1.3 2-1.3 1.2 0 2.1.6 2.1 1.3Zm17.8 0c0 .7-1 1.3-2 1.3-1.2 0-2.1-.6-2.1-1.3 0-.7.9-1.3 2-1.3 1.2 0 2.1.6 2.1 1.3Zm17.8 0c0 .7-1 1.3-2 1.3-1.2 0-2.1-.6-2.1-1.3 0-.7.9-1.3 2-1.3 1.2 0 2.1.6 2.1 1.3Zm17.8 0c0 .7-1 1.3-2 1.3-1.2 0-2.2-.6-2.2-1.3 0-.7 1-1.3 2.1-1.3 1.2 0 2.1.6 2.1 1.3Zm17.8 0c0 .7-1 1.3-2 1.3-1.2 0-2.2-.6-2.2-1.3 0-.7 1-1.3 2.1-1.3 1.2 0 2 .6 2 1.3ZM15 40.5c0 .7-1 1.3-2.1 1.3-1.2 0-2.1-.6-2.1-1.3 0-.8 1-1.3 2-1.3 1.2 0 2.1.5 2.1 1.3Zm17.7 0c0 .7-.9 1.3-2 1.3-1.2 0-2.1-.6-2.1-1.3 0-.8 1-1.3 2-1.3 1.2 0 2.1.5 2.1 1.3Zm17.8 0c0 .7-1 1.3-2 1.3-1.2 0-2.1-.6-2.1-1.3 0-.8.9-1.3 2-1.3 1.2 0 2.1.5 2.1 1.3Zm17.8 0c0 .7-1 1.3-2 1.3-1.2 0-2.1-.6-2.1-1.3 0-.8.9-1.3 2-1.3 1.2 0 2.1.5 2.1 1.3Zm17.8 0c0 .7-1 1.3-2 1.3-1.2 0-2.2-.6-2.2-1.3 0-.8 1-1.3 2.1-1.3 1.2 0 2.1.5 2.1 1.3Zm17.8 0c0 .7-1 1.3-2 1.3-1.2 0-2.2-.6-2.2-1.3 0-.8 1-1.3 2.1-1.3 1.2 0 2 .5 2 1.3ZM15 51.6c0 .7-1 1.3-2.1 1.3-1.2 0-2.1-.6-2.1-1.3 0-.7 1-1.3 2-1.3 1.2 0 2.1.6 2.1 1.3Zm17.7 0c0 .7-.9 1.3-2 1.3-1.2 0-2.1-.6-2.1-1.3 0-.7 1-1.3 2-1.3 1.2 0 2.1.6 2.1 1.3Zm17.8 0c0 .7-1 1.3-2 1.3-1.2 0-2.1-.6-2.1-1.3 0-.7.9-1.3 2-1.3 1.2 0 2.1.6 2.1 1.3Zm17.8 0c0 .7-1 1.3-2 1.3-1.2 0-2.1-.6-2.1-1.3 0-.7.9-1.3 2-1.3 1.2 0 2.1.6 2.1 1.3Zm17.8 0c0 .7-1 1.3-2 1.3-1.2 0-2.2-.6-2.2-1.3 0-.7 1-1.3 2.1-1.3 1.2 0 2.1.6 2.1 1.3Zm17.8 0c0 .7-1 1.3-2 1.3-1.2 0-2.2-.6-2.2-1.3 0-.7 1-1.3 2.1-1.3 1.2 0 2 .6 2 1.3ZM12.9 64c1.1 0 2-.6 2-1.3 0-.7-.9-1.3-2-1.3-1.2 0-2.1.6-2.1 1.3 0 .7 1 1.3 2 1.3Zm19.8-1.3c0 .7-.9 1.3-2 1.3-1.2 0-2.1-.6-2.1-1.3 0-.7 1-1.3 2-1.3 1.2 0 2.1.6 2.1 1.3Zm17.8 0c0 .7-1 1.3-2 1.3-1.2 0-2.1-.6-2.1-1.3 0-.7.9-1.3 2-1.3 1.2 0 2.1.6 2.1 1.3ZM66.2 64c1.2 0 2.1-.6 2.1-1.3 0-.7-1-1.3-2-1.3-1.2 0-2.1.6-2.1 1.3 0 .7.9 1.3 2 1.3Zm19.9-1.3c0 .7-1 1.3-2 1.3-1.2 0-2.2-.6-2.2-1.3 0-.7 1-1.3 2.1-1.3 1.2 0 2.1.6 2.1 1.3Zm15.7 1.3c1.2 0 2-.6 2-1.3 0-.7-.8-1.3-2-1.3-1.1 0-2 .6-2 1.3 0 .7.9 1.3 2 1.3ZM12.9 75c1.1 0 2-.5 2-1.3 0-.7-.9-1.3-2-1.3-1.2 0-2.1.6-2.1 1.3 0 .8 1 1.3 2 1.3Zm19.8-1.3c0 .8-.9 1.3-2 1.3-1.2 0-2.1-.5-2.1-1.3 0-.7 1-1.3 2-1.3 1.2 0 2.1.6 2.1 1.3Zm17.8 0c0 .8-1 1.3-2 1.3-1.2 0-2.1-.5-2.1-1.3 0-.7.9-1.3 2-1.3 1.2 0 2.1.6 2.1 1.3ZM66.2 75c1.2 0 2.1-.5 2.1-1.3 0-.7-1-1.3-2-1.3-1.2 0-2.1.6-2.1 1.3 0 .8.9 1.3 2 1.3Zm19.9-1.3c0 .8-1 1.3-2 1.3-1.2 0-2.2-.5-2.2-1.3 0-.7 1-1.3 2.1-1.3 1.2 0 2.1.6 2.1 1.3Zm15.7 1.3c1.2 0 2-.5 2-1.3 0-.7-.8-1.3-2-1.3-1.1 0-2 .6-2 1.3 0 .8.9 1.3 2 1.3ZM12.9 86.2c1.1 0 2-.6 2-1.3 0-.7-.9-1.3-2-1.3-1.2 0-2.1.6-2.1 1.3 0 .7 1 1.3 2 1.3ZM32.7 85c0 .6-.9 1.2-2 1.2-1.2 0-2.1-.6-2.1-1.3 0-.7 1-1.3 2-1.3 1.2 0 2.1.6 2.1 1.3Zm17.8 0c0 .6-1 1.2-2 1.2-1.2 0-2.1-.6-2.1-1.3 0-.7.9-1.3 2-1.3 1.2 0 2.1.6 2.1 1.3Zm15.7 1.2c1.2 0 2.1-.6 2.1-1.3 0-.7-1-1.3-2-1.3-1.2 0-2.1.6-2.1 1.3 0 .7.9 1.3 2 1.3ZM86.1 85c0 .6-1 1.2-2 1.2-1.2 0-2.2-.6-2.2-1.3 0-.7 1-1.3 2.1-1.3 1.2 0 2.1.6 2.1 1.3Zm15.7 1.2c1.2 0 2-.6 2-1.3 0-.7-.8-1.3-2-1.3-1.1 0-2 .6-2 1.3 0 .7.9 1.3 2 1.3ZM162.4 11c0 .6-.8 1.1-1.7 1.1-1 0-1.7-.5-1.7-1 0-.6.8-1.1 1.7-1.1.9 0 1.7.5 1.7 1Zm14.3 0c0 .6-.7 1.1-1.7 1.1-.9 0-1.6-.5-1.6-1 0-.6.7-1.1 1.6-1.1 1 0 1.7.5 1.7 1Zm14.3 0c0 .6-.7 1.1-1.6 1.1-1 0-1.7-.5-1.7-1 0-.6.8-1.1 1.7-1.1 1 0 1.7.5 1.7 1Zm14.5 0c0 .6-.8 1.1-1.7 1.1-1 0-1.7-.5-1.7-1 0-.6.8-1.1 1.7-1.1 1 0 1.7.5 1.7 1Zm14.3 0c0 .6-.7 1.1-1.7 1.1-.9 0-1.6-.5-1.6-1 0-.6.7-1.1 1.6-1.1 1 0 1.7.5 1.7 1Zm14.4 0c0 .6-.8 1.1-1.7 1.1-1 0-1.7-.5-1.7-1 0-.6.8-1.1 1.7-1.1 1 0 1.7.5 1.7 1Zm14.4 0c0 .6-.8 1.1-1.7 1.1-1 0-1.7-.5-1.7-1 0-.6.8-1.1 1.7-1.1 1 0 1.7.5 1.7 1Zm-86.2 9c0 .6-.8 1-1.7 1-1 0-1.7-.4-1.7-1s.8-1 1.7-1c.9 0 1.7.4 1.7 1Zm14.3 0c0 .6-.7 1-1.7 1-.9 0-1.6-.4-1.6-1s.7-1 1.6-1c1 0 1.7.4 1.7 1Zm14.3 0c0 .6-.7 1-1.6 1-1 0-1.7-.4-1.7-1s.8-1 1.7-1c1 0 1.7.4 1.7 1Zm14.5 0c0 .6-.8 1-1.7 1-1 0-1.7-.4-1.7-1s.8-1 1.7-1c1 0 1.7.4 1.7 1Zm14.3 0c0 .6-.7 1-1.7 1-.9 0-1.6-.4-1.6-1s.7-1 1.6-1c1 0 1.7.4 1.7 1Zm14.4 0c0 .6-.8 1-1.7 1-1 0-1.7-.4-1.7-1s.8-1 1.7-1c1 0 1.7.4 1.7 1Zm14.4 0c0 .6-.8 1-1.7 1-1 0-1.7-.4-1.7-1s.8-1 1.7-1c1 0 1.7.4 1.7 1Zm-86.2 9c0 .5-.8 1-1.7 1-1 0-1.7-.5-1.7-1 0-.6.8-1.1 1.7-1.1.9 0 1.7.5 1.7 1Zm14.3 0c0 .5-.7 1-1.7 1-.9 0-1.6-.5-1.6-1 0-.6.7-1.1 1.6-1.1 1 0 1.7.5 1.7 1Zm14.3 0c0 .5-.7 1-1.6 1-1 0-1.7-.5-1.7-1 0-.6.8-1.1 1.7-1.1 1 0 1.7.5 1.7 1Zm14.5 0c0 .5-.8 1-1.7 1-1 0-1.7-.5-1.7-1 0-.6.8-1.1 1.7-1.1 1 0 1.7.5 1.7 1Zm14.3 0c0 .5-.7 1-1.7 1-.9 0-1.6-.5-1.6-1 0-.6.7-1.1 1.6-1.1 1 0 1.7.5 1.7 1Zm14.4 0c0 .5-.8 1-1.7 1-1 0-1.7-.5-1.7-1 0-.6.8-1.1 1.7-1.1 1 0 1.7.5 1.7 1Zm14.4 0c0 .5-.8 1-1.7 1-1 0-1.7-.5-1.7-1 0-.6.8-1.1 1.7-1.1 1 0 1.7.5 1.7 1Zm-86.2 9c0 .5-.8 1-1.7 1-1 0-1.7-.5-1.7-1 0-.7.8-1.1 1.7-1.1.9 0 1.7.4 1.7 1Zm14.3 0c0 .5-.7 1-1.7 1-.9 0-1.6-.5-1.6-1 0-.7.7-1.1 1.6-1.1 1 0 1.7.4 1.7 1Zm14.3 0c0 .5-.7 1-1.6 1-1 0-1.7-.5-1.7-1 0-.7.8-1.1 1.7-1.1 1 0 1.7.4 1.7 1Zm14.5 0c0 .5-.8 1-1.7 1-1 0-1.7-.5-1.7-1 0-.7.8-1.1 1.7-1.1 1 0 1.7.4 1.7 1Zm14.3 0c0 .5-.7 1-1.7 1-.9 0-1.6-.5-1.6-1 0-.7.7-1.1 1.6-1.1 1 0 1.7.4 1.7 1Zm14.4 0c0 .5-.8 1-1.7 1-1 0-1.7-.5-1.7-1 0-.7.8-1.1 1.7-1.1 1 0 1.7.4 1.7 1Zm14.4 0c0 .5-.8 1-1.7 1-1 0-1.7-.5-1.7-1 0-.7.8-1.1 1.7-1.1 1 0 1.7.4 1.7 1Zm-87.9 10c.9 0 1.7-.5 1.7-1 0-.7-.8-1.1-1.7-1.1-1 0-1.7.4-1.7 1s.8 1 1.7 1Zm14.3 0c1 0 1.7-.5 1.7-1 0-.7-.7-1.1-1.7-1.1-.9 0-1.6.4-1.6 1s.7 1 1.6 1Zm16-1c0 .5-.7 1-1.6 1-1 0-1.7-.5-1.7-1 0-.7.8-1.1 1.7-1.1 1 0 1.7.4 1.7 1Zm14.5 0c0 .5-.8 1-1.7 1-1 0-1.7-.5-1.7-1 0-.7.8-1.1 1.7-1.1 1 0 1.7.4 1.7 1Zm12.6 1c1 0 1.7-.5 1.7-1 0-.7-.7-1.1-1.7-1.1-.9 0-1.6.4-1.6 1s.7 1 1.6 1Zm16.1-1c0 .5-.8 1-1.7 1-1 0-1.7-.5-1.7-1 0-.7.8-1.1 1.7-1.1 1 0 1.7.4 1.7 1Zm12.7 1c1 0 1.7-.5 1.7-1 0-.7-.8-1.1-1.7-1.1-1 0-1.7.4-1.7 1s.8 1 1.7 1Zm-86.2 8.9c.9 0 1.7-.5 1.7-1 0-.6-.8-1.1-1.7-1.1-1 0-1.7.5-1.7 1 0 .6.8 1 1.7 1Zm14.3 0c1 0 1.7-.5 1.7-1 0-.7-.7-1.1-1.7-1.1-.9 0-1.6.4-1.6 1s.7 1 1.6 1Zm16-1.1c0 .6-.7 1-1.6 1-1 0-1.7-.4-1.7-1s.8-1 1.7-1c1 0 1.7.4 1.7 1Zm14.5 0c0 .6-.8 1-1.7 1-1 0-1.7-.4-1.7-1s.8-1 1.7-1c1 0 1.7.4 1.7 1Zm12.6 1.1c1 0 1.7-.5 1.7-1 0-.7-.7-1.1-1.7-1.1-.9 0-1.6.4-1.6 1s.7 1 1.6 1Zm16.1-1.1c0 .6-.8 1-1.7 1-1 0-1.7-.4-1.7-1s.8-1 1.7-1c1 0 1.7.4 1.7 1Zm12.7 1.1c1 0 1.7-.5 1.7-1 0-.7-.8-1.1-1.7-1.1-1 0-1.7.4-1.7 1s.8 1 1.7 1ZM160.7 66c.9 0 1.7-.6 1.7-1.1 0-.6-.8-1-1.7-1-1 0-1.7.4-1.7 1 0 .5.8 1 1.7 1Zm14.3 0c1 0 1.7-.6 1.7-1.1 0-.6-.7-1-1.7-1-.9 0-1.6.4-1.6 1 0 .5.7 1 1.6 1Zm16-1.1c0 .5-.7 1-1.6 1-1 0-1.7-.5-1.7-1 0-.6.8-1 1.7-1 1 0 1.7.4 1.7 1Zm14.5 0c0 .5-.8 1-1.7 1-1 0-1.7-.5-1.7-1 0-.6.8-1 1.7-1 1 0 1.7.4 1.7 1Zm12.6 1.1c1 0 1.7-.6 1.7-1.1 0-.6-.7-1-1.7-1-.9 0-1.6.4-1.6 1 0 .5.7 1 1.6 1Zm16.1-1.1c0 .5-.8 1-1.7 1-1 0-1.7-.5-1.7-1 0-.6.8-1 1.7-1 1 0 1.7.4 1.7 1Zm12.7 1.1c1 0 1.7-.6 1.7-1.1 0-.6-.8-1-1.7-1-1 0-1.7.4-1.7 1 0 .5.8 1 1.7 1Z"/>
    <g filter="url(#b)">
      <rect width="196.5" height="112.3" x="30" y="24" fill="#fff" rx="7.1"/>
    </g>
    <rect width="82" height="95.5" x="37.9" y="30.7" fill="#F1F1F1" rx="7.1"/>
    <g stroke="#ACACAC" stroke-linecap="round" stroke-linejoin="round" stroke-width="2.1" clip-path="url(#c)">
      <path d="M100 59.4H55.4c-2.5 0-4.6 2-4.6 4.6v31.2c0 2.5 2 4.6 4.6 4.6H100c2.6 0 4.7-2 4.7-4.6V64c0-2.6-2.1-4.6-4.7-4.6Zm4.6 16.1H83.2m-27.9 0h-4.5M83 87.3h14m-14 4.4h14m-27.7 8.1V82.6m0-11.6V59.4"/>
      <path d="M61 86.5a15 15 0 0 0 6.8-7.5l1.5-3.5 1.4 3.5c1.4 3.2 3.8 5.9 6.9 7.5m-1.5-6.3c2.6 0 4.8-2 4.8-4.7 0-2.6-2.2-4.7-4.8-4.7-2.6 0-6.8 4.7-6.8 4.7s4.2 4.7 6.8 4.7Zm-13.7 0a4.7 4.7 0 0 1-4.7-4.7c0-2.6 2-4.7 4.7-4.7 2.6 0 6.9 4.7 6.9 4.7s-4.3 4.7-6.9 4.7Z"/>
    </g>
    <path fill="#000" d="M137.9 80.5V60h1.3v20.6h-1.3Zm3.8-14a2 2 0 0 0-1-1.7c-.5-.4-1.2-.6-2.1-.6-.7 0-1.2.1-1.6.3a2 2 0 0 0-1 .8 1.9 1.9 0 0 0-.2 2l.7.6.9.5 1 .3 1.5.3 1.8.6 1.6 1c.5.3.8.8 1 1.3.4.6.5 1.2.5 2 0 .9-.3 1.7-.8 2.5a5 5 0 0 1-2 1.6c-1 .4-2 .6-3.4.6-1.3 0-2.4-.2-3.3-.6a5 5 0 0 1-2.2-1.7c-.6-.8-.8-1.7-.9-2.8h3c0 .5.2 1 .5 1.4.3.4.7.7 1.2.9l1.7.2c.6 0 1.2 0 1.7-.3.5-.2.9-.4 1.2-.8.3-.3.4-.7.4-1.2 0-.4-.1-.8-.4-1-.2-.4-.6-.6-1-.8l-1.6-.5-1.9-.5a7.6 7.6 0 0 1-3.2-1.6 3.7 3.7 0 0 1-1.2-2.8c0-1 .3-1.9.8-2.6.6-.7 1.3-1.3 2.2-1.7a8.1 8.1 0 0 1 6.1 0 5 5 0 0 1 2.2 1.7c.5.7.7 1.5.8 2.5h-3Zm12.3-4.6v16.5h-3V64.8l-4 2.5v-2.7l4.2-2.7h2.8Zm10.3 16.9c-1.3 0-2.4-.4-3.4-1-1-.7-1.7-1.7-2.2-3-.5-1.3-.7-2.8-.7-4.6 0-1.8.2-3.3.7-4.6a6.3 6.3 0 0 1 2.2-2.9c1-.7 2.1-1 3.4-1 1.3 0 2.5.3 3.4 1a6 6 0 0 1 2.2 2.9c.5 1.3.8 2.8.8 4.6 0 1.8-.3 3.4-.8 4.6a6.3 6.3 0 0 1-2.2 3c-1 .6-2 1-3.4 1Zm0-2.6c1 0 1.9-.5 2.5-1.5a9 9 0 0 0 .9-4.5c0-1.3-.2-2.4-.4-3.3-.3-.9-.7-1.6-1.2-2-.5-.5-1-.7-1.8-.7-1 0-1.8.5-2.4 1.5a9 9 0 0 0-1 4.5c0 1.3.2 2.4.5 3.3.3 1 .6 1.6 1.1 2 .5.5 1.1.7 1.8.7Zm15.2 2.6a6 6 0 0 1-3.4-1c-1-.7-1.7-1.7-2.2-3-.5-1.3-.8-2.8-.8-4.6 0-1.8.3-3.3.8-4.6a6.3 6.3 0 0 1 2.2-2.9c1-.7 2-1 3.4-1a5.7 5.7 0 0 1 5.6 3.9c.5 1.3.7 2.8.7 4.6 0 1.8-.2 3.4-.7 4.6a6.3 6.3 0 0 1-2.2 3c-1 .6-2 1-3.4 1Zm0-2.6c1 0 1.8-.5 2.4-1.5a9 9 0 0 0 1-4.5c0-1.3-.2-2.4-.5-3.3-.3-.9-.6-1.6-1.1-2-.5-.5-1.1-.7-1.8-.7-1 0-1.9.5-2.5 1.5a9 9 0 0 0-.9 4.5c0 1.3.2 2.4.4 3.3.3 1 .7 1.6 1.2 2 .5.5 1 .7 1.8.7Zm-.3-27.4a2.6 2.6 0 0 1-2.5-1.6c-.2-.5-.4-1.1-.4-1.8 0-.8.2-1.4.4-2 .2-.4.6-.8 1-1.1.4-.3 1-.4 1.5-.4.4 0 .7 0 1 .2l.6.5.3.5v-3.4h1.4v9h-1.3v-1h-.1l-.3.5a1.9 1.9 0 0 1-1.6.6Zm.2-1c.4 0 .7-.2 1-.4.3-.2.5-.5.6-.8l.2-1.3c0-.4 0-.8-.2-1.2-.1-.3-.3-.6-.6-.8-.3-.2-.6-.3-1-.3s-.7.1-1 .3l-.5.8c-.2.4-.2.8-.2 1.2 0 .5 0 .9.2 1.3.1.3.3.6.6.8.2.2.6.3 1 .3Zm-7.3.9V42h1.3v1l.7-.8a2 2 0 0 1 1-.3 5.6 5.6 0 0 1 .6 0v1.3h-.2l-.4-.1c-.4 0-.6 0-.9.2a1.5 1.5 0 0 0-.8 1.3v4.1h-1.3Zm-5.1.2a2 2 0 0 1-1.1-.3 2 2 0 0 1-.8-.7 2 2 0 0 1-.3-1.1c0-.4 0-.7.2-1 .1-.2.3-.4.6-.5.2-.2.5-.3.8-.3l1-.2 1-.1.5-.2.2-.3c0-.4-.1-.7-.4-1-.2-.2-.5-.3-1-.3-.4 0-.7.1-1 .3l-.5.7-1.2-.3a2.4 2.4 0 0 1 1.6-1.5 3.8 3.8 0 0 1 2-.1l.9.3c.2.2.5.4.6.7.2.3.3.7.3 1.2v4.5H169v-1a1.9 1.9 0 0 1-1 1l-1 .2Zm.3-1.1c.4 0 .7 0 1-.2a1.5 1.5 0 0 0 .8-1.3v-.9l-.3.1-.5.1a54.7 54.7 0 0 1-1.6.3l-.5.4-.1.5c0 .3 0 .6.3.8l1 .2Zm-3.7-5.2h-1.4a2 2 0 0 0-.8-1.3l-.7-.3a2.7 2.7 0 0 0-2.2.2 4 4 0 0 0-1 1.2c-.2.5-.3 1-.3 1.8 0 .7 0 1.4.3 1.9s.6.8 1 1.1c.4.3.9.4 1.4.4l.8-.1.7-.4a2.1 2.1 0 0 0 .8-1.3h1.4a3.7 3.7 0 0 1-1.2 2.2c-.4.3-.7.5-1.2.6-.4.2-.8.2-1.3.2a4 4 0 0 1-2.1-.5c-.6-.4-1.1-1-1.5-1.6-.3-.7-.5-1.5-.5-2.5s.2-1.8.6-2.5a3.8 3.8 0 0 1 3.5-2.1c.4 0 .9 0 1.3.2a3.5 3.5 0 0 1 2 1.6l.4 1.2Zm-12.3-.6v1h-3.7v-1h3.7Zm-2.7-1.6h1.3v6.3l.1.6.3.3h.9l.2 1-.3.1a2.6 2.6 0 0 1-1.5 0l-.7-.7c-.2-.3-.3-.6-.3-1v-6.6Zm-1.8 1.6v1H143v-1h3.8Zm-2.8 6.7v-7.5c0-.4.1-.8.3-1 .2-.3.4-.6.7-.7l1-.2a3 3 0 0 1 1.1.2l-.3 1h-.6c-.3 0-.5 0-.7.2l-.2.7v7.3H144Zm-3.5 0V42h1.3v6.7h-1.3Zm.7-7.8c-.3 0-.5 0-.6-.2a.7.7 0 0 1-.3-.6c0-.2.1-.4.3-.5.1-.2.3-.2.6-.2.2 0 .4 0 .6.2l.2.5c0 .3 0 .4-.2.6-.2.2-.4.2-.6.2Zm-4.2 1.7c0-.3-.2-.5-.3-.8a2.2 2.2 0 0 0-1.2-.8 2.7 2.7 0 0 0-2.2.2 4 4 0 0 0-1 1.2c-.2.5-.3 1-.3 1.8 0 .7.1 1.4.4 1.9.2.5.5.8 1 1.1.3.3.8.4 1.3.4s1-.1 1.3-.3c.4-.2.7-.5.9-.8.2-.4.3-.8.3-1.3h.3-2.6v-1h3.6v1c0 .7-.2 1.3-.5 1.9-.3.6-.8 1-1.3 1.3a4 4 0 0 1-2 .4 3.8 3.8 0 0 1-3.6-2.2c-.3-.6-.5-1.4-.5-2.4 0-.7.1-1.3.3-2 .2-.5.5-1 .9-1.4a3 3 0 0 1 1.3-.9 4.2 4.2 0 0 1 3-.1 3.7 3.7 0 0 1 1.9 1.6l.4 1.2H137Z"/>
    <rect width="85.1" height="23.3" x="131.8" y="100" fill="#353535" stroke="#272727" stroke-width="1.4" rx="3.5"/>
    <path fill="#fff" d="M163.3 117.9v-9.3h3.7c.7 0 1.3 0 1.7.3.5.2.8.5 1 .8.3.4.4.8.4 1.2 0 .4 0 .7-.2 1l-.6.7-.9.3v.1a2 2 0 0 1 1.8 1.1c.2.3.3.7.3 1.2s-.2 1-.4 1.3l-1 1c-.6.1-1.1.3-1.8.3h-4Zm2-1.6h1.6c.5 0 .9-.2 1.2-.4.2-.2.3-.5.3-.8 0-.3 0-.5-.2-.7 0-.2-.3-.3-.5-.4-.2-.2-.5-.2-.8-.2h-1.6v2.5Zm0-3.8h1.4c.3 0 .5 0 .7-.2.2 0 .4-.2.5-.4.2-.2.2-.4.2-.6a1 1 0 0 0-.3-.8c-.3-.2-.6-.3-1-.3h-1.5v2.3Zm12.2-4h2v6.1a3.2 3.2 0 0 1-1.8 3c-.7.3-1.3.4-2.1.4s-1.5-.1-2-.4a4 4 0 0 1-1.4-1.2c-.3-.5-.5-1.1-.5-1.8v-6h2v5.8c0 .4 0 .7.2 1 .2.3.4.5.7.6.3.2.6.3 1 .3s.7-.1 1-.3c.3-.1.5-.3.6-.6.2-.3.3-.6.3-1v-5.8Zm3 0h2.2l2.1 4h.1l2.1-4h2.2l-3.3 6v3.4h-2v-3.3l-3.4-6Z"/>
    <path fill="#EBEBEB" d="M131.1 80.2h86.5v3.4h-86.5zm0 6.7h86.5v3.4h-86.5z"/>
  </g>
  <defs>
    <clipPath id="a">
      <rect width="256" height="160" fill="#fff" rx="6"/>
    </clipPath>
    <clipPath id="c">
      <path fill="#fff" d="M50.2 58.8h55v41.6h-55z"/>
    </clipPath>
    <filter id="b" width="210.7" height="126.5" x="22.9" y="15.5" color-interpolation-filters="sRGB" filterUnits="userSpaceOnUse">
      <feFlood flood-opacity="0" result="BackgroundImageFix"/>
      <feColorMatrix in="SourceAlpha" result="hardAlpha" values="0 0 0 0 0 0 0 0 0 0 0 0 0 0 0 0 0 0 127 0"/>
      <feMorphology in="SourceAlpha" operator="dilate" radius="7.1" result="effect1_dropShadow_22_3786"/>
      <feOffset dy="-1.4"/>
      <feComposite in2="hardAlpha" operator="out"/>
      <feColorMatrix values="0 0 0 0 0.760077 0 0 0 0 0.858475 0 0 0 0 0.932274 0 0 0 0.13 0"/>
      <feBlend in2="BackgroundImageFix" result="effect1_dropShadow_22_3786"/>
      <feBlend in="SourceGraphic" in2="effect1_dropShadow_22_3786" result="shape"/>
    </filter>
  </defs>
</svg>