<svg xmlns="http://www.w3.org/2000/svg" fill="none" viewBox="0 0 394 100">
  <g clip-path="url(#a)">
    <rect width="394" height="100" fill="#D6E0E1" rx="6"/>
    <path fill="#D2DAE2" d="M142.7 156H0V13.2L142.7 156Z"/>
    <path fill="#B9C3DE" d="M17.6 98.2a1.8 1.8 0 1 0 0-3.7 1.8 1.8 0 0 0 0 3.7Zm10.5 0a1.8 1.8 0 1 0 0-3.7 1.8 1.8 0 0 0 0 3.7Zm10.5 0a1.8 1.8 0 1 0 0-3.7 1.8 1.8 0 0 0 0 3.7Zm10.5 0a1.8 1.8 0 1 0 0-3.7 1.8 1.8 0 0 0 0 3.7Zm10.5 0a1.8 1.8 0 1 0 0-3.7 1.8 1.8 0 0 0 0 3.7Zm10.5 0a1.8 1.8 0 1 0 0-3.7 1.8 1.8 0 0 0 0 3.7Zm10.5 0a1.8 1.8 0 1 0 0-3.7 1.8 1.8 0 0 0 0 3.7Zm10.5 0a1.8 1.8 0 1 0 0-3.7 1.8 1.8 0 0 0 0 3.7Zm10.5 0a1.8 1.8 0 1 0 0-3.7 1.8 1.8 0 0 0 0 3.7Zm10.5 0a1.8 1.8 0 1 0 0-3.7 1.8 1.8 0 0 0 0 3.7ZM19.4 85.9a1.8 1.8 0 1 1-3.6 0 1.8 1.8 0 0 1 3.6 0Zm10.6 0a1.8 1.8 0 1 1-3.7 0 1.8 1.8 0 0 1 3.6 0Zm10.4 0a1.8 1.8 0 1 1-3.6 0 1.8 1.8 0 0 1 3.6 0Zm10.6 0a1.8 1.8 0 1 1-3.7 0 1.8 1.8 0 0 1 3.6 0Zm10.5 0a1.8 1.8 0 1 1-3.7 0 1.8 1.8 0 0 1 3.7 0Zm10.5 0a1.8 1.8 0 1 1-3.7 0 1.8 1.8 0 0 1 3.7 0Zm10.5 0a1.8 1.8 0 1 1-3.7 0 1.8 1.8 0 0 1 3.7 0Zm10.5 0a1.8 1.8 0 1 1-3.7 0 1.8 1.8 0 0 1 3.7 0Zm10.5 0a1.8 1.8 0 1 1-3.7 0 1.8 1.8 0 0 1 3.7 0Zm-85.9-8.7a1.8 1.8 0 1 0 0-3.7 1.8 1.8 0 0 0 0 3.7Zm10.5 0a1.8 1.8 0 1 0 0-3.7 1.8 1.8 0 0 0 0 3.7Zm10.5 0a1.8 1.8 0 1 0 0-3.7 1.8 1.8 0 0 0 0 3.7Zm10.5 0a1.8 1.8 0 1 0 0-3.7 1.8 1.8 0 0 0 0 3.7Zm10.5 0a1.8 1.8 0 1 0 0-3.7 1.8 1.8 0 0 0 0 3.7Zm10.5 0a1.8 1.8 0 1 0 0-3.7 1.8 1.8 0 0 0 0 3.7Zm10.5 0a1.8 1.8 0 1 0 0-3.7 1.8 1.8 0 0 0 0 3.7Zm10.5 0a1.8 1.8 0 1 0 0-3.7 1.8 1.8 0 0 0 0 3.7ZM17.6 66.7a1.8 1.8 0 1 0 0-3.7 1.8 1.8 0 0 0 0 3.7Zm10.5 0a1.8 1.8 0 1 0 0-3.7 1.8 1.8 0 0 0 0 3.7Zm10.5 0a1.8 1.8 0 1 0 0-3.7 1.8 1.8 0 0 0 0 3.7Zm10.5 0a1.8 1.8 0 1 0 0-3.7 1.8 1.8 0 0 0 0 3.7Zm10.5 0a1.8 1.8 0 1 0 0-3.7 1.8 1.8 0 0 0 0 3.7Zm10.5 0a1.8 1.8 0 1 0 0-3.7 1.8 1.8 0 0 0 0 3.7Zm10.5 0a1.8 1.8 0 1 0 0-3.7 1.8 1.8 0 0 0 0 3.7Zm-63-10.5a1.8 1.8 0 1 0 0-3.7 1.8 1.8 0 0 0 0 3.7Zm10.5 0a1.8 1.8 0 1 0 0-3.7 1.8 1.8 0 0 0 0 3.7Zm10.5 0a1.8 1.8 0 1 0 0-3.7 1.8 1.8 0 0 0 0 3.7Zm10.5 0a1.8 1.8 0 1 0 0-3.7 1.8 1.8 0 0 0 0 3.7Zm10.5 0a1.8 1.8 0 1 0 0-3.7 1.8 1.8 0 0 0 0 3.7Zm10.5 0a1.8 1.8 0 1 0 0-3.7 1.8 1.8 0 0 0 0 3.7ZM17.6 45.7a1.8 1.8 0 1 0 0-3.7 1.8 1.8 0 0 0 0 3.7Zm10.5 0a1.8 1.8 0 1 0 0-3.7 1.8 1.8 0 0 0 0 3.7Zm10.5 0a1.8 1.8 0 1 0 0-3.7 1.8 1.8 0 0 0 0 3.7Zm10.5 0a1.8 1.8 0 1 0 0-3.7 1.8 1.8 0 0 0 0 3.7Zm10.5 0a1.8 1.8 0 1 0 0-3.7 1.8 1.8 0 0 0 0 3.7Zm-42-10.5a1.8 1.8 0 1 0 0-3.7 1.8 1.8 0 0 0 0 3.7Zm10.5 0a1.8 1.8 0 1 0 0-3.7 1.8 1.8 0 0 0 0 3.7Zm10.5 0a1.8 1.8 0 1 0 0-3.7 1.8 1.8 0 0 0 0 3.7Zm10.5 0a1.8 1.8 0 1 0 0-3.7 1.8 1.8 0 0 0 0 3.7ZM17.6 24.7a1.8 1.8 0 1 0 0-3.7 1.8 1.8 0 0 0 0 3.7Zm10.5 0a1.8 1.8 0 1 0 0-3.7 1.8 1.8 0 0 0 0 3.7Zm10.5 0a1.8 1.8 0 1 0 0-3.7 1.8 1.8 0 0 0 0 3.7Zm-21-10.5a1.8 1.8 0 1 0 0-3.7 1.8 1.8 0 0 0 0 3.7Zm10.5 0a1.8 1.8 0 1 0 0-3.7 1.8 1.8 0 0 0 0 3.7ZM17.6 3.7a1.8 1.8 0 1 0 0-3.7 1.8 1.8 0 0 0 0 3.7Z"/>
    <g filter="url(#b)">
      <rect width="96" height="102" x="86" y="10" fill="#fff" rx="5"/>
    </g>
    <path fill="#D9D9D9" fill-opacity=".5" d="M100 64h68v13h-68z"/>
    <g fill="#B1B1B1" clip-path="url(#c)">
      <path d="M113.3 68.5a.9.9 0 0 1 1.2 1.2l-.4.4c-.1.1-.1.3 0 .4 0 .1.3.1.4 0l.4-.4a1.4 1.4 0 1 0-2-2l-1 1a1.4 1.4 0 0 0 0 2.1.3.3 0 1 0 .4-.4.9.9 0 0 1 0-1.3l1-1Z"/>
      <path d="M113 69.8a.3.3 0 1 0-.3.4c.4.4.4 1 0 1.3l-1 1a.9.9 0 0 1-1.2-1.2l.4-.4c.1-.1.1-.3 0-.4a.3.3 0 0 0-.4 0l-.4.4a1.4 1.4 0 1 0 2 2l1-1a1.4 1.4 0 0 0 0-2.1Z"/>
    </g>
    <path fill="#F1F1F1" d="M100 20h68v39h-68z"/>
    <path stroke="#ACACAC" stroke-linecap="round" stroke-linejoin="round" stroke-width="1.2" d="M138 32.3a4 4 0 0 1-4 3.9 4 4 0 0 1-4-4 4 4 0 0 1 4-3.9 4 4 0 0 1 4 4ZM125.9 47a8 8 0 0 1 8.1-7.7 8 8 0 0 1 8.1 7.7 20 20 0 0 1-16.2 0Z"/>
    <path fill="#B9C3DE" d="M100 79h68v16h-68z"/>
    <path fill="#fff" d="M155.6 88v-.2l.1-.5.3-.3h.9l.3.3v1.1l-.3.3h-.9a.7.7 0 0 1-.3-.3 1 1 0 0 1-.1-.4Zm.5-.2v.2l.1.2.2.1.3-.1v-.7l-.3-.1-.2.1v.3Zm-2.4-2v-.6a.8.8 0 0 1 .8-.4h.5l.2.4.1.4v.6l-.4.3-.4.1h-.5a.8.8 0 0 1-.2-.4l-.1-.4Zm.5-.2v.4l.3.2c.1 0 .2 0 .2-.2v-.7h-.4v.3Zm-.3 3 2.6-3.7h.5l-2.6 3.8h-.5Zm-2.3.1-.7-.1-.5-.4a1 1 0 0 1-.2-.6h.8c0 .1 0 .3.2.3l.4.2.3-.1.2-.2.1-.4v-.3l-.3-.3h-.7l-.2.2-.7-.1.2-2h2.3v.6H151v1l.2-.2.5-.1a1.2 1.2 0 0 1 1 .6l.2.6c0 .3 0 .5-.2.7l-.5.4c-.2.2-.4.2-.7.2Zm-2.3-3.8v3.8h-.8v-3l-.9.5v-.7l1-.6h.7Zm-3.5 0v3.8h-.7l-1.6-2.4v2.4h-.8v-3.8h.7l1.6 2.4v-2.4h.8Zm-3.8 1.9c0 .4 0 .7-.2 1-.1.3-.3.5-.6.7l-.9.2c-.3 0-.6 0-.9-.2-.3-.2-.5-.4-.6-.7-.2-.3-.3-.6-.3-1s.1-.8.3-1c.1-.4.3-.6.6-.7.3-.2.6-.3 1-.3l.8.3c.3.1.5.3.6.6.2.3.3.7.3 1Zm-.7 0c0-.3 0-.5-.2-.7a1 1 0 0 0-.3-.4.9.9 0 0 0-.5-.2c-.2 0-.4 0-.5.2a1 1 0 0 0-.3.4l-.2.7c0 .2 0 .5.2.6 0 .2.2.4.3.5l.5.1.5-.1c.2-.1.3-.3.3-.5l.2-.6Zm-3.3-1.9v3.8h-.8v-3.8h.8Zm-2.2 1.1c0-.2 0-.3-.2-.4a.8.8 0 0 0-.4-.1h-.4l-.2.2v.4l.1.1.2.1h.2l.4.2.4.1.4.2.2.4.1.4c0 .2 0 .4-.2.6 0 .2-.2.3-.5.4a2 2 0 0 1-.7.1 2 2 0 0 1-.8-.1l-.6-.4-.2-.7h.8l.1.3.3.2h.7l.2-.2.1-.2v-.2l-.3-.2h-.3l-.4-.2c-.4 0-.6-.2-.8-.4a.8.8 0 0 1-.3-.6c0-.2 0-.4.2-.6l.5-.4.8-.2c.2 0 .5 0 .7.2.2 0 .4.2.5.4l.2.6h-.8Zm-3.4 0c0-.2 0-.3-.2-.4a.7.7 0 0 0-.4-.1h-.4l-.2.2v.4l.1.1.2.1h.2l.4.2.4.1.4.2a1 1 0 0 1 .3.8c0 .2 0 .4-.2.6 0 .2-.2.3-.5.4a2 2 0 0 1-.7.1 2 2 0 0 1-.8-.1l-.6-.4-.2-.7h.8l.1.3.3.2h.7l.2-.2.1-.2v-.2l-.3-.2h-.3l-.4-.2c-.4 0-.6-.2-.8-.4a.8.8 0 0 1-.3-.6c0-.2 0-.4.2-.6l.5-.4.8-.2c.2 0 .5 0 .7.2.2 0 .4.2.5.4l.2.6h-.8Zm-2.7-1.1v3.8h-.8v-3.8h.8Zm-5.5 0h1l1 2.5 1-2.5h1v3.8h-.7v-2.5l-1 2.4h-.6l-1-2.4v2.5h-.7v-3.8Zm-4.8 0h1l1 2.5 1.1-2.5h1v3.8h-.8v-2.5l-1 2.4h-.5l-1-2.4v2.5h-.8v-3.8Zm-.6 1.9c0 .4 0 .7-.2 1l-.6.7-1 .2c-.3 0-.6 0-.8-.2l-.7-.7-.2-1c0-.4 0-.8.2-1 .2-.4.4-.6.7-.7.2-.2.5-.3.9-.3l.9.3.6.6.2 1Zm-.8 0-.1-.7a1 1 0 0 0-.3-.4.9.9 0 0 0-.5-.2c-.2 0-.4 0-.6.2a1 1 0 0 0-.3.4l-.1.7.1.6c0 .2.2.4.3.5l.6.1.5-.1.3-.5.1-.6Zm-3.2-.6h-.8a.8.8 0 0 0-.3-.5l-.2-.1h-.8a1 1 0 0 0-.4.5l-.1.7.1.7.4.4.5.1h.3l.2-.2.2-.2v-.2h.9a1.5 1.5 0 0 1-.5 1l-.5.2-.7.1c-.3 0-.6 0-.9-.2l-.6-.7-.2-1c0-.4 0-.8.2-1 .2-.4.4-.6.7-.7.2-.2.5-.3.8-.3l.7.1.5.3.3.4.2.6Z"/>
    <path fill="#B1B1B1" d="M148.1 72.2v-3.1h.6v1.4l1.2-1.4h.7l-1.2 1.4 1.2 1.7h-.6l-1-1.3-.3.4v1h-.6Zm-.6-3.2v3.2h-.5l-1.5-2.1v2.1h-.6v-3.1h.5l1.5 2.1v-2.1h.6Zm-3.2 0v3.2h-.6v-3.1h.6Zm-3 3.2v-3.1h.5v2.7h1.4v.4h-2Zm-3.6 0v-3.1h.6v2.7h1.4v.4h-2Zm-2.7 0h-.6l1.1-3.1h.7l1.1 3.1h-.6l-.8-2.5-.9 2.5Zm0-1.2h1.7v.5H135V71Zm-3.2 1.2v-3.1h1.2l.6.1.4.4.1.5-.1.5-.4.4H132v-.4h1.1l.3-.2v-.6l-.3-.2h-.8v2.6h-.6Zm1.6-1.4.8 1.4h-.6l-.8-1.4h.6Zm-4.4 1.4v-3.1h1.2l.6.1.4.4v1l-.4.4h-1.5v-.4h1.1l.2-.2.1-.3v-.3l-.3-.2h-.8v2.6h-.6Zm1.6-1.4.8 1.4h-.6l-.8-1.4h.6Zm-4.2 1.4v-3.1h2v.5H127v.8h1.4v.5H127v.9h1.5v.4h-2Zm-2.6 0v-3.1h2v.5h-1.4v.8h1.3v.5h-1.3v1.3h-.6Zm-2.6 0v-3.1h2v.5h-1.4v.8h1.4v.5h-1.4v.9h1.5v.4h-2Zm-2.8 0v-3.1h1.2l.6.1.4.4v1l-.4.4h-1.5v-.4h1.1l.2-.2.1-.3v-.3l-.3-.2h-.8v2.6h-.6Zm1.6-1.4.8 1.4h-.6l-.8-1.4h.6Z"/>
    <g filter="url(#d)">
      <rect width="111" height="118" x="190" y="-6" fill="#fff" rx="5"/>
    </g>
    <path fill="#000" fill-opacity=".5" d="M206 55h79v16h-79z"/>
    <g fill="#fff" clip-path="url(#e)">
      <path d="M225.9 61.7a1 1 0 1 1 1.4 1.4l-.5.5a.3.3 0 0 0 .4.4l.5-.5a1.6 1.6 0 1 0-2.2-2.2l-1.2 1.2a1.6 1.6 0 0 0 0 2.3.3.3 0 1 0 .4-.4 1 1 0 0 1 0-1.5l1.2-1.2Z"/>
      <path d="M225.6 63.2a.3.3 0 1 0-.3.4c.4.5.4 1.1 0 1.5l-1.2 1.2a1 1 0 1 1-1.4-1.4l.5-.5a.3.3 0 0 0-.4-.4l-.5.5a1.6 1.6 0 1 0 2.2 2.2l1.2-1.2a1.6 1.6 0 0 0 0-2.3Z"/>
    </g>
    <path fill="#fff" d="M265.8 65v-3.6h.7V63l1.5-1.6h.8l-1.4 1.6 1.4 2h-.8l-1-1.6-.5.5V65h-.7Zm-.7-3.6V65h-.6l-1.7-2.5V65h-.7v-3.6h.6l1.7 2.4v-2.4h.7Zm-3.7 0V65h-.6v-3.6h.6ZM258 65v-3.6h.6v3h1.6v.6h-2.3Zm-4.1 0v-3.6h.6v3h1.6v.6H254Zm-3.2 0h-.7l1.3-3.6h.8l1.3 3.6h-.7l-1-2.9-1 2.9Zm0-1.4h2v.5h-2v-.5ZM247 65v-3.6h1.4l.7.1.4.4.1.6-.1.6a1 1 0 0 1-.4.4l-.8.2h-1V63h1.4l.2-.2v-.7l-.2-.2a1 1 0 0 0-.4 0h-.6v3h-.7Zm1.9-1.6.9 1.6h-.8l-.8-1.6h.7Zm-5.2 1.6v-3.6h1.4l.7.1.4.4.2.6c0 .3 0 .5-.2.6a1 1 0 0 1-.4.4l-.7.2h-1V63h1.3l.2-.2.1-.4v-.3l-.3-.2a1 1 0 0 0-.4 0h-.6v3h-.7Zm2-1.6.8 1.6h-.7l-.9-1.6h.7Zm-5 1.6v-3.6h2.4v.5h-1.7v1h1.5v.6h-1.5v1h1.7v.5h-2.4Zm-2.9 0v-3.6h2.3v.5h-1.7v1h1.5v.6h-1.5V65h-.6Zm-3.1 0v-3.6h2.4v.5h-1.7v1h1.6v.6h-1.6v1h1.7v.5h-2.4Zm-3.2 0v-3.6h1.3l.8.1.4.4.1.6-.1.6a1 1 0 0 1-.5.4l-.7.2h-1V63h1.4l.2-.2v-.7l-.2-.2a1 1 0 0 0-.5 0h-.6v3h-.6Zm1.9-1.6.9 1.6h-.8l-.9-1.6h.8Z"/>
    <path fill="#F1F1F1" d="M206 4h79v47h-79z"/>
    <path stroke="#ACACAC" stroke-linecap="round" stroke-linejoin="round" stroke-width="1.2" d="M248 21.3a4.5 4.5 0 1 1-9 0 4.5 4.5 0 0 1 9 0Zm-13.6 17a9 9 0 0 1 18.2 0 21.7 21.7 0 0 1-18.2 0Z"/>
    <path fill="#87ADB6" d="M206 74h79v19h-79z"/>
    <path fill="#fff" d="M271.1 85.2V85c0-.2 0-.4.2-.5 0-.2.1-.3.3-.4l.5-.1.5.1.4.4v1.2l-.4.3a1 1 0 0 1-.5.2 1 1 0 0 1-.5-.2.9.9 0 0 1-.3-.3 1 1 0 0 1-.2-.5Zm.7-.2v.5l.3.1.3-.1v-.8l-.3-.2c-.1 0-.2 0-.3.2v.3Zm-2.9-2.3v-.2l.1-.5.4-.4.5-.1.5.1.3.4.1.5v.7l-.4.3a1 1 0 0 1-.5.1.9.9 0 0 1-.9-.5 1 1 0 0 1 0-.4Zm.6-.2v.2l.1.3.3.1.2-.1.1-.3v-.5l-.3-.2c-.2 0-.2 0-.3.2v.3Zm-.3 3.5 3-4.4h.6l-3 4.4h-.6Zm-2.9.1-.9-.3c-.3-.2-.5-.4-.6-.8-.2-.3-.2-.7-.2-1.2s0-.9.2-1.2c.1-.3.3-.6.6-.8l1-.2c.3 0 .6 0 .9.2.2.2.5.5.6.8l.2 1.2c0 .5 0 1-.2 1.2-.1.4-.4.6-.6.8-.3.2-.6.3-1 .3Zm0-.8c.3 0 .5 0 .6-.3.2-.3.3-.7.3-1.2l-.1-.8a1 1 0 0 0-.3-.5.6.6 0 0 0-.5-.2c-.2 0-.4.2-.6.4l-.2 1.1.1.9c0 .2.2.4.3.5l.4.1Zm-2.7-3.7V86h-1v-3.5l-1 .6v-.8l1.1-.7h.9Zm-4 0V86h-.8l-2-2.7V86h-.9v-4.4h.8l2 2.8v-2.8h.9Zm-4.4 2.2c0 .5 0 .9-.2 1.2-.2.4-.5.6-.8.8a2 2 0 0 1-1 .3 2 2 0 0 1-1-.3c-.4-.2-.6-.4-.8-.8-.2-.3-.3-.7-.3-1.2s.1-.9.3-1.2l.7-.8a2 2 0 0 1 1-.2c.5 0 .8 0 1.1.2l.8.8.2 1.2Zm-.9 0-.1-.8a1 1 0 0 0-.4-.4 1 1 0 0 0-.6-.2 1 1 0 0 0-.6.2 1 1 0 0 0-.4.4l-.1.8.1.8.4.5.6.1.6-.1.4-.5.1-.8Zm-3.8-2.2V86h-1v-4.4h1Zm-2.5 1.3-.2-.4a.9.9 0 0 0-.6-.2 1 1 0 0 0-.3.1c-.2 0-.2.1-.3.2v.4l.1.2.3.1h.2l.4.2.5.1.5.3.2.4.1.5c0 .2 0 .5-.2.6a1 1 0 0 1-.6.5l-.9.2c-.3 0-.6 0-.9-.2a1 1 0 0 1-.6-.5l-.2-.8h.9v.4l.4.2h.8c.1 0 .2 0 .3-.2v-.5l-.2-.2h-.4l-.5-.2a2 2 0 0 1-.9-.4 1 1 0 0 1-.3-.8c0-.3 0-.5.2-.7l.6-.5.8-.1.9.1.6.5.2.7h-1Zm-4 0c0-.2 0-.3-.2-.4a.9.9 0 0 0-.5-.2 1 1 0 0 0-.4.1l-.2.2-.1.2v.2l.2.2.2.1h.3l.4.2.5.1.4.3a1 1 0 0 1 .4.9c0 .2 0 .5-.2.6a1 1 0 0 1-.6.5l-.9.2c-.4 0-.7 0-1-.2l-.5-.5c-.2-.2-.3-.5-.3-.8h1v.4l.4.2h.8c.1 0 .2 0 .3-.2v-.5l-.3-.2h-.4l-.5-.2a2 2 0 0 1-.8-.4 1 1 0 0 1-.3-.8c0-.3 0-.5.2-.7l.6-.5.8-.1.9.1.5.5c.2.2.2.4.2.7h-.9Zm-3-1.3V86h-1v-4.4h1Zm-6.5 0h1.1l1.2 3h.1l1.2-3h1.1V86h-.9v-2.8l-1.1 2.8h-.6l-1.2-2.9V86h-.9v-4.4Zm-5.5 0h1.2l1.2 3 1.2-3h1.2V86h-1v-2.8l-1.1 2.8h-.6l-1.1-3v3h-1v-4.4Zm-.7 2.2c0 .5 0 .9-.2 1.2-.2.4-.5.6-.8.8a2 2 0 0 1-1 .3 2 2 0 0 1-1-.3c-.4-.2-.6-.4-.8-.8-.2-.3-.3-.7-.3-1.2s.1-.9.3-1.2l.7-.8a2 2 0 0 1 1-.2c.5 0 .8 0 1.1.2l.8.8.2 1.2Zm-.9 0-.1-.8a1 1 0 0 0-.4-.4 1 1 0 0 0-.6-.2 1 1 0 0 0-.6.2 1 1 0 0 0-.4.4l-.1.8.1.8.4.5.6.1.6-.1.4-.5.1-.8Zm-3.7-.6h-1a.9.9 0 0 0-.3-.6l-.3-.2a1 1 0 0 0-.3 0 1 1 0 0 0-.6.2 1 1 0 0 0-.4.4l-.1.8.1.8.4.5.6.1h.3l.3-.1.2-.3.1-.3h1a1.7 1.7 0 0 1-.6 1l-.6.4-.7.2a2 2 0 0 1-1-.3c-.4-.2-.6-.4-.8-.8-.2-.3-.3-.7-.3-1.2s.1-.9.3-1.2l.7-.8a2.2 2.2 0 0 1 1.7-.2l.7.4.4.5.2.7Z"/>
  </g>
  <defs>
    <clipPath id="a">
      <rect width="394" height="100" fill="#fff" rx="6"/>
    </clipPath>
    <clipPath id="c">
      <path fill="#fff" d="M109 67h7v7h-7z"/>
    </clipPath>
    <clipPath id="e">
      <path fill="#fff" d="M221 60h8v8h-8z"/>
    </clipPath>
    <filter id="b" width="106" height="112" x="81" y="9" color-interpolation-filters="sRGB" filterUnits="userSpaceOnUse">
      <feFlood flood-opacity="0" result="BackgroundImageFix"/>
      <feColorMatrix in="SourceAlpha" result="hardAlpha" values="0 0 0 0 0 0 0 0 0 0 0 0 0 0 0 0 0 0 127 0"/>
      <feMorphology in="SourceAlpha" operator="dilate" radius="1" result="effect1_dropShadow_22_3262"/>
      <feOffset dy="4"/>
      <feGaussianBlur stdDeviation="2"/>
      <feComposite in2="hardAlpha" operator="out"/>
      <feColorMatrix values="0 0 0 0 0.760077 0 0 0 0 0.858475 0 0 0 0 0.932274 0 0 0 0.37 0"/>
      <feBlend in2="BackgroundImageFix" result="effect1_dropShadow_22_3262"/>
      <feBlend in="SourceGraphic" in2="effect1_dropShadow_22_3262" result="shape"/>
    </filter>
    <filter id="d" width="121" height="128" x="185" y="-7" color-interpolation-filters="sRGB" filterUnits="userSpaceOnUse">
      <feFlood flood-opacity="0" result="BackgroundImageFix"/>
      <feColorMatrix in="SourceAlpha" result="hardAlpha" values="0 0 0 0 0 0 0 0 0 0 0 0 0 0 0 0 0 0 127 0"/>
      <feMorphology in="SourceAlpha" operator="dilate" radius="1" result="effect1_dropShadow_22_3262"/>
      <feOffset dy="4"/>
      <feGaussianBlur stdDeviation="2"/>
      <feComposite in2="hardAlpha" operator="out"/>
      <feColorMatrix values="0 0 0 0 0.760077 0 0 0 0 0.858475 0 0 0 0 0.932274 0 0 0 0.37 0"/>
      <feBlend in2="BackgroundImageFix" result="effect1_dropShadow_22_3262"/>
      <feBlend in="SourceGraphic" in2="effect1_dropShadow_22_3262" result="shape"/>
    </filter>
  </defs>
</svg>