<svg xmlns="http://www.w3.org/2000/svg" fill="none" viewBox="0 0 256 160">
  <g clip-path="url(#a)">
    <path fill="#E6EAEF" d="M0 0h256v160H0z"/>
    <path fill="#E6EAEF" d="M0 0h256v160H0z"/>
    <rect width="203" height="118" x="26" y="21" fill="#fff" rx="12"/>
    <path fill="#fff" stroke="#C9C9C9" stroke-width=".5" d="M38.2 103.2h28.7c1.1 0 2 1 2 2v16.3c0 1.2-.9 2.2-2 2.2H38.2c-1.2 0-2.2-1-2.2-2.2v-16.2c0-1.1.9-2 2-2.1h.2Z"/>
    <path fill="#6C6BBD" d="M55.5 117h-6v-10.6h6V117Z"/>
    <path fill="#D32011" d="M50 111.7c0-2.2 1-4 2.5-5.3a6.7 6.7 0 1 0 0 10.6 6.7 6.7 0 0 1-2.6-5.3Z"/>
    <path fill="#0099DF" d="M63.4 111.7a6.7 6.7 0 0 1-10.9 5.3 6.7 6.7 0 0 0 0-10.6 6.7 6.7 0 0 1 11 5.3Z"/>
    <path fill="#110F0D" d="M57.5 120h.2v.4h-.3c-.3 0-.4 0-.4.4v1h-.4V120h.4v.2c.1-.1.2-.2.5-.2Zm-1.5.4h-.6v.8c0 .1 0 .3.3.3l.3-.1.1.3a1 1 0 0 1-.5.1c-.4 0-.6-.2-.6-.6v-.8h-.4v-.4h.4v-.5h.4v.5h.6v.4Zm-5 .3c0-.2.2-.4.5-.4s.4.2.5.4h-1Zm1.4.2c0-.6-.4-1-.9-1s-.9.4-.9 1 .4 1 1 1c.2 0 .5-.1.7-.3l-.2-.3-.5.2c-.3 0-.5-.1-.6-.5h1.4v-.1Zm1.7-.4-.6-.2c-.2 0-.3 0-.3.2 0 .1.1.2.3.2h.2c.4 0 .6.2.6.6 0 .3-.3.5-.8.5-.3 0-.6 0-.8-.2l.2-.3.6.2c.3 0 .4 0 .4-.2 0-.1-.1-.2-.3-.2h-.2c-.4-.1-.6-.3-.6-.6s.3-.5.7-.5l.8.1-.2.4Zm4.8-.2h-.2a.5.5 0 0 0-.3.4v.4a.5.5 0 0 0 .3.3h.4a.5.5 0 0 0 .3-.3v-.4a.5.5 0 0 0-.3-.3H59Zm0-.3a1 1 0 0 1 .7.2 1 1 0 0 1 .3.7 1 1 0 0 1-.3.7l-.3.2a1 1 0 0 1-1.1-.2 1 1 0 0 1-.3-.7 1 1 0 0 1 .3-.7l.3-.2h.4Zm-10.1.9c0-.3.2-.6.5-.6s.5.3.5.6-.2.6-.5.6-.5-.3-.5-.6Zm1.4 0v-.9h-.4v.2a.7.7 0 0 0-.5-.2c-.5 0-1 .4-1 .9s.5 1 1 1c.2 0 .4-.2.5-.3v.2h.4v-.9Zm-2.2.9v-1.1c0-.5-.3-.7-.7-.7-.2 0-.5 0-.6.3a.7.7 0 0 0-.6-.3c-.2 0-.4 0-.5.2v-.2h-.4v1.8h.4v-1c0-.3.1-.5.4-.5.3 0 .4.2.4.5v1h.4v-1c0-.3.2-.5.4-.5.3 0 .4.2.4.5v1h.4Z"/>
    <path fill="#fff" stroke="#C9C9C9" stroke-width=".5" d="M76.2 103.2h28.1c1.1 0 2 1 2 2v16.3c0 1.2-.9 2.2-2 2.2H76.2c-1.2 0-2.1-1-2.1-2.2v-16.2a2 2 0 0 1 2-2.1Z"/>
    <path fill="#FF5F00" d="M93.1 117h-5.8v-10.6h5.8V117Z"/>
    <path fill="#EB001B" d="M87.7 111.7c0-2.1 1-4 2.5-5.3a6.5 6.5 0 0 0-4-1.4 6.8 6.8 0 0 0-.1 13.5c1.6 0 3-.6 4.1-1.5a6.7 6.7 0 0 1-2.5-5.3Z"/>
    <path fill="#F79E1B" d="M101 111.7c0 3.7-3 6.8-6.7 6.8-1.5 0-3-.6-4-1.5a6.7 6.7 0 0 0 0-10.6 6.5 6.5 0 0 1 4-1.4c3.7 0 6.6 3 6.6 6.7Z"/>
    <path fill="#110F0D" d="M88.8 121.4c-.2 0-.3 0-.3-.2v-.8h.6v-.4h-.6v-.5h-.3v.5h-.4v.4h.4v.8c0 .4.1.6.6.6l.4-.1v-.3h-.4Zm1.5-1.4c-.5 0-.9.4-.9.9s.4.9 1 .9c.2 0 .4 0 .6-.2l-.2-.3-.5.2c-.2 0-.4-.1-.5-.5h1.3v-.1c0-.5-.3-.9-.8-.9Zm-.5.8c0-.3.2-.5.5-.5.2 0 .4.2.4.5h-.9Zm-2.8-.1h-.2c-.1 0-.3 0-.3-.2l.4-.2.5.2.1-.3-.6-.2c-.5 0-.7.2-.7.6 0 .2.2.4.5.5h.2c.2 0 .3 0 .3.2 0 0-.1.2-.4.2-.2 0-.4 0-.5-.2l-.2.3.7.2c.5 0 .8-.2.8-.6 0-.3-.2-.4-.6-.5Zm-1.6-.4a.6.6 0 0 0-.6-.3c-.4 0-.8.4-.8.9s.4.9.8.9c.2 0 .4 0 .6-.2v.2h.3V120h-.3v.2Zm-.5 1.2c-.3 0-.5-.3-.5-.6s.2-.5.5-.5.5.2.5.5-.2.6-.5.6ZM83 120c-.2 0-.4 0-.6.3a.6.6 0 0 0-.5-.3c-.2 0-.4 0-.5.3v-.2H81v1.7h.4v-1c0-.3.1-.4.4-.4.2 0 .4.1.4.4v1h.3v-1c0-.3.2-.4.4-.4.3 0 .4.1.4.4v1h.4v-1.1c0-.4-.3-.7-.7-.7Zm8.8.3v-.2h-.3v1.7h.3v-1c0-.3.1-.4.4-.4h.2l.1-.3h-.2c-.2-.1-.4 0-.5.2Zm7.2 0a.6.6 0 0 0-.4-.3c-.5 0-.9.4-.9.9s.4.9.9.9c.2 0 .4 0 .5-.2v.2h.4v-2.4H99v.9Zm-.4 1.2c-.3 0-.5-.3-.5-.6s.2-.5.5-.5.5.2.5.5-.2.6-.5.6Zm-1.6-1.2v-.2h-.5v1.7h.4v-1c0-.3.1-.4.4-.4h.2l.1-.3h-.3c-.1-.1-.3 0-.4.2Zm-1.3 0a.6.6 0 0 0-.5-.3c-.5 0-.9.4-.9.9s.4.9.9.9c.2 0 .4 0 .5-.2v.2h.4V120h-.4v.2Zm-.5 1.2c-.3 0-.5-.3-.5-.6s.2-.5.5-.5.5.2.5.5-.2.6-.5.6Zm-1.7-1.1.5.1.1-.3a.9.9 0 0 0-.6-.2c-.5 0-.9.4-.9.9s.4.9 1 .9c.2 0 .4 0 .5-.2l-.1-.3-.5.2c-.3 0-.5-.3-.5-.6s.2-.5.5-.5Z"/>
    <path fill="#fff" stroke="#C9C9C9" stroke-width=".5" d="M113.6 103.2h28.7a2 2 0 0 1 2.1 2v16.3c0 1.2-1 2.2-2.1 2.2h-28.7c-1.2 0-2.1-1-2.1-2.2v-16.2c0-1.1.8-2 1.9-2.1h.2Z"/>
    <path fill="#005CA8" d="M126.4 117h-1.9l1.2-7.2h1.9l-1.2 7.2Zm-3.4-7.2-1.8 5-.3-1.1-.6-3.2s0-.7-.9-.7h-3v.1s1 .2 2 .9l1.6 6.2h2l3-7.2h-2Zm14.7 7.2h1.8l-1.5-7.2h-1.6c-.7 0-.8.5-.8.5l-2.8 6.7h2l.3-1h2.4l.2 1Zm-2-2.5 1-2.7.5 2.7h-1.5Zm-2.7-3 .2-1.5s-.8-.3-1.7-.3c-1 0-3.1.4-3.1 2.4 0 1.8 2.6 1.8 2.6 2.8 0 1-2.4.8-3.1.2l-.3 1.6s.8.4 2 .4c1.4 0 3.3-.6 3.3-2.4 0-1.8-2.6-2-2.6-2.9 0-.8 1.8-.7 2.6-.3Z"/>
    <path fill="#F6A723" d="m121 113.7-.7-3.2s0-.7-.9-.7h-3v.1s1.4.3 2.8 1.4c1.3 1 1.7 2.4 1.7 2.4Z"/>
    <g filter="url(#b)">
      <rect width="31.5" height="20.5" x="151.3" y="103.3" fill="#fff" stroke="#D9D9D9" stroke-width=".5" rx="2.8"/>
      <path fill="#6461FC" d="M171.6 110.8c1.1 0 2.2 1 2.2 2.8 0 2-1 2.8-2.2 2.8-.6 0-1-.2-1.2-.3v1.7l-1.6.3V111h1.4l.1.4c.2-.2.6-.5 1.3-.5Zm-13.8 0 1.6.3v1.5c-.5-.3-1.1-.4-1.6-.4-.4 0-.6 0-.6.3 0 .7 2.5.4 2.5 2.2 0 1.1-1 1.7-2.3 1.7-.5 0-1.2 0-1.8-.3v-1.5c.6.3 1.3.5 1.8.5.4 0 .6 0 .6-.4 0-.7-2.4-.4-2.4-2.1 0-1.1.8-1.8 2.2-1.8Zm3.8.1h1.2v1.3h-1.2v2.2c0 1 1 .7 1.2.6v1.2c-.2.2-.6.2-1.1.2-1 0-1.7-.6-1.7-1.5v-5l1.6-.3v1.3Zm15 0c1.5 0 2.3 1.2 2.3 2.8v.5h-3.2c0 .7.6 1 1.3 1 .6 0 1.1-.2 1.5-.4v1.2c-.4.3-1 .4-1.7.4-1.6 0-2.7-.9-2.7-2.8 0-1.5 1-2.8 2.4-2.8Zm-11.8.5c.4-.7 1.2-.5 1.4-.5v1.5c-.2-.1-.9-.2-1.3.3v3.6h-1.6V111h1.4l.1.5Zm3.4 5h-1.6v-5.5h1.6v5.4Zm3-4.2a1 1 0 0 0-.8.3v2.3c.2.2.4.3.8.3.6 0 1-.6 1-1.5 0-.8-.4-1.4-1-1.4Zm5.3-.1c-.4 0-.8.3-.8 1h1.7c0-.7-.5-1-.9-1Zm-8.3-2-1.6.4v-1.3l1.6-.3v1.2Z"/>
    </g>
    <g filter="url(#c)">
      <rect width="31.5" height="20.5" x="188.3" y="103.3" fill="#fff" stroke="#D9D9D9" stroke-width=".5" rx="2.8"/>
      <path fill="#253B80" fill-rule="evenodd" d="M197 116.3h-1.4l-.2.2-.5 3.5v.1h.8l.2-.1.1-1 .2-.1h.5c.9 0 1.4-.5 1.6-1.3 0-.4 0-.7-.2-1-.2-.1-.6-.3-1-.3Zm.2 1.3c0 .5-.5.5-.8.5h-.2l.1-1h.2l.6.1.1.4Zm4.1 0h-.7l-.1.3c-.2-.3-.5-.4-.9-.4-.7 0-1.4.6-1.5 1.3 0 .4 0 .8.3 1 .2.3.5.4.8.4.6 0 1-.4 1-.4v.3h.7l.2-.1.3-2.3-.1-.1Zm-1 1.3c0 .3-.3.6-.7.6-.2 0-.4 0-.5-.2a.5.5 0 0 1 0-.4c0-.4.3-.7.7-.7.2 0 .3 0 .4.2l.2.5Zm4-1.3h.6c.1 0 .2.1.1.2l-2.2 3.1-.2.1h-.7s-.1-.1 0-.2l.6-1-.7-2v-.2h.7l.2.1.4 1.3 1-1.3.1-.1Z" clip-rule="evenodd"/>
      <path fill="#179BD7" fill-rule="evenodd" d="m211.7 120 .6-3.6h.9l-.5 3.6-.2.1h-.6l-.1-.1Zm-4.5-3.7h-1.4l-.2.2-.6 3.5.1.1h.8l.3-1 .1-.2h.5c1 0 1.5-.5 1.6-1.3 0-.4 0-.7-.2-1-.2-.1-.5-.3-1-.3Zm.2 1.3c-.1.5-.5.5-.9.5h-.2l.2-1h.2l.6.1v.4Zm4 0h-.8v.3a1 1 0 0 0-.8-.4c-.8 0-1.4.6-1.6 1.3 0 .4 0 .8.3 1 .2.3.5.4.9.4.6 0 .9-.4.9-.4v.3h.7l.2-.1.4-2.3-.2-.1Zm-.9 1.3c0 .3-.4.6-.8.6-.2 0-.3 0-.4-.2a.5.5 0 0 1-.1-.4c0-.4.3-.7.7-.7.2 0 .4 0 .5.2l.1.5Z" clip-rule="evenodd"/>
      <path fill="#253B80" d="m202.3 115 .2-1h-2.3l1.3-7.8.1-.1h3.2c1 0 1.7.2 2.1.6l.4.6v1.1l.1.1c.2 0 .3.2.4.3l.3.6v.9l-.5 1c-.1.3-.3.5-.6.6l-.8.4-1 .1h-.3c-.1 0-.3 0-.4.2-.2 0-.3.2-.3.4l-.3 2h-1.6Z"/>
      <path fill="#179BD7" d="M207.6 108.2v.2c-.5 2-1.9 2.7-3.7 2.7h-.9c-.2 0-.4.2-.4.4l-.5 2.8-.1.9s0 .2.2.2h1.6c.2 0 .4-.1.4-.3l.3-2c0-.2.2-.4.4-.4h.3c1.6 0 2.8-.6 3.2-2.4.1-.7 0-1.3-.4-1.8l-.4-.3Z"/>
      <path fill="#222D65" d="M207.2 108a3 3 0 0 0-.4 0h-3.5l-.2.2-.5 3.2c0-.1.2-.3.4-.3h1c1.7 0 3.1-.7 3.6-2.7v-.2l-.3-.1h-.1Z"/>
      <path fill="#253B80" d="m203.1 108.2.2-.3h2.6a5.2 5.2 0 0 1 1.3.1l.4.2c.1-.7 0-1.3-.4-1.7-.5-.5-1.3-.7-2.4-.7h-3.2c-.2 0-.4.1-.4.3l-1.3 8c0 .1 0 .2.3.2h1.9l.5-3 .5-3Z"/>
    </g>
    <rect width="184" height="23" x="36" y="67" fill="#4C515A" rx="6"/>
    <path fill="#fff" d="M112.7 81v-5.8h2.3c.5 0 .8 0 1.1.2.4.2.6.4.8.7l.2 1c0 .4 0 .8-.2 1-.2.4-.5.6-.8.8l-1.1.2h-1.5v-1h1.9l.3-.4.1-.5v-.6l-.4-.3-.6-.1h-.8V81h-1.3Zm6.3 0h-.7l-.6-.5-.1-.7v-.6l.5-.4.5-.3h.6a15.6 15.6 0 0 0 1-.2V78l-.1-.4a.7.7 0 0 0-.5-.1l-.5.1-.3.4-1-.1a1.5 1.5 0 0 1 .9-1.2l1-.1h.6l.6.3a1.3 1.3 0 0 1 .6 1.2V81h-1.2v-.6a1.2 1.2 0 0 1-.7.6h-.6Zm.4-.8h.4l.3-.3.2-.5V79h-.2a2.8 2.8 0 0 1-.5.1h-.2l-.4.2-.2.2v.5l.6.1Zm3.6 2.4a2.4 2.4 0 0 1-.8 0l.3-1h.7l.2-.3v-.2l-1.5-4.5h1.3l.9 3.2 1-3.2h1.2l-1.7 4.9-.3.6-.5.4-.8.1Zm10.7-7.4V81h-1l-2.6-3.7V81h-1.3v-5.8h1l2.6 3.6v-3.6h1.3Zm3 5.9c-.5 0-.9-.1-1.2-.3a2 2 0 0 1-.7-.8c-.2-.3-.3-.7-.3-1.2 0-.4 0-.8.3-1.1.1-.4.4-.6.7-.8a2 2 0 0 1 1.1-.3c.5 0 .9 0 1.2.3.3.2.5.4.7.8.2.3.3.7.3 1.1 0 .5-.1.9-.3 1.2a2 2 0 0 1-.7.8c-.3.2-.7.3-1.2.3Zm0-1 .4-.1.4-.5v-1.4a1 1 0 0 0-.4-.4.7.7 0 0 0-.5-.2c-.2 0-.3 0-.5.2a1 1 0 0 0-.3.4v1.4c0 .2.2.4.3.5l.5.1Zm3.6.9-1.2-4.4h1.3l.6 3 .8-3h1.2l.7 3 .7-3h1.2l-1.2 4.4h-1.2l-.8-2.7-.8 2.7h-1.3Z"/>
    <path fill="#DADADA" d="M37 38h183v2.8H37V38Zm0 6.6h183v2.8H37v-2.8Zm0 6.6h124V54H37v-2.8Z"/>
  </g>
  <defs>
    <filter id="b" width="72" height="61" x="131" y="83" color-interpolation-filters="sRGB" filterUnits="userSpaceOnUse">
      <feFlood flood-opacity="0" result="BackgroundImageFix"/>
      <feColorMatrix in="SourceAlpha" result="hardAlpha" values="0 0 0 0 0 0 0 0 0 0 0 0 0 0 0 0 0 0 127 0"/>
      <feOffset/>
      <feGaussianBlur stdDeviation="10"/>
      <feComposite in2="hardAlpha" operator="out"/>
      <feColorMatrix values="0 0 0 0 0 0 0 0 0 0 0 0 0 0 0 0 0 0 0.07 0"/>
      <feBlend in2="BackgroundImageFix" result="effect1_dropShadow_22_4650"/>
      <feBlend in="SourceGraphic" in2="effect1_dropShadow_22_4650" result="shape"/>
    </filter>
    <filter id="c" width="72" height="61" x="168" y="83" color-interpolation-filters="sRGB" filterUnits="userSpaceOnUse">
      <feFlood flood-opacity="0" result="BackgroundImageFix"/>
      <feColorMatrix in="SourceAlpha" result="hardAlpha" values="0 0 0 0 0 0 0 0 0 0 0 0 0 0 0 0 0 0 127 0"/>
      <feOffset/>
      <feGaussianBlur stdDeviation="10"/>
      <feComposite in2="hardAlpha" operator="out"/>
      <feColorMatrix values="0 0 0 0 0 0 0 0 0 0 0 0 0 0 0 0 0 0 0.07 0"/>
      <feBlend in2="BackgroundImageFix" result="effect1_dropShadow_22_4650"/>
      <feBlend in="SourceGraphic" in2="effect1_dropShadow_22_4650" result="shape"/>
    </filter>
    <clipPath id="a">
      <path fill="#fff" d="M0 0h256v160H0z"/>
    </clipPath>
  </defs>
</svg>